<?xml version="1.0" encoding="UTF-8"?>
<svg id="Layer_1" data-name="Layer 1" xmlns="http://www.w3.org/2000/svg" xmlns:xlink="http://www.w3.org/1999/xlink" viewBox="0 0 284.65 229.39">
  <defs>
    <style>
      .cls-1 {
        fill: #ffe7c5;
      }

      .cls-2 {
        fill: #ab3736;
      }

      .cls-3 {
        fill: #286c90;
      }

      .cls-4 {
        fill: #4a5864;
      }

      .cls-5 {
        fill: #113959;
      }

      .cls-6 {
        fill: #fbb264;
      }

      .cls-7 {
        fill: #e0eee9;
      }

      .cls-8 {
        fill: #f7e4cb;
      }

      .cls-9 {
        fill: #d16431;
      }

      .cls-10 {
        fill: #e8ab7d;
      }

      .cls-11 {
        fill: #fff;
      }

      .cls-12 {
        fill: #dce9e6;
      }

      .cls-13 {
        fill: #2e3d4b;
      }

      .cls-14 {
        fill: #878787;
      }

      .cls-15 {
        stroke: #cad9d6;
        stroke-width: 2px;
      }

      .cls-15, .cls-16 {
        fill: none;
        stroke-linecap: round;
      }

      .cls-15, .cls-16, .cls-17 {
        stroke-miterlimit: 10;
      }

      .cls-18 {
        fill: #f36d3d;
      }

      .cls-19 {
        fill: #4e3137;
      }

      .cls-20 {
        opacity: .46;
      }

      .cls-21 {
        opacity: .28;
      }

      .cls-16 {
        stroke: #71ae9c;
        stroke-width: .75px;
      }

      .cls-22 {
        fill: #71ae9c;
      }

      .cls-17 {
        fill: #f4c8a1;
        stroke: #d8ad8d;
        stroke-width: .3px;
      }

      .cls-23 {
        fill: #023f5b;
      }

      .cls-24 {
        fill: #fdcfa4;
      }

      .cls-25 {
        fill: #e54231;
      }

      .cls-26 {
        filter: url(#outer-glow-2);
      }

      .cls-26, .cls-27 {
        fill: #f9f6f2;
      }

      .cls-27 {
        filter: url(#outer-glow-1);
      }

      .cls-28 {
        fill: #504d4c;
      }

      .cls-29 {
        fill: #0c687d;
      }

      .cls-30 {
        fill: #dddabd;
      }

      .cls-31 {
        fill: #236689;
      }
    </style>
    <filter id="outer-glow-1" x="218.65" y="44.24" width="41.76" height="45.6" filterUnits="userSpaceOnUse">
      <feOffset dx="0" dy="0"/>
      <feGaussianBlur result="blur" stdDeviation="5.67"/>
      <feFlood flood-color="#231f20" flood-opacity=".75"/>
      <feComposite in2="blur" operator="in"/>
      <feComposite in="SourceGraphic"/>
    </filter>
    <filter id="outer-glow-2" x="198.49" y="43.28" width="41.76" height="45.6" filterUnits="userSpaceOnUse">
      <feOffset dx="0" dy="0"/>
      <feGaussianBlur result="blur-2" stdDeviation="5.67"/>
      <feFlood flood-color="#231f20" flood-opacity=".75"/>
      <feComposite in2="blur-2" operator="in"/>
      <feComposite in="SourceGraphic"/>
    </filter>
  </defs>
  <g>
    <g>
      <path class="cls-1" d="M133.16,201.64s-2.02,5.01-11.75,5.43c-8.46.36-11.76-3.24-11.76-3.24,0,0-.16-20.6-2.33-25.31-4.01-8.69-11.52-22.12-11.52-22.12-3.55,1.03-8.57.55-8.57.55,0,0,3.98,23.86-1.09,31.24-2.22,3.23-1.22,4.09-10.06,8.85-5.15,2.77-18.17,11.09-18.17,11.09,0,0-8.36,2.51-12.23-5.89-3.26-7.07.57-13.25.57-13.25,0,0,12.34-8.86,13.83-10.28.98-.93,2.22-2.15,1.82-2.92-1.7-3.27-3.33-11.33-3.9-14.58s-1.75-24.77-1.75-24.77l56.86-7s10.75,23.95,14.46,30.32c2.8,4.8,5.42,13.01,5.77,18.41.45,6.84-.18,23.49-.18,23.49Z"/>
      <path class="cls-1" d="M110.73,77.58c-.29-.19-1.71-1.15-1.99-1.2-.08-.01-.55.02-.82.06-.34.05-.82.12-.82.12-1.27,4.17-8.75,7.79-12.58,9.2-10.76,3.95-32.79,5.72-42.25-1.72-.48-.38-1.4-1.22-1.85-1.94-.76.69-1.98,1.74-2.82,2.3-.15.1-1.69.99-2.04,1.22-2.83,1.82-6.23,3.39-8.98,5.35-2.38,1.7-16.65,12.31-22.96,25.34,7.92,2.88,14.84,3.54,16.4,11.67,10.44-11.27,19.12-14.29,21.14-15.49,0,0,.74-.33,1.01-.09.21.16.28,2.06.4,3.67.21,3.06.86,6.1,1.33,9.18,5.27,1.55,10.63,2.85,16.13,3.28,11.26.88,31-1.3,40.04-8.58.85-.69,1.51-1.69,2.51-2.18-.07-2.15-.03-4.32-.18-6.47-.09-1.3-.58-3.28-.22-4.46.15-.3.6-.17.95-.01.51.26,2.82,1.01,3.46,1.28.5.1,14.17,6.28,22.6,3.83,2.1-.61,3.95-17.8.36-18.41-7.95-1.36-14-4.25-15.13-5.1-4.73-3.19-8.95-7.62-13.68-10.83Z"/>
      <path class="cls-1" d="M26.17,131.26c.12-.85-3.61-5.58-5-6.75-3.05-2.57-7.4-3.51-11.21-2.18-.14.05-2.09,1.66-2.37,1.91C4.86,126.64.09,132.42,0,136.11c-.04,1.81.42,3.6,2.3,4.25.03-.23,1.09.18,1.09.18-.29,1.21.97,3.4,2.26,3.28,1.4-.13,1.77-1.66,3.03-1.64.17,1.59.7,2.94,2.59,2.5,1.97-.46,3.62-4.75,4.97-6.33.41-.48,2.85-3,3.28-2.91.23.05.26.43.29.63.18,1.62.13,3.7.37,5.28.5,3.42,4.25,2.5,5.12-.87.28-1.07,1.09-8.67.88-9.23Z"/>
      <path class="cls-1" d="M163.73,98.38c-1.25-.91-2.31-1.11-3.79-1.3-.26-.03-.32.19-.53-.29,0,0-.03-.19,0-.18.08.03.43.02.55,0,1.04-.16,1.93-1.43,1.47-2.48-.98-2.25-5.29-2.63-7.39-2.44-3.06.28-5.64,1.93-8.29,3.28.19.16.28.58.73.55,1.59,5.05,1.33,9.75-.18,14.76-.04.13-.26.3-.18.55.57-.16,1.34-.13,1.97-.31,1.33-.38,2.45-1.05,3.74-1.49,1.24,1.17,2.58,3.74,4.58,3.44,3.06-.46.53-4.56-.26-6.01,1.53.54,4.14,3.86,5.65,1.74,1.7-2.39-.82-4.89-2.73-6.11.49.09,1.01.13,1.5.23,1.27.27,2.79,1.2,4.01.32,1.47-1.05.34-3.4-.82-4.25Z"/>
    </g>
    <g>
      <path class="cls-28" d="M42.88,220.51c-.17-.64-4.2-2.25-6.4-10.77-.75-2.89-2.09-5.25-1.16-14.82.15-1.5,0-2.34.98-3.08,1.08-.81,2.91-1.46,3.6-1.64.55-.14,1.01-.04,1.43-.12-.46.59-.93,1.07-1.23,1.77-2.04,4.67-.48,15.06,1.05,19.92s5.74,11.07,11.85,10.03c-2.8,2.31-7.52.81-10.11-1.28"/>
      <path class="cls-28" d="M141.16,222.5c.25,1.93-2.43,5.22-4.01,6.02-4.55,2.29-9.94-.38-14.02-2.53-3.17-1.67-6.74-3.9-9.56-6.11-2.6-2.05-6.02-4.88-4.95-8.59.11-.4.65-1.18.67-1.25,1.36,2.34,3.58,3.67,5.68,5.33,2.24,1.76,4.87,3.72,7.27,5.28,4.88,3.19,13.87,7.38,18.93,1.86Z"/>
    </g>
    <path class="cls-29" d="M131.94,169.89c-.81-2.69-1.37-4.32-3.57-8.67-3.55,4.56-8.87,7.81-14.16,10-2.69,1.11-5.18,2.12-8.05,2.59-.34.06-.72.27-1.03.04.37.52,2.33,5.59,2.93,8.03.11.44.5,2.46.61,3.1.11.02,10.79.87,17.83-2.27,6.59-2.94,6.66-4.42,6.87-4.47,0-.62-.54-5.46-1.41-8.35Z"/>
    <path class="cls-29" d="M88.7,176.37c0,1.33,1.83,7.67-3,13.73-3.45,4.32-7.14,5.71-7.43,5.72-3.54.14-8.54-.51-10.51-1.56-5.75-3.06-8.21-9.22-7.68-15.56.07-.12.11-.25.18-.36.31-.53.72-.96,1.09-1.64.17-.31.36-.61.55-.91,1.09,1.06,5.13,2.44,6.7,2.86,4.35,1.16,10.05,1.56,14.39.28,1.91-.56,4.02-1.53,5.7-2.56Z"/>
    <path class="cls-19" d="M133.71,182.71v-.73c.01.32,0,.52,0,.73Z"/>
    <path class="cls-30" d="M40.68,28.42c-.87,0-1.72,1.74-2.08,2.47-1.75,3.47-2.88,9.39-2.4,13.24.11.86.99,3.06,2.1,2.13.68-.57.52-4.89.62-5.94.12-1.2.33-2.82.56-4,.38-1.97,1.63-4.64,1.78-6.42.04-.47.15-1.5-.58-1.49Z"/>
    <path class="cls-7" d="M40.68,28.42c.73,0,.62,1.02.58,1.49-.15,1.78-1.4,4.45-1.78,6.42-.23,1.18-.44,2.8-.56,4-.1,1.05.06,5.37-.62,5.94-1.11.93-1.99-1.27-2.1-2.13-.48-3.85.65-9.78,2.4-13.24.37-.73,1.22-2.46,2.08-2.47Z"/>
    <path class="cls-7" d="M37.7,54.36c.97-.57,1.65,1.26,1.92,1.96s1.32,3.48.54,3.81c-1.89.78-3.26-5.29-2.47-5.76Z"/>
    <g>
      <g>
        <path class="cls-9" d="M63.75,64.43c-1.58-.82-3.16-1.7-4.17-3.24-.28-.43-.42-1.04-.62-1.37l1.94-1.05c1.19-1.83,1.67.36,2.01,1.56.38,1.34.59,2.82.84,4.1Z"/>
        <g>
          <path class="cls-17" d="M55.69,30.99c.54-.29,37.06-9.42,37.34-8.84.46.95,3.66,12,5.85,37.2.26,3-.47,6.16-2.11,8.74-.78,1.22-4.82,5.14-6.08,5.6-.19.04-.24.04-.32.05l-.45.34c-.08.06-.18.11-.28.13-5.87,1.32-11.82.71-16.79-2.97-.06-.04-.12-.09-.16-.15-.48-.61-4.27-3.23-2.59-1.26,4.61,5.43,13.07,7.79,19.6,4.75.1-.05.21-.07.32-.06h.02c.25.02.47.17.58.41,0,0,0,0,0,0,.14.3.47.46.79.38.37-.09.73-.14,1.11-.18.29-.03.58.12.69.39.71,1.67-.65,3.92-1.73,5.15-5.72,6.5-18.02,5.48-24.96,1.55-1.51-.86-3.41-2.04-4.15-3.73-.16-.37,0-.81.38-.95.72-.27,1.79-.7,1.85-.77.44-.45.58-2.11.55-2.76-.13-3.02-.8-6.4-1.38-9.38-.03-.13-.08-.24-.17-.34l-.11-.12c-.1-.11-.16-.25-.18-.4-.18-1.65-.57-3.17-1.18-4.54-.18-.4-.68-.54-1.03-.27-.54.41-1.15.72-1.8,1.05l-.35-.19c-.26-.44-.78-.25-1.24-.4-4.21-1.31-6.46-4.67-6.57-9.12-.02-.68.44-2.33.83-2.83-.3-.5,1.07-1.29,1.53-1.48,4.27-1.78-.35-12.6,2.17-14.99Z"/>
          <g>
            <path class="cls-10" d="M90.37,73.72c-.07.34-.08.53-.03.89-2.42,1.42-4.98,1.68-7.76,1.61-4.08-.11-8.93-2.29-11.85-5.19-.32-.32-1.88-1.93-1.14-2.26s2.63,1.61,3.33,2.1c5.82,4.05,10.55,4.27,17.45,2.85Z"/>
            <path class="cls-9" d="M88.64,54.12c.04-.08.08-.15.14-.17.35-.13,1.31-.47,1.46-.18,2.08-.59,2.97-.75,4.61.8.21.2.34.64.48.71.57.3,1.61-.55,2.49.96.73,1.24.25,3.11-.99,3.82-2.25,1.3-5.54,1.14-7.99.49-.87-.23-1.7-.91-2.12-1.72-.18-.09-1.16,1.05-1.44,1.3-3.14,2.75-6.05,3.66-10.14,2.47-1.77-.51-2.5-1.59-1.95-3.45.49-1.66,2.18-1.25,3.27-1.65.08-.03.67-1.06.96-1.35,2.85-2.83,4.4-.67,7.19-.74,1.19-.03,3.27-.27,4.04-1.3Z"/>
            <path class="cls-9" d="M74.31,36.5c1.23-.18,3.32-.35,3.89,1.13.89,2.32-1.73,1.38-2.85,1.38-1.23,0-2.4.35-3.5.87-.68.32-2.08,1.63-2.75.89-.49-.55-.08-1.33.27-1.84.99-1.45,3.28-2.18,4.93-2.43Z"/>
            <path class="cls-9" d="M86.94,35.74c.64-.85,2.92-1.45,3.95-1.5,1.21-.06,4.85.84,4.61,2.52-.17,1.18-3.29.03-4.17.1-.4.03-.71.25-1.08.29-.73.07-2.29.39-2.89.28-.81-.14-.85-1.11-.42-1.69Z"/>
            <path class="cls-13" d="M73.59,43.74c2.21-2.84,4.88,3.28,2,4.54-2.15.94-3.16-3.04-2-4.54Z"/>
            <path class="cls-13" d="M92.31,46.05c-.62.52-.86.51-1.58.51-2.7-.34-1.91-6.73.93-5.2,1.41.76,1.72,3.5.65,4.68Z"/>
            <path class="cls-10" d="M90.24,53.77c-.44.12-.96.73-1.6.35.08-.1.52-1.2.57-1.4.31-1.18-.34-2.37-.84-3.44-.91-1.97-2.34-3.74-3.25-5.63-.56-1.16.62-.6,1.16.03.98,1.16,3.75,6.22,4.02,7.66.16.86.14,1.59-.06,2.43Z"/>
            <path class="cls-4" d="M90.2,62.1c.34.28-1.43,2.02-1.72,2.26-2.36,1.61-4.36-.45-6.39-1.51,1.7-.53,3.6.43,5.35.22.9-.11,1.88-.72,2.76-.98Z"/>
          </g>
        </g>
      </g>
      <path class="cls-9" d="M51.99,47.46c-2.05-1.71-3.65-3.77-3.5-6.63.04-.84.89-1.7.88-1.8-.04-.36-1.78-1.85-2.08-2.4-.42-.77-.8-2.23-.81-3.1-.02-2.25,1.91-5.56,4.25-5.89-2.94-5.09.86-12.14,6.94-10.95.96-4.07,6.36-6.68,9.81-3.93.99-2.25,2.17-4.24,4.71-4.84,2.99-.71,4.56.49,5.83,3.15.23.02.21.01.32-.14.34-.46.52-.93.99-1.41,1.63-1.66,4.06-2.2,6.3-1.67,2.41.57,4.19,3.25,4.14,5.72,1.74-1.03,3.24-1.09,4.99-.06,3.32,1.95,4.9,6.16,2.47,9.45,2.38,1.68,3.02,4.44,2.25,7.19-.31,1.1-1.87,3.34-2.8,4.01-.25.18-.44.35-.77.35-.58-2.71-1.08-5.45-1.9-8.1-2.35,2.76-7.31,2.63-9.82.11-1.37,3.26-6.04,3.41-8.61,1.48-.25-.19-1.06-1.28-1.34-1.02-.55,2.95-4.49,3.77-6.99,3.37-.55-.09-1.38-.59-1.9-.34-.19.09-1.28,1.97-1.56,2.32-.21.27-1.18,1.33-1.39,1.48,0,.19-.06.34-.2.43.75,2.13,1.56,4.57,1.23,6.9-.01.08-.08.16-.17.23-.25,2.39-1.21,3.02-.83,5.67.25,1.73.8,3.59.73,5.37-.04,1.14-1.34,2.13-2.11,1.09-.81-1.09-1.36-4-2.24-5.41-1.18-1.91-3.67-2.76-5.65-1.53-.13.08-1.12.86-1.17.92Z"/>
    </g>
    <path class="cls-29" d="M113.01,128.58s.09.79.1.85l-2.2,1.59c-12.58,10.46-36.97,11.56-51.89,6.34-.91-.32-2.31-.67-2.78-.93-1.35-1.51-1.44-4.14-1.74-6.13.38.35,2.93,1.07,5.79,1.77,13.39,3.29,35.02,2.19,47.11-4.9,1.89-1.11,3.54-2.6,5.23-3.97.01.36.18,1.5.2,2,.05,1.22.06,2.2.16,3.4Z"/>
    <g>
      <path class="cls-14" d="M123.54,221.88c-13.09-8.57-14.26-11.85-14.26-11.85l.36-6.3s5.4,3.44,12.45,2.94c8.04-.57,11.07-5.02,11.07-5.02l-.36,5.19s13.65,14.73,6.27,18.24c-1.41.67-4.53,3.99-15.52-3.2Z"/>
      <path class="cls-14" d="M58.01,208.11h-.11c-9.78,1.92-14.31-5.72-13.26-14.61.19-1.58,1.04-3.04,1.59-4.51-1.3.46-3.5.81-4.92,1.09-.46.59-.93,1.07-1.24,1.77-2.04,4.67-.48,15.06,1.05,19.92,1.59,5.04,5.74,11.07,11.85,10.03,2.25-.39,3.93-3.06,4.7-5.06.95-2.48.41-8.63.33-8.63Z"/>
      <path class="cls-7" d="M38.86,73.63c-16.67-19.29-11.83-49.67,8.58-64.29C71.39-7.81,106.23-.94,118.61,26.68c6.8,15.16,4.49,37.19-8.56,48.42-.64.55-1.84,1.92-2.92,1.8-.14.01.17-1.34.17-1.34,1.31-1.15,3.23-2.89,4.53-4.37,6.78-7.73,9.99-20.71,8.92-30.78C117.21,7.08,80.7-8.08,52.63,7.78c-19.98,11.29-28.34,37.02-17.59,57.65,1.94,3.73,6.9,10.01,10.44,12.26,2.3,1.47,2.01,1.41,4.35,2.94.68.45,1.43,1.17.21,1.82-1.7-.88-4.27-2.69-6.04-3.88-2.72-1.83-5.13-4.92-5.13-4.92Z"/>
      <path class="cls-14" d="M8.68,142.19c-.4.03-.46.02-.87.27-.39-1.8.56-3.17,1.2-4.41.5-.96,3.08-5.44,3.96-5.54,1.83-.21-1.04,3.11-1.34,3.59-.49.8-2.7,3.79-2.95,6.07Z"/>
      <path class="cls-14" d="M2.3,139.63c.31-1.33,3.22-7.25,4.27-7.85.23-.13.88-.3,1.01-.17.41.41-1.67,3.23-1.97,3.77-.51.93-2.51,4.25-2.23,5.16h0c-.36-.06-.69-.25-1.09-.18-.08-.26-.05-.53,0-.73Z"/>
      <path class="cls-14" d="M159.4,96.56c.02.1,0,.19,0,.24.03.09.22.31.22.31-.05.05-2,.47-2.77.61.07.52.51.68.65,1.26.78,3.23-3.78,5.89-6.54,5.08-.64-.19-.65-1.01,0-1.2.58-.17,1.47.04,2.13-.05,1.75-.24,3.55-1.78,3.16-3.68-.05-.23-.41-.94-.58-1.06-.49-.34-1.22.13-1.19-.81.02-.85,3.75-1.13,4.46-.99.37.07.43.2.45.31Z"/>
      <path class="cls-22" d="M112.65,123.55c-1.69,1.37-3.34,2.87-5.23,3.97-12.09,7.1-33.75,8.31-47.11,4.9-1.77-.45-2.79-.86-4.41-1.29-.3-.08-1.24-.55-1.39-.84-.27-1.81-.45-3.49-.73-5.3,5.27,1.55,10.63,2.68,16.13,3.11,11.26.88,31-1.3,40.04-8.58.85-.69,1.6-1.29,2.61-1.77.02.48.08,5.7.09,5.79Z"/>
      <path class="cls-14" d="M30,127.97c-.32,2.33-3.81,4.26-3.83,4.01.02-1.79-3.61-6.3-5.01-7.48-3.05-2.57-7.4-3.51-11.21-2.18-.02-.43-.22-.74-.17-1.34.14-1.58,1.8-3.9,3.27-4.49.16-.06.38-.13.55-.18,2.61-.83,5.54-.23,8.06.78,3.89,1.55,8.96,6.38,8.34,10.89Z"/>
      <path class="cls-14" d="M143.37,93.36c2.36.14,2.64,1.03,2.84,1.37,1.95,4.91,1.72,11.25-.11,16.1-.74,1.07-1.61,1.29-2.69,1.59-1.44.41-4.32-.09-4.24-.5.28-1.35,1.17-2.63,1.55-4.01.93-3.37,1.39-11.7-1.19-14.4.02,0,.21-.19.44-.19,2.6-.02,1.18-.1,3.39.04Z"/>
    </g>
    <path class="cls-29" d="M130.74,91.25c-.45,5.7-3.03,14.93-6.83,19.44,0,0-2.66-.76-3.53-1.07s-3.44-1.39-3.44-1.39c1.55-1.55,3.13-4.01,4.11-5.96,2.1-4.2,3.41-9.15,3.37-13.86,1.54,1.04,6.33,2.84,6.33,2.84Z"/>
    <path class="cls-29" d="M29.57,96.6c7.92,2.88,13.82,11.03,15.38,19.16-1.67,1.37-1.3.95-2.31,1.65-.44.3-2.78,1.66-2.78,1.66-.46-.82-2.99-7.64-6.44-11.24-3.78-3.93-9.07-6.24-9.07-6.24,2.66-2.92,4.53-4.46,5.22-4.99Z"/>
    <path class="cls-5" d="M58.36,71l-1.21,8.68,7.84,2.99s.6-4.37.46-5.93c-.4-4.46-.74-7.07-.74-7.07l-6.35,1.33Z"/>
    <path class="cls-5" d="M90.36,73.82c-.1.26-.04.73-.04.73l.65,3.81s6.37-.37,6.92-5.13c.17-1.45-1.54-4.48-2.83-3.16s-3.73,3.68-4.65,3.73c-.03,0-.04.02-.05.04Z"/>
    <path class="cls-5" d="M103.17,72.6l-5.38-4.59c21.68,5.72,3.65,20.17-22.56,21.49-24.46,1.23-37.27-11.94-11.13-23.22l-5.12,5.2c-12.95,5.64-1.2,15.1,20.14,13.12,11.65-1.08,31.92-7.72,24.04-11.99Z"/>
    <path class="cls-29" d="M95.06,70.05s1.1-1.14,1.42-1.53c.64-.8.96-1.59.96-1.59,21.52,5.72,3.62,20.17-22.39,21.49-24.27,1.23-37.11-11.12-10.99-22.39l.65,3.64c-12.85,5.64-5.96,13.06,15.22,11.07,11.56-1.08,22.95-6.42,15.13-10.69Z"/>
    <path class="cls-29" d="M102.79,113.65c-1.23,1.41-3.2,1.9-4.94,1.22l-6.18-2.27c-1.07-.39-1.84-1.35-2.01-2.48l-1.72-11.94c-.2-1.38.69-2.68,2.05-3l12.67-2.96c1.23-.29,2.45.5,2.69,1.74l2.51,12.96c.15.76-.08,1.54-.62,2.09l-4.45,4.63Z"/>
    <path class="cls-22" d="M101.63,109.05l-4.29,1.05c-.45.11-.93,0-1.28-.3l-3.87-3.3c-.41-.35-.59-.89-.47-1.42l1.21-5.43c.12-.54.53-.96,1.07-1.09l5.44-1.33c.53-.13,1.09.05,1.45.47l3.37,3.96c.34.4.44.95.26,1.44l-1.87,5.06c-.17.45-.55.79-1.01.9Z"/>
    <path class="cls-29" d="M100.57,107.38l-3.03.74c-.27.07-.56,0-.78-.18l-2.73-2.32c-.25-.21-.36-.54-.29-.86l.85-3.82c.07-.33.32-.58.65-.66l3.83-.94c.32-.08.66.03.88.28l2.38,2.79c.21.24.27.58.16.87l-1.31,3.55c-.1.27-.33.48-.61.55Z"/>
    <line class="cls-16" x1="97.43" y1="106.6" x2="100.07" y2="105.95"/>
    <line class="cls-16" x1="95.48" y1="104.49" x2="96.03" y2="102.04"/>
    <line class="cls-16" x1="100.66" y1="103.16" x2="99.09" y2="101.32"/>
  </g>
  <polygon class="cls-23" points="204.98 129.07 199.67 121.31 201.18 119.87 205.31 122.43 207.89 127.05 204.98 129.07"/>
  <path class="cls-2" d="M242.46,154.87c-7.07,0-12.81-.77-12.81-1.71s5.73-1.71,12.81-1.71,12.81.77,12.81,1.71-5.73,1.71-12.81,1.71ZM242.46,150.4c-8.42,0-15.25,1.24-15.25,2.76s6.83,2.76,15.25,2.76,15.25-1.24,15.25-2.76-6.83-2.76-15.25-2.76Z"/>
  <path class="cls-25" d="M242.46,156.85c-5.78,0-10.47.85-10.47,1.9s4.69,1.9,10.47,1.9,10.47-.85,10.47-1.9-4.69-1.9-10.47-1.9ZM242.46,159.92c-4.86,0-8.79-.53-8.79-1.18s3.94-1.18,8.79-1.18,8.79.53,8.79,1.18-3.94,1.18-8.79,1.18Z"/>
  <path class="cls-18" d="M243.21,162.28c-3.33,0-6.03.69-6.03,1.54s2.7,1.54,6.03,1.54,6.03-.69,6.03-1.54-2.7-1.54-6.03-1.54ZM243.21,164.77c-2.8,0-5.06-.43-5.06-.95s2.27-.95,5.06-.95,5.06.43,5.06.95-2.27.95-5.06.95Z"/>
  <path class="cls-6" d="M243.58,167.45c-1.66,0-3.01.37-3.01.82s1.35.82,3.01.82,3.01-.37,3.01-.82-1.35-.82-3.01-.82ZM243.58,168.77c-1.4,0-2.53-.23-2.53-.51s1.13-.51,2.53-.51,2.53.23,2.53.51-1.13.51-2.53.51Z"/>
  <path class="cls-29" d="M259.47,148.95s-5.65,2.8-16.96,2.8-17.32-2.8-17.32-2.8l-.71-4.43h35.73l-.75,4.43Z"/>
  <polygon class="cls-23" points="282.71 130.28 272.84 131.55 272.42 129.14 277.12 127.19 282.4 127.54 282.71 130.28"/>
  <path class="cls-8" d="M282.99,129.37s0-5.6-4.79-15.4c-1.84-3.75-8.16-12.32-9.98-14.75-.59-3.3-3.07-5.27-10.96-7.06-4.56-1.03-13.71-1.1-18.37-.72-5.58.46-17.53,1.7-21.43,5.71-.28.28-.53.64-.76,1.04-1.78,1.92-6.94,8.55-15.55,21.2-1.54,2.26,6.09,8.78,7.35,7.88.98-.7,6.2-2.87,6.97-4.79,1.96,8.67,5.42,18.17,7.33,19.74,4.4,3.63,14.22,4.17,19.39,4.31,5.29.14,18.56-.81,20.38-5.79,1.94-5.3,3.35-11.9,4.25-18.67,2,2.18,5.62,8.77,5.62,8.77,0,0,.92-1.47,4.67-2.24,3.11-.64,5.9.77,5.9.77Z"/>
  <path class="cls-29" d="M250.24,103.14c-3.61,1.58-10.68,1.57-14.49,1.23-9.6-.85-10.95-1.82-13.98-3.42-1.27-.67-.97-6.03-.14-6.47,1.3-.7,12.81-4.62,17.54-4.84,6.05-.28,23.41,3.38,23.85,4.21.51.98-9.16,7.7-12.78,9.29Z"/>
  <path class="cls-23" d="M248.48,98.09c-2.16,1.64-7.8,2.15-10.48,2.17-3.72.02-8.19,1.14-12.33-5.3-.38-.59,0-2.8,0-2.8l27.03-2.53-.49,3.79s-.02,1.85-3.74,4.67Z"/>
  <g>
    <path class="cls-31" d="M267.51,63.35l-.18-.18c.05.07.13.11.18.18Z"/>
    <path class="cls-8" d="M249.74,92.12c-6.71,1.56-20.78,1.62-27.56.39-15.19-2.74-14.43-6.24-15.99-10.8-1.18-3.47.25-14.82.47-22.98.24-9.25,8.97-13.42,29.59-14,18.67-.53,31.51,5.38,31.17,14.92-.22,6.05-1.4,18.63-4.55,23.8-2.05,3.36-4.17,6.58-13.13,8.67Z"/>
    <path class="cls-5" d="M241.24,86.79c-16.76-.32-16.53-.27-23.94-1.87-5.63-1.22-7.68-4.02-7.92-8.87-.34-6.76-.56-12.32-.06-16.51.25-2.14.31-7.17,10.04-6.98,6.11.12,6.38-.83,22.81.98,6.12.96,9.67,3.46,9.89,10.69,0,0,.5,6.66,0,12.47-.65,7.48-3.13,9.91-10.82,10.09Z"/>
    <ellipse class="cls-27" cx="239.48" cy="67.06" rx="3.73" ry="5.67"/>
    <path class="cls-23" d="M267.42,71.46c0,5.75-.67,9.71-5.6,10.41-3.06.43-5.6-4.66-5.6-10.41s2.51-10.55,5.6-10.41c5.6.26,5.6,4.66,5.6,10.41Z"/>
    <ellipse class="cls-26" cx="219.36" cy="65.99" rx="3.73" ry="5.67"/>
    <path class="cls-5" d="M241.41,45.11c0,1.74-2.49,2.03-5.57,2.03s-5.57-.3-5.57-2.03,1.8-2.57,4.88-2.57,6.26.83,6.26,2.57Z"/>
    <path class="cls-29" d="M237.95,34.28c3.83.24,3.58-4.03,1.47-4.89-2.51-1.02-4.74,2.05-2.98,3.73,0,0-2.09,4.68-2.7,10.26-.06.52,2.05.52,2.1,0,.44-4.25,2.1-9.1,2.1-9.1Z"/>
    <path class="cls-29" d="M268.22,71.46c0,5.75-.67,9.71-5.6,10.41-3.06.43-5.6-4.66-5.6-10.41s2.51-10.55,5.6-10.41c5.6.26,5.6,4.66,5.6,10.41Z"/>
    <path class="cls-5" d="M266.88,70.94c0,3.22-.33,6.45-3.09,6.85-1.71.24-2.26-2.79-2.26-6.01,0-2.92.53-5.51,2.26-5.64,1.86-.14,3.09,1.59,3.09,4.81Z"/>
  </g>
  <path class="cls-29" d="M245.89,94.34c.57-.18,1.12-.33,1.7-.55.31-.11.51-.44.46.19-.43.28-.83.85-1.38,1.23-4.99,3.35-12.3,2.83-17.41.02-.24-.13-.55-.08-.46-.52,1.83.23,3.65.57,5.49.72,4.34.35,7.46.22,11.61-1.08Z"/>
  <path class="cls-5" d="M210.37,104.55c2.89-4.78,6.75-6.81,6.75-6.81,0,0-2.52,5.19-2.87,11.02-.31,5.09.89,11.49.89,11.49-2.91-2.31-4.37-4.95-5.49-7.21-1.79-3.59-.31-6.78.72-8.48Z"/>
  <path class="cls-22" d="M260.98,144.25c-.88,1.6-5.9,2.79-7.64,3.15-7.65,1.56-17.75,1.32-25.24-1.03-.32-.1-2.98-.91-4.01-1.57-.41-.26-.33-.82-.41-1.93,6.6,3.74,20.87,4.23,28.22,2.92,2.47-.44,7.31-1.72,9.29-3.19.08.02.03,1.21-.22,1.66Z"/>
  <path class="cls-3" d="M257.25,171.23l.18-.18c-.03.11-.18.17-.18.18Z"/>
  <path class="cls-29" d="M266.8,122.06c-.28,2.23-.67,4.44-.67,4.44-8.15-.43-10.5-6.04-10.5-13.77s7.92-16.91,12.58-13.52c0,0-4.06,9.78-4.38,15.45-.34,6.12,2.96,7.4,2.96,7.4Z"/>
  <path class="cls-5" d="M258.28,113.01c-.33-10.12,5.85-14.52,8.43-14.52s9.75,6.94,9.79,12.57c0,.51-1.49-3.6-6.73,1.43-6.91,6.64-1.75,9.57-2.98,9.57-2.58,0-8.29-1.97-8.52-9.05Z"/>
  <path class="cls-8" d="M284.07,133.39s-1.99,1.87-5.42,2.2c-3.44.33-6.1-1.3-6.1-1.3,0,0,0,6.38,2.37,13.47l8.07,2.37c2.96-6.61,1.08-16.74,1.08-16.74Z"/>
  <ellipse class="cls-29" cx="278.13" cy="132.71" rx="6.38" ry="3.35" transform="translate(-11.83 28.34) rotate(-5.71)"/>
  <polygon class="cls-23" points="282.44 151.49 274.89 149.41 274.97 147.78 282.88 150.1 282.44 151.49"/>
  <path class="cls-14" d="M275.02,149.51c1.55.3,3.23.11,4.73.73.21.09,3.37,1.61,3.37,1.61.07.51.6,1.01.7,1.73.61,4.38-2.53,14.21-5.56,12.35-.25-.16-.12-1.61,0-2.01.29-.25.14-.49,0,0-1.26,1.07-2.33,2.18-4.19,1.76-2.38-.53.35-3.9.84-4.84.56-1.07,1.22-3.76.11-4.57-1.98-1.43-3.26,3.11-5.44,2.57-2.57-.64.13-4.25.94-5.36.21-.29.32-.67.36-.72.02-.02.23-.22.36-.36.02-.02,2.48-2.19,3.78-2.88Z"/>
  <path class="cls-28" d="M279.42,158.34c-.25,2.71-1.99,6.23-1.29,5.48.19-.2,1.1-1.75,1.52-3.19.31-1.05.35-3.14-.23-2.29"/>
  <path class="cls-8" d="M199.74,131.72s-1.79-2.31-.44-5.48-.99-5.37-.99-5.37c0,0-5.61-3.05-12.97-4.36l-5.94,5.96c4.4,5.76,20.33,9.24,20.33,9.24Z"/>
  <polygon class="cls-23" points="178.48 121.35 183.91 115.71 185.31 116.56 179.49 122.4 178.48 121.35"/>
  <path class="cls-14" d="M183.91,115.71c-.46,1.51-1.61,2.8-2.02,3.24-.78.84-2.49,2.44-2.49,2.44-.52.02-1.06.49-1.79.52-4.42.14-13.86-4.02-11.69-6.84.18-.24,1.61.05,2,.21.22.32.47.19,0,0-.93-1.36-1.92-2.55-1.31-4.35.78-2.31,3.84.76,4.73,1.35,1.01.67,3.61,1.61,4.53.59,1.63-1.82-2.75-3.57-1.98-5.68.91-2.49,4.21.58,5.23,1.51.26.24.63.39.68.43.02.02.19.25.32.4.02.02,3.24,4.82,3.79,6.18Z"/>
  <path class="cls-29" d="M202.59,131.49c-.79.36-5.44,2.27-3.57-5.19,1.07-4.28-1.18-5.26-.53-5.76.49-.37,2.69,1.02,4.6,3.98s3.57,5.09-.5,6.97Z"/>
  <g>
    <path class="cls-12" d="M180.7,142.19c-8.97.07-8.97.12-17.82-1.38-2.34-.4-3.89-2.58-3.01-4.75l9.31-21.47c.28-.68.44-1.4.5-2.13l.61-7.9,8.66.67-.61,7.9c-.06.73,0,1.46.17,2.18l5.89,22.64c.54,2.28-1.32,4.21-3.7,4.23Z"/>
    <path class="cls-6" d="M181.21,129.91l1.77,7.51c.47,2.01-1.17,3.71-3.26,3.73-7.9.06-7.9.11-15.7-1.22-2.07-.35-3.42-2.27-2.65-4.18l2.37-5.83"/>
    <path class="cls-24" d="M181.21,129.91c.03-.45-3.48-.19-8.51-.12-4.96.07-8.92-.33-8.96.12s3.88,1.74,8.83,1.5c5.28-.26,8.6-1.05,8.63-1.5Z"/>
    <g class="cls-20">
      <path class="cls-11" d="M177.64,105.14c-.02,3.51-.75,7.15.07,10.62.88,3.87,2.31,11.14,3.1,15.1.14.76.89,4.73,1.02,5.41.62,2.43,0,4.01-2.76,4.31.26-.96.95-1.61,1.01-2.24,0-.73-.36-1.96-.53-2.75l-1-4.29-1.91-8.59c-.63-3.47-1.99-7.61-1.68-11.15.21-2.12.42-4.49.68-6.6,0,0,1.99.15,1.99.15h0Z"/>
    </g>
    <g class="cls-21">
      <path class="cls-11" d="M172.5,104.74c-.12,2.83-.26,5.48-.46,8.34-.1,1.11-.42,2.27-.88,3.3-2.81,6.66-5.81,13.38-8.82,19.94-.09.35-.64,1.49-.51,2.08,0,0-.07-.1-.07-.1.33.63.64,1.28.82,2.04-.74-.27-1.34-.66-1.92-1.07-.5-.5-.75-1.42-.62-2.1.09-.64.26-1.13.44-1.65,2.55-6.36,5.23-12.83,7.97-19.12.52-1.15,1.06-2.34,1.21-3.62.32-2.64.52-5.48.86-8.2l1.99.15h0Z"/>
    </g>
    <line class="cls-15" x1="170.3" y1="104.57" x2="178.96" y2="105.24"/>
  </g>
  <path class="cls-14" d="M173.96,109.59c0,.87,1.34,1.57,2.99,1.57s3.07,6.55,2.99-1.57c0-.87-1.34-1.57-2.99-1.57s-2.99.7-2.99,1.57Z"/>
  <path class="cls-14" d="M171.34,112.28c1.06.83.13,2.08-1.11,2.08s-3.22-.3-3.22-1.64-.58-2.64.66-2.64,2.17,1.03,3.67,2.2Z"/>
  <path class="cls-14" d="M170.89,116.93c1.06.64.13,1.59-1.11,1.59s-3.22-.23-3.22-1.26-.58-2.02.66-2.02,2.17.79,3.67,1.68Z"/>
  <path class="cls-29" d="M238.02,134.94c-1.48,1.14-3.52,1.23-5.09.22l-5-4.56c-.97-.6-1.19-1.78-1.32-2.92-.27-2.39-.32-3.75-.37-4.99-.07-1.59-.12-6.32-.12-6.32.08-1.39,1.21-2.49,2.6-2.53,0,0,4.49.46,6.02.51,3.42.1,5.72.06,5.72.06,1.26-.04,2.78.76,2.77,2.02,0,0-.03,7.03.34,12.07.06.77-.39,1.49-1.02,1.93l-4.53,4.51Z"/>
  <path class="cls-22" d="M237.02,130.35l-4.43-.16c-.44-.02-.84-.23-1.1-.58l-3.27-4.34c-.32-.42-.38-.99-.16-1.47l2.17-4.78c.24-.53.78-.87,1.37-.85l5.62.21c.51.02.97.31,1.22.75l2.63,4.83c.25.46.23,1.03-.05,1.48l-2.73,4.24c-.28.43-.76.68-1.27.66Z"/>
  <path class="cls-29" d="M236.31,128.45l-3.13-.12c-.26,0-.51-.14-.67-.35l-2.29-3.04c-.19-.26-.23-.6-.1-.89l1.54-3.38c.15-.32.48-.53.83-.51l3.96.15c.31.01.59.19.74.46l1.85,3.4c.15.28.14.63-.03.9l-1.92,2.99c-.17.26-.46.41-.77.4Z"/>
  <line class="cls-16" x1="233.4" y1="126.84" x2="236.13" y2="126.94"/>
  <line class="cls-16" x1="231.88" y1="124.28" x2="232.88" y2="122.08"/>
  <line class="cls-16" x1="237.24" y1="124.42" x2="236.04" y2="122.22"/>
</svg>