<?xml version="1.0" encoding="UTF-8"?>
<svg id="a" data-name="Layer 1" xmlns="http://www.w3.org/2000/svg" viewBox="0 0 566.93 314.43">
  <defs>
    <style>
      .b {
        fill: #111e25;
      }

      .c, .d, .e, .f, .g, .h, .i, .j, .k, .l, .m {
        fill: none;
        stroke-linejoin: round;
      }

      .c, .e, .i {
        stroke-linecap: round;
      }

      .c, .f, .h, .l {
        stroke: #efc47b;
      }

      .c, .i {
        stroke-width: .71px;
      }

      .d, .g, .i, .m {
        stroke: #97a4ab;
      }

      .d, .h, .k {
        stroke-width: .75px;
      }

      .e {
        stroke: #010101;
        stroke-width: .14px;
      }

      .e, .n, .o {
        opacity: .8;
      }

      .n, .p {
        fill: #efc47b;
      }

      .f, .j, .m {
        stroke-width: 1.5px;
      }

      .f, .m {
        opacity: .5;
      }

      .o, .q {
        fill: #97a4ab;
      }

      .j, .k {
        stroke: #111e25;
      }
    </style>
  </defs>
  <g>
    <g>
      <path class="q" d="M246.28,102.14c0-.8.66-1.44,1.46-1.44s1.46.64,1.46,1.44-.66,1.46-1.46,1.46-1.46-.66-1.46-1.46"/>
      <path class="i" d="M246.28,102.14c0-.8.66-1.44,1.46-1.44s1.46.64,1.46,1.44-.66,1.46-1.46,1.46-1.46-.66-1.46-1.46"/>
      <path class="q" d="M268,129.54c0-.8.66-1.46,1.46-1.46s1.46.66,1.46,1.46-.66,1.44-1.46,1.44-1.46-.64-1.46-1.44"/>
      <path class="i" d="M268,129.54c0-.8.66-1.46,1.46-1.46s1.46.66,1.46,1.46-.66,1.44-1.46,1.44-1.46-.64-1.46-1.44"/>
      <path class="q" d="M289.72,151.6c0-.82.66-1.46,1.46-1.46s1.46.64,1.46,1.46-.66,1.44-1.46,1.44-1.46-.64-1.46-1.44"/>
      <path class="i" d="M289.72,151.6c0-.82.66-1.46,1.46-1.46s1.46.64,1.46,1.46-.66,1.44-1.46,1.44-1.46-.64-1.46-1.44"/>
      <path class="q" d="M311.44,170.96c0-.8.66-1.46,1.46-1.46s1.46.66,1.46,1.46-.66,1.46-1.46,1.46-1.46-.66-1.46-1.46"/>
      <path class="i" d="M311.44,170.96c0-.8.66-1.46,1.46-1.46s1.46.66,1.46,1.46-.66,1.46-1.46,1.46-1.46-.66-1.46-1.46"/>
      <path class="q" d="M333.18,193.26c0-.8.64-1.46,1.44-1.46s1.46.66,1.46,1.46-.66,1.44-1.46,1.44-1.44-.64-1.44-1.44"/>
      <path class="i" d="M333.18,193.26c0-.8.64-1.46,1.44-1.46s1.46.66,1.46,1.46-.66,1.44-1.46,1.44-1.44-.64-1.44-1.44"/>
      <path class="q" d="M354.9,196.68c0-.8.66-1.44,1.46-1.44s1.44.64,1.44,1.44-.64,1.46-1.44,1.46-1.46-.64-1.46-1.46"/>
      <path class="i" d="M354.9,196.68c0-.8.66-1.44,1.46-1.44s1.44.64,1.44,1.44-.64,1.46-1.44,1.46-1.46-.64-1.46-1.46"/>
      <path class="q" d="M376.62,216.86c0-.8.66-1.46,1.46-1.46s1.44.66,1.44,1.46-.64,1.46-1.44,1.46-1.46-.66-1.46-1.46"/>
      <path class="i" d="M376.62,216.86c0-.8.66-1.46,1.46-1.46s1.44.66,1.44,1.46-.64,1.46-1.44,1.46-1.46-.66-1.46-1.46"/>
      <path class="q" d="M398.34,219.44c0-.8.66-1.44,1.46-1.44s1.46.64,1.46,1.44-.66,1.46-1.46,1.46-1.46-.66-1.46-1.46"/>
      <path class="i" d="M398.34,219.44c0-.8.66-1.44,1.46-1.44s1.46.64,1.46,1.44-.66,1.46-1.46,1.46-1.46-.66-1.46-1.46"/>
      <path class="p" d="M246.28,156.42c0-.8.66-1.46,1.46-1.46s1.46.66,1.46,1.46-.66,1.44-1.46,1.44-1.46-.64-1.46-1.44"/>
      <path class="c" d="M246.28,156.42c0-.8.66-1.46,1.46-1.46s1.46.66,1.46,1.46-.66,1.44-1.46,1.44-1.46-.64-1.46-1.44"/>
      <path class="p" d="M268,183.66c0-.8.66-1.46,1.46-1.46s1.46.66,1.46,1.46-.66,1.46-1.46,1.46-1.46-.66-1.46-1.46"/>
      <path class="c" d="M268,183.66c0-.8.66-1.46,1.46-1.46s1.46.66,1.46,1.46-.66,1.46-1.46,1.46-1.46-.66-1.46-1.46"/>
      <path class="p" d="M289.72,181.04c0-.8.66-1.44,1.46-1.44s1.46.64,1.46,1.44-.66,1.46-1.46,1.46-1.46-.64-1.46-1.46"/>
      <path class="c" d="M289.72,181.04c0-.8.66-1.44,1.46-1.44s1.46.64,1.46,1.44-.66,1.46-1.46,1.46-1.46-.64-1.46-1.46"/>
      <path class="p" d="M311.44,199.16c0-.8.66-1.44,1.46-1.44s1.46.64,1.46,1.44-.66,1.46-1.46,1.46-1.46-.66-1.46-1.46"/>
      <path class="c" d="M311.44,199.16c0-.8.66-1.44,1.46-1.44s1.46.64,1.46,1.44-.66,1.46-1.46,1.46-1.46-.66-1.46-1.46"/>
      <path class="p" d="M333.18,223.1c0-.8.64-1.46,1.44-1.46s1.46.66,1.46,1.46-.66,1.44-1.46,1.44-1.44-.64-1.44-1.44"/>
      <path class="c" d="M333.18,223.1c0-.8.64-1.46,1.44-1.46s1.46.66,1.46,1.46-.66,1.44-1.46,1.44-1.44-.64-1.44-1.44"/>
      <path class="p" d="M354.9,229.74c0-.8.66-1.46,1.46-1.46s1.44.66,1.44,1.46-.64,1.46-1.44,1.46-1.46-.66-1.46-1.46"/>
      <path class="c" d="M354.9,229.74c0-.8.66-1.46,1.46-1.46s1.44.66,1.44,1.46-.64,1.46-1.44,1.46-1.46-.66-1.46-1.46"/>
      <path class="p" d="M376.62,230.54c0-.8.66-1.46,1.46-1.46s1.44.66,1.44,1.46-.64,1.46-1.44,1.46-1.46-.66-1.46-1.46"/>
      <path class="c" d="M376.62,230.54c0-.8.66-1.46,1.46-1.46s1.44.66,1.44,1.46-.64,1.46-1.44,1.46-1.46-.66-1.46-1.46"/>
      <path class="p" d="M398.34,227.38c0-.8.66-1.44,1.46-1.44s1.46.64,1.46,1.44-.66,1.46-1.46,1.46-1.46-.66-1.46-1.46"/>
      <path class="c" d="M398.34,227.38c0-.8.66-1.44,1.46-1.44s1.46.64,1.46,1.44-.66,1.46-1.46,1.46-1.46-.66-1.46-1.46"/>
      <line class="d" x1="245.02" y1="81.6" x2="250.46" y2="81.6"/>
      <line class="g" x1="247.74" y1="81.6" x2="247.74" y2="122.7"/>
      <line class="d" x1="245.02" y1="122.7" x2="250.46" y2="122.7"/>
      <line class="d" x1="266.74" y1="111.46" x2="272.18" y2="111.46"/>
      <line class="g" x1="269.46" y1="111.46" x2="269.46" y2="147.6"/>
      <line class="d" x1="266.74" y1="147.6" x2="272.18" y2="147.6"/>
      <line class="d" x1="288.46" y1="133.1" x2="293.9" y2="133.1"/>
      <line class="g" x1="291.18" y1="133.1" x2="291.18" y2="170.08"/>
      <line class="d" x1="288.46" y1="170.08" x2="293.9" y2="170.08"/>
      <line class="d" x1="310.18" y1="154.26" x2="315.62" y2="154.26"/>
      <line class="g" x1="312.9" y1="154.26" x2="312.9" y2="187.64"/>
      <line class="d" x1="310.18" y1="187.64" x2="315.62" y2="187.64"/>
      <line class="d" x1="331.92" y1="178.38" x2="337.34" y2="178.38"/>
      <line class="g" x1="334.62" y1="178.38" x2="334.62" y2="208.12"/>
      <line class="d" x1="331.92" y1="208.12" x2="337.34" y2="208.12"/>
      <line class="d" x1="353.64" y1="171.26" x2="359.06" y2="171.26"/>
      <line class="g" x1="356.36" y1="171.26" x2="356.36" y2="222.12"/>
      <line class="d" x1="353.64" y1="222.12" x2="359.06" y2="222.12"/>
      <line class="d" x1="375.36" y1="198.4" x2="380.78" y2="198.4"/>
      <line class="g" x1="378.08" y1="198.4" x2="378.08" y2="235.32"/>
      <line class="d" x1="375.36" y1="235.32" x2="380.78" y2="235.32"/>
      <line class="d" x1="397.08" y1="191.84" x2="402.52" y2="191.84"/>
      <line class="g" x1="399.8" y1="191.84" x2="399.8" y2="247.06"/>
      <line class="d" x1="397.08" y1="247.06" x2="402.52" y2="247.06"/>
      <line class="h" x1="245.02" y1="137.44" x2="250.46" y2="137.44"/>
      <line class="l" x1="247.74" y1="137.44" x2="247.74" y2="175.4"/>
      <line class="h" x1="245.02" y1="175.4" x2="250.46" y2="175.4"/>
      <line class="h" x1="266.74" y1="165.58" x2="272.18" y2="165.58"/>
      <line class="l" x1="269.46" y1="165.58" x2="269.46" y2="201.74"/>
      <line class="h" x1="266.74" y1="201.74" x2="272.18" y2="201.74"/>
      <line class="h" x1="288.46" y1="164.84" x2="293.9" y2="164.84"/>
      <line class="l" x1="291.18" y1="164.84" x2="291.18" y2="197.26"/>
      <line class="h" x1="288.46" y1="197.26" x2="293.9" y2="197.26"/>
      <line class="h" x1="310.18" y1="183.78" x2="315.62" y2="183.78"/>
      <line class="l" x1="312.9" y1="183.78" x2="312.9" y2="214.54"/>
      <line class="h" x1="310.18" y1="214.54" x2="315.62" y2="214.54"/>
      <line class="h" x1="331.92" y1="209.64" x2="337.34" y2="209.64"/>
      <line class="l" x1="334.62" y1="209.64" x2="334.62" y2="236.54"/>
      <line class="h" x1="331.92" y1="236.54" x2="337.34" y2="236.54"/>
      <line class="h" x1="353.64" y1="213.12" x2="359.06" y2="213.12"/>
      <line class="l" x1="356.36" y1="213.12" x2="356.36" y2="246.36"/>
      <line class="h" x1="353.64" y1="246.36" x2="359.06" y2="246.36"/>
      <line class="h" x1="375.36" y1="214.86" x2="380.78" y2="214.86"/>
      <line class="l" x1="378.08" y1="214.86" x2="378.08" y2="246.22"/>
      <line class="h" x1="375.36" y1="246.22" x2="380.78" y2="246.22"/>
      <line class="h" x1="397.08" y1="208.08" x2="402.52" y2="208.08"/>
      <line class="l" x1="399.8" y1="208.08" x2="399.8" y2="246.7"/>
      <line class="h" x1="397.08" y1="246.7" x2="402.52" y2="246.7"/>
      <polyline class="m" points="247.74 102.14 269.46 129.54 291.18 151.6 312.9 170.96 334.62 193.26 356.36 196.68 378.08 216.86 399.8 219.44"/>
      <polyline class="f" points="247.74 156.42 269.46 183.66 291.18 181.04 312.9 199.16 334.62 223.1 356.36 229.74 378.08 230.54 399.8 227.38"/>
    </g>
    <line class="j" x1="234.7" y1="260.72" x2="234.7" y2="81.2"/>
    <g>
      <path class="b" d="M194.26,233.61c0-3.17,1.44-4.9,3.11-4.9,1.85,0,3.03,2.05,3.03,4.89,0,3.03-1.29,4.92-3.07,4.92-1.88,0-3.07-1.96-3.07-4.9ZM199.33,233.62c0-2.52-.8-3.95-2.02-3.95s-1.99,1.42-1.99,3.92.76,3.95,1.99,3.95,2.02-1.44,2.02-3.92Z"/>
      <path class="b" d="M202.76,237.04v1.34h-1.18v-1.34h1.18Z"/>
      <path class="b" d="M209.41,231.56c0,2.02-1.75,3.99-3.4,5.81h4.02v1.01h-5.91l.27-.34c1.16-1.25,3.98-4.08,3.98-6.36,0-1.46-1.06-1.95-1.89-1.95s-1.55.42-2.2,1.16v-1.32c.73-.59,1.47-.88,2.31-.88,1.67,0,2.83,1.19,2.83,2.86Z"/>
      <path class="b" d="M216.1,228.83v.94h-3.17v2.72c.21-.01.35-.01.49-.01,1.93,0,3.21,1.22,3.21,2.97s-1.27,3.07-3.14,3.07c-.84,0-1.55-.2-2.27-.57v-1.08c.7.41,1.4.64,2.1.64,1.32,0,2.23-.88,2.23-2.06,0-1.49-1.43-2.04-2.4-2.04-.38,0-.95.04-1.19.14v-4.71h4.13Z"/>
      <path class="b" d="M217.95,233.61c0-3.17,1.44-4.9,3.11-4.9,1.85,0,3.03,2.05,3.03,4.89,0,3.03-1.29,4.92-3.07,4.92-1.88,0-3.07-1.96-3.07-4.9ZM223.02,233.62c0-2.52-.8-3.95-2.02-3.95s-1.99,1.42-1.99,3.92.76,3.95,1.99,3.95,2.02-1.44,2.02-3.92Z"/>
    </g>
    <g>
      <path class="b" d="M194.26,193.61c0-3.17,1.44-4.9,3.11-4.9,1.85,0,3.03,2.05,3.03,4.89,0,3.03-1.29,4.92-3.07,4.92-1.88,0-3.07-1.96-3.07-4.9ZM199.33,193.62c0-2.52-.8-3.95-2.02-3.95s-1.99,1.42-1.99,3.92.76,3.95,1.99,3.95,2.02-1.44,2.02-3.92Z"/>
      <path class="b" d="M202.76,197.04v1.34h-1.18v-1.34h1.18Z"/>
      <path class="b" d="M209.41,191.56c0,2.02-1.75,3.99-3.4,5.81h4.02v1.01h-5.91l.27-.34c1.16-1.25,3.98-4.08,3.98-6.36,0-1.46-1.06-1.95-1.89-1.95s-1.55.42-2.2,1.16v-1.32c.73-.59,1.47-.88,2.31-.88,1.67,0,2.83,1.19,2.83,2.86Z"/>
      <path class="b" d="M215.76,189.82h-4.62v-.99h6.19c-1.01,2.24-2.02,4.51-4.47,9.68l-.92-.42,3.82-8.26Z"/>
      <path class="b" d="M223.1,188.83v.94h-3.17v2.72c.21-.01.35-.01.49-.01,1.93,0,3.21,1.22,3.21,2.97s-1.27,3.07-3.14,3.07c-.84,0-1.55-.2-2.27-.57v-1.08c.7.41,1.4.64,2.1.64,1.32,0,2.23-.88,2.23-2.06,0-1.49-1.43-2.04-2.4-2.04-.38,0-.95.04-1.19.14v-4.71h4.13Z"/>
    </g>
    <g>
      <path class="b" d="M194.26,153.63c0-3.17,1.44-4.9,3.11-4.9,1.85,0,3.03,2.05,3.03,4.89,0,3.03-1.29,4.92-3.07,4.92-1.88,0-3.07-1.96-3.07-4.9ZM199.33,153.64c0-2.52-.8-3.95-2.02-3.95s-1.99,1.42-1.99,3.92.76,3.95,1.99,3.95,2.02-1.44,2.02-3.92Z"/>
      <path class="b" d="M202.76,157.06v1.34h-1.18v-1.34h1.18Z"/>
      <path class="b" d="M207.91,153.36c1.01.31,1.58,1.22,1.58,2.35,0,1.7-1.29,2.82-2.9,2.82-.78,0-1.51-.2-2.14-.53v-1.13c.7.41,1.4.63,2.12.63,1.09,0,1.83-.63,1.83-1.75s-.84-1.82-2.24-1.82v-.97c1.43,0,2.16-.6,2.16-1.67,0-.9-.7-1.61-1.86-1.61-.7,0-1.2.18-1.81.52v-1.01c.67-.35,1.27-.46,1.93-.46,1.65,0,2.77.97,2.77,2.48,0,1.04-.5,1.77-1.44,2.16Z"/>
      <path class="b" d="M210.95,153.63c0-3.17,1.44-4.9,3.11-4.9,1.85,0,3.03,2.05,3.03,4.89,0,3.03-1.29,4.92-3.07,4.92-1.88,0-3.07-1.96-3.07-4.9ZM216.02,153.64c0-2.52-.8-3.95-2.02-3.95s-1.99,1.42-1.99,3.92.76,3.95,1.99,3.95,2.02-1.44,2.02-3.92Z"/>
      <path class="b" d="M217.95,153.63c0-3.17,1.44-4.9,3.11-4.9,1.85,0,3.03,2.05,3.03,4.89,0,3.03-1.29,4.92-3.07,4.92-1.88,0-3.07-1.96-3.07-4.9ZM223.02,153.64c0-2.52-.8-3.95-2.02-3.95s-1.99,1.42-1.99,3.92.76,3.95,1.99,3.95,2.02-1.44,2.02-3.92Z"/>
    </g>
    <g>
      <path class="b" d="M194.26,113.63c0-3.17,1.44-4.9,3.11-4.9,1.85,0,3.03,2.05,3.03,4.89,0,3.03-1.29,4.92-3.07,4.92-1.88,0-3.07-1.96-3.07-4.9ZM199.33,113.64c0-2.52-.8-3.95-2.02-3.95s-1.99,1.42-1.99,3.92.76,3.95,1.99,3.95,2.02-1.44,2.02-3.92Z"/>
      <path class="b" d="M202.76,117.06v1.34h-1.18v-1.34h1.18Z"/>
      <path class="b" d="M207.91,113.36c1.01.31,1.58,1.22,1.58,2.35,0,1.7-1.29,2.82-2.9,2.82-.78,0-1.51-.2-2.14-.53v-1.13c.7.41,1.4.63,2.12.63,1.09,0,1.83-.63,1.83-1.75s-.84-1.82-2.24-1.82v-.97c1.43,0,2.16-.6,2.16-1.67,0-.9-.7-1.61-1.86-1.61-.7,0-1.2.18-1.81.52v-1.01c.67-.35,1.27-.46,1.93-.46,1.65,0,2.77.97,2.77,2.48,0,1.04-.5,1.77-1.44,2.16Z"/>
      <path class="b" d="M216.41,111.58c0,2.02-1.75,3.99-3.4,5.81h4.02v1.01h-5.91l.27-.34c1.16-1.25,3.98-4.08,3.98-6.36,0-1.46-1.06-1.95-1.89-1.95s-1.55.42-2.2,1.16v-1.32c.73-.59,1.47-.88,2.31-.88,1.67,0,2.83,1.19,2.83,2.86Z"/>
      <path class="b" d="M223.1,108.85v.94h-3.17v2.72c.21-.01.35-.01.49-.01,1.93,0,3.21,1.22,3.21,2.97s-1.27,3.07-3.14,3.07c-.84,0-1.55-.2-2.27-.57v-1.08c.7.41,1.4.64,2.1.64,1.32,0,2.23-.88,2.23-2.06,0-1.49-1.43-2.04-2.4-2.04-.38,0-.95.04-1.19.14v-4.71h4.13Z"/>
    </g>
    <line class="j" x1="229.22" y1="233.36" x2="234.7" y2="233.36"/>
    <line class="j" x1="229.22" y1="193.36" x2="234.7" y2="193.36"/>
    <line class="j" x1="229.22" y1="153.36" x2="234.7" y2="153.36"/>
    <line class="j" x1="229.22" y1="113.36" x2="234.7" y2="113.36"/>
    <line class="j" x1="234.7" y1="260.72" x2="412.84" y2="260.72"/>
    <line class="j" x1="247.74" y1="266.2" x2="247.74" y2="260.72"/>
    <line class="j" x1="269.46" y1="266.2" x2="269.46" y2="260.72"/>
    <line class="j" x1="291.18" y1="266.2" x2="291.18" y2="260.72"/>
    <line class="j" x1="312.9" y1="266.2" x2="312.9" y2="260.72"/>
    <line class="j" x1="334.62" y1="266.2" x2="334.62" y2="260.72"/>
    <line class="j" x1="356.36" y1="266.2" x2="356.36" y2="260.72"/>
    <line class="j" x1="378.08" y1="266.2" x2="378.08" y2="260.72"/>
    <line class="j" x1="399.8" y1="266.2" x2="399.8" y2="260.72"/>
    <path class="b" d="M248.4,270.96v9.68h-1.05v-7.9l-1.85,1.47-.6-.74,3.1-2.51h.41Z"/>
    <path class="b" d="M271.46,273.82c0,2.02-1.75,3.99-3.4,5.81h4.02v1.01h-5.91l.27-.34c1.16-1.25,3.98-4.08,3.98-6.36,0-1.46-1.06-1.95-1.89-1.95s-1.55.42-2.2,1.16v-1.32c.73-.59,1.47-.88,2.31-.88,1.67,0,2.83,1.19,2.83,2.86Z"/>
    <path class="b" d="M291.68,275.6c1.01.31,1.58,1.22,1.58,2.35,0,1.7-1.29,2.82-2.9,2.82-.78,0-1.51-.2-2.14-.53v-1.13c.7.41,1.4.63,2.12.63,1.09,0,1.83-.63,1.83-1.75s-.84-1.82-2.24-1.82v-.97c1.43,0,2.16-.6,2.16-1.67,0-.9-.7-1.61-1.86-1.61-.7,0-1.21.18-1.81.52v-1.01c.67-.35,1.27-.46,1.93-.46,1.65,0,2.77.97,2.77,2.48,0,1.04-.5,1.77-1.44,2.16Z"/>
    <path class="b" d="M309.23,276.8l4.79-5.84h.43v5.42h1.18v.91h-1.18v3.35h-1.02v-3.35h-4.2v-.49ZM313.44,276.38v-3.42l-2.79,3.42h2.79Z"/>
    <path class="b" d="M336.33,271.09v.94h-3.17v2.72c.21-.01.35-.01.49-.01,1.93,0,3.21,1.22,3.21,2.97s-1.27,3.07-3.14,3.07c-.84,0-1.55-.2-2.27-.57v-1.08c.7.41,1.4.64,2.1.64,1.32,0,2.23-.88,2.23-2.06,0-1.49-1.43-2.04-2.4-2.04-.38,0-.95.04-1.19.14v-4.71h4.13Z"/>
    <path class="b" d="M357.65,271.76c-1.62,1.12-2.79,2.44-3.21,4.02.6-.38,1.18-.55,1.79-.55,1.53,0,2.68,1.13,2.68,2.72s-1.26,2.82-2.83,2.82c-1.41,0-2.97-.99-2.97-3.42,0-2.28,1.09-4.38,3.91-6.39l.63.8ZM356.09,279.8c1.01,0,1.78-.73,1.78-1.82s-.77-1.79-1.89-1.79c-.6,0-1.82.21-1.82,1.39,0,1.55,1.01,2.23,1.93,2.23Z"/>
    <path class="b" d="M379.44,272.08h-4.62v-.99h6.19c-1.01,2.24-2.02,4.51-4.47,9.68l-.92-.42,3.82-8.26Z"/>
    <path class="b" d="M396.69,273.57c0-1.51,1.29-2.61,2.76-2.61s2.73,1.13,2.73,2.59c0,.9-.42,1.67-1.33,2.19.94.45,1.49,1.25,1.49,2.31,0,1.58-1.23,2.72-2.91,2.72-1.78,0-2.94-1.29-2.94-2.72,0-.98.5-1.86,1.51-2.31-.97-.63-1.3-1.34-1.3-2.17ZM399.42,279.76c1.12,0,1.85-.74,1.85-1.76s-.73-1.72-1.89-1.72-1.83.76-1.83,1.72c0,1.04.76,1.76,1.88,1.76ZM399.45,275.25c.88,0,1.68-.66,1.68-1.65,0-.94-.7-1.64-1.71-1.64-.94,0-1.68.66-1.68,1.62,0,1.02.81,1.67,1.71,1.67Z"/>
    <g>
      <path class="b" d="M256.95,290.99v6.29c0,2.42,1.14,3.7,3.38,3.7s3.38-1.33,3.38-3.7v-6.29h1.2v6.29c0,2.87-1.52,4.77-4.55,4.77s-4.61-1.71-4.61-4.77v-6.29h1.2Z"/>
      <path class="b" d="M272.95,297.54v4.37h-1.1v-4.32c0-1.5-.69-2.1-1.7-2.1-.8,0-1.52.48-2.02,1.25v5.17h-1.09v-7.19h1.09v1.07c.62-.8,1.57-1.22,2.35-1.22,1.62,0,2.46,1.14,2.46,2.96Z"/>
      <path class="b" d="M278.7,291.02v1.02c-.27-.11-.61-.16-.91-.16-1.02,0-1.52.61-1.52,2.1v.74h1.52v.98h-1.52v6.21h-1.09v-6.21h-1.06v-.98h1.06v-.75c0-2,.94-3.11,2.45-3.11.4,0,.75.06,1.07.16Z"/>
      <path class="b" d="M283.55,296.83v3.97c0,.22.06.32.22.32.14,0,.43-.16.85-.48v.82c-.56.4-.99.59-1.42.59-.61,0-.74-.42-.74-.69v-.19c-.82.69-1.39.88-2.1.88-1.09,0-1.83-.79-1.83-1.76,0-1.41,1.22-2.07,3.92-2.69v-.56c0-1.01-.42-1.44-1.42-1.44-.88,0-1.57.38-2.27,1.1v-1.18c.61-.64,1.41-.94,2.37-.94,1.58,0,2.42.86,2.42,2.26ZM280.86,301.25c.51,0,.99-.19,1.6-.78v-2.24c-1.76.34-2.82.91-2.82,1.89,0,.64.5,1.14,1.22,1.14Z"/>
      <path class="b" d="M291.35,296.02c.9-1.01,1.55-1.44,2.45-1.44,1.55,0,2.38,1.02,2.38,2.83v4.5h-1.09v-4.39c0-1.31-.58-2-1.65-2-.66,0-1.34.4-1.89,1.18v5.2h-1.07v-4.42c0-1.34-.51-1.98-1.57-1.98-.82,0-1.46.45-1.99,1.17v5.23h-1.07v-7.19h1.07v1.09c.7-.82,1.44-1.23,2.3-1.23.95,0,1.75.46,2.11,1.44Z"/>
      <path class="b" d="M299.3,291.86v1.39h-1.09v-1.39h1.09ZM298.22,294.72h1.09v7.19h-1.09v-7.19Z"/>
      <path class="b" d="M302.5,290.99v10.92h-1.09v-10.92h1.09Z"/>
      <path class="b" d="M305.7,291.86v1.39h-1.09v-1.39h1.09ZM304.62,294.72h1.09v7.19h-1.09v-7.19Z"/>
      <path class="b" d="M312.25,296.83v3.97c0,.22.06.32.22.32.14,0,.43-.16.85-.48v.82c-.56.4-.99.59-1.42.59-.61,0-.74-.42-.74-.69v-.19c-.82.69-1.39.88-2.1.88-1.09,0-1.83-.79-1.83-1.76,0-1.41,1.22-2.07,3.92-2.69v-.56c0-1.01-.42-1.44-1.42-1.44-.88,0-1.57.38-2.27,1.1v-1.18c.61-.64,1.41-.94,2.37-.94,1.58,0,2.42.86,2.42,2.26ZM309.56,301.25c.51,0,.99-.19,1.6-.78v-2.24c-1.76.34-2.82.91-2.82,1.89,0,.64.5,1.14,1.22,1.14Z"/>
      <path class="b" d="M319.47,295.36l-.59.94c-.48-.43-.94-.69-1.34-.69-.7,0-1.65.79-1.94,2.16v4.13h-1.09v-7.19h1.09v1.73c.82-1.31,1.55-1.87,2.27-1.87.56,0,1.1.3,1.6.78Z"/>
      <path class="b" d="M321.59,291.86v1.39h-1.09v-1.39h1.09ZM320.5,294.72h1.09v7.19h-1.09v-7.19Z"/>
      <path class="b" d="M322.61,294.72h1.39v-1.58l1.09-.62v2.21h2.22v.98h-2.22v3.84c0,.88.14,1.52,1.04,1.52.53,0,1.06-.19,1.5-.46v1.02c-.48.29-1.15.43-1.65.43-1.39,0-1.98-.71-1.98-2.51v-3.84h-1.39v-.98Z"/>
      <path class="b" d="M329.11,294.72l2.26,4.51,2.14-4.51h1.18l-5.22,10.87h-1.17l2.46-5.14-2.9-5.73h1.23Z"/>
      <path class="b" d="M344.06,290.85c-1.66,2.13-2.54,4.34-2.54,7.4,0,2.83.94,5.43,2.54,7.35h-.72c-1.57-1.76-3.07-4.24-3.07-7.36s1.2-5.19,3.07-7.38h.72Z"/>
      <path class="b" d="M347.98,302.07c-.96,0-1.83-.19-2.71-.54v-10.53h1.09v4.43c.64-.56,1.36-.85,2.21-.85,1.87,0,3.09,1.55,3.09,3.63,0,2.4-1.58,3.86-3.68,3.86ZM346.36,300.8c.56.21,1.02.3,1.65.3,1.47,0,2.53-1.1,2.53-2.86,0-1.6-.88-2.71-2.24-2.71-.7,0-1.31.29-1.94.91v4.35Z"/>
      <path class="b" d="M354.39,291.86v1.39h-1.09v-1.39h1.09ZM353.3,294.72h1.09v7.19h-1.09v-7.19Z"/>
      <path class="b" d="M362.41,297.54v4.37h-1.1v-4.32c0-1.5-.69-2.1-1.7-2.1-.8,0-1.52.48-2.02,1.25v5.17h-1.09v-7.19h1.09v1.07c.62-.8,1.57-1.22,2.35-1.22,1.62,0,2.46,1.14,2.46,2.96Z"/>
      <path class="b" d="M370.33,297.54v4.37h-1.1v-4.32c0-1.5-.69-2.1-1.7-2.1-.8,0-1.52.48-2.02,1.25v5.17h-1.09v-7.19h1.09v1.07c.62-.8,1.57-1.22,2.35-1.22,1.62,0,2.46,1.14,2.46,2.96Z"/>
      <path class="b" d="M378.12,301.2c-.91.62-1.75.85-2.72.85-1.95,0-3.52-1.46-3.52-3.76,0-2.13,1.28-3.71,3.28-3.71,1.83,0,3.03,1.34,3.07,3.7h-5.23v.11c0,1.28.86,2.64,2.54,2.64.93,0,1.81-.32,2.58-.9v1.07ZM377.15,297.59c-.13-1.28-.8-2.05-2-2.05-1.14,0-1.99.88-2.11,2.05h4.11Z"/>
      <path class="b" d="M383.02,301.91c-2.54,0-3.65-1.83-3.65-3.58,0-2.37,1.6-3.75,3.51-3.75.72,0,1.28.18,1.81.43v-4.02h1.09v10.92h-2.75ZM384.68,296.04c-.54-.35-1.06-.5-1.75-.5-1.42,0-2.45,1.06-2.45,2.8,0,1.63,1.04,2.61,2.74,2.61h1.46v-4.91Z"/>
      <path class="b" d="M386.98,305.59c1.7-2.18,2.56-4.37,2.56-7.4,0-2.8-.9-5.33-2.56-7.35h.72c1.95,2.29,3.07,4.11,3.07,7.38,0,2.93-1.18,5.19-3.07,7.36h-.72Z"/>
    </g>
    <g>
      <path class="b" d="M156.63,228.82v-1.14l4.79-3.86-4.79-3.84v-1.14h10.92v1.2h-9.01v.03l4.56,3.65v.21l-4.56,3.65v.03h9.01v1.2h-10.92Z"/>
      <path class="b" d="M160.21,213.25c0-2.13,1.55-3.73,3.75-3.73,2.48,0,3.73,1.95,3.73,3.76,0,2.4-1.86,3.75-3.68,3.75-2.16,0-3.79-1.49-3.79-3.78ZM166.71,213.27c0-1.57-1.18-2.62-2.77-2.62-1.75,0-2.75,1.22-2.75,2.69s1.09,2.58,2.77,2.58,2.75-1.14,2.75-2.64Z"/>
      <path class="b" d="M156.63,206.79h10.92v1.09h-10.92v-1.09Z"/>
      <path class="b" d="M166.84,198.9c.62.91.85,1.75.85,2.72,0,1.95-1.46,3.52-3.76,3.52-2.13,0-3.71-1.28-3.71-3.28,0-1.82,1.34-3.02,3.7-3.07v5.23h.11c1.28,0,2.64-.86,2.64-2.54,0-.93-.32-1.81-.9-2.58h1.07ZM163.22,199.88c-1.28.13-2.05.8-2.05,2,0,1.14.88,1.98,2.05,2.11v-4.11Z"/>
      <path class="b" d="M160.64,192.1h1.17c-.42.7-.58,1.28-.58,1.94,0,1.57,1.26,2.5,2.71,2.5,1.33,0,2.72-.78,2.72-2.69,0-.71-.19-1.26-.45-1.86h1.09c.26.66.38,1.31.38,2.02,0,2.53-1.89,3.65-3.67,3.65-2.34,0-3.81-1.49-3.81-3.55,0-.67.11-1.23.43-2Z"/>
      <path class="b" d="M160.36,189.42h4.31c1.44,0,2.11-.61,2.11-1.7,0-.82-.48-1.52-1.25-2.02h-5.17v-1.1h7.19v1.1h-1.07c.75.61,1.22,1.52,1.22,2.34,0,1.46-.86,2.46-3.14,2.46h-4.19v-1.09Z"/>
      <path class="b" d="M156.63,181.42h10.92v1.09h-10.92v-1.09Z"/>
      <path class="b" d="M162.47,174.87h3.97c.22,0,.32-.06.32-.22,0-.14-.16-.43-.48-.85h.82c.4.56.59.99.59,1.42,0,.61-.42.74-.69.74h-.19c.69.82.88,1.39.88,2.1,0,1.09-.78,1.82-1.76,1.82-1.41,0-2.06-1.22-2.69-3.92h-.56c-1.01,0-1.44.42-1.44,1.42,0,.88.38,1.57,1.1,2.27h-1.18c-.64-.61-.94-1.41-.94-2.37,0-1.58.86-2.42,2.26-2.42ZM166.89,177.56c0-.51-.19-.99-.78-1.6h-2.24c.34,1.76.91,2.82,1.89,2.82.64,0,1.14-.5,1.14-1.22Z"/>
      <path class="b" d="M161,167.65l.94.59c-.43.48-.69.94-.69,1.34,0,.7.78,1.65,2.16,1.94h4.13v1.09h-7.19v-1.09h1.73c-1.31-.82-1.87-1.55-1.87-2.27,0-.56.3-1.1.78-1.6Z"/>
      <path class="b" d="M160.21,160.31c0-.69.18-1.36.56-2.03h1.1c-.46.74-.7,1.33-.7,1.97,0,.8.35,1.17.83,1.17s.77-.21,1.46-1.57c.51-1.02,1.14-1.91,2.22-1.91.93,0,2,.72,2,2.37,0,.75-.14,1.34-.62,2.27h-1.18c.51-.69.85-1.55.85-2.19,0-.88-.43-1.31-.94-1.31-.58,0-.8.24-1.6,1.76-.56,1.07-1.14,1.7-2.11,1.7-1.09,0-1.86-.9-1.86-2.22Z"/>
      <path class="b" d="M157.49,155.19h1.39v1.09h-1.39v-1.09ZM160.36,156.28v-1.09h7.19v1.09h-7.19Z"/>
      <path class="b" d="M161.65,147.59c-1.01-.9-1.44-1.55-1.44-2.45,0-1.55,1.02-2.38,2.83-2.38h4.5v1.09h-4.39c-1.31,0-2,.58-2,1.65,0,.66.4,1.34,1.18,1.89h5.2v1.07h-4.42c-1.34,0-1.98.51-1.98,1.57,0,.82.45,1.46,1.17,1.98h5.23v1.07h-7.19v-1.07h1.09c-.82-.7-1.23-1.44-1.23-2.3,0-.94.46-1.75,1.44-2.11Z"/>
      <path class="b" d="M157.49,139.64h1.39v1.09h-1.39v-1.09ZM160.36,140.73v-1.09h7.19v1.09h-7.19Z"/>
      <path class="b" d="M156.63,136.44h10.92v1.09h-10.92v-1.09Z"/>
      <path class="b" d="M162.47,129.89h3.97c.22,0,.32-.06.32-.22,0-.14-.16-.43-.48-.85h.82c.4.56.59.99.59,1.42,0,.61-.42.74-.69.74h-.19c.69.82.88,1.39.88,2.1,0,1.09-.78,1.82-1.76,1.82-1.41,0-2.06-1.22-2.69-3.92h-.56c-1.01,0-1.44.42-1.44,1.42,0,.88.38,1.57,1.1,2.27h-1.18c-.64-.61-.94-1.41-.94-2.37,0-1.58.86-2.42,2.26-2.42ZM166.89,132.58c0-.51-.19-.99-.78-1.6h-2.24c.34,1.76.91,2.82,1.89,2.82.64,0,1.14-.5,1.14-1.22Z"/>
      <path class="b" d="M161,122.68l.94.59c-.43.48-.69.94-.69,1.34,0,.7.78,1.65,2.16,1.94h4.13v1.09h-7.19v-1.09h1.73c-1.31-.82-1.87-1.55-1.87-2.27,0-.56.3-1.1.78-1.6Z"/>
      <path class="b" d="M157.49,120.55h1.39v1.09h-1.39v-1.09ZM160.36,121.64v-1.09h7.19v1.09h-7.19Z"/>
      <path class="b" d="M160.36,119.53v-1.39h-1.58l-.62-1.09h2.21v-2.22h.98v2.22h3.84c.88,0,1.52-.14,1.52-1.04,0-.53-.19-1.06-.46-1.5h1.02c.29.48.43,1.15.43,1.65,0,1.39-.7,1.99-2.51,1.99h-3.84v1.39h-.98Z"/>
      <path class="b" d="M160.36,113.03l4.51-2.26-4.51-2.14v-1.18l10.87,5.22v1.17l-5.14-2.46-5.73,2.9v-1.23Z"/>
    </g>
    <g>
      <path class="b" d="M177.64,209.35v-1.39h-1.58l-.62-1.09h2.21v-2.22h.98v2.22h3.84c.88,0,1.52-.14,1.52-1.04,0-.53-.19-1.06-.46-1.5h1.02c.29.48.43,1.15.43,1.65,0,1.39-.7,1.99-2.51,1.99h-3.84v1.39h-.98Z"/>
      <path class="b" d="M177.49,199.75c0-2.13,1.55-3.73,3.75-3.73,2.48,0,3.73,1.95,3.73,3.76,0,2.4-1.86,3.75-3.68,3.75-2.16,0-3.79-1.49-3.79-3.78ZM183.99,199.76c0-1.57-1.18-2.62-2.77-2.62-1.75,0-2.75,1.22-2.75,2.69s1.09,2.58,2.77,2.58,2.75-1.14,2.75-2.64Z"/>
      <path class="b" d="M177.64,191.01v-1.39h-1.58l-.62-1.09h2.21v-2.22h.98v2.22h3.84c.88,0,1.52-.14,1.52-1.04,0-.53-.19-1.06-.46-1.5h1.02c.29.48.43,1.15.43,1.65,0,1.39-.7,1.99-2.51,1.99h-3.84v1.39h-.98Z"/>
      <path class="b" d="M178.28,179.83l.94.59c-.43.48-.69.94-.69,1.34,0,.7.78,1.65,2.16,1.94h4.13v1.09h-7.19v-1.09h1.73c-1.31-.82-1.87-1.55-1.87-2.27,0-.56.3-1.1.78-1.6Z"/>
      <path class="b" d="M179.75,174.52h3.97c.22,0,.32-.06.32-.22,0-.14-.16-.43-.48-.85h.82c.4.56.59.99.59,1.42,0,.61-.42.74-.69.74h-.19c.69.82.88,1.39.88,2.1,0,1.09-.78,1.82-1.76,1.82-1.41,0-2.06-1.22-2.69-3.92h-.56c-1.01,0-1.44.42-1.44,1.42,0,.88.38,1.57,1.1,2.27h-1.18c-.64-.61-.94-1.41-.94-2.37,0-1.58.86-2.42,2.26-2.42ZM184.17,177.21c0-.51-.19-.99-.78-1.6h-2.24c.34,1.76.91,2.82,1.89,2.82.64,0,1.14-.5,1.14-1.22Z"/>
      <path class="b" d="M174.77,171.11h1.39v1.09h-1.39v-1.09ZM177.64,172.2v-1.09h7.19v1.09h-7.19Z"/>
      <path class="b" d="M180.45,163.09h4.37v1.1h-4.32c-1.5,0-2.1.69-2.1,1.7,0,.8.48,1.52,1.25,2.02h5.17v1.09h-7.19v-1.09h1.07c-.8-.62-1.22-1.57-1.22-2.35,0-1.62,1.14-2.46,2.96-2.46Z"/>
      <path class="b" d="M177.49,154.77c0-.69.18-1.36.56-2.03h1.1c-.46.74-.7,1.33-.7,1.97,0,.8.35,1.17.83,1.17s.77-.21,1.46-1.57c.51-1.02,1.14-1.91,2.22-1.91.93,0,2,.72,2,2.37,0,.75-.14,1.34-.62,2.27h-1.18c.51-.69.85-1.55.85-2.19,0-.88-.43-1.31-.94-1.31-.58,0-.8.24-1.6,1.76-.56,1.07-1.14,1.7-2.11,1.7-1.09,0-1.86-.9-1.86-2.22Z"/>
      <path class="b" d="M184.12,144.96c.62.91.85,1.75.85,2.72,0,1.95-1.46,3.52-3.76,3.52-2.13,0-3.71-1.28-3.71-3.28,0-1.82,1.34-3.02,3.7-3.07v5.23h.11c1.28,0,2.64-.86,2.64-2.54,0-.93-.32-1.81-.9-2.58h1.07ZM180.5,145.94c-1.28.13-2.05.8-2.05,2,0,1.14.88,1.98,2.05,2.11v-4.11Z"/>
      <path class="b" d="M177.64,144.34v-1.39h-1.58l-.62-1.09h2.21v-2.22h.98v2.22h3.84c.88,0,1.52-.14,1.52-1.04,0-.53-.19-1.06-.46-1.5h1.02c.29.48.43,1.15.43,1.65,0,1.39-.7,1.99-2.51,1.99h-3.84v1.39h-.98Z"/>
    </g>
    <g>
      <path class="b" d="M241.89,248.34h.73l1.34,3.15,1.27-3.15h.49l1.27,3.15,1.34-3.15h.73l-1.96,4.58h-.22l-1.41-3.45-1.38,3.45h-.23l-1.97-4.58Z"/>
      <path class="b" d="M251.79,248.25c1.33,0,2.33.97,2.33,2.34,0,1.55-1.22,2.33-2.35,2.33-1.5,0-2.34-1.16-2.34-2.3,0-1.35.93-2.37,2.36-2.37ZM251.78,252.31c.98,0,1.64-.74,1.64-1.73,0-1.09-.76-1.72-1.68-1.72s-1.61.68-1.61,1.73.71,1.72,1.65,1.72Z"/>
      <path class="b" d="M258.21,248.74l-.37.59c-.3-.27-.59-.43-.84-.43-.44,0-1.03.49-1.21,1.35v2.58h-.68v-4.49h.68v1.08c.51-.82.97-1.17,1.42-1.17.35,0,.69.19,1,.49Z"/>
      <path class="b" d="M260.02,248.25c.43,0,.85.11,1.27.35v.69c-.46-.29-.83-.44-1.23-.44-.5,0-.73.22-.73.52s.13.48.98.91c.64.32,1.19.71,1.19,1.39,0,.58-.45,1.25-1.48,1.25-.47,0-.84-.09-1.42-.39v-.74c.43.32.97.53,1.37.53.55,0,.82-.27.82-.59,0-.36-.15-.5-1.1-1-.67-.35-1.06-.71-1.06-1.32,0-.68.56-1.16,1.39-1.16Z"/>
      <path class="b" d="M266.15,252.39c-.57.39-1.09.53-1.7.53-1.22,0-2.2-.91-2.2-2.35,0-1.33.8-2.32,2.05-2.32,1.14,0,1.89.84,1.92,2.31h-3.27v.07c0,.8.54,1.65,1.59,1.65.58,0,1.13-.2,1.61-.56v.67ZM265.54,250.13c-.08-.8-.5-1.28-1.25-1.28-.71,0-1.24.55-1.32,1.28h2.57Z"/>
      <path class="b" d="M273.06,248.74l-.37.59c-.3-.27-.59-.43-.84-.43-.44,0-1.03.49-1.21,1.35v2.58h-.68v-4.49h.68v1.08c.51-.82.97-1.17,1.42-1.17.35,0,.69.19,1,.49Z"/>
      <path class="b" d="M277.32,252.39c-.57.39-1.09.53-1.7.53-1.22,0-2.2-.91-2.2-2.35,0-1.33.8-2.32,2.05-2.32,1.14,0,1.89.84,1.92,2.31h-3.27v.07c0,.8.54,1.65,1.59,1.65.58,0,1.13-.2,1.61-.56v.67ZM276.71,250.13c-.08-.8-.5-1.28-1.25-1.28-.71,0-1.24.55-1.32,1.28h2.57Z"/>
      <path class="b" d="M281.57,248.52v.73c-.44-.26-.8-.36-1.21-.36-.98,0-1.56.79-1.56,1.69,0,.83.49,1.7,1.68,1.7.44,0,.79-.12,1.16-.28v.68c-.41.16-.82.24-1.26.24-1.58,0-2.28-1.18-2.28-2.29,0-1.46.93-2.38,2.22-2.38.42,0,.77.07,1.25.27Z"/>
      <path class="b" d="M284.69,248.25c1.33,0,2.33.97,2.33,2.34,0,1.55-1.22,2.33-2.35,2.33-1.5,0-2.34-1.16-2.34-2.3,0-1.35.93-2.37,2.36-2.37ZM284.68,252.31c.98,0,1.64-.74,1.64-1.73,0-1.09-.76-1.72-1.68-1.72s-1.61.68-1.61,1.73.71,1.72,1.65,1.72Z"/>
      <path class="b" d="M291.74,250.1v2.73h-.69v-2.7c0-.94-.43-1.31-1.06-1.31-.5,0-.95.3-1.26.78v3.23h-.68v-4.49h.68v.67c.39-.5.98-.76,1.47-.76,1.01,0,1.54.71,1.54,1.85Z"/>
      <path class="b" d="M294.16,248.25c.43,0,.85.11,1.27.35v.69c-.46-.29-.83-.44-1.23-.44-.5,0-.73.22-.73.52s.13.48.98.91c.64.32,1.19.71,1.19,1.39,0,.58-.45,1.25-1.48,1.25-.47,0-.84-.09-1.42-.39v-.74c.43.32.97.53,1.37.53.55,0,.82-.27.82-.59,0-.36-.15-.5-1.1-1-.67-.35-1.06-.71-1.06-1.32,0-.68.56-1.16,1.39-1.16Z"/>
      <path class="b" d="M296,248.34h.87v-.99l.68-.39v1.38h1.39v.61h-1.39v2.4c0,.55.09.95.65.95.33,0,.66-.12.94-.29v.64c-.3.18-.72.27-1.03.27-.87,0-1.24-.44-1.24-1.57v-2.4h-.87v-.61Z"/>
      <path class="b" d="M300.56,248.34v2.69c0,.9.38,1.32,1.06,1.32.51,0,.95-.3,1.26-.78v-3.23h.69v4.49h-.69v-.67c-.38.47-.95.76-1.46.76-.91,0-1.54-.54-1.54-1.96v-2.62h.68Z"/>
      <path class="b" d="M308.06,248.52v.73c-.44-.26-.8-.36-1.21-.36-.98,0-1.56.79-1.56,1.69,0,.83.49,1.7,1.68,1.7.44,0,.79-.12,1.16-.28v.68c-.41.16-.82.24-1.26.24-1.58,0-2.28-1.18-2.28-2.29,0-1.46.93-2.38,2.22-2.38.42,0,.77.07,1.25.27Z"/>
      <path class="b" d="M308.43,248.34h.87v-.99l.68-.39v1.38h1.39v.61h-1.39v2.4c0,.55.09.95.65.95.33,0,.66-.12.94-.29v.64c-.3.18-.72.27-1.03.27-.87,0-1.24-.44-1.24-1.57v-2.4h-.87v-.61Z"/>
      <path class="b" d="M313.04,246.56v.87h-.68v-.87h.68ZM312.36,248.34h.68v4.49h-.68v-4.49Z"/>
      <path class="b" d="M316.43,248.25c1.33,0,2.33.97,2.33,2.34,0,1.55-1.22,2.33-2.35,2.33-1.5,0-2.34-1.16-2.34-2.3,0-1.35.93-2.37,2.36-2.37ZM316.42,252.31c.98,0,1.64-.74,1.64-1.73,0-1.09-.76-1.72-1.68-1.72s-1.61.68-1.61,1.73.71,1.72,1.65,1.72Z"/>
      <path class="b" d="M323.48,250.1v2.73h-.69v-2.7c0-.94-.43-1.31-1.06-1.31-.5,0-.95.3-1.26.78v3.23h-.68v-4.49h.68v.67c.39-.5.98-.76,1.47-.76,1.01,0,1.54.71,1.54,1.85Z"/>
    </g>
    <g>
      <line class="k" x1="329" y1="250.69" x2="346.84" y2="250.69"/>
      <polygon class="b" points="344.74 253.47 345.92 250.69 344.74 247.91 351.32 250.69 344.74 253.47"/>
    </g>
    <g>
      <path class="n" d="M331.62,127.7c0-1.24,1.02-2.28,2.26-2.28s2.28,1.04,2.28,2.28-1.02,2.28-2.28,2.28-2.26-1.02-2.26-2.28"/>
      <path class="e" d="M331.62,127.7c0-1.24,1.02-2.28,2.26-2.28s2.28,1.04,2.28,2.28-1.02,2.28-2.28,2.28-2.26-1.02-2.26-2.28"/>
    </g>
    <g>
      <path class="o" d="M331.62,108.42c0-1.24,1.02-2.28,2.26-2.28s2.28,1.04,2.28,2.28-1.02,2.28-2.28,2.28-2.26-1.02-2.26-2.28"/>
      <path class="e" d="M331.62,108.42c0-1.24,1.02-2.28,2.26-2.28s2.28,1.04,2.28,2.28-1.02,2.28-2.28,2.28-2.26-1.02-2.26-2.28"/>
    </g>
    <g>
      <path class="o" d="M331.62,108.42c0-1.24,1.02-2.28,2.26-2.28s2.28,1.04,2.28,2.28-1.02,2.28-2.28,2.28-2.26-1.02-2.26-2.28"/>
      <path class="e" d="M331.62,108.42c0-1.24,1.02-2.28,2.26-2.28s2.28,1.04,2.28,2.28-1.02,2.28-2.28,2.28-2.26-1.02-2.26-2.28"/>
    </g>
    <g>
      <path class="b" d="M350.66,122.55v.92h-3.42v8.63h-1.05v-8.63h-3.38v-.92h7.84Z"/>
      <path class="b" d="M355.18,131.49c-.8.55-1.53.74-2.38.74-1.71,0-3.08-1.27-3.08-3.29,0-1.86,1.12-3.25,2.87-3.25,1.6,0,2.65,1.18,2.69,3.24h-4.58v.1c0,1.12.76,2.31,2.23,2.31.81,0,1.58-.28,2.25-.78v.94ZM354.33,128.32c-.11-1.12-.7-1.79-1.75-1.79-.99,0-1.74.77-1.85,1.79h3.6Z"/>
      <path class="b" d="M358.3,125.69c.6,0,1.19.15,1.78.49v.97c-.64-.41-1.16-.62-1.72-.62-.7,0-1.02.31-1.02.73s.18.67,1.37,1.27c.9.45,1.67,1,1.67,1.95,0,.81-.63,1.75-2.07,1.75-.66,0-1.18-.13-1.99-.55v-1.04c.6.45,1.36.74,1.92.74.77,0,1.15-.38,1.15-.83,0-.5-.21-.7-1.54-1.4-.94-.49-1.48-1-1.48-1.85,0-.95.78-1.62,1.95-1.62Z"/>
      <path class="b" d="M360.88,125.81h1.22v-1.39l.95-.55v1.93h1.95v.85h-1.95v3.36c0,.77.13,1.33.91,1.33.46,0,.92-.17,1.32-.41v.9c-.42.25-1.01.38-1.44.38-1.22,0-1.74-.62-1.74-2.2v-3.36h-1.22v-.85Z"/>
      <path class="b" d="M371.71,131.96c0,1.56-1.14,2.88-2.98,2.88-1.73,0-2.89-1.31-2.89-2.82s1.11-2.89,2.91-2.89,2.96,1.29,2.96,2.83ZM366.47,131.99c0,1.31,1.02,2.28,2.27,2.27,1.66,0,2.33-1.28,2.33-2.29,0-1.13-.83-2.27-2.29-2.27s-2.32,1.15-2.32,2.29Z"/>
      <path class="b" d="M378.34,131.96c0,1.56-1.14,2.88-2.98,2.88-1.73,0-2.89-1.31-2.89-2.82s1.11-2.89,2.91-2.89,2.96,1.29,2.96,2.83ZM373.09,131.99c0,1.31,1.02,2.28,2.27,2.27,1.66,0,2.33-1.28,2.33-2.29,0-1.13-.83-2.27-2.29-2.27s-2.32,1.15-2.32,2.29Z"/>
      <path class="b" d="M379.34,129.2h2.05c1.82,0,3,1.13,3,2.73,0,1.73-1.22,2.84-3,2.84h-2.05v-5.57ZM381.38,134.21c1.46,0,2.37-.87,2.37-2.24s-.88-2.23-2.46-2.23h-1.34v4.47h1.43Z"/>
    </g>
    <g>
      <path class="b" d="M351.15,102.55v.92h-3.42v8.63h-1.05v-8.63h-3.38v-.92h7.84Z"/>
      <path class="b" d="M355.67,111.49c-.8.55-1.53.74-2.38.74-1.71,0-3.08-1.27-3.08-3.29,0-1.86,1.12-3.25,2.87-3.25,1.6,0,2.65,1.18,2.69,3.24h-4.58v.1c0,1.12.76,2.31,2.23,2.31.81,0,1.58-.28,2.25-.78v.94ZM354.82,108.32c-.11-1.12-.7-1.79-1.75-1.79-.99,0-1.74.77-1.85,1.79h3.6Z"/>
      <path class="b" d="M358.79,105.69c.6,0,1.19.15,1.78.49v.97c-.64-.41-1.16-.62-1.72-.62-.7,0-1.02.31-1.02.73s.18.67,1.37,1.27c.9.45,1.67,1,1.67,1.95,0,.81-.63,1.75-2.07,1.75-.66,0-1.18-.13-1.99-.55v-1.04c.6.45,1.36.74,1.92.74.77,0,1.15-.38,1.15-.83,0-.5-.21-.7-1.54-1.4-.94-.49-1.48-1-1.48-1.85,0-.95.78-1.62,1.95-1.62Z"/>
      <path class="b" d="M361.37,105.81h1.22v-1.39l.95-.55v1.93h1.95v.85h-1.95v3.36c0,.77.13,1.33.91,1.33.46,0,.92-.17,1.32-.41v.9c-.42.25-1.01.38-1.44.38-1.22,0-1.74-.62-1.74-2.2v-3.36h-1.22v-.85Z"/>
      <path class="b" d="M367.19,109.2v5.57h-.61v-5.57h.61Z"/>
      <path class="b" d="M368.43,109.2h2.05c1.82,0,3,1.13,3,2.73,0,1.73-1.22,2.84-3,2.84h-2.05v-5.57ZM370.47,114.21c1.46,0,2.37-.87,2.37-2.24s-.88-2.23-2.46-2.23h-1.34v4.47h1.43Z"/>
    </g>
  </g>
  <g>
    <path d="M52.11,42.27c0,3.04-2.11,4.99-4.83,4.99-1.3,0-2.34-.41-3.04-1.26v1.12h-2.68v-13.36h2.81v4.7c.72-.79,1.71-1.17,2.92-1.17,2.72,0,4.83,1.94,4.83,4.99ZM49.26,42.27c0-1.67-1.06-2.68-2.47-2.68s-2.47,1.01-2.47,2.68,1.06,2.68,2.47,2.68,2.47-1.01,2.47-2.68Z"/>
    <path d="M53.29,45.49c0-1.04.77-1.73,1.75-1.73s1.75.68,1.75,1.73-.77,1.76-1.75,1.76-1.75-.74-1.75-1.76Z"/>
    <path d="M64.06,41.73v-7.22h1.33v7.17c0,2.99,1.4,4.36,3.85,4.36s3.87-1.37,3.87-4.36v-7.17h1.3v7.22c0,3.62-1.95,5.49-5.17,5.49s-5.19-1.87-5.19-5.49Z"/>
    <path d="M86.87,41.62v5.49h-1.28v-5.37c0-2-1.04-3.02-2.84-3.02-2.04,0-3.31,1.26-3.31,3.42v4.97h-1.28v-9.47h1.22v1.75c.68-1.15,1.96-1.82,3.6-1.82,2.3,0,3.89,1.33,3.89,4.05Z"/>
    <path d="M91.8,36.52v1.12h2.92v1.08h-2.88v8.39h-1.28v-8.39h-1.69v-1.08h1.69v-1.17c0-1.69,1.01-2.81,2.86-2.81.7,0,1.42.2,1.89.59l-.43.96c-.36-.31-.86-.47-1.4-.47-1.1,0-1.67.61-1.67,1.78Z"/>
    <path d="M103.59,41.24v5.87h-1.22v-1.48c-.58.97-1.69,1.57-3.26,1.57-2.14,0-3.46-1.12-3.46-2.75,0-1.46.94-2.68,3.66-2.68h3.01v-.58c0-1.62-.92-2.5-2.68-2.5-1.22,0-2.38.43-3.15,1.12l-.58-.95c.95-.81,2.36-1.28,3.85-1.28,2.45,0,3.83,1.22,3.83,3.67ZM102.31,44.27v-1.55h-2.97c-1.84,0-2.43.72-2.43,1.69,0,1.1.88,1.78,2.39,1.78s2.5-.68,3.01-1.93Z"/>
    <path d="M122.69,41.62v5.49h-1.28v-5.37c0-2-1.01-3.02-2.72-3.02-1.95,0-3.17,1.26-3.17,3.42v4.97h-1.28v-5.37c0-2-1.01-3.02-2.74-3.02-1.93,0-3.17,1.26-3.17,3.42v4.97h-1.28v-9.47h1.22v1.73c.67-1.13,1.89-1.8,3.48-1.8s2.79.67,3.37,2c.68-1.22,2.03-2,3.74-2,2.3,0,3.82,1.33,3.82,4.05Z"/>
    <path d="M125.87,34.65c0-.49.41-.9.94-.9s.94.4.94.88c0,.52-.4.94-.94.94s-.94-.41-.94-.92ZM126.16,37.64h1.28v9.47h-1.28v-9.47Z"/>
    <path d="M131,33.75h1.28v13.36h-1.28v-13.36Z"/>
    <path d="M135.55,34.65c0-.49.41-.9.94-.9s.94.4.94.88c0,.52-.4.94-.94.94s-.94-.41-.94-.92ZM135.84,37.64h1.28v9.47h-1.28v-9.47Z"/>
    <path d="M147.83,41.24v5.87h-1.22v-1.48c-.58.97-1.69,1.57-3.26,1.57-2.14,0-3.46-1.12-3.46-2.75,0-1.46.94-2.68,3.66-2.68h3.01v-.58c0-1.62-.92-2.5-2.68-2.5-1.22,0-2.38.43-3.15,1.12l-.58-.95c.96-.81,2.36-1.28,3.85-1.28,2.45,0,3.84,1.22,3.84,3.67ZM146.55,44.27v-1.55h-2.97c-1.84,0-2.43.72-2.43,1.69,0,1.1.88,1.78,2.4,1.78s2.5-.68,3.01-1.93Z"/>
    <path d="M156.07,37.57v1.24c-.11,0-.22-.02-.31-.02-1.98,0-3.19,1.26-3.19,3.49v4.83h-1.28v-9.47h1.22v1.85c.59-1.26,1.8-1.93,3.55-1.93Z"/>
    <path d="M158.23,34.65c0-.49.41-.9.94-.9s.94.4.94.88c0,.52-.4.94-.94.94s-.94-.41-.94-.92ZM158.52,37.64h1.28v9.47h-1.28v-9.47Z"/>
    <path d="M168.35,46.53c-.5.45-1.26.67-2,.67-1.78,0-2.77-1.01-2.77-2.75v-5.73h-1.69v-1.08h1.69v-2.07h1.28v2.07h2.88v1.08h-2.88v5.65c0,1.12.58,1.73,1.64,1.73.52,0,1.04-.16,1.4-.49l.45.92Z"/>
    <path d="M178.63,37.64l-4.74,10.6c-.79,1.85-1.8,2.45-3.15,2.45-.88,0-1.73-.29-2.3-.86l.59-.95c.47.47,1.04.72,1.73.72.85,0,1.42-.4,1.96-1.58l.42-.92-4.23-9.45h1.33l3.57,8.05,3.57-8.05h1.26Z"/>
    <path d="M184.85,34.65c0-.49.41-.9.94-.9s.94.4.94.88c0,.52-.4.94-.94.94s-.94-.41-.94-.92ZM185.14,37.64h1.28v9.47h-1.28v-9.47Z"/>
    <path d="M188.67,46.03l.58-1.01c.76.59,2.04,1.06,3.37,1.06,1.8,0,2.54-.61,2.54-1.55,0-2.47-6.14-.52-6.14-4.27,0-1.55,1.33-2.7,3.75-2.7,1.22,0,2.56.34,3.35.88l-.56,1.03c-.83-.58-1.82-.81-2.79-.81-1.71,0-2.47.67-2.47,1.57,0,2.56,6.14.63,6.14,4.27,0,1.64-1.44,2.7-3.91,2.7-1.57,0-3.08-.5-3.85-1.17Z"/>
    <path d="M212.14,33.75v13.36h-1.22v-1.87c-.77,1.28-2.09,1.96-3.65,1.96-2.7,0-4.72-1.96-4.72-4.83s2.02-4.81,4.72-4.81c1.51,0,2.81.65,3.6,1.87v-5.69h1.28ZM210.88,42.37c0-2.21-1.51-3.69-3.51-3.69s-3.53,1.48-3.53,3.69,1.51,3.69,3.53,3.69,3.51-1.48,3.51-3.69Z"/>
    <path d="M215.42,34.65c0-.49.41-.9.94-.9s.94.4.94.88c0,.52-.4.94-.94.94s-.94-.41-.94-.92ZM215.71,37.64h1.28v9.47h-1.28v-9.47Z"/>
    <path d="M225.32,37.57v1.24c-.11,0-.22-.02-.31-.02-1.98,0-3.19,1.26-3.19,3.49v4.83h-1.28v-9.47h1.22v1.85c.59-1.26,1.8-1.93,3.55-1.93Z"/>
    <path d="M236.01,42.77h-7.92c.14,1.98,1.66,3.29,3.73,3.29,1.15,0,2.18-.41,2.9-1.24l.72.83c-.85,1.01-2.16,1.55-3.65,1.55-2.95,0-4.97-2.02-4.97-4.83s1.96-4.81,4.63-4.81,4.59,1.96,4.59,4.81c0,.11-.02.25-.02.4ZM228.09,41.82h6.72c-.16-1.85-1.51-3.15-3.37-3.15s-3.19,1.3-3.35,3.15Z"/>
    <path d="M237.68,42.37c0-2.83,2.05-4.81,4.88-4.81,1.6,0,2.95.63,3.71,1.87l-.95.65c-.65-.95-1.66-1.4-2.75-1.4-2.07,0-3.58,1.48-3.58,3.69s1.51,3.69,3.58,3.69c1.1,0,2.11-.43,2.75-1.39l.95.65c-.76,1.22-2.11,1.87-3.71,1.87-2.83,0-4.88-2-4.88-4.83Z"/>
    <path d="M253.76,46.53c-.5.45-1.26.67-2,.67-1.78,0-2.77-1.01-2.77-2.75v-5.73h-1.69v-1.08h1.69v-2.07h1.28v2.07h2.88v1.08h-2.88v5.65c0,1.12.58,1.73,1.64,1.73.52,0,1.04-.16,1.4-.49l.45.92Z"/>
    <path d="M256.08,33.75h1.28v13.36h-1.28v-13.36Z"/>
    <path d="M268.88,37.64l-4.73,10.6c-.79,1.85-1.8,2.45-3.15,2.45-.88,0-1.73-.29-2.3-.86l.59-.95c.47.47,1.04.72,1.73.72.85,0,1.42-.4,1.96-1.58l.41-.92-4.23-9.45h1.33l3.57,8.05,3.56-8.05h1.26Z"/>
    <path d="M280.16,37.57v1.24c-.11,0-.22-.02-.31-.02-1.98,0-3.19,1.26-3.19,3.49v4.83h-1.28v-9.47h1.22v1.85c.59-1.26,1.8-1.93,3.55-1.93Z"/>
    <path d="M290.86,42.77h-7.92c.14,1.98,1.66,3.29,3.73,3.29,1.15,0,2.18-.41,2.9-1.24l.72.83c-.85,1.01-2.16,1.55-3.66,1.55-2.95,0-4.97-2.02-4.97-4.83s1.96-4.81,4.63-4.81,4.59,1.96,4.59,4.81c0,.11-.02.25-.02.4ZM282.93,41.82h6.72c-.16-1.85-1.51-3.15-3.37-3.15s-3.19,1.3-3.35,3.15Z"/>
    <path d="M293.48,33.75h1.28v13.36h-1.28v-13.36Z"/>
    <path d="M305.47,41.24v5.87h-1.22v-1.48c-.58.97-1.69,1.57-3.26,1.57-2.14,0-3.46-1.12-3.46-2.75,0-1.46.94-2.68,3.66-2.68h3.01v-.58c0-1.62-.92-2.5-2.68-2.5-1.22,0-2.38.43-3.15,1.12l-.58-.95c.95-.81,2.36-1.28,3.85-1.28,2.45,0,3.83,1.22,3.83,3.67ZM304.19,44.27v-1.55h-2.97c-1.84,0-2.43.72-2.43,1.69,0,1.1.88,1.78,2.39,1.78s2.5-.68,3.01-1.93Z"/>
    <path d="M313.93,46.53c-.5.45-1.26.67-2,.67-1.78,0-2.77-1.01-2.77-2.75v-5.73h-1.69v-1.08h1.69v-2.07h1.28v2.07h2.88v1.08h-2.88v5.65c0,1.12.58,1.73,1.64,1.73.52,0,1.04-.16,1.4-.49l.45.92Z"/>
    <path d="M324.5,42.77h-7.92c.14,1.98,1.66,3.29,3.73,3.29,1.15,0,2.18-.41,2.9-1.24l.72.83c-.85,1.01-2.16,1.55-3.65,1.55-2.95,0-4.97-2.02-4.97-4.83s1.96-4.81,4.63-4.81,4.59,1.96,4.59,4.81c0,.11-.02.25-.02.4ZM316.58,41.82h6.72c-.16-1.85-1.51-3.15-3.37-3.15s-3.19,1.3-3.35,3.15Z"/>
    <path d="M335.77,33.75v13.36h-1.22v-1.87c-.77,1.28-2.09,1.96-3.66,1.96-2.7,0-4.72-1.96-4.72-4.83s2.02-4.81,4.72-4.81c1.51,0,2.81.65,3.6,1.87v-5.69h1.28ZM334.51,42.37c0-2.21-1.51-3.69-3.51-3.69s-3.53,1.48-3.53,3.69,1.51,3.69,3.53,3.69,3.51-1.48,3.51-3.69Z"/>
    <path d="M349.03,46.53c-.5.45-1.26.67-2,.67-1.78,0-2.77-1.01-2.77-2.75v-5.73h-1.69v-1.08h1.69v-2.07h1.28v2.07h2.88v1.08h-2.88v5.65c0,1.12.58,1.73,1.64,1.73.52,0,1.04-.16,1.4-.49l.45.92Z"/>
    <path d="M350.4,42.37c0-2.81,2.05-4.81,4.83-4.81s4.81,2,4.81,4.81-2.03,4.83-4.81,4.83-4.83-2.02-4.83-4.83ZM358.73,42.37c0-2.21-1.49-3.69-3.51-3.69s-3.53,1.48-3.53,3.69,1.51,3.69,3.53,3.69,3.51-1.48,3.51-3.69Z"/>
    <path d="M366.04,46.03l.58-1.01c.76.59,2.04,1.06,3.37,1.06,1.8,0,2.54-.61,2.54-1.55,0-2.47-6.14-.52-6.14-4.27,0-1.55,1.33-2.7,3.75-2.7,1.22,0,2.56.34,3.35.88l-.56,1.03c-.83-.58-1.82-.81-2.79-.81-1.71,0-2.47.67-2.47,1.57,0,2.56,6.14.63,6.14,4.27,0,1.64-1.44,2.7-3.91,2.7-1.57,0-3.08-.5-3.85-1.17Z"/>
    <path d="M381.14,46.53c-.5.45-1.26.67-2,.67-1.78,0-2.77-1.01-2.77-2.75v-5.73h-1.69v-1.08h1.69v-2.07h1.28v2.07h2.88v1.08h-2.88v5.65c0,1.12.58,1.73,1.64,1.73.52,0,1.04-.16,1.4-.49l.45.92Z"/>
    <path d="M388.23,37.57v1.24c-.11,0-.22-.02-.31-.02-1.98,0-3.19,1.26-3.19,3.49v4.83h-1.28v-9.47h1.22v1.85c.59-1.26,1.8-1.93,3.55-1.93Z"/>
    <path d="M399.21,37.64v9.47h-1.22v-1.73c-.67,1.15-1.89,1.82-3.4,1.82-2.41,0-4-1.35-4-4.07v-5.49h1.28v5.37c0,2.02,1.04,3.04,2.85,3.04,1.98,0,3.22-1.28,3.22-3.44v-4.97h1.28Z"/>
    <path d="M401.84,42.37c0-2.83,2.05-4.81,4.88-4.81,1.6,0,2.95.63,3.71,1.87l-.96.65c-.65-.95-1.66-1.4-2.75-1.4-2.07,0-3.58,1.48-3.58,3.69s1.51,3.69,3.58,3.69c1.1,0,2.11-.43,2.75-1.39l.96.65c-.76,1.22-2.11,1.87-3.71,1.87-2.83,0-4.88-2-4.88-4.83Z"/>
    <path d="M417.92,46.53c-.5.45-1.26.67-2,.67-1.78,0-2.77-1.01-2.77-2.75v-5.73h-1.69v-1.08h1.69v-2.07h1.28v2.07h2.88v1.08h-2.88v5.65c0,1.12.58,1.73,1.64,1.73.52,0,1.04-.16,1.4-.49l.45.92Z"/>
    <path d="M428.77,37.64v9.47h-1.22v-1.73c-.67,1.15-1.89,1.82-3.4,1.82-2.41,0-4-1.35-4-4.07v-5.49h1.28v5.37c0,2.02,1.04,3.04,2.84,3.04,1.98,0,3.22-1.28,3.22-3.44v-4.97h1.28Z"/>
    <path d="M437.12,37.57v1.24c-.11,0-.22-.02-.31-.02-1.98,0-3.19,1.26-3.19,3.49v4.83h-1.28v-9.47h1.22v1.85c.59-1.26,1.8-1.93,3.55-1.93Z"/>
    <path d="M446.72,41.24v5.87h-1.22v-1.48c-.58.97-1.69,1.57-3.26,1.57-2.14,0-3.46-1.12-3.46-2.75,0-1.46.94-2.68,3.66-2.68h3.01v-.58c0-1.62-.92-2.5-2.68-2.5-1.22,0-2.38.43-3.15,1.12l-.58-.95c.96-.81,2.36-1.28,3.85-1.28,2.45,0,3.84,1.22,3.84,3.67ZM445.44,44.27v-1.55h-2.97c-1.84,0-2.43.72-2.43,1.69,0,1.1.88,1.78,2.4,1.78s2.5-.68,3.01-1.93Z"/>
    <path d="M450.19,33.75h1.28v13.36h-1.28v-13.36Z"/>
    <path d="M468.46,41.62v5.49h-1.28v-5.37c0-2-1.04-3.02-2.84-3.02-2.04,0-3.31,1.26-3.31,3.42v4.97h-1.28v-9.47h1.22v1.75c.68-1.15,1.96-1.82,3.6-1.82,2.3,0,3.89,1.33,3.89,4.05Z"/>
    <path d="M470.98,42.37c0-2.81,2.05-4.81,4.83-4.81s4.81,2,4.81,4.81-2.03,4.83-4.81,4.83-4.83-2.02-4.83-4.83ZM479.31,42.37c0-2.21-1.49-3.69-3.51-3.69s-3.53,1.48-3.53,3.69,1.51,3.69,3.53,3.69,3.51-1.48,3.51-3.69Z"/>
    <path d="M491.18,37.64l-4.21,9.47h-1.31l-4.2-9.47h1.33l3.55,8.07,3.58-8.07h1.26Z"/>
    <path d="M501.22,42.77h-7.92c.14,1.98,1.66,3.29,3.73,3.29,1.15,0,2.18-.41,2.9-1.24l.72.83c-.85,1.01-2.16,1.55-3.66,1.55-2.95,0-4.97-2.02-4.97-4.83s1.96-4.81,4.63-4.81,4.59,1.96,4.59,4.81c0,.11-.02.25-.02.4ZM493.3,41.82h6.72c-.16-1.85-1.51-3.15-3.37-3.15s-3.19,1.3-3.35,3.15Z"/>
    <path d="M503.85,33.75h1.28v13.36h-1.28v-13.36Z"/>
    <path d="M513.67,46.53c-.5.45-1.26.67-2,.67-1.78,0-2.77-1.01-2.77-2.75v-5.73h-1.69v-1.08h1.69v-2.07h1.28v2.07h2.88v1.08h-2.88v5.65c0,1.12.58,1.73,1.64,1.73.52,0,1.04-.16,1.4-.49l.45.92Z"/>
    <path d="M523.95,37.64l-4.74,10.6c-.79,1.85-1.8,2.45-3.15,2.45-.88,0-1.73-.29-2.3-.86l.59-.95c.47.47,1.04.72,1.73.72.85,0,1.42-.4,1.96-1.58l.42-.92-4.23-9.45h1.33l3.57,8.05,3.57-8.05h1.26Z"/>
    <path d="M524.92,46.21c0-.56.43-.97.96-.97s.97.41.97.97-.45.99-.97.99-.96-.43-.96-.99Z"/>
  </g>
</svg>