<?xml version="1.0" encoding="UTF-8"?>
<svg id="a" data-name="Layer 1" xmlns="http://www.w3.org/2000/svg" viewBox="0 0 566.93 316.34">
  <defs>
    <style>
      .b, .c, .d, .e, .f, .g, .h {
        fill: none;
      }

      .c {
        stroke-dasharray: 3.8 3.8;
      }

      .c, .d, .e, .g, .h {
        stroke: #010101;
        stroke-linecap: round;
        stroke-miterlimit: 10;
      }

      .i {
        fill: #111e25;
      }

      .j {
        fill: #010101;
      }

      .k {
        fill: #a7c6a5;
      }

      .l {
        fill: #a7c5a4;
      }

      .m {
        fill: #fff;
      }

      .d {
        stroke-dasharray: 4.1 4.1;
      }

      .n {
        fill: #9ebfa0;
      }

      .f {
        stroke: #111e25;
        stroke-linejoin: round;
        stroke-width: 1.5px;
      }

      .g {
        stroke-dasharray: 4.03 4.03;
      }

      .h {
        stroke-dasharray: 4.15 4.15;
      }

      .o {
        fill: #8ea88e;
      }
    </style>
  </defs>
  <g>
    <polygon class="k" points="351.44 108.5 350.94 108.94 350.36 108.5 350.94 108.01 351.44 108.5"/>
    <polygon class="k" points="352.54 116.17 352.62 116.26 352.54 116.34 352.44 116.26 352.54 116.17"/>
    <polygon class="k" points="309.2 117.92 310.02 118.19 309.2 118.48 309 118.19 309.2 117.92"/>
    <polygon class="k" points="355.76 120.14 355.76 120.1 355.78 120.14 355.76 120.15 355.76 120.14"/>
    <polygon class="k" points="355.76 125.15 356.46 125.93 355.76 126.69 355.04 125.93 355.76 125.15"/>
    <polygon class="k" points="344.52 125.53 344.98 125.93 344.52 126.43 344.16 125.93 344.52 125.53"/>
    <polygon class="k" points="383 125.93 383.06 125.87 383.1 125.93 383.06 126.03 383 125.93"/>
    <polygon class="k" points="346.12 127.46 346.34 127.88 346.12 128.3 345.82 127.88 346.12 127.46"/>
    <polygon class="k" points="332.48 125.93 331.68 126.71 331.24 125.93 331.68 125.15 332.48 125.93"/>
    <polygon class="k" points="336.68 127.88 336.5 128.14 336.14 127.88 335.66 125.93 336.5 124.27 337.32 125.93 336.68 127.88"/>
    <polygon class="k" points="347.74 131.04 347.06 131.75 346.64 133.69 346.4 135.62 346.84 137.56 347.74 139.24 348 139.49 347.74 139.66 346.12 141.22 344.7 139.49 345.46 137.56 344.52 135.85 343.92 137.56 344.16 139.49 342.92 140.61 341.56 141.43 341.32 141.55 341.28 141.43 340.74 139.49 339.78 137.56 341.32 135.66 341.34 135.62 341.32 135.6 340.06 133.69 339.82 131.75 339.7 131.63 338.1 131.63 336.5 131.5 336.34 131.75 336.5 132.13 338.1 133.52 338.14 133.69 338.1 133.71 337.24 135.62 338.1 136.3 339.64 137.56 338.84 139.49 338.1 141.19 337.74 141.43 336.5 142.2 336.24 141.43 334.88 140.06 333.6 141.43 333.28 142.23 331.68 141.47 331.22 141.43 330.08 140.9 328.46 140.29 326.86 140.06 325.66 141.43 325.68 143.38 325.26 143.97 324.86 143.38 323.64 142.22 322.72 141.43 322.04 140.67 320.44 140.63 319.76 141.43 318.84 143.09 318.24 143.38 317.22 144.5 315.62 143.76 314.62 145.3 315.62 146.92 317.06 147.25 316.58 149.17 317.22 150.45 317.72 151.12 317.22 151.75 315.62 151.6 314.3 153.05 314.02 153.79 312.58 154.99 313.28 156.93 312.42 158.33 311.02 156.93 310.8 156.57 310.2 154.99 310.8 153.35 311.14 153.05 312.42 152.72 313.86 151.12 312.42 149.69 310.8 151.1 310.78 151.12 309.2 152.36 308.34 153.05 307.6 153.43 307.26 153.05 305.98 152.19 304.38 151.9 302.78 152.3 301.18 151.62 299.56 152.64 298.08 153.05 298.92 154.99 298.24 156.93 297.96 157.07 297.8 156.93 296.86 154.99 297.94 153.05 296.36 151.33 294.86 153.05 294.74 153.25 294.22 153.05 293.14 152.02 292.76 151.12 293.14 150.01 293.54 149.17 293.14 148.79 291.64 149.17 291.54 149.21 290.08 151.12 289.94 151.21 289.86 151.12 288.32 149.44 287.08 151.12 286.72 152.4 285.12 152.47 283.8 151.12 283.52 150.83 283.18 151.12 282.16 153.05 281.9 153.18 280.3 153.22 278.7 153.29 277.78 154.99 277.08 155.98 275.78 156.93 275.48 157.14 273.88 157.95 273 158.86 272.86 160.81 272.28 161.95 271.88 162.73 272.28 164.39 272.3 164.68 272.28 164.79 270.66 165.55 269.84 166.6 269.44 168.55 269.44 170.47 269.06 171.73 267.98 172.42 267.52 174.36 267.48 176.29 267.66 178.23 267.46 179.76 267.16 180.16 265.88 182.1 266.14 184.03 265.84 184.37 265.04 185.97 264.96 187.92 264.66 189.84 264.96 191.79 264.3 193.72 264.56 195.66 264.56 197.59 264.8 199.53 264.88 201.46 265.38 203.4 265.18 205.35 265 207.27 264.24 209.06 264.08 209.22 264.24 209.35 264.76 211.14 265.84 212.76 265.96 213.09 265.96 215.01 266.1 216.96 266.1 218.9 266.36 220.83 265.86 222.77 266.78 224.7 267.46 226.47 267.46 226.64 267.48 228.57 267.46 228.68 267.34 228.57 265.84 227.73 264.96 228.57 265.84 230.25 266.04 230.51 267.12 232.46 267.46 233.15 267.9 234.39 267.86 236.33 268.08 238.26 268.44 240.2 269.06 241.04 269.38 242.13 269.58 244.07 269.6 246 269.88 247.94 270.66 249.68 270.76 249.89 271.8 251.81 272.28 252.31 272.96 253.76 273.4 255.68 273.88 256.5 275.48 257.53 275.5 257.63 275.92 259.55 277.08 260.64 277.56 261.5 278.7 262.97 280.3 263.2 281.9 262.76 283.52 262.91 285.12 263.39 285.18 263.44 285.12 263.5 284.2 265.37 285.12 266.86 286.72 266.04 287.6 265.37 288.32 264.42 289.94 263.75 291.3 265.37 291.54 265.65 293.14 266.13 293.88 265.37 293.14 264.15 292.52 263.44 293.14 262.95 294.74 263.18 295.26 263.44 296.36 265.08 297.96 263.96 299.56 264.74 300.72 263.44 300.94 261.5 301.18 261.1 301.82 261.5 302.78 262.17 304.38 263.16 305.98 262.79 306.82 261.5 305.98 260.56 304.86 259.55 304.56 257.63 305.98 256.88 307.6 257.04 308.62 257.63 309.2 258.66 309.8 257.63 310.8 256.29 312.42 255.74 312.56 255.68 314.02 255.21 315.12 253.76 315.62 252.94 316.58 251.81 317.22 251.56 317.52 251.81 318.46 253.76 317.64 255.68 318.84 256.9 319.74 255.68 319.08 253.76 320.1 251.81 320.44 250.86 321.02 251.81 322.04 252.98 322.98 251.81 323.52 249.89 322.04 248.3 320.44 248.02 320.38 247.94 320.42 246 320.44 245.96 320.54 246 322.04 246.95 323.64 247.79 324.96 246 325.26 245.77 325.5 246 326.86 246.87 328.34 246 328.46 245.88 329.96 244.07 328.46 243.14 327.38 244.07 326.86 244.83 326.32 244.07 325.26 242.28 325.04 242.13 325.26 241.84 325.82 240.2 326.86 239.27 328.26 238.26 328.46 237.97 329.02 238.26 330.08 238.68 330.58 238.26 331.62 236.33 331.68 236.25 333.28 235.55 334.36 234.39 334.88 234.04 336.24 232.46 336.5 231.62 337.28 232.46 338.1 233.62 338.46 232.46 338.96 230.51 339.7 229.2 341.32 228.59 342.92 230 343.92 228.57 343.56 226.64 344.52 225.9 345 226.64 346.12 227.71 347.74 226.91 349.34 228.05 350.94 228.04 351.82 226.64 351.82 224.7 352.54 223.31 353.9 224.7 354.16 225.04 354.46 224.7 355.76 223.69 356.38 222.77 355.76 221.99 354.16 220.9 354.1 220.83 354.16 220.77 355.76 219.17 355.9 218.9 356.42 216.96 355.76 215.34 355.4 215.01 355.76 214.5 356.54 215.01 357.36 215.26 357.52 215.01 357.36 214.48 356.56 213.09 356.94 211.14 356.46 209.22 357.36 208.38 358.98 208.68 359.42 209.22 360.58 210.48 361.54 211.14 361.96 213.09 362.1 215.01 362.18 215.24 363.78 215.32 364.62 215.01 363.78 213.09 362.96 211.14 363.78 210.7 364.56 209.22 363.78 208.07 362.18 208.84 362.12 207.27 362.18 205.86 362.22 205.35 362.18 205.23 360.58 203.82 360.24 203.4 360.58 201.93 361.2 201.46 360.58 200.88 360.22 199.53 360.58 198.88 361.06 197.59 361.48 195.66 362.18 194.99 363.78 194.86 364.8 193.72 364.82 191.79 365.4 191.52 365.7 191.79 367 192.86 368.08 191.79 367 190.44 366.64 189.84 367 188.41 367.36 187.92 368.6 186.76 369.48 185.97 370.22 185.06 371.06 184.03 371.82 183.4 373.42 183.69 374.2 182.1 374.68 180.16 375.02 179.55 375.64 178.23 375.78 176.29 375.02 175.28 374.14 174.36 374.82 172.42 373.42 172.04 371.82 172.36 370.22 171.85 369.12 172.42 368.8 174.36 368.6 174.61 368.5 174.36 368.48 172.42 367.92 170.47 367 169.42 365.68 168.55 365.4 167.4 363.78 167.75 362.94 166.6 362.18 165.57 361.38 164.68 362.18 163.86 363.06 164.68 363.78 165.44 364.24 164.68 364.24 162.73 363.78 161.91 362.88 160.81 362.18 159.83 360.58 160.5 360.42 160.81 360.58 162.52 360.62 162.73 360.58 162.79 359.82 164.68 358.98 165.82 358.54 164.68 357.84 162.73 357.36 161.95 355.76 162.69 354.16 160.98 353.94 160.81 354.16 160.48 354.68 158.86 354.98 156.93 354.16 155.75 353.34 154.99 352.54 153.24 352.2 153.05 352.54 152.93 353.84 151.12 353.8 149.17 354.16 148.51 354.78 149.17 354.88 151.12 355.74 153.05 355.76 153.06 355.78 153.05 356.32 151.12 356 149.17 355.76 147.71 355.42 147.25 355.76 147.1 357.36 147.02 357.68 147.25 358.98 148.05 359.92 147.25 360.58 146.58 361.42 145.3 361.18 143.38 361.6 141.43 360.58 140.08 359.56 141.43 359.5 143.38 358.98 143.93 358.74 143.38 358.18 141.43 357.36 140.21 355.76 140.61 354.16 140.31 352.96 139.49 352.54 139.2 352.34 139.49 351.6 141.43 350.94 143.02 350.72 143.38 349.34 145.13 349.1 145.3 348.92 147.25 349.34 147.59 350.94 148.07 351.84 147.25 352.54 146.81 353.54 147.25 352.54 148.13 351.9 149.17 351.32 151.12 350.94 152.21 349.34 152.76 348.76 151.12 348.3 149.17 347.74 148.28 347.16 147.25 347.28 145.3 347.74 144.73 348.64 143.38 349.06 141.43 349.34 140.82 349.74 139.49 349.34 138.84 348.38 137.56 349.34 135.81 350.94 135.68 351.2 135.62 350.94 135.43 349.34 135.37 348.74 133.69 348.4 131.75 347.74 131.04"/>
    <polygon class="k" points="342.92 131.67 342.82 131.75 342.5 133.69 342.92 134.32 344.52 135.54 345.82 133.69 344.52 131.9 343.38 131.75 342.92 131.67"/>
    <polygon class="k" points="331.68 130.87 331.04 131.75 330.08 133.29 329.06 131.75 328.46 130.87 327.5 131.75 326.86 133.2 326.04 131.75 325.26 131.19 323.64 131.25 323.14 131.75 322.04 133.48 321.8 133.69 322.04 133.83 323.64 134.97 325.26 134.95 326.86 134.13 328.46 135.07 329.1 135.62 330.08 136.48 331.68 136.67 333.28 136.34 334.88 135.73 335 135.62 334.88 135.33 333.28 134.09 333.1 133.69 332.32 131.75 331.68 130.87"/>
    <polygon class="k" points="310.8 131.69 310.84 131.75 310.8 131.82 310.72 131.75 310.8 131.69"/>
    <polygon class="k" points="373.42 133.01 372.94 133.69 372.28 135.62 373.42 136.99 374.52 137.56 375.02 138.74 376.64 137.6 378.24 137.58 378.26 137.56 378.24 137.54 376.64 137.54 375.02 136.36 374.86 135.62 373.9 133.69 373.42 133.01"/>
    <polygon class="k" points="318.84 131.92 319.4 133.69 319.6 135.62 318.84 136.48 318.2 135.62 318.56 133.69 318.84 131.92"/>
    <polygon class="k" points="314.02 133.01 313.28 133.69 313.88 135.62 314.02 135.87 315.62 135.92 315.7 135.62 315.62 135.41 314.9 133.69 314.02 133.01"/>
    <polygon class="k" points="367.84 133.69 367 134.55 366.26 133.69 367 132.28 367.84 133.69"/>
    <polygon class="k" points="357.7 133.69 357.36 132.93 357.04 133.69 355.76 134.66 354.46 135.62 355.26 137.56 355.76 138.12 356.32 137.56 357.36 136.67 358.98 136.95 360.16 135.62 358.98 134.74 357.7 133.69"/>
    <polygon class="k" points="365.76 135.62 366.48 137.56 365.4 138.73 364.58 137.56 363.78 136.15 363.04 135.62 363.78 135.12 365.4 135.16 365.76 135.62"/>
    <polygon class="k" points="365.4 140.42 364.64 141.43 363.78 143.23 363.68 143.38 363.64 145.3 363.16 147.25 363.78 148.15 364.34 147.25 365.4 146.07 367 146.66 368.58 145.3 367.06 143.38 367 143.3 366.12 141.43 365.4 140.42"/>
    <polygon class="k" points="309.2 141.2 308.94 141.43 307.6 142.39 305.98 143.09 304.38 142.94 303.8 143.38 303.7 145.3 304.38 147.19 304.54 147.25 305.98 147.82 306.26 147.25 307.6 146.58 308.66 147.25 309.2 149.06 310.18 147.25 309.2 145.82 309.06 145.3 309.2 143.91 309.28 143.38 309.36 141.43 309.2 141.2"/>
    <polygon class="k" points="301.18 140.82 301.86 141.43 301.18 142.1 300.7 141.43 301.18 140.82"/>
    <polygon class="k" points="338.1 142.73 338.12 143.38 338.5 145.3 338.44 147.25 338.36 149.17 338.1 149.54 337.34 149.17 337.44 147.25 337.52 145.3 337.96 143.38 338.1 142.73"/>
    <polygon class="k" points="316.9 141.43 317.22 140.73 317.74 141.43 317.22 142.63 316.9 141.43"/>
    <polygon class="k" points="299.56 143.28 299.66 143.38 299.94 145.3 299.56 145.76 299.3 145.3 299.5 143.38 299.56 143.28"/>
    <polygon class="k" points="345.48 143.38 346.12 141.72 346.58 143.38 346.12 143.89 345.48 143.38"/>
    <polygon class="k" points="343.62 143.38 342.92 144.31 342.2 143.38 342.92 142.01 343.62 143.38"/>
    <polygon class="k" points="322.04 145 320.44 144.66 319.06 145.3 318.84 145.32 317.3 147.25 318.08 149.17 318.84 150.01 319.54 151.12 320.44 151.94 321.24 151.12 322.04 149.78 323.2 151.12 323.64 152.23 323.88 151.12 324.76 149.17 323.64 148.43 322.48 147.25 322.34 145.3 322.04 145"/>
    <polygon class="k" points="312.42 143.61 313.22 145.3 312.66 147.25 312.42 147.42 312.12 147.25 311.16 145.3 312.42 143.61"/>
    <polygon class="k" points="305.98 144.35 306.12 145.3 305.98 146.18 305.76 145.3 305.98 144.35"/>
    <polygon class="k" points="400.68 139.49 400.72 139.36 400.76 139.49 400.72 139.55 400.68 139.49"/>
    <polygon class="k" points="344.52 146.89 344.92 147.25 344.52 148.45 343.2 149.17 342.92 149.25 342.64 149.17 341.32 148.58 340.88 147.25 341.32 145.86 342.92 147.08 344.52 146.89"/>
    <polygon class="k" points="333.38 145.3 333.28 145.65 333.22 145.3 333.28 145.02 333.38 145.3"/>
    <polygon class="k" points="330.26 145.3 330.08 144.58 328.46 144.37 326.86 145.04 326.58 145.3 325.9 147.25 326.86 148.16 327.62 149.17 327.9 151.12 328.44 153.05 328.46 153.06 330.08 153.37 330.38 153.05 331.68 152.15 333.28 152.66 333.58 151.12 333.28 150.62 332.5 149.17 331.92 147.25 331.68 147.19 331.4 147.25 330.08 147.99 328.74 147.25 330.08 146.24 330.26 145.3"/>
    <polygon class="k" points="285.12 146.01 285.32 147.25 285.12 147.55 284.62 147.25 285.12 146.01"/>
    <polygon class="k" points="370.48 147.25 370.22 148.95 369.94 147.25 370.22 146.39 370.48 147.25"/>
    <polygon class="k" points="334.88 148.2 336.06 149.17 334.88 150.07 333.98 149.17 334.88 148.2"/>
    <polygon class="k" points="369.52 141.43 370.22 140.8 370.84 141.43 370.22 142.04 369.52 141.43"/>
    <polygon class="k" points="369.18 176.29 369.3 178.23 369.52 180.16 368.6 182.08 368.6 182.1 368.6 182.18 370.22 182.54 370.44 182.1 370.92 180.16 371.82 178.9 372.96 178.23 371.82 176.92 371.4 176.29 370.22 175.12 369.18 176.29"/>
    <polygon class="k" points="367 150.59 367.34 151.12 367 152.4 366.44 151.12 367 150.59"/>
    <polygon class="k" points="362.98 149.17 362.18 150.97 361.62 149.17 362.18 148.37 362.98 149.17"/>
    <polygon class="k" points="373.42 144.79 374.16 145.3 373.42 145.61 373.32 145.3 373.42 144.79"/>
    <polygon class="k" points="379.58 178.23 379.84 176.73 380.2 178.23 379.84 178.98 379.58 178.23"/>
    <polygon class="k" points="336.5 150.34 336.72 151.12 336.5 151.88 336.22 151.12 336.5 150.34"/>
    <polygon class="k" points="363.92 178.23 363.78 178.56 363.6 178.23 362.74 176.29 362.18 175.75 361.78 176.29 361.12 178.23 361.9 180.16 361.96 182.1 362.18 183.3 362.74 184.03 363.78 184.73 364.78 184.03 364.5 182.1 365.4 180.64 367 180.41 367.48 180.16 367 178.73 366.66 178.23 365.88 176.29 365.4 174.67 364.7 176.29 363.92 178.23"/>
    <polygon class="k" points="354.16 145.25 353.32 143.38 354.16 142.22 355.26 143.38 354.16 145.25"/>
    <polygon class="k" points="381.5 151.12 381.44 151.16 381.4 151.12 381.44 150.85 381.5 151.12"/>
    <polygon class="k" points="344.14 156.93 344.52 157.89 345.14 158.86 344.52 159.95 343.3 160.81 344.52 161.64 346.12 161.53 346.7 160.81 347.24 158.86 346.66 156.93 346.12 156.42 345.1 154.99 344.52 153.35 343.62 154.99 344.14 156.93"/>
    <polygon class="k" points="325.26 158.48 325.76 158.86 325.26 159.57 324.64 158.86 325.26 158.48"/>
    <polygon class="k" points="362.18 151.81 362.34 153.05 362.18 153.18 360.84 154.99 360.58 155.41 358.98 155.09 358.84 154.99 357.56 153.05 358.98 151.67 360.58 152 362.18 151.81"/>
    <polygon class="k" points="339.7 160.06 341.32 160.29 342.22 160.81 342.46 162.73 341.32 163.09 340.72 162.73 339.7 161.93 338.38 160.81 339.7 160.06"/>
    <polygon class="k" points="376.64 154.7 376.76 154.99 376.64 155.26 376.48 154.99 376.64 154.7"/>
    <polygon class="k" points="321.98 158.86 321.88 156.93 322.04 156.76 322.14 156.93 322.24 158.86 322.04 158.94 321.98 158.86"/>
    <polygon class="k" points="317.72 158.86 318.84 156.99 319.4 158.86 318.84 159.85 317.72 158.86"/>
    <polygon class="k" points="361.72 187.92 361.42 189.84 362.18 190.44 363.78 190.23 363.88 189.84 363.78 189.48 362.62 187.92 362.18 186.87 361.72 187.92"/>
    <polygon class="k" points="314.02 159.89 314.26 160.81 314.02 162.08 313.68 160.81 314.02 159.89"/>
    <polygon class="k" points="350.94 154.3 350.66 154.99 350.16 156.93 349.34 158.59 348.96 158.86 349.34 159.41 350.94 160.33 352.48 158.86 352.54 158.71 353.08 156.93 352.54 156.06 351.2 154.99 350.94 154.3"/>
    <polygon class="k" points="341.14 153.05 341.32 152.93 341.42 153.05 341.46 154.99 341.36 156.93 341.32 157.09 341.22 156.93 341.1 154.99 341.14 153.05"/>
    <polygon class="k" points="325.26 259.36 326.62 259.55 325.26 260.49 324.88 259.55 325.26 259.36"/>
    <polygon class="k" points="357.28 178.23 357.36 178 357.52 178.23 357.36 178.39 357.28 178.23"/>
    <polygon class="k" points="342.92 158.63 343.4 158.86 342.92 160.1 342.4 158.86 342.92 158.63"/>
    <polygon class="k" points="334.88 153.9 336.5 153.5 336.96 154.99 336.86 156.93 336.54 158.86 336.5 159.01 336.24 160.81 334.88 161.64 334.44 160.81 334.34 158.86 334.88 158.56 336.06 156.93 334.88 155.73 333.98 154.99 334.88 153.9"/>
    <polygon class="k" points="368.6 162.33 368.96 162.73 368.6 163.28 367.8 162.73 368.6 162.33"/>
    <polygon class="k" points="350.94 162.06 351.12 162.73 351.24 164.68 350.94 165.99 350.32 164.68 350.52 162.73 350.94 162.06"/>
    <polygon class="k" points="347.74 161.95 348.64 162.73 347.74 163.91 347.04 162.73 347.74 161.95"/>
    <polygon class="k" points="317.22 263.88 317.14 263.44 317.22 263.16 317.32 263.44 317.22 263.88"/>
    <polygon class="k" points="378.28 197.59 378.24 197.64 378.2 197.59 378.24 197.55 378.28 197.59"/>
    <polygon class="k" points="373.42 164.01 374.62 164.68 373.42 165.53 372.82 164.68 373.42 164.01"/>
    <polygon class="k" points="263.82 215.01 264.24 214.38 264.94 215.01 264.24 215.49 263.82 215.01"/>
    <polygon class="k" points="312.42 261.33 312.06 259.55 312.42 259.23 312.72 259.55 312.42 261.33"/>
    <polygon class="k" points="384.8 174.36 384.66 174.48 384.54 174.36 384.66 174.21 384.8 174.36"/>
    <polygon class="k" points="380.08 174.36 379.84 175.85 378.24 175.94 377.5 174.36 378.24 173.49 379.84 173.47 380.08 174.36"/>
    <polygon class="k" points="355.76 162.88 355.82 164.68 355.76 164.71 355.7 164.68 355.76 162.88"/>
    <polygon class="k" points="371.82 165.78 372.6 166.6 371.82 168.28 370.24 166.6 371.82 165.78"/>
    <polygon class="k" points="378.42 187.92 378.24 188.36 378.08 187.92 378.24 187.71 378.42 187.92"/>
    <polygon class="k" points="386.86 176.29 387.88 175.83 388.58 176.29 387.88 176.65 386.86 176.29"/>
    <polygon class="k" points="364.8 199.53 363.78 198.9 363.62 199.53 362.38 201.46 363.78 202.91 365.4 201.76 365.52 201.46 365.4 199.97 364.8 199.53"/>
    <polygon class="k" points="386.28 182.1 386.26 182.14 386.24 182.1 386.26 182.07 386.28 182.1"/>
    <polygon class="k" points="360.58 167.84 361.04 168.55 360.88 170.47 360.58 171.37 359.8 170.47 360.14 168.55 360.58 167.84"/>
    <polygon class="k" points="355.76 170.3 355.9 170.47 355.76 171.01 355.06 170.47 355.76 170.3"/>
    <polygon class="k" points="265.76 222.77 264.24 223.97 263.82 222.77 264.24 221.11 265.76 222.77"/>
    <polygon class="k" points="375.02 183.74 375.22 184.03 375.02 184.49 374.3 184.03 375.02 183.74"/>
    <polygon class="k" points="310.8 261.21 312.18 261.5 310.8 261.77 310.6 261.5 310.8 261.21"/>
    <polygon class="k" points="373.42 185.27 373.7 185.97 374.36 187.92 373.42 189.2 372.2 187.92 373.28 185.97 373.42 185.27"/>
    <polygon class="k" points="357.36 200.71 357.64 201.46 357.36 201.63 357.2 201.46 357.36 200.71"/>
    <polygon class="k" points="334.88 238.6 334.68 238.26 334.88 238.06 335.06 238.26 334.88 238.6"/>
    <polygon class="k" points="370.22 189.43 371.36 189.84 370.22 190.49 369.62 189.84 370.22 189.43"/>
    <polygon class="k" points="365.4 155.05 365.36 154.99 365.4 154.95 365.42 154.99 365.4 155.05"/>
    <polygon class="k" points="325.02 255.68 325.26 254.56 325.42 255.68 325.26 255.91 325.02 255.68"/>
    <polygon class="k" points="370.22 196.42 370.7 197.59 370.22 198.25 369.3 197.59 370.22 196.42"/>
    <polygon class="k" points="358.98 195.95 359.18 197.59 358.98 197.74 358.6 197.59 358.98 195.95"/>
    <polygon class="k" points="387.88 199.09 388.16 199.53 387.88 200.06 387.38 199.53 387.88 199.09"/>
    <polygon class="k" points="371.82 199.51 371.84 199.53 372.76 201.46 371.82 202.66 370.62 201.46 371.8 199.53 371.82 199.51"/>
    <polygon class="k" points="330.08 234.12 330.44 234.39 330.08 234.82 329.8 234.39 330.08 234.12"/>
    <polygon class="k" points="368.6 203.78 369.36 205.35 368.6 207.25 368.3 207.27 367 207.42 366.36 207.27 367 206.99 367.4 205.35 368.6 203.78"/>
    <polygon class="k" points="346.7 224.7 346.12 225.19 345.6 224.7 346.12 224.01 346.7 224.7"/>
    <polygon class="k" points="367.2 213.09 367.48 215.01 367 215.3 366.22 215.01 366.74 213.09 367 212.92 367.2 213.09"/>
    <polygon class="k" points="352.54 213.75 351.96 213.09 352.16 211.14 352.54 210.23 353.42 211.14 352.9 213.09 352.54 213.75"/>
    <polygon class="k" points="349.24 230.51 349.34 229.69 349.44 230.51 349.34 230.72 349.24 230.51"/>
    <polygon class="k" points="350.94 221.19 350.46 220.83 350.94 219.42 351.52 220.83 350.94 221.19"/>
    <polygon class="k" points="349.34 222.58 349.42 222.77 349.34 224.03 349.08 222.77 349.34 222.58"/>
    <polygon class="k" points="383.06 162.29 383.52 162.73 383.06 163.34 382.96 162.73 383.06 162.29"/>
    <polygon class="k" points="317.22 258.41 317.54 259.55 317.22 260.41 316.68 259.55 317.22 258.41"/>
    <polygon class="l" points="291.54 160.14 289.94 160.46 288.32 159.95 286.72 159.93 285.12 160.5 283.52 159.55 281.9 160.65 281.72 160.81 280.44 162.73 280.3 162.81 279.9 162.73 278.7 162.24 278.26 162.73 277.08 164.47 276.94 164.68 275.5 166.6 275.48 166.62 274.08 168.55 274.1 170.47 273.88 170.97 272.58 172.42 272.28 173.1 271.56 174.36 270.88 176.29 270.74 178.23 270.66 178.56 269.74 180.16 269.24 182.1 269.08 184.03 269.18 185.97 269.06 186.79 268.62 187.92 268.28 189.84 268.08 191.79 267.7 193.72 267.86 195.66 267.84 197.59 267.64 199.53 267.68 201.46 267.78 203.4 267.76 205.35 267.82 207.27 267.9 209.22 267.72 211.14 268.04 213.09 268.24 215.01 268.7 216.96 268.68 218.9 268.54 220.83 269.06 222.39 269.1 222.77 269.1 224.7 269.06 225.63 268.98 226.64 269.06 226.85 269.48 228.57 269.8 230.51 270.52 232.46 270.66 232.84 270.84 234.39 270.82 236.33 271.06 238.26 271.9 240.2 272.28 240.83 272.7 242.13 273.04 244.07 273.88 245.41 274.24 246 275.06 247.94 275.44 249.89 275.48 249.96 277.08 251.7 277.2 251.81 278.62 253.76 278.7 253.8 279.62 255.68 280.3 256.45 281.9 256.2 283.52 257.23 284.78 257.63 285.12 257.76 285.64 257.63 286.72 257.34 288.32 256.31 289.94 257.57 291.54 256.06 293.14 256.03 293.76 255.68 294.74 255.32 296.36 255.03 297.96 254.65 298.5 253.76 299.56 253.41 300.58 251.81 301.18 251.2 302.74 251.81 302.78 251.83 302.8 251.81 302.78 251.56 302.68 249.89 302.78 249.79 304.38 248.84 305.78 249.89 305.98 250.06 306.1 249.89 306.4 247.94 305.98 246.57 305.86 246 305.98 245.9 307.6 244.41 307.86 244.07 309.2 243.1 309.86 242.13 310.5 240.2 310.8 239.44 311.52 240.2 312.42 240.73 312.88 240.2 314.02 238.26 314.34 236.33 315.5 234.39 315.62 233.83 316.02 234.39 317.22 235.07 317.64 234.39 317.22 233.07 316.64 232.46 317.22 231.98 318.84 230.8 319.16 230.51 320.44 229.41 322.04 228.99 322.54 228.57 323.24 226.64 323.64 226.21 324.04 226.64 325.26 228.05 326.24 226.64 326.16 224.7 326.86 223.48 328.46 223.46 330.08 223.44 331.1 222.77 331.26 220.83 331.68 220.16 333.26 218.9 333.28 218.86 334.74 216.96 334.88 215.93 336.5 215.47 337.34 215.01 337.36 213.09 337.9 211.14 338.1 210.76 338.98 209.22 339.7 208.3 340.26 207.27 340.16 205.35 340.04 203.4 339.7 202.64 338.3 201.46 338.1 200.73 337.88 199.53 337.08 197.59 337.14 195.66 336.54 193.72 336.5 193.64 336.46 193.72 335.38 195.66 334.88 196.69 334.56 195.66 334.22 193.72 334.88 192.11 335.38 191.79 334.88 190.68 334.62 189.84 334.88 189.5 335.62 189.84 336.5 190.4 336.88 189.84 336.5 189.43 335.74 187.92 334.88 187.02 333.66 185.97 333.28 185.57 332.02 185.97 332 187.92 331.68 189.29 330.08 188.09 329.44 187.92 328.46 187.65 327.06 185.97 326.86 185.67 326.16 184.03 325.26 182.39 323.92 184.03 323.64 184.51 322.7 184.03 322.04 183.78 321.06 182.1 320.44 181.28 318.84 181.86 317.98 180.16 317.22 179.22 315.62 178.56 315.1 178.23 315.62 177.51 317.22 176.73 317.5 176.29 317.22 175.96 315.96 174.36 315.62 174.25 314.02 174.27 313.3 174.36 312.42 174.67 310.8 175.12 310.56 174.36 310.4 172.42 309.2 171.54 307.6 171.25 306.3 170.47 305.98 170.03 305.22 168.55 304.38 167.06 302.78 167.23 301.18 166.74 301.06 166.6 301.18 165.52 301.3 164.68 301.18 164.54 299.56 164.43 297.96 163.86 296.86 162.73 296.36 162.22 294.74 161.61 293.14 161.82 292 160.81 291.54 160.14"/>
    <polygon class="l" points="330.5 184.03 331.52 185.97 330.08 187.65 329.4 185.97 329.58 184.03 330.08 183.63 330.5 184.03"/>
    <polygon class="l" points="322.04 184.56 322.64 185.97 322.04 186.28 321.76 185.97 322.04 184.56"/>
    <polygon class="l" points="339.7 194.99 340.14 195.66 339.86 197.59 339.7 197.81 339.46 197.59 339.22 195.66 339.7 194.99"/>
    <polygon class="l" points="342.92 211.18 342.88 211.14 342.92 211.1 342.94 211.14 342.92 211.18"/>
    <polygon class="n" points="286.72 171.41 285.12 171.04 283.52 171.22 282.08 172.42 281.9 172.61 280.3 173.26 279.34 174.36 278.7 174.93 277.08 175.96 276.88 176.29 275.98 178.23 275.48 179.15 274.94 180.16 274.16 182.1 273.88 183.44 273.72 184.03 273.08 185.97 272.58 187.92 272.28 189.44 272.16 189.84 271.84 191.79 271.5 193.72 271.38 195.66 271.26 197.59 271.12 199.53 271.04 201.46 271.02 203.4 271 205.35 270.94 207.27 270.98 209.22 271.06 211.14 271.16 213.09 271.22 215.01 271.42 216.96 271.6 218.9 271.76 220.83 272.2 222.77 272.28 223.67 272.32 224.7 272.78 226.64 273.1 228.57 273.7 230.51 273.88 231.26 274.16 232.46 274.78 234.39 275.48 236.33 276.54 238.26 277.08 239.55 277.3 240.2 278.7 241.9 278.94 242.13 279.98 244.07 280.3 244.32 281.9 245.54 282.96 246 283.52 246.24 284.52 246 285.12 245.92 285.82 246 286.72 246.24 288.32 246.15 289.94 246.38 290.52 246 291.54 245.63 293.14 245.22 294.28 244.07 294.74 243.69 296.36 242.28 296.5 242.13 297.92 240.2 297.96 240.14 299.46 238.26 299.56 238.16 300.94 236.33 301.18 235.95 302.78 234.39 304.12 232.46 304.38 231.93 305.26 230.51 305.98 228.63 306.02 228.57 307.6 226.8 307.72 226.64 309.2 224.91 309.32 224.7 310.32 222.77 310.8 221.38 311.06 220.83 312 218.9 312.42 218.14 313.08 216.96 313.56 215.01 313.08 213.09 313.66 211.14 314.02 210.13 314.34 209.22 314.5 207.27 314.02 205.54 313.92 205.35 313.04 203.4 312.9 201.46 312.42 200.24 312.16 199.53 311.5 197.59 310.8 196.44 310.4 195.66 309.42 193.72 309.2 192.82 308.84 191.79 307.6 190.44 307.32 189.84 306.08 187.92 305.98 187.67 304.38 186.39 304.16 185.97 303.4 184.03 302.78 183.21 302.1 182.1 301.18 180.83 300.72 180.16 299.56 178.59 298.2 178.23 297.96 178.16 296.6 176.29 296.36 175.72 294.74 175.05 294.06 174.36 293.14 173.62 291.54 172.74 289.94 172.51 289.64 172.42 288.32 171.73 286.72 171.41"/>
    <polygon class="o" points="288.32 189.08 286.72 188.36 285.12 188.36 283.52 188.64 281.9 189.41 281.52 189.84 280.3 191.18 279.82 191.79 278.82 193.72 278.7 194 277.98 195.66 277.38 197.59 277.08 199.15 277.04 199.53 276.72 201.46 276.44 203.4 276.32 205.35 276.3 207.27 276.28 209.22 276.32 211.14 276.5 213.09 276.76 215.01 277.06 216.96 277.08 217.11 277.46 218.9 277.8 220.83 278.34 222.77 278.7 223.63 279.14 224.7 280.04 226.64 280.3 227.14 281.56 228.57 281.9 228.97 283.52 230.08 284.5 230.51 285.12 230.78 286.72 230.86 288.2 230.51 288.32 230.48 289.94 230.04 291.54 228.74 291.74 228.57 293.14 227.43 293.68 226.64 294.74 224.89 294.88 224.7 295.94 222.77 296.36 221.76 296.78 220.83 297.4 218.9 297.84 216.96 297.96 216.48 298.34 215.01 298.7 213.09 298.82 211.14 298.7 209.22 298.62 207.27 298.44 205.35 298.04 203.4 297.96 203.17 297.16 201.46 296.36 199.53 295.72 197.59 294.74 195.81 294.64 195.66 293.64 193.72 293.14 192.91 292.06 191.79 291.54 191.33 289.94 189.92 289.76 189.84 288.32 189.08"/>
  </g>
  <line class="f" x1="243.16" y1="274.99" x2="243.16" y2="91.69"/>
  <g>
    <path class="i" d="M206.48,246.85c0-3.17,1.44-4.9,3.11-4.9,1.85,0,3.03,2.05,3.03,4.89,0,3.03-1.29,4.92-3.07,4.92-1.88,0-3.07-1.96-3.07-4.9ZM211.55,246.86c0-2.52-.8-3.95-2.02-3.95s-1.99,1.42-1.99,3.92.76,3.95,1.99,3.95,2.02-1.44,2.02-3.92Z"/>
    <path class="i" d="M214.98,250.28v1.34h-1.18v-1.34h1.18Z"/>
    <path class="i" d="M220.28,241.95v9.68h-1.05v-7.9l-1.85,1.47-.6-.74,3.1-2.51h.41Z"/>
    <path class="i" d="M223.17,246.85c0-3.17,1.44-4.9,3.11-4.9,1.85,0,3.03,2.05,3.03,4.89,0,3.03-1.29,4.92-3.07,4.92-1.88,0-3.07-1.96-3.07-4.9ZM228.24,246.86c0-2.52-.8-3.95-2.02-3.95s-1.99,1.42-1.99,3.92.76,3.95,1.99,3.95,2.02-1.44,2.02-3.92Z"/>
  </g>
  <g>
    <path class="i" d="M206.48,210.83c0-3.17,1.44-4.9,3.11-4.9,1.85,0,3.03,2.05,3.03,4.89,0,3.03-1.29,4.92-3.07,4.92-1.88,0-3.07-1.96-3.07-4.9ZM211.55,210.84c0-2.52-.8-3.95-2.02-3.95s-1.99,1.42-1.99,3.92.76,3.95,1.99,3.95,2.02-1.44,2.02-3.92Z"/>
    <path class="i" d="M214.98,214.26v1.34h-1.18v-1.34h1.18Z"/>
    <path class="i" d="M220.28,205.93v9.68h-1.05v-7.9l-1.85,1.47-.6-.74,3.1-2.51h.41Z"/>
    <path class="i" d="M228.32,206.05v.94h-3.17v2.72c.21-.01.35-.01.49-.01,1.93,0,3.21,1.22,3.21,2.97s-1.27,3.07-3.14,3.07c-.84,0-1.55-.2-2.27-.57v-1.08c.7.41,1.4.64,2.1.64,1.32,0,2.23-.88,2.23-2.06,0-1.49-1.43-2.04-2.4-2.04-.38,0-.95.04-1.19.14v-4.71h4.13Z"/>
  </g>
  <g>
    <path class="i" d="M206.48,174.81c0-3.17,1.44-4.9,3.11-4.9,1.85,0,3.03,2.05,3.03,4.89,0,3.03-1.29,4.92-3.07,4.92-1.88,0-3.07-1.96-3.07-4.9ZM211.55,174.82c0-2.52-.8-3.95-2.02-3.95s-1.99,1.42-1.99,3.92.76,3.95,1.99,3.95,2.02-1.44,2.02-3.92Z"/>
    <path class="i" d="M214.98,178.24v1.34h-1.18v-1.34h1.18Z"/>
    <path class="i" d="M221.63,172.76c0,2.02-1.75,3.99-3.4,5.81h4.02v1.01h-5.91l.27-.34c1.16-1.25,3.98-4.08,3.98-6.36,0-1.46-1.06-1.95-1.89-1.95s-1.55.42-2.2,1.16v-1.32c.73-.59,1.47-.88,2.31-.88,1.67,0,2.83,1.19,2.83,2.86Z"/>
    <path class="i" d="M223.17,174.81c0-3.17,1.44-4.9,3.11-4.9,1.85,0,3.03,2.05,3.03,4.89,0,3.03-1.29,4.92-3.07,4.92-1.88,0-3.07-1.96-3.07-4.9ZM228.24,174.82c0-2.52-.8-3.95-2.02-3.95s-1.99,1.42-1.99,3.92.76,3.95,1.99,3.95,2.02-1.44,2.02-3.92Z"/>
  </g>
  <g>
    <path class="i" d="M206.48,138.77c0-3.17,1.44-4.9,3.11-4.9,1.85,0,3.03,2.05,3.03,4.89,0,3.03-1.29,4.92-3.07,4.92-1.88,0-3.07-1.96-3.07-4.9ZM211.55,138.78c0-2.52-.8-3.95-2.02-3.95s-1.99,1.42-1.99,3.92.76,3.95,1.99,3.95,2.02-1.44,2.02-3.92Z"/>
    <path class="i" d="M214.98,142.2v1.34h-1.18v-1.34h1.18Z"/>
    <path class="i" d="M221.63,136.72c0,2.02-1.75,3.99-3.4,5.81h4.02v1.01h-5.91l.27-.34c1.16-1.25,3.98-4.08,3.98-6.36,0-1.46-1.06-1.95-1.89-1.95s-1.55.42-2.2,1.16v-1.32c.73-.59,1.47-.88,2.31-.88,1.67,0,2.83,1.19,2.83,2.86Z"/>
    <path class="i" d="M228.32,133.99v.94h-3.17v2.72c.21-.01.35-.01.49-.01,1.93,0,3.21,1.22,3.21,2.97s-1.27,3.07-3.14,3.07c-.84,0-1.55-.2-2.27-.57v-1.08c.7.41,1.4.64,2.1.64,1.32,0,2.23-.88,2.23-2.06,0-1.49-1.43-2.04-2.4-2.04-.38,0-.95.04-1.19.14v-4.71h4.13Z"/>
  </g>
  <g>
    <path class="i" d="M206.48,102.75c0-3.17,1.44-4.9,3.11-4.9,1.85,0,3.03,2.05,3.03,4.89,0,3.03-1.29,4.92-3.07,4.92-1.88,0-3.07-1.96-3.07-4.9ZM211.55,102.76c0-2.52-.8-3.95-2.02-3.95s-1.99,1.42-1.99,3.92.76,3.95,1.99,3.95,2.02-1.44,2.02-3.92Z"/>
    <path class="i" d="M214.98,106.18v1.34h-1.18v-1.34h1.18Z"/>
    <path class="i" d="M220.13,102.48c1.01.31,1.58,1.22,1.58,2.35,0,1.7-1.29,2.82-2.9,2.82-.78,0-1.51-.2-2.14-.53v-1.13c.7.41,1.4.63,2.12.63,1.09,0,1.83-.63,1.83-1.75s-.84-1.82-2.24-1.82v-.97c1.43,0,2.16-.6,2.16-1.67,0-.9-.7-1.61-1.86-1.61-.7,0-1.2.18-1.81.52v-1.01c.67-.35,1.27-.46,1.93-.46,1.65,0,2.77.97,2.77,2.48,0,1.04-.5,1.77-1.44,2.16Z"/>
    <path class="i" d="M223.17,102.75c0-3.17,1.44-4.9,3.11-4.9,1.85,0,3.03,2.05,3.03,4.89,0,3.03-1.29,4.92-3.07,4.92-1.88,0-3.07-1.96-3.07-4.9ZM228.24,102.76c0-2.52-.8-3.95-2.02-3.95s-1.99,1.42-1.99,3.92.76,3.95,1.99,3.95,2.02-1.44,2.02-3.92Z"/>
  </g>
  <line class="f" x1="237.68" y1="246.61" x2="243.16" y2="246.61"/>
  <line class="f" x1="237.68" y1="210.59" x2="243.16" y2="210.59"/>
  <line class="f" x1="237.68" y1="174.55" x2="243.16" y2="174.55"/>
  <line class="f" x1="237.68" y1="138.53" x2="243.16" y2="138.53"/>
  <line class="f" x1="237.68" y1="102.51" x2="243.16" y2="102.51"/>
  <line class="f" x1="243.16" y1="274.99" x2="418" y2="274.99"/>
  <line class="f" x1="265.56" y1="280.47" x2="265.56" y2="274.99"/>
  <line class="f" x1="294.46" y1="280.47" x2="294.46" y2="274.99"/>
  <line class="f" x1="323.36" y1="280.47" x2="323.36" y2="274.99"/>
  <line class="f" x1="352.26" y1="280.47" x2="352.26" y2="274.99"/>
  <line class="f" x1="381.16" y1="280.47" x2="381.16" y2="274.99"/>
  <line class="f" x1="410.06" y1="280.47" x2="410.06" y2="274.99"/>
  <path class="i" d="M267.56,288.08c0,2.02-1.75,3.99-3.4,5.81h4.02v1.01h-5.91l.27-.34c1.16-1.25,3.98-4.08,3.98-6.36,0-1.46-1.06-1.95-1.89-1.95s-1.55.42-2.2,1.16v-1.32c.73-.59,1.47-.88,2.31-.88,1.67,0,2.83,1.19,2.83,2.86Z"/>
  <path class="i" d="M294.96,289.86c1.01.31,1.58,1.22,1.58,2.35,0,1.7-1.29,2.82-2.9,2.82-.78,0-1.51-.2-2.14-.53v-1.13c.7.41,1.4.63,2.12.63,1.09,0,1.83-.63,1.83-1.75s-.84-1.82-2.24-1.82v-.97c1.43,0,2.16-.6,2.16-1.67,0-.9-.7-1.61-1.86-1.61-.7,0-1.21.18-1.81.52v-1.01c.67-.35,1.27-.46,1.93-.46,1.65,0,2.77.97,2.77,2.48,0,1.04-.5,1.77-1.44,2.16Z"/>
  <path class="i" d="M319.67,291.07l4.79-5.84h.43v5.42h1.18v.91h-1.18v3.35h-1.02v-3.35h-4.2v-.49ZM323.88,290.65v-3.42l-2.79,3.42h2.79Z"/>
  <path class="i" d="M353.95,285.35v.94h-3.17v2.72c.21-.01.35-.01.49-.01,1.93,0,3.21,1.22,3.21,2.97s-1.27,3.07-3.14,3.07c-.84,0-1.55-.2-2.27-.57v-1.08c.7.41,1.4.64,2.1.64,1.32,0,2.23-.88,2.23-2.06,0-1.49-1.43-2.04-2.4-2.04-.38,0-.95.04-1.19.14v-4.71h4.13Z"/>
  <path class="i" d="M382.45,286.02c-1.62,1.12-2.79,2.44-3.21,4.02.6-.38,1.18-.55,1.79-.55,1.53,0,2.68,1.13,2.68,2.72s-1.26,2.82-2.83,2.82c-1.41,0-2.97-.99-2.97-3.42,0-2.28,1.09-4.38,3.91-6.39l.63.8ZM380.89,294.06c1.01,0,1.78-.73,1.78-1.82s-.77-1.79-1.89-1.79c-.6,0-1.82.21-1.82,1.39,0,1.55,1.01,2.23,1.93,2.23Z"/>
  <path class="i" d="M411.42,286.35h-4.62v-.99h6.19c-1.01,2.24-2.02,4.51-4.47,9.68l-.92-.42,3.82-8.26Z"/>
  <g>
    <line class="e" x1="317.95" y1="177.34" x2="319.94" y2="177.15"/>
    <line class="g" x1="323.95" y1="176.77" x2="402.22" y2="169.3"/>
    <line class="e" x1="404.23" y1="169.11" x2="406.22" y2="168.92"/>
    <g>
      <path class="m" d="M318.52,181.06c-2.07.2-3.9-1.32-4.1-3.39-.2-2.07,1.32-3.9,3.39-4.1s3.9,1.32,4.1,3.39c.2,2.07-1.32,3.9-3.39,4.1Z"/>
      <path class="j" d="M318.56,181.56c2.34-.22,4.06-2.31,3.84-4.65-.22-2.34-2.31-4.06-4.65-3.84s-4.06,2.31-3.84,4.65c.22,2.34,2.31,4.06,4.65,3.84s-2.34.22,0,0ZM317.85,174.08c1.79-.17,3.38,1.15,3.55,2.94.17,1.79-1.15,3.38-2.94,3.55-1.79.17-3.38-1.15-3.55-2.94-.17-1.79,1.15-3.38,2.94-3.55,1.79-.17-1.79.17,0,0Z"/>
    </g>
    <polygon class="j" points="403.77 172.87 404.99 169.03 403.07 165.5 412.16 168.35 403.77 172.87"/>
  </g>
  <g>
    <path class="j" d="M490.31,142.22l.57.14c-.12.47-.33.82-.64,1.07-.31.25-.69.37-1.13.37s-.84-.09-1.13-.28-.51-.46-.66-.82-.23-.74-.23-1.15c0-.45.08-.84.26-1.17s.41-.59.73-.76c.32-.17.66-.26,1.04-.26.43,0,.79.11,1.08.33s.5.53.61.92l-.56.13c-.1-.31-.24-.54-.43-.68s-.43-.21-.71-.21c-.33,0-.61.08-.83.24s-.38.37-.47.64c-.09.27-.13.54-.13.83,0,.37.05.68.16.96.11.27.27.48.5.61s.47.2.73.2c.32,0,.59-.09.81-.28s.37-.46.45-.82Z"/>
    <path class="j" d="M491.5,143.72v-4.29h.53v4.29h-.53Z"/>
  </g>
  <g>
    <path class="j" d="M471.6,131.42l.57.14c-.12.47-.33.82-.64,1.07-.31.25-.69.37-1.13.37s-.84-.09-1.13-.28-.51-.46-.66-.82-.23-.74-.23-1.15c0-.45.08-.84.26-1.17s.41-.59.73-.76c.32-.17.66-.26,1.04-.26.43,0,.79.11,1.08.33s.5.53.61.92l-.56.13c-.1-.31-.24-.54-.43-.68s-.43-.21-.71-.21c-.33,0-.61.08-.83.24s-.38.37-.47.64c-.09.27-.13.54-.13.83,0,.37.05.68.16.96.11.27.27.48.5.61s.47.2.73.2c.32,0,.59-.09.81-.28s.37-.46.45-.82Z"/>
    <path class="j" d="M472.79,132.92v-4.29h.53v4.29h-.53Z"/>
  </g>
  <g>
    <path class="j" d="M452.9,131.42l.57.14c-.12.47-.33.82-.64,1.07-.31.25-.69.37-1.13.37s-.84-.09-1.13-.28-.51-.46-.66-.82-.23-.74-.23-1.15c0-.45.08-.84.26-1.17s.41-.59.73-.76c.32-.17.66-.26,1.04-.26.43,0,.79.11,1.08.33s.5.53.61.92l-.56.13c-.1-.31-.24-.54-.43-.68s-.43-.21-.71-.21c-.33,0-.61.08-.83.24s-.38.37-.47.64c-.09.27-.13.54-.13.83,0,.37.05.68.16.96.11.27.27.48.5.61s.47.2.73.2c.32,0,.59-.09.81-.28s.37-.46.45-.82Z"/>
    <path class="j" d="M454.09,132.92v-4.29h.53v4.29h-.53Z"/>
  </g>
  <g>
    <path class="j" d="M431.36,142.22l.57.14c-.12.47-.33.82-.64,1.07-.31.25-.69.37-1.13.37s-.84-.09-1.13-.28-.51-.46-.66-.82-.23-.74-.23-1.15c0-.45.08-.84.26-1.17s.41-.59.73-.76c.32-.17.66-.26,1.04-.26.43,0,.79.11,1.08.33s.5.53.61.92l-.56.13c-.1-.31-.24-.54-.43-.68s-.43-.21-.71-.21c-.33,0-.61.08-.83.24s-.38.37-.47.64c-.09.27-.13.54-.13.83,0,.37.05.68.16.96.11.27.27.48.5.61s.47.2.73.2c.32,0,.59-.09.81-.28s.37-.46.45-.82Z"/>
    <path class="j" d="M432.55,143.72v-4.29h.53v4.29h-.53Z"/>
  </g>
  <g>
    <path class="j" d="M422.01,158.42l.57.14c-.12.47-.33.82-.64,1.07-.31.25-.69.37-1.13.37s-.84-.09-1.13-.28-.51-.46-.66-.82-.23-.74-.23-1.15c0-.45.08-.84.26-1.17s.41-.59.73-.76c.32-.17.66-.26,1.04-.26.43,0,.79.11,1.08.33s.5.53.61.92l-.56.13c-.1-.31-.24-.54-.43-.68s-.43-.21-.71-.21c-.33,0-.61.08-.83.24s-.38.37-.47.64c-.09.27-.13.54-.13.83,0,.37.05.68.16.96.11.27.27.48.5.61s.47.2.73.2c.32,0,.59-.09.81-.28s.37-.46.45-.82Z"/>
    <path class="j" d="M423.2,159.92v-4.29h.53v4.29h-.53Z"/>
  </g>
  <g>
    <path class="j" d="M422.01,180.01l.57.14c-.12.47-.33.82-.64,1.07-.31.25-.69.37-1.13.37s-.84-.09-1.13-.28-.51-.46-.66-.82-.23-.74-.23-1.15c0-.45.08-.84.26-1.17s.41-.59.73-.76c.32-.17.66-.26,1.04-.26.43,0,.79.11,1.08.33s.5.53.61.92l-.56.13c-.1-.31-.24-.54-.43-.68s-.43-.21-.71-.21c-.33,0-.61.08-.83.24s-.38.37-.47.64c-.09.27-.13.54-.13.83,0,.37.05.68.16.96.11.27.27.48.5.61s.47.2.73.2c.32,0,.59-.09.81-.28s.37-.46.45-.82Z"/>
    <path class="j" d="M423.2,181.52v-4.29h.53v4.29h-.53Z"/>
  </g>
  <g>
    <path class="j" d="M443.55,190.81l.57.14c-.12.47-.33.82-.64,1.07-.31.25-.69.37-1.13.37s-.84-.09-1.13-.28-.51-.46-.66-.82-.23-.74-.23-1.15c0-.45.08-.84.26-1.17s.41-.59.73-.76c.32-.17.66-.26,1.04-.26.43,0,.79.11,1.08.33s.5.53.61.92l-.56.13c-.1-.31-.24-.54-.43-.68s-.43-.21-.71-.21c-.33,0-.61.08-.83.24s-.38.37-.47.64c-.09.27-.13.54-.13.83,0,.37.05.68.16.96.11.27.27.48.5.61s.47.2.73.2c.32,0,.59-.09.81-.28s.37-.46.45-.82Z"/>
    <path class="j" d="M444.74,192.32v-4.29h.53v4.29h-.53Z"/>
  </g>
  <g>
    <path class="j" d="M462.25,190.81l.57.14c-.12.47-.33.82-.64,1.07-.31.25-.69.37-1.13.37s-.84-.09-1.13-.28-.51-.46-.66-.82-.23-.74-.23-1.15c0-.45.08-.84.26-1.17s.41-.59.73-.76c.32-.17.66-.26,1.04-.26.43,0,.79.11,1.08.33s.5.53.61.92l-.56.13c-.1-.31-.24-.54-.43-.68s-.43-.21-.71-.21c-.33,0-.61.08-.83.24s-.38.37-.47.64c-.09.27-.13.54-.13.83,0,.37.05.68.16.96.11.27.27.48.5.61s.47.2.73.2c.32,0,.59-.09.81-.28s.37-.46.45-.82Z"/>
    <path class="j" d="M463.44,192.32v-4.29h.53v4.29h-.53Z"/>
  </g>
  <g>
    <path class="j" d="M480.95,180.01l.57.14c-.12.47-.33.82-.64,1.07-.31.25-.69.37-1.13.37s-.84-.09-1.13-.28-.51-.46-.66-.82-.23-.74-.23-1.15c0-.45.08-.84.26-1.17s.41-.59.73-.76c.32-.17.66-.26,1.04-.26.43,0,.79.11,1.08.33s.5.53.61.92l-.56.13c-.1-.31-.24-.54-.43-.68s-.43-.21-.71-.21c-.33,0-.61.08-.83.24s-.38.37-.47.64c-.09.27-.13.54-.13.83,0,.37.05.68.16.96.11.27.27.48.5.61s.47.2.73.2c.32,0,.59-.09.81-.28s.37-.46.45-.82Z"/>
    <path class="j" d="M482.14,181.52v-4.29h.53v4.29h-.53Z"/>
  </g>
  <g>
    <path class="j" d="M490.31,163.82l.57.14c-.12.47-.33.82-.64,1.07-.31.25-.69.37-1.13.37s-.84-.09-1.13-.28-.51-.46-.66-.82-.23-.74-.23-1.15c0-.45.08-.84.26-1.17s.41-.59.73-.76c.32-.17.66-.26,1.04-.26.43,0,.79.11,1.08.33s.5.53.61.92l-.56.13c-.1-.31-.24-.54-.43-.68s-.43-.21-.71-.21c-.33,0-.61.08-.83.24s-.38.37-.47.64c-.09.27-.13.54-.13.83,0,.37.05.68.16.96.11.27.27.48.5.61s.47.2.73.2c.32,0,.59-.09.81-.28s.37-.46.45-.82Z"/>
    <path class="j" d="M491.5,165.32v-4.29h.53v4.29h-.53Z"/>
  </g>
  <polygon class="j" points="485.97 142.94 486.27 143.45 479.88 147.13 479.59 146.96 479.6 146.63 485.97 142.94"/>
  <polygon class="j" points="479.6 146.63 479.59 146.96 479.31 147.13 470.24 141.9 470.24 141.56 470.53 141.39 479.6 146.63"/>
  <polygon class="j" points="470.53 141.39 470.24 141.56 469.96 141.39 469.94 134.22 470.54 134.22 470.53 141.39"/>
  <polygon class="j" points="469.96 141.39 470.24 141.56 470.24 141.9 461.18 147.13 460.89 146.96 460.89 146.63 469.96 141.39"/>
  <rect class="j" x="462.26" y="145.65" width="8.55" height=".6" transform="translate(-10.47 252.82) rotate(-30)"/>
  <polygon class="j" points="460.89 146.63 460.89 146.96 460.6 147.13 451.54 141.9 451.54 141.56 451.82 141.39 460.89 146.63"/>
  <polygon class="j" points="451.82 141.39 451.54 141.56 451.25 141.39 451.24 134.22 451.84 134.22 451.82 141.39"/>
  <polygon class="j" points="451.25 141.39 451.54 141.56 451.54 141.9 442.47 147.13 442.19 146.96 442.18 146.63 451.25 141.39"/>
  <rect class="j" x="443.56" y="145.65" width="8.55" height=".6" transform="translate(-12.98 243.47) rotate(-30)"/>
  <polygon class="j" points="442.18 146.63 442.19 146.96 441.9 147.13 434.69 142.98 434.99 142.46 442.18 146.63"/>
  <polygon class="j" points="441.9 147.13 442.19 146.96 442.47 147.13 442.47 157.6 442.19 157.76 441.9 157.6 441.9 147.13"/>
  <polygon class="j" points="441.9 157.6 442.19 157.76 442.19 158.1 433.12 163.33 432.83 163.16 432.83 162.83 441.9 157.6"/>
  <rect class="j" x="434.21" y="161.85" width="8.55" height=".6" transform="translate(-22.33 240.96) rotate(-30)"/>
  <polygon class="j" points="432.83 162.83 432.83 163.16 432.55 163.33 425.34 159.18 425.64 158.66 432.83 162.83"/>
  <polygon class="j" points="432.55 163.33 432.83 163.16 433.12 163.33 433.12 173.79 432.83 173.96 432.55 173.8 432.55 163.33"/>
  <polygon class="j" points="432.55 173.8 432.83 173.96 432.83 174.29 425.64 178.46 425.35 177.94 432.55 173.8"/>
  <polygon class="j" points="432.83 174.29 432.83 173.96 433.12 173.79 442.19 179.03 442.19 179.36 441.9 179.53 432.83 174.29"/>
  <rect class="j" x="438.18" y="170.7" width=".6" height="8.55" transform="translate(67.7 467.22) rotate(-60)"/>
  <polygon class="j" points="441.9 179.53 442.19 179.36 442.47 179.53 442.48 186.78 441.89 186.78 441.9 179.53"/>
  <polygon class="j" points="442.47 179.53 442.19 179.36 442.19 179.03 451.25 173.79 451.54 173.96 451.54 174.29 442.47 179.53"/>
  <polygon class="j" points="451.54 174.29 451.54 173.96 451.83 173.79 460.89 179.03 460.89 179.36 460.61 179.53 451.54 174.29"/>
  <rect class="j" x="456.89" y="170.7" width=".6" height="8.55" transform="translate(77.06 483.42) rotate(-60)"/>
  <polygon class="j" points="460.61 179.53 460.89 179.36 461.17 179.53 461.19 186.78 460.59 186.78 460.61 179.53"/>
  <polygon class="j" points="461.17 179.53 460.89 179.36 460.89 179.03 469.95 173.79 470.24 173.96 470.25 174.29 461.17 179.53"/>
  <polygon class="j" points="470.25 174.29 470.24 173.96 470.53 173.8 476.94 177.48 476.64 178 470.25 174.29"/>
  <polygon class="j" points="470.53 173.8 470.24 173.96 469.95 173.79 469.95 163.33 470.24 163.16 470.53 163.33 470.53 173.8"/>
  <rect class="j" x="468" y="164.28" width=".6" height="8.55"/>
  <polygon class="j" points="470.53 163.33 470.24 163.16 470.24 162.83 479.31 157.6 479.59 157.76 479.6 158.09 470.53 163.33"/>
  <polygon class="j" points="479.31 147.13 479.59 146.96 479.88 147.13 479.88 157.6 479.59 157.76 479.31 157.6 479.31 147.13"/>
  <rect class="j" x="477.35" y="148.09" width=".6" height="8.55"/>
  <polygon class="j" points="479.6 158.09 479.59 157.76 479.88 157.6 486.29 161.28 485.99 161.8 479.6 158.09"/>
  <polygon class="j" points="470.24 162.83 470.24 163.16 469.95 163.33 460.89 158.1 460.89 157.76 461.18 157.6 470.24 162.83"/>
  <polygon class="j" points="460.6 147.13 460.89 146.96 461.18 147.13 461.18 157.6 460.89 157.76 460.6 157.6 460.6 147.13"/>
  <polygon class="j" points="460.6 157.6 460.89 157.76 460.89 158.1 451.83 163.33 451.54 163.16 451.54 162.83 460.6 157.6"/>
  <rect class="j" x="452.91" y="161.85" width="8.55" height=".6" transform="translate(-19.82 250.32) rotate(-30)"/>
  <polygon class="j" points="442.19 158.1 442.19 157.76 442.47 157.6 451.54 162.83 451.54 163.16 451.25 163.33 442.19 158.1"/>
  <polygon class="j" points="451.83 173.79 451.54 173.96 451.25 173.79 451.25 163.33 451.54 163.16 451.83 163.33 451.83 173.79"/>
  <path class="j" d="M424.64,211.21c0-.71.19-1.27.57-1.67s.88-.61,1.48-.61c.4,0,.75.09,1.07.28s.56.45.73.79c.17.34.25.72.25,1.15s-.09.83-.26,1.17-.42.6-.75.78-.67.26-1.04.26c-.4,0-.77-.1-1.08-.29s-.56-.46-.72-.8-.25-.7-.25-1.07ZM425.23,211.22c0,.52.14.93.42,1.22s.63.45,1.05.45.78-.15,1.06-.45.42-.73.42-1.28c0-.35-.06-.65-.18-.92-.12-.26-.29-.46-.52-.61-.23-.14-.48-.22-.77-.22-.4,0-.75.14-1.04.42s-.43.74-.43,1.38Z"/>
  <path class="j" d="M424.96,222.72l.54-.05c.03.21.08.39.18.53.09.14.24.25.43.33.2.09.42.13.66.13.22,0,.41-.03.57-.1s.29-.15.37-.27c.08-.11.12-.23.12-.37s-.04-.25-.12-.35c-.08-.1-.21-.18-.39-.25-.12-.04-.37-.11-.76-.21-.39-.09-.67-.18-.83-.27-.21-.11-.36-.24-.46-.4-.1-.16-.15-.34-.15-.53,0-.22.06-.42.18-.61.12-.19.3-.33.54-.43s.5-.15.79-.15c.32,0,.6.05.84.15.24.1.43.25.56.45s.2.42.21.68l-.54.04c-.03-.27-.13-.48-.3-.62s-.42-.21-.75-.21-.59.06-.75.19c-.16.12-.24.28-.24.46,0,.15.06.28.17.38.11.1.39.2.86.31s.78.2.95.27c.25.12.43.26.55.44.12.18.18.38.18.61s-.07.44-.2.65c-.13.2-.32.36-.56.47-.25.11-.52.17-.83.17-.39,0-.71-.06-.98-.17s-.47-.28-.62-.51-.23-.49-.24-.77Z"/>
  <path class="j" d="M434.33,229.46v-4.29h.58l2.26,3.37v-3.37h.54v4.29h-.58l-2.26-3.38v3.38h-.54Z"/>
  <path class="j" d="M462.05,222.01c0-.71.19-1.27.57-1.67s.88-.61,1.48-.61c.4,0,.75.09,1.07.28s.56.45.73.79c.17.34.25.72.25,1.15s-.09.83-.26,1.17-.42.6-.75.78-.67.26-1.04.26c-.4,0-.77-.1-1.08-.29s-.56-.46-.72-.8-.25-.7-.25-1.07ZM462.64,222.02c0,.52.14.93.42,1.22s.63.45,1.05.45.78-.15,1.06-.45.42-.73.42-1.28c0-.35-.06-.65-.18-.92-.12-.26-.29-.46-.52-.61-.23-.14-.48-.22-.77-.22-.4,0-.75.14-1.04.42s-.43.74-.43,1.38Z"/>
  <path class="j" d="M500.16,245.66v-4.29h2.9v.51h-2.33v1.33h2.02v.51h-2.02v1.95h-.57Z"/>
  <path class="j" d="M434.31,238.92l.54-.05c.03.21.08.39.18.53.09.14.24.25.43.33.2.09.42.13.66.13.22,0,.41-.03.57-.1s.29-.15.37-.27c.08-.11.12-.23.12-.37s-.04-.25-.12-.35c-.08-.1-.21-.18-.39-.25-.12-.04-.37-.11-.76-.21-.39-.09-.67-.18-.83-.27-.21-.11-.36-.24-.46-.4-.1-.16-.15-.34-.15-.53,0-.22.06-.42.18-.61.12-.19.3-.33.54-.43s.5-.15.79-.15c.32,0,.6.05.84.15.24.1.43.25.56.45s.2.42.21.68l-.54.04c-.03-.27-.13-.48-.3-.62s-.42-.21-.75-.21-.59.06-.75.19c-.16.12-.24.28-.24.46,0,.15.06.28.17.38.11.1.39.2.86.31s.78.2.95.27c.25.12.43.26.55.44.12.18.18.38.18.61s-.07.44-.2.65c-.13.2-.32.36-.56.47-.25.11-.52.17-.83.17-.39,0-.71-.06-.98-.17s-.47-.28-.62-.51-.23-.49-.24-.77Z"/>
  <path class="j" d="M424.64,243.61c0-.71.19-1.27.57-1.67s.88-.61,1.48-.61c.4,0,.75.09,1.07.28s.56.45.73.79c.17.34.25.72.25,1.15s-.09.83-.26,1.17-.42.6-.75.78-.67.26-1.04.26c-.4,0-.77-.1-1.08-.29s-.56-.46-.72-.8-.25-.7-.25-1.07ZM425.23,243.62c0,.52.14.93.42,1.22s.63.45,1.05.45.78-.15,1.06-.45.42-.73.42-1.28c0-.35-.06-.65-.18-.92-.12-.26-.29-.46-.52-.61-.23-.14-.48-.22-.77-.22-.4,0-.75.14-1.04.42s-.43.74-.43,1.38Z"/>
  <rect class="j" x="427.36" y="214.55" width=".6" height="3.97"/>
  <rect class="j" x="425.42" y="214.55" width=".6" height="3.97"/>
  <rect class="j" x="430.84" y="222.68" width=".6" height="3.66" transform="translate(21.14 485.63) rotate(-60)"/>
  <polygon class="j" points="439.38 225.76 439.08 225.24 445.39 221.58 445.39 222.27 439.38 225.76"/>
  <polygon class="j" points="445.39 222.27 445.39 221.58 454.75 227.01 454.75 227.7 445.39 222.27"/>
  <polygon class="j" points="454.75 227.7 454.75 227.01 461.02 223.37 461.32 223.89 454.75 227.7"/>
  <polygon class="j" points="466.84 223.87 467.14 223.36 473.44 227.01 473.45 227.34 473.16 227.5 466.84 223.87"/>
  <polygon class="j" points="473.74 227.51 473.45 227.34 473.44 227.01 482.8 221.59 482.8 222.27 473.74 227.51"/>
  <polygon class="j" points="482.8 222.27 482.8 221.59 492.46 227.16 491.86 227.51 482.8 222.27"/>
  <rect class="j" x="486.21" y="222.05" width=".6" height="8.55" transform="translate(47.25 534.49) rotate(-60)"/>
  <polygon class="j" points="491.86 227.51 492.46 227.16 492.44 237.98 492.15 238.14 491.86 237.97 491.86 227.51"/>
  <polygon class="j" points="492.16 238.47 492.15 238.14 492.44 237.98 498.65 241.55 498.35 242.06 492.16 238.47"/>
  <polygon class="j" points="491.86 237.97 492.15 238.14 492.16 238.47 482.8 243.89 482.8 243.21 491.86 237.97"/>
  <rect class="j" x="482.23" y="238.86" width="8.55" height=".6" transform="translate(-54.4 275.29) rotate(-30)"/>
  <polygon class="j" points="482.8 243.21 482.8 243.89 473.14 238.32 473.74 237.97 482.8 243.21"/>
  <polygon class="j" points="473.16 227.5 473.45 227.34 473.74 227.51 473.74 237.97 473.14 238.32 473.16 227.5"/>
  <rect class="j" x="475.09" y="228.46" width=".6" height="8.55"/>
  <rect class="j" x="435.74" y="230.68" width=".6" height="4.03"/>
  <rect class="j" x="429.81" y="241.37" width="4.14" height=".6" transform="translate(-62.97 248.31) rotate(-30)"/>
  <rect class="j" x="428.83" y="239.68" width="4.14" height=".6" transform="translate(-62.26 247.6) rotate(-30)"/>
  <polygon class="j" points="438.75 240.05 439.05 239.54 445.29 243.16 445.39 243.54 445.01 243.64 438.75 240.05"/>
  <polygon class="j" points="445.87 243.26 445.39 243.54 445.29 243.16 450.57 234.16 450.91 234.76 445.87 243.26"/>
  <polygon class="j" points="450.91 234.76 450.57 234.16 461.45 234.13 461.27 234.44 460.92 234.72 450.91 234.76"/>
  <polygon class="j" points="461.4 235.16 461.27 234.44 461.45 234.13 467.03 243.46 466.35 243.48 461.4 235.16"/>
  <polygon class="j" points="466.35 243.48 467.03 243.46 461.94 252.88 461.68 252.74 461.67 252.19 466.35 243.48"/>
  <polygon class="j" points="461.35 252.74 461.68 252.74 461.94 252.88 456.55 262.45 456.2 261.85 461.35 252.74"/>
  <polygon class="j" points="456.2 261.85 456.55 262.45 445.4 262.55 445.57 262.24 446.26 261.98 456.2 261.85"/>
  <polygon class="j" points="446.26 261.98 445.57 262.24 445.63 261.8 457.69 250.75 458.23 251.06 446.26 261.98"/>
  <polygon class="j" points="460.92 234.72 461.27 234.44 461.4 235.16 458.23 251.06 457.69 250.75 460.92 234.72"/>
  <polygon class="j" points="445.63 261.8 445.57 262.24 445.4 262.55 439.73 252.95 440.41 252.94 445.63 261.8"/>
  <polygon class="j" points="445.01 243.64 445.39 243.54 445.56 243.83 440.41 252.94 439.73 252.95 445.01 243.64"/>
  <polygon class="j" points="461.67 252.19 461.68 252.74 461.35 252.74 456.03 243.73 456.36 243.13 461.67 252.19"/>
  <polygon class="j" points="445.56 243.83 445.39 243.54 445.87 243.26 456.36 243.13 456.03 243.73 445.56 243.83"/>
  <polygon class="j" points="423.69 223.33 423.98 223.85 417.72 227.44 417.34 227.34 417.44 226.96 423.69 223.33"/>
  <polygon class="j" points="417.44 226.96 417.34 227.34 416.86 227.06 411.82 218.56 412.16 217.97 417.44 226.96"/>
  <polygon class="j" points="412.16 217.97 411.82 218.56 401.8 218.52 401.46 218.24 401.28 217.93 412.16 217.97"/>
  <polygon class="j" points="401.28 217.93 401.46 218.24 401.32 218.96 396.38 227.28 395.69 227.27 401.28 217.93"/>
  <polygon class="j" points="395.69 227.27 396.38 227.28 401.06 235.99 401.05 236.54 400.79 236.68 395.69 227.27"/>
  <polygon class="j" points="400.79 236.68 401.05 236.54 401.38 236.54 406.53 245.65 406.18 246.25 400.79 236.68"/>
  <polygon class="j" points="406.18 246.25 406.53 245.65 416.46 245.78 417.16 246.04 417.33 246.35 406.18 246.25"/>
  <polygon class="j" points="417.1 245.6 417.16 246.04 416.46 245.78 404.49 234.86 405.04 234.55 417.1 245.6"/>
  <polygon class="j" points="401.32 218.96 401.46 218.24 401.8 218.52 405.04 234.55 404.49 234.86 401.32 218.96"/>
  <polygon class="j" points="417.33 246.35 417.16 246.04 417.1 245.6 422.31 236.74 423 236.75 417.33 246.35"/>
  <polygon class="j" points="417.17 227.63 417.34 227.34 417.72 227.44 423 236.75 422.31 236.74 417.17 227.63"/>
  <polygon class="j" points="401.38 236.54 401.05 236.54 401.06 235.99 406.36 226.93 406.7 227.53 401.38 236.54"/>
  <polygon class="j" points="416.86 227.06 417.34 227.34 417.17 227.63 406.7 227.53 406.36 226.93 416.86 227.06"/>
  <g>
    <line class="e" x1="299.01" y1="253.91" x2="300.99" y2="253.61"/>
    <line class="c" x1="304.75" y1="253.02" x2="378.05" y2="241.55"/>
    <line class="e" x1="379.93" y1="241.25" x2="381.91" y2="240.94"/>
    <g>
      <path class="m" d="M299.8,257.6c-2.05.32-3.97-1.08-4.3-3.13-.32-2.05,1.08-3.97,3.13-4.3,2.05-.32,3.97,1.08,4.3,3.13.32,2.05-1.08,3.97-3.13,4.3Z"/>
      <path class="j" d="M299.88,258.09c2.32-.36,3.91-2.55,3.55-4.87-.36-2.32-2.55-3.91-4.87-3.55-2.32.36-3.91,2.55-3.55,4.87.36,2.32,2.55,3.91,4.87,3.55,2.32-.36-2.32.36,0,0ZM298.72,250.66c1.78-.28,3.45.94,3.72,2.72.28,1.78-.94,3.45-2.72,3.72-1.78.28-3.45-.94-3.72-2.72-.28-1.78.94-3.45,2.72-3.72,1.78-.28-1.78.28,0,0Z"/>
    </g>
    <polygon class="j" points="379.7 245.04 380.68 241.13 378.56 237.72 387.8 240.02 379.7 245.04"/>
  </g>
  <path class="j" d="M81.97,290.95c0-.71.19-1.27.57-1.67s.88-.61,1.48-.61c.4,0,.75.09,1.07.28s.56.45.73.79c.17.34.25.72.25,1.15s-.09.83-.26,1.17-.42.6-.75.78-.67.26-1.04.26c-.4,0-.77-.1-1.08-.29s-.56-.46-.72-.8-.25-.7-.25-1.07ZM82.55,290.96c0,.52.14.93.42,1.22s.63.45,1.05.45.78-.15,1.06-.45.41-.73.41-1.28c0-.35-.06-.65-.18-.92-.12-.26-.29-.46-.52-.61-.23-.14-.48-.22-.77-.22-.4,0-.75.14-1.04.42s-.44.74-.44,1.38Z"/>
  <polygon class="j" points="153.17 227.68 153.68 227.38 158.83 236.34 158.83 236.88 158.44 236.78 153.17 227.68"/>
  <polygon class="j" points="159.21 236.78 158.83 236.88 158.83 236.34 163.97 227.38 164.48 227.68 159.21 236.78"/>
  <polygon class="j" points="158.83 237.22 158.83 236.88 159.21 236.78 168.49 242.11 167.89 242.45 158.83 237.22"/>
  <polygon class="j" points="167.89 242.45 168.49 242.11 168.49 253.26 167.89 252.92 167.89 242.45"/>
  <polygon class="j" points="167.89 252.92 168.49 253.26 159.37 258.48 158.83 258.48 158.83 258.15 167.89 252.92"/>
  <polygon class="j" points="159.1 258.95 158.83 258.48 159.37 258.48 168.33 263.62 168.03 264.14 159.1 258.95"/>
  <polygon class="j" points="158.54 258.65 158.83 258.48 159.1 258.95 159.13 269.46 158.54 269.11 158.54 258.65"/>
  <polygon class="j" points="158.54 269.11 159.13 269.46 149.47 275.04 149.47 274.35 158.54 269.11"/>
  <polygon class="j" points="149.47 274.35 149.47 275.04 140.39 269.75 140.12 269.28 140.41 269.11 149.47 274.35"/>
  <polygon class="j" points="139.85 269.75 140.12 269.28 140.39 269.75 140.42 280.08 139.82 280.08 139.85 269.75"/>
  <polygon class="j" points="140.41 269.11 140.12 269.28 139.83 269.11 139.83 258.65 140.12 258.48 140.41 258.65 140.41 269.11"/>
  <polygon class="j" points="140.41 258.65 140.12 258.48 140.12 258.15 149.19 252.92 149.47 253.08 149.47 253.42 140.41 258.65"/>
  <rect class="j" x="141.49" y="257.17" width="8.55" height=".6" transform="translate(-109.21 107.38) rotate(-30)"/>
  <polygon class="j" points="158.83 258.15 158.83 258.48 158.54 258.65 149.47 253.42 149.47 253.08 149.76 252.92 158.83 258.15"/>
  <polygon class="j" points="149.76 252.92 149.47 253.08 149.19 252.92 149.17 242.11 149.76 242.45 149.76 252.92"/>
  <polygon class="j" points="158.44 236.78 158.83 236.88 158.83 237.22 149.76 242.45 149.17 242.11 158.44 236.78"/>
  <polygon class="j" points="140.12 258.15 140.12 258.48 139.83 258.65 130.77 253.42 130.77 252.73 140.12 258.15"/>
  <polygon class="j" points="130.77 252.73 130.77 253.42 121.71 258.65 121.11 258.3 130.77 252.73"/>
  <polygon class="j" points="121.11 258.3 121.71 258.65 121.71 269.11 121.42 269.28 121.13 269.11 121.11 258.3"/>
  <polygon class="j" points="121.13 269.11 121.42 269.28 121.42 269.61 112.35 274.85 112.07 274.68 112.34 274.21 121.13 269.11"/>
  <polygon class="j" points="112.34 274.21 112.07 274.68 111.79 274.21 111.77 263.88 112.36 263.88 112.34 274.21"/>
  <polygon class="j" points="111.79 274.21 112.07 274.68 111.78 274.85 102.71 269.61 102.71 268.93 111.79 274.21"/>
  <polygon class="j" points="102.71 268.93 102.71 269.61 93.65 274.85 93.05 274.5 102.71 268.93"/>
  <polygon class="j" points="93.05 274.5 93.65 274.85 93.65 285.31 93.05 285.66 93.05 274.5"/>
  <rect class="j" x="86.89" y="287.74" width="7.98" height=".6" transform="translate(-131.84 84.03) rotate(-30)"/>
  <rect class="j" x="85.92" y="286.05" width="7.98" height=".6" transform="translate(-131.13 83.32) rotate(-30)"/>
  <polygon class="j" points="93.05 285.66 93.65 285.31 102.71 290.55 102.71 290.88 102.33 290.98 93.05 285.66"/>
  <polygon class="j" points="102.71 291.42 102.71 290.88 103.1 290.98 108.37 300.08 107.86 300.38 102.71 291.42"/>
  <polygon class="j" points="102.33 290.98 102.71 290.88 102.71 291.42 97.57 300.38 97.06 300.08 102.33 290.98"/>
  <polygon class="j" points="103.1 290.98 102.71 290.88 102.71 290.55 111.78 285.31 112.07 285.48 112.07 285.81 103.1 290.98"/>
  <polygon class="j" points="111.78 274.85 112.07 274.68 112.35 274.85 112.35 285.31 112.07 285.48 111.78 285.31 111.78 274.85"/>
  <polygon class="j" points="112.07 285.81 112.07 285.48 112.35 285.31 121.42 290.55 121.42 291.23 112.07 285.81"/>
  <polygon class="j" points="121.42 291.23 121.42 290.55 130.48 285.31 131.08 285.66 121.42 291.23"/>
  <polygon class="j" points="131.08 285.66 130.48 285.31 130.48 274.85 130.77 274.68 131.06 274.85 131.08 285.66"/>
  <polygon class="j" points="121.42 269.61 121.42 269.28 121.71 269.11 130.5 274.21 130.77 274.68 130.48 274.85 121.42 269.61"/>
  <polygon class="j" points="139.83 269.11 140.12 269.28 139.85 269.75 131.06 274.85 130.77 274.68 131.04 274.21 139.83 269.11"/>
  <polygon class="j" points="131.04 274.21 130.77 274.68 130.5 274.21 130.47 263.88 131.07 263.88 131.04 274.21"/>
  <g>
    <line class="e" x1="269.96" y1="246.4" x2="268.02" y2="246.9"/>
    <line class="h" x1="264.01" y1="247.92" x2="177.62" y2="269.88"/>
    <line class="e" x1="175.61" y1="270.39" x2="173.68" y2="270.88"/>
    <g>
      <path class="m" d="M268.83,242.81c2.01-.51,4.06.71,4.57,2.72.51,2.01-.71,4.06-2.72,4.57-2.01.51-4.06-.71-4.57-2.72s.71-4.06,2.72-4.57Z"/>
      <path class="j" d="M268.71,242.33c-2.28.58-3.66,2.9-3.08,5.18.58,2.28,2.9,3.66,5.18,3.08,2.28-.58,3.66-2.9,3.08-5.18-.58-2.28-2.9-3.66-5.18-3.08-2.28.58,2.28-.58,0,0ZM270.56,249.61c-1.74.44-3.52-.61-3.96-2.36-.44-1.74.61-3.52,2.36-3.96,1.74-.44,3.52.61,3.96,2.36.44,1.74-.61,3.52-2.36,3.96-1.74.44,1.74-.44,0,0Z"/>
    </g>
    <polygon class="j" points="175.48 266.6 174.87 270.58 177.31 273.78 167.89 272.36 175.48 266.6"/>
  </g>
  <path class="j" d="M162.55,108.66c0-.71.19-1.27.57-1.67s.88-.61,1.48-.61c.4,0,.75.09,1.07.28s.56.45.73.79c.17.34.25.72.25,1.15s-.09.83-.26,1.17-.42.6-.75.78-.67.26-1.04.26c-.4,0-.77-.1-1.08-.29s-.56-.46-.72-.8-.25-.7-.25-1.07ZM163.13,108.67c0,.52.14.93.42,1.22s.63.45,1.05.45.78-.15,1.06-.45.42-.73.42-1.28c0-.35-.06-.65-.18-.92-.12-.26-.29-.46-.52-.61-.23-.14-.48-.22-.77-.22-.4,0-.75.14-1.04.42s-.43.74-.43,1.38Z"/>
  <path class="j" d="M117.29,129.97v-4.29h.58l2.26,3.37v-3.37h.54v4.29h-.58l-2.26-3.38v3.38h-.54Z"/>
  <path class="j" d="M103.37,141.14l.54-.05c.03.21.08.39.18.53.09.14.24.25.43.33.2.09.42.13.66.13.22,0,.41-.03.57-.1s.29-.15.37-.27c.08-.11.12-.23.12-.37s-.04-.25-.12-.35c-.08-.1-.21-.18-.39-.25-.12-.04-.37-.11-.76-.21-.39-.09-.67-.18-.83-.27-.21-.11-.36-.24-.46-.4-.1-.16-.15-.34-.15-.53,0-.22.06-.42.18-.61.12-.19.3-.33.54-.43s.5-.15.79-.15c.32,0,.6.05.84.15.24.1.43.25.56.45s.2.42.21.68l-.54.04c-.03-.27-.13-.48-.3-.62s-.42-.21-.75-.21-.59.06-.75.19c-.16.12-.24.28-.24.46,0,.15.06.28.17.38.11.1.39.2.86.31s.78.2.95.27c.25.12.43.26.55.44.12.18.18.38.18.61s-.07.44-.2.65c-.13.2-.32.36-.56.47-.25.11-.52.17-.83.17-.39,0-.71-.06-.98-.17s-.47-.28-.62-.51-.23-.49-.24-.77Z"/>
  <path class="j" d="M94.08,106.23l.54-.05c.03.21.08.39.18.53.09.14.24.25.43.33.2.09.42.13.66.13.22,0,.41-.03.57-.1s.29-.15.37-.27c.08-.11.12-.23.12-.37s-.04-.25-.12-.35c-.08-.1-.21-.18-.39-.25-.12-.04-.37-.11-.76-.21-.39-.09-.67-.18-.83-.27-.21-.11-.36-.24-.46-.4-.1-.16-.15-.34-.15-.53,0-.22.06-.42.18-.61.12-.19.3-.33.54-.43s.5-.15.79-.15c.32,0,.6.05.84.15.24.1.43.25.56.45s.2.42.21.68l-.54.04c-.03-.27-.13-.48-.3-.62s-.42-.21-.75-.21-.59.06-.75.19c-.16.12-.24.28-.24.46,0,.15.06.28.17.38.11.1.39.2.86.31s.78.2.95.27c.25.12.43.26.55.44.12.18.18.38.18.61s-.07.44-.2.65c-.13.2-.32.36-.56.47-.25.11-.52.17-.83.17-.39,0-.71-.06-.98-.17s-.47-.28-.62-.51-.23-.49-.24-.77Z"/>
  <path class="j" d="M113.4,111.67v-4.29h.58l2.26,3.37v-3.37h.54v4.29h-.58l-2.26-3.38v3.38h-.54Z"/>
  <rect class="j" x="169.32" y="109.94" width=".6" height="7.37" transform="translate(-30.66 153.22) rotate(-45)"/>
  <polygon class="j" points="161.27 109 161.4 109.58 154.25 111.08 154.03 110.84 154.13 110.53 161.27 109"/>
  <polygon class="j" points="153.7 110.91 154.03 110.84 154.25 111.08 150.93 121.37 150.47 120.86 153.7 110.91"/>
  <polygon class="j" points="150.47 120.86 150.93 121.37 140.02 123.69 140.23 123.04 150.47 120.86"/>
  <rect class="j" x="140.73" y="120.03" width="8.55" height=".6" transform="translate(-21.85 32.78) rotate(-12)"/>
  <polygon class="j" points="140.23 123.04 140.02 123.69 132.8 115.65 132.9 115.33 133.23 115.26 140.23 123.04"/>
  <polygon class="j" points="132.68 115.08 132.9 115.33 132.8 115.65 122.55 117.82 122.34 117.58 122.43 117.26 132.68 115.08"/>
  <polygon class="j" points="122.02 117.64 122.34 117.58 122.55 117.82 120.44 124.37 119.88 124.18 122.02 117.64"/>
  <rect class="j" x="116.27" y="120.56" width="5.92" height=".6" transform="translate(-32.56 196.9) rotate(-72)"/>
  <polygon class="j" points="115.71 128.24 115.84 128.82 108.66 130.33 108.44 130.09 108.54 129.78 115.71 128.24"/>
  <polygon class="j" points="108.11 130.16 108.44 130.09 108.66 130.33 106.43 137.22 105.87 137.04 108.11 130.16"/>
  <polygon class="j" points="101.94 140.73 102.07 141.31 94.76 142.85 94.3 142.34 101.94 140.73"/>
  <polygon class="j" points="94.3 142.34 94.76 142.85 91.53 152.81 91.2 152.88 90.98 152.63 94.3 142.34"/>
  <polygon class="j" points="90.98 152.63 91.2 152.88 91.1 153.19 80.86 155.37 80.4 154.86 90.98 152.63"/>
  <polygon class="j" points="80.4 154.86 80.86 155.37 77.63 165.32 77.3 165.39 77.08 165.14 80.4 154.86"/>
  <rect class="j" x="76.54" y="160.56" width="8.55" height=".6" transform="translate(-97.14 188.01) rotate(-72)"/>
  <polygon class="j" points="77.08 165.14 77.3 165.39 77.2 165.71 66.8 167.93 66.68 167.35 77.08 165.14"/>
  <polygon class="j" points="77.2 165.71 77.3 165.39 77.63 165.32 84.63 173.1 84.42 173.75 77.2 165.71"/>
  <polygon class="j" points="84.42 173.75 84.63 173.1 94.87 170.92 95.33 171.44 84.42 173.75"/>
  <rect class="j" x="85.13" y="170.1" width="8.55" height=".6" transform="translate(-33.47 22.31) rotate(-12)"/>
  <polygon class="j" points="95.33 171.44 94.87 170.92 98.1 160.97 98.43 160.9 98.65 161.15 95.33 171.44"/>
  <polygon class="j" points="91.1 153.19 91.2 152.88 91.53 152.81 98.53 160.58 98.43 160.9 98.1 160.97 91.1 153.19"/>
  <rect class="j" x="93.07" y="153.91" width=".6" height="8.55" transform="translate(-81.87 103.11) rotate(-42)"/>
  <polygon class="j" points="98.65 161.15 98.43 160.9 98.53 160.58 108.93 158.37 109.05 158.95 98.65 161.15"/>
  <polygon class="j" points="108.54 129.78 108.44 130.09 108.11 130.16 101.08 122.36 101.21 122.07 101.54 122 108.54 129.78"/>
  <rect class="j" x="105.97" y="120.5" width=".6" height="8.55" transform="translate(-56.2 103.16) rotate(-42)"/>
  <polygon class="j" points="101 121.78 101.21 122.07 101.08 122.36 90.54 122.36 90.41 122.07 90.62 121.78 101 121.78"/>
  <polygon class="j" points="90.62 121.78 90.41 122.07 90.09 122 86.85 112.04 87.08 111.8 87.41 111.9 90.62 121.78"/>
  <rect class="j" x="90.29" y="112.34" width=".6" height="7.97" transform="translate(-31.51 33.69) rotate(-18)"/>
  <polygon class="j" points="87.41 111.9 87.08 111.8 87.01 111.49 92.88 107.21 93.23 107.69 87.41 111.9"/>
  <polygon class="j" points="98.34 107.66 98.69 107.17 104.61 111.49 104.55 111.8 104.21 111.9 98.34 107.66"/>
  <polygon class="j" points="101.54 122 101.21 122.07 101 121.78 104.21 111.9 104.55 111.8 104.77 112.04 101.54 122"/>
  <polygon class="j" points="104.77 112.04 104.55 111.8 104.61 111.49 111.82 109.94 111.95 110.53 104.77 112.04"/>
  <rect class="j" x="105.98" y="112.5" width="6.38" height=".6" transform="translate(-21.07 25.16) rotate(-12)"/>
  <polygon class="j" points="122.43 117.26 122.34 117.58 122.02 117.64 117.51 112.66 117.96 112.27 122.43 117.26"/>
  <polygon class="j" points="87.01 111.49 87.08 111.8 86.85 112.04 76.62 109.87 76.4 109.21 87.01 111.49"/>
  <polygon class="j" points="76.4 109.21 76.62 109.87 69.61 117.64 68.94 117.5 76.4 109.21"/>
  <polygon class="j" points="68.94 117.5 69.61 117.64 72.85 127.6 72.39 128.11 68.94 117.5"/>
  <polygon class="j" points="72.39 128.11 72.85 127.6 83.08 129.77 83.3 130.43 72.39 128.11"/>
  <polygon class="j" points="90.09 122 90.41 122.07 90.54 122.36 83.3 130.43 83.08 129.77 90.09 122"/>
  <polygon class="j" points="133.23 115.26 132.9 115.33 132.68 115.08 136 104.8 136.46 105.31 133.23 115.26"/>
  <rect class="j" x="132.14" y="110.5" width="8.55" height=".6" transform="translate(-11.11 206.3) rotate(-72)"/>
  <polygon class="j" points="136.46 105.31 136 104.8 146.91 102.48 146.7 103.13 136.46 105.31"/>
  <polygon class="j" points="154.13 110.53 154.03 110.84 153.7 110.91 146.7 103.13 146.91 102.48 154.13 110.53"/>
  <rect class="j" x="148.67" y="103.85" width=".6" height="8.55" transform="translate(-34.09 127.45) rotate(-42)"/>
  <g>
    <line class="e" x1="276.74" y1="164.42" x2="274.79" y2="163.97"/>
    <line class="d" x1="270.8" y1="163.04" x2="161.1" y2="137.41"/>
    <line class="e" x1="159.1" y1="136.94" x2="157.15" y2="136.49"/>
    <g>
      <path class="m" d="M277.39,160.71c2.02.47,3.28,2.49,2.81,4.52-.47,2.02-2.49,3.28-4.52,2.81-2.02-.47-3.28-2.49-2.81-4.52s2.49-3.28,4.52-2.81Z"/>
      <path class="j" d="M277.5,160.23c-2.29-.53-4.58.89-5.12,3.18-.53,2.29.89,4.58,3.18,5.12,2.29.53,4.58-.89,5.12-3.18.53-2.29-.89-4.58-3.18-5.12-2.29-.53,2.29.53,0,0ZM275.79,167.55c-1.75-.41-2.84-2.17-2.43-3.92s2.17-2.84,3.92-2.43,2.84,2.17,2.43,3.92-2.17,2.84-3.92,2.43,1.75.41,0,0Z"/>
    </g>
    <polygon class="j" points="160.73 133.52 158.36 136.77 159.05 140.73 151.34 135.13 160.73 133.52"/>
  </g>
  <path class="b" d="M494.11,171.95l.7-.7"/>
  <g>
    <path class="i" d="M256.44,87.57l4.27,9.61h-1.4l-1.28-2.82h-4.06l-1.21,2.82h-1.4l4.1-9.61h.97ZM254.49,93.13h3.01l-1.55-3.7-1.46,3.7Z"/>
    <path class="i" d="M262.86,87.62v9.55h-1.25v-9.55h1.25Z"/>
    <path class="i" d="M265.93,87.62v9.55h-1.25v-9.55h1.25Z"/>
    <path class="i" d="M273.04,89.58h.03v1.3h1.99v1.12h-1.99v2.93c0,.63.1,1.23.88,1.23.52,0,1.04-.2,1.43-.45v1.16c-.45.27-1.13.42-1.61.42-1.23,0-1.95-.62-1.95-2.37v-2.93h-1.09v-.13l2.31-2.3Z"/>
    <path class="i" d="M280.5,92.79v3.17c0,.2.07.29.24.29.13,0,.36-.11.66-.34v.9c-.48.32-.9.49-1.3.49-.45,0-.74-.18-.85-.64-.55.43-1.12.64-1.69.64-.9,0-1.54-.71-1.54-1.54,0-1.15.78-1.55,3.25-2.38v-.35c0-.78-.39-1.09-1.13-1.09-.69,0-1.39.32-1.99,1.04v-1.36c.49-.58,1.21-.85,2.09-.85,1.44,0,2.28.83,2.28,2.03ZM278.16,96.42c.39,0,.76-.2,1.09-.52v-1.83c-1.44.48-1.99.88-1.99,1.47,0,.49.36.88.9.88Z"/>
    <path class="i" d="M286.93,91.47l-.66,1.09c-.36-.35-.85-.62-1.21-.62-.62,0-1.48.7-1.48,1.88v3.35h-1.25v-6.29h1.25v1.44c.71-1.18,1.29-1.57,1.88-1.57.52,0,1.05.29,1.47.71Z"/>
    <path class="i" d="M292.81,91.85h-1.29c.48.36.66.85.66,1.37,0,1.19-.81,1.82-1.89,2.03-.55.11-1.25.15-1.25.59,0,.32.62.6,1.62.76,1.76.29,2.12,1.12,2.12,1.83,0,1.26-1.21,1.97-2.97,1.97-1.99,0-2.9-.85-2.9-1.9,0-.79.34-1.43,1.58-1.74-.42-.25-.63-.52-.63-.8,0-.42.29-.73,1-.94-1.01-.42-1.39-1.15-1.39-1.96,0-1.29.98-2.18,2.84-2.18h2.49v.97ZM289.82,99.42c1.12,0,1.75-.32,1.75-.92,0-.66-.87-.99-2.06-.99-.77,0-1.43.34-1.43.97s.63.95,1.74.95ZM289.82,94.26c.7,0,1.23-.39,1.23-1.19,0-.6-.5-1.11-1.23-1.11s-1.23.49-1.23,1.15c0,.76.63,1.15,1.23,1.15Z"/>
    <path class="i" d="M299.08,94.01v.13h-4.43c.08,1.19.85,1.98,2.03,1.98.81,0,1.61-.28,2.28-.77v1.22c-.83.55-1.55.74-2.45.74-1.68,0-3.12-1.25-3.12-3.32,0-1.82,1.13-3.22,2.94-3.22,1.57,0,2.75,1.19,2.75,3.25ZM297.85,93.39c-.06-.97-.59-1.55-1.53-1.55s-1.57.69-1.64,1.55h3.17Z"/>
    <path class="i" d="M301.91,89.58h.03v1.3h1.99v1.12h-1.99v2.93c0,.63.1,1.23.88,1.23.52,0,1.04-.2,1.43-.45v1.16c-.45.27-1.13.42-1.61.42-1.23,0-1.95-.62-1.95-2.37v-2.93h-1.09v-.13l2.31-2.3Z"/>
    <path class="i" d="M307.07,90.76c.64,0,1.27.17,1.9.52v1.25c-.71-.43-1.25-.67-1.82-.67s-.8.24-.8.48c0,.31.08.49,1.25,1.15.76.43,1.68,1.01,1.68,2.03,0,.74-.56,1.79-2.16,1.79-.69,0-1.16-.11-2.1-.57v-1.34c.59.46,1.42.83,2,.83.7,0,.97-.29.97-.59,0-.39-.11-.52-1.5-1.33-.83-.5-1.43-1.02-1.43-1.89,0-.95.84-1.64,2-1.64Z"/>
    <path class="i" d="M312.17,96.67c0,.98-.59,1.86-1.64,2.17v-.25c.35-.36.57-.73.57-1.42-.43-.13-.73-.43-.73-.9s.39-.91.84-.91c.59,0,.95.63.95,1.3Z"/>
    <path class="j" d="M322.22,91.47l-.66,1.09c-.36-.35-.85-.62-1.21-.62-.62,0-1.48.7-1.48,1.88v3.35h-1.25v-6.29h1.25v1.44c.71-1.18,1.29-1.57,1.88-1.57.52,0,1.05.29,1.47.71Z"/>
    <path class="j" d="M326.73,90.06h6.44v1.23h-6.44v-1.23ZM326.73,93.39h6.44v1.23h-6.44v-1.23Z"/>
    <path class="j" d="M341.65,93.41v1.33h-3.4v-1.33h3.4Z"/>
    <path class="j" d="M348.79,92.37c0,3.07-1.39,4.93-3.08,4.93-1.83,0-3.08-1.97-3.08-4.9,0-3.26,1.61-4.9,3.14-4.9,1.79,0,3.03,2.09,3.03,4.88ZM345.7,96.04c1.02,0,1.72-1.32,1.72-3.63s-.74-3.66-1.72-3.66-1.7,1.29-1.7,3.61.67,3.67,1.7,3.67Z"/>
    <path class="j" d="M351.59,96.5c0,.48-.39.85-.85.85-.43,0-.84-.36-.84-.84,0-.52.41-.85.84-.85s.85.36.85.84Z"/>
    <path class="j" d="M358.86,92.37c0,3.07-1.39,4.93-3.08,4.93-1.83,0-3.08-1.97-3.08-4.9,0-3.26,1.61-4.9,3.14-4.9,1.79,0,3.03,2.09,3.03,4.88ZM355.76,96.04c1.02,0,1.72-1.32,1.72-3.63s-.74-3.66-1.72-3.66-1.69,1.29-1.69,3.61.67,3.67,1.69,3.67Z"/>
    <path class="j" d="M363.84,92.13c.87.29,1.37,1.19,1.37,2.27,0,1.75-1.33,2.9-2.91,2.9-.8,0-1.54-.22-2.13-.55v-1.49c.66.42,1.37.67,2.09.67.88,0,1.53-.5,1.53-1.5s-.76-1.57-1.99-1.57v-1.26c1.3,0,1.92-.5,1.92-1.44,0-.78-.6-1.43-1.65-1.43-.55,0-1.02.14-1.65.46v-1.3c.66-.32,1.26-.41,1.82-.41,1.71,0,2.83.94,2.83,2.56,0,1-.41,1.65-1.22,2.07Z"/>
    <path class="j" d="M366.91,91.14h2.61v-2.51h1.23v2.51h2.61v1.23h-2.61v2.51h-1.23v-2.51h-2.61v-1.23ZM366.91,95.94h6.44v1.23h-6.44v-1.23Z"/>
    <path class="j" d="M380.56,92.37c0,3.07-1.39,4.93-3.08,4.93-1.83,0-3.08-1.97-3.08-4.9,0-3.26,1.61-4.9,3.14-4.9,1.79,0,3.03,2.09,3.03,4.88ZM377.46,96.04c1.02,0,1.72-1.32,1.72-3.63s-.74-3.66-1.72-3.66-1.7,1.29-1.7,3.61.67,3.67,1.7,3.67Z"/>
    <path class="j" d="M383.36,96.5c0,.48-.39.85-.85.85-.43,0-.84-.36-.84-.84,0-.52.41-.85.84-.85s.85.36.85.84Z"/>
    <path class="j" d="M390.63,92.37c0,3.07-1.39,4.93-3.08,4.93-1.83,0-3.08-1.97-3.08-4.9,0-3.26,1.61-4.9,3.14-4.9,1.79,0,3.03,2.09,3.03,4.88ZM387.53,96.04c1.02,0,1.72-1.32,1.72-3.63s-.74-3.66-1.72-3.66-1.69,1.29-1.69,3.61.67,3.67,1.69,3.67Z"/>
    <path class="j" d="M395.61,92.13c.87.29,1.37,1.19,1.37,2.27,0,1.75-1.33,2.9-2.91,2.9-.8,0-1.54-.22-2.13-.55v-1.49c.66.42,1.37.67,2.09.67.88,0,1.53-.5,1.53-1.5s-.76-1.57-1.99-1.57v-1.26c1.3,0,1.92-.5,1.92-1.44,0-.78-.6-1.43-1.65-1.43-.55,0-1.02.14-1.65.46v-1.3c.66-.32,1.26-.41,1.82-.41,1.71,0,2.83.94,2.83,2.56,0,1-.41,1.65-1.22,2.07Z"/>
  </g>
  <g>
    <path class="i" d="M404.98,154.25c0,.34-.29.64-.64.64s-.62-.32-.62-.64.26-.62.62-.62.64.29.64.62ZM404.89,155.9v5.38h-1.07v-5.38h1.07Z"/>
    <path class="i" d="M407.71,160.71c0,.41-.34.73-.73.73-.37,0-.72-.31-.72-.72,0-.44.35-.73.72-.73s.73.31.73.72Z"/>
  </g>
  <g>
    <path class="i" d="M379.84,226c0,.34-.29.64-.64.64s-.62-.32-.62-.64.26-.62.62-.62.64.29.64.62ZM379.74,227.64v5.38h-1.07v-5.38h1.07Z"/>
    <path class="i" d="M382.46,226c0,.34-.29.64-.64.64s-.62-.32-.62-.64.26-.62.62-.62.64.29.64.62ZM382.37,227.64v5.38h-1.07v-5.38h1.07Z"/>
    <path class="i" d="M385.19,232.45c0,.41-.34.73-.73.73-.37,0-.72-.31-.72-.72,0-.44.35-.73.72-.73s.73.31.73.72Z"/>
  </g>
  <g>
    <path class="i" d="M177.54,256.83c0,.34-.29.64-.64.64s-.62-.32-.62-.64.26-.62.62-.62.64.29.64.62ZM177.45,258.47v5.38h-1.07v-5.38h1.07Z"/>
    <path class="i" d="M180.17,256.83c0,.34-.29.64-.64.64s-.62-.32-.62-.64.26-.62.62-.62.64.29.64.62ZM180.08,258.47v5.38h-1.07v-5.38h1.07Z"/>
    <path class="i" d="M182.8,256.83c0,.34-.29.64-.64.64s-.62-.32-.62-.64.26-.62.62-.62.64.29.64.62ZM182.7,258.47v5.38h-1.07v-5.38h1.07Z"/>
    <path class="i" d="M185.52,263.28c0,.41-.34.73-.73.73-.37,0-.72-.31-.72-.72,0-.44.35-.73.72-.73s.73.31.73.72Z"/>
  </g>
  <g>
    <path class="i" d="M166.17,123.86c0,.34-.29.64-.64.64s-.62-.32-.62-.64.26-.62.62-.62.64.29.64.62ZM166.07,125.51v5.38h-1.07v-5.38h1.07Z"/>
    <path class="i" d="M168.02,125.51l1.45,3.31,1.4-3.31h1.15l-2.38,5.49h-.36l-2.43-5.49h1.16Z"/>
    <path class="i" d="M174.07,130.32c0,.41-.34.73-.73.73-.37,0-.72-.31-.72-.72,0-.44.35-.73.72-.73s.73.31.73.72Z"/>
  </g>
  <g>
    <path class="i" d="M296.95,300.88v6.29c0,2.42,1.14,3.7,3.38,3.7s3.38-1.33,3.38-3.7v-6.29h1.2v6.29c0,2.87-1.52,4.77-4.55,4.77s-4.61-1.71-4.61-4.77v-6.29h1.2Z"/>
    <path class="i" d="M312.95,307.43v4.37h-1.1v-4.32c0-1.51-.69-2.1-1.7-2.1-.8,0-1.52.48-2.02,1.25v5.17h-1.09v-7.19h1.09v1.07c.62-.8,1.57-1.22,2.35-1.22,1.62,0,2.46,1.14,2.46,2.96Z"/>
    <path class="i" d="M318.69,300.91v1.03c-.27-.11-.61-.16-.91-.16-1.02,0-1.52.61-1.52,2.1v.74h1.52v.97h-1.52v6.21h-1.09v-6.21h-1.06v-.97h1.06v-.75c0-2,.94-3.11,2.45-3.11.4,0,.75.06,1.07.16Z"/>
    <path class="i" d="M323.54,306.72v3.97c0,.22.06.32.22.32.14,0,.43-.16.85-.48v.82c-.56.4-.99.59-1.42.59-.61,0-.74-.42-.74-.69v-.19c-.82.69-1.39.88-2.1.88-1.09,0-1.82-.79-1.82-1.76,0-1.41,1.22-2.07,3.92-2.69v-.56c0-1.01-.42-1.44-1.42-1.44-.88,0-1.57.38-2.27,1.11v-1.19c.61-.64,1.41-.94,2.37-.94,1.58,0,2.42.86,2.42,2.26ZM320.85,311.14c.51,0,.99-.19,1.6-.78v-2.24c-1.76.34-2.82.91-2.82,1.89,0,.64.5,1.14,1.22,1.14Z"/>
    <path class="i" d="M331.35,305.91c.9-1.01,1.55-1.44,2.45-1.44,1.55,0,2.38,1.02,2.38,2.83v4.5h-1.09v-4.38c0-1.31-.58-2-1.65-2-.66,0-1.34.4-1.89,1.19v5.2h-1.07v-4.42c0-1.34-.51-1.98-1.57-1.98-.82,0-1.46.45-1.99,1.17v5.23h-1.07v-7.19h1.07v1.09c.7-.82,1.44-1.23,2.3-1.23.94,0,1.75.46,2.11,1.44Z"/>
    <path class="i" d="M339.3,301.75v1.39h-1.09v-1.39h1.09ZM338.21,304.61h1.09v7.19h-1.09v-7.19Z"/>
    <path class="i" d="M342.5,300.88v10.92h-1.09v-10.92h1.09Z"/>
    <path class="i" d="M345.7,301.75v1.39h-1.09v-1.39h1.09ZM344.61,304.61h1.09v7.19h-1.09v-7.19Z"/>
    <path class="i" d="M352.25,306.72v3.97c0,.22.06.32.22.32.14,0,.43-.16.85-.48v.82c-.56.4-.99.59-1.42.59-.61,0-.74-.42-.74-.69v-.19c-.82.69-1.39.88-2.1.88-1.09,0-1.83-.79-1.83-1.76,0-1.41,1.22-2.07,3.92-2.69v-.56c0-1.01-.42-1.44-1.42-1.44-.88,0-1.57.38-2.27,1.11v-1.19c.61-.64,1.41-.94,2.37-.94,1.58,0,2.42.86,2.42,2.26ZM349.56,311.14c.51,0,.99-.19,1.6-.78v-2.24c-1.76.34-2.82.91-2.82,1.89,0,.64.5,1.14,1.22,1.14Z"/>
    <path class="i" d="M359.46,305.25l-.59.95c-.48-.43-.94-.69-1.34-.69-.7,0-1.65.79-1.94,2.16v4.13h-1.09v-7.19h1.09v1.73c.82-1.31,1.55-1.87,2.27-1.87.56,0,1.1.3,1.6.78Z"/>
    <path class="i" d="M361.59,301.75v1.39h-1.09v-1.39h1.09ZM360.5,304.61h1.09v7.19h-1.09v-7.19Z"/>
    <path class="i" d="M362.61,304.61h1.39v-1.59l1.09-.62v2.21h2.22v.97h-2.22v3.84c0,.88.14,1.52,1.04,1.52.53,0,1.06-.19,1.5-.46v1.03c-.48.29-1.15.43-1.65.43-1.39,0-1.98-.71-1.98-2.51v-3.84h-1.39v-.97Z"/>
    <path class="i" d="M369.11,304.61l2.26,4.51,2.15-4.51h1.18l-5.22,10.87h-1.17l2.46-5.14-2.9-5.73h1.23Z"/>
  </g>
  <g>
    <path class="i" d="M184.35,225.97h6.29c2.42,0,3.7-1.14,3.7-3.38s-1.33-3.38-3.7-3.38h-6.29v-1.2h6.29c2.87,0,4.77,1.52,4.77,4.55s-1.71,4.61-4.77,4.61h-6.29v-1.2Z"/>
    <path class="i" d="M190.9,209.97h4.37v1.1h-4.32c-1.5,0-2.1.69-2.1,1.7,0,.8.48,1.52,1.25,2.02h5.17v1.09h-7.19v-1.09h1.07c-.8-.62-1.22-1.57-1.22-2.35,0-1.62,1.14-2.46,2.96-2.46Z"/>
    <path class="i" d="M188.37,202.86h1.17c-.42.7-.58,1.28-.58,1.94,0,1.57,1.26,2.5,2.71,2.5,1.33,0,2.72-.78,2.72-2.69,0-.7-.19-1.26-.45-1.86h1.09c.26.66.38,1.31.38,2.02,0,2.53-1.89,3.65-3.67,3.65-2.34,0-3.81-1.49-3.81-3.55,0-.67.11-1.23.43-2Z"/>
    <path class="i" d="M194.56,195.41c.62.91.85,1.75.85,2.72,0,1.95-1.46,3.52-3.76,3.52-2.13,0-3.71-1.28-3.71-3.28,0-1.83,1.34-3.03,3.7-3.07v5.23h.11c1.28,0,2.64-.86,2.64-2.54,0-.93-.32-1.81-.9-2.58h1.07ZM190.95,196.38c-1.28.13-2.05.8-2.05,2,0,1.14.88,1.98,2.05,2.11v-4.11Z"/>
    <path class="i" d="M188.72,188.8l.94.59c-.43.48-.69.94-.69,1.34,0,.71.79,1.65,2.16,1.94h4.13v1.09h-7.19v-1.09h1.73c-1.31-.82-1.87-1.55-1.87-2.27,0-.56.3-1.1.78-1.6Z"/>
    <path class="i" d="M188.08,188.85v-1.39h-1.58l-.62-1.09h2.21v-2.22h.98v2.22h3.84c.88,0,1.52-.14,1.52-1.04,0-.53-.19-1.06-.46-1.5h1.02c.29.48.43,1.15.43,1.65,0,1.39-.71,1.99-2.51,1.99h-3.84v1.39h-.98Z"/>
    <path class="i" d="M190.19,178.13h3.97c.22,0,.32-.06.32-.22,0-.14-.16-.43-.48-.85h.82c.4.56.59.99.59,1.42,0,.61-.42.74-.69.74h-.19c.69.82.88,1.39.88,2.1,0,1.09-.79,1.83-1.76,1.83-1.41,0-2.07-1.22-2.69-3.92h-.56c-1.01,0-1.44.42-1.44,1.42,0,.88.38,1.57,1.1,2.27h-1.18c-.64-.61-.94-1.41-.94-2.37,0-1.58.86-2.42,2.26-2.42ZM194.61,180.82c0-.51-.19-.99-.78-1.6h-2.24c.34,1.76.91,2.82,1.89,2.82.64,0,1.14-.5,1.14-1.22Z"/>
    <path class="i" d="M185.22,174.72h1.39v1.09h-1.39v-1.09ZM188.08,175.81v-1.09h7.19v1.09h-7.19Z"/>
    <path class="i" d="M190.9,166.71h4.37v1.1h-4.32c-1.5,0-2.1.69-2.1,1.7,0,.8.48,1.52,1.25,2.02h5.17v1.09h-7.19v-1.09h1.07c-.8-.62-1.22-1.57-1.22-2.35,0-1.62,1.14-2.46,2.96-2.46Z"/>
    <path class="i" d="M188.08,165.78v-1.39h-1.58l-.62-1.09h2.21v-2.22h.98v2.22h3.84c.88,0,1.52-.14,1.52-1.04,0-.53-.19-1.06-.46-1.5h1.02c.29.48.43,1.15.43,1.65,0,1.39-.71,1.98-2.51,1.98h-3.84v1.39h-.98Z"/>
    <path class="i" d="M188.08,159.28l4.51-2.26-4.51-2.14v-1.18l10.87,5.22v1.17l-5.14-2.46-5.73,2.9v-1.23Z"/>
  </g>
  <g>
    <path d="M40.67,42.35v13.36h-2.68v-1.12c-.7.85-1.73,1.26-3.02,1.26-2.74,0-4.84-1.94-4.84-4.99s2.11-4.99,4.84-4.99c1.19,0,2.2.38,2.9,1.17v-4.7h2.81ZM37.92,50.86c0-1.67-1.08-2.68-2.47-2.68s-2.49,1.01-2.49,2.68,1.08,2.68,2.49,2.68,2.47-1.01,2.47-2.68Z"/>
    <path d="M42.57,54.09c0-1.04.77-1.73,1.75-1.73s1.75.68,1.75,1.73-.77,1.76-1.75,1.76-1.75-.74-1.75-1.76Z"/>
    <path d="M53.34,50.32v-7.22h1.33v7.17c0,2.99,1.4,4.36,3.85,4.36s3.87-1.37,3.87-4.36v-7.17h1.3v7.22c0,3.62-1.94,5.49-5.17,5.49s-5.19-1.87-5.19-5.49Z"/>
    <path d="M76.15,50.21v5.49h-1.28v-5.37c0-2-1.04-3.02-2.84-3.02-2.03,0-3.31,1.26-3.31,3.42v4.97h-1.28v-9.47h1.22v1.75c.68-1.15,1.96-1.82,3.6-1.82,2.3,0,3.89,1.33,3.89,4.05Z"/>
    <path d="M81.08,45.12v1.12h2.92v1.08h-2.88v8.39h-1.28v-8.39h-1.69v-1.08h1.69v-1.17c0-1.69,1.01-2.81,2.86-2.81.7,0,1.42.2,1.89.59l-.43.96c-.36-.31-.86-.47-1.4-.47-1.1,0-1.67.61-1.67,1.78Z"/>
    <path d="M92.87,49.84v5.87h-1.22v-1.48c-.58.97-1.69,1.57-3.26,1.57-2.14,0-3.46-1.12-3.46-2.75,0-1.46.94-2.68,3.66-2.68h3.01v-.58c0-1.62-.92-2.5-2.68-2.5-1.22,0-2.38.43-3.15,1.12l-.58-.95c.95-.81,2.36-1.28,3.85-1.28,2.45,0,3.83,1.22,3.83,3.67ZM91.59,52.86v-1.55h-2.97c-1.84,0-2.43.72-2.43,1.69,0,1.1.88,1.78,2.4,1.78s2.5-.68,3.01-1.93Z"/>
    <path d="M111.97,50.21v5.49h-1.28v-5.37c0-2-1.01-3.02-2.72-3.02-1.94,0-3.17,1.26-3.17,3.42v4.97h-1.28v-5.37c0-2-1.01-3.02-2.74-3.02-1.93,0-3.17,1.26-3.17,3.42v4.97h-1.28v-9.47h1.22v1.73c.67-1.13,1.89-1.8,3.48-1.8s2.79.67,3.37,2c.68-1.22,2.03-2,3.75-2,2.3,0,3.82,1.33,3.82,4.05Z"/>
    <path d="M115.15,43.25c0-.49.41-.9.94-.9s.94.4.94.88c0,.52-.4.94-.94.94s-.94-.41-.94-.92ZM115.44,46.24h1.28v9.47h-1.28v-9.47Z"/>
    <path d="M120.28,42.35h1.28v13.36h-1.28v-13.36Z"/>
    <path d="M124.83,43.25c0-.49.41-.9.94-.9s.94.4.94.88c0,.52-.4.94-.94.94s-.94-.41-.94-.92ZM125.12,46.24h1.28v9.47h-1.28v-9.47Z"/>
    <path d="M137.11,49.84v5.87h-1.22v-1.48c-.58.97-1.69,1.57-3.26,1.57-2.14,0-3.46-1.12-3.46-2.75,0-1.46.94-2.68,3.66-2.68h3.01v-.58c0-1.62-.92-2.5-2.68-2.5-1.22,0-2.38.43-3.15,1.12l-.58-.95c.95-.81,2.36-1.28,3.85-1.28,2.45,0,3.83,1.22,3.83,3.67ZM135.83,52.86v-1.55h-2.97c-1.84,0-2.43.72-2.43,1.69,0,1.1.88,1.78,2.4,1.78s2.5-.68,3.01-1.93Z"/>
    <path d="M145.36,46.16v1.24c-.11,0-.22-.02-.31-.02-1.98,0-3.19,1.26-3.19,3.49v4.83h-1.28v-9.47h1.22v1.85c.59-1.26,1.8-1.93,3.55-1.93Z"/>
    <path d="M147.51,43.25c0-.49.41-.9.94-.9s.94.4.94.88c0,.52-.4.94-.94.94s-.94-.41-.94-.92ZM147.8,46.24h1.28v9.47h-1.28v-9.47Z"/>
    <path d="M157.63,55.13c-.5.45-1.26.67-2,.67-1.78,0-2.77-1.01-2.77-2.75v-5.73h-1.69v-1.08h1.69v-2.07h1.28v2.07h2.88v1.08h-2.88v5.65c0,1.12.58,1.73,1.64,1.73.52,0,1.04-.16,1.4-.49l.45.92Z"/>
    <path d="M167.91,46.24l-4.74,10.6c-.79,1.85-1.8,2.45-3.15,2.45-.88,0-1.73-.29-2.3-.86l.59-.95c.47.47,1.04.72,1.73.72.85,0,1.42-.4,1.96-1.58l.42-.92-4.23-9.45h1.33l3.57,8.05,3.56-8.05h1.26Z"/>
    <path d="M173.47,50.97c0-2.83,2.05-4.81,4.88-4.81,1.6,0,2.95.63,3.71,1.87l-.95.65c-.65-.95-1.66-1.4-2.75-1.4-2.07,0-3.58,1.48-3.58,3.69s1.51,3.69,3.58,3.69c1.1,0,2.11-.43,2.75-1.39l.95.65c-.76,1.22-2.11,1.87-3.71,1.87-2.83,0-4.88-2-4.88-4.83Z"/>
    <path d="M191.7,49.84v5.87h-1.22v-1.48c-.58.97-1.69,1.57-3.26,1.57-2.14,0-3.46-1.12-3.46-2.75,0-1.46.94-2.68,3.66-2.68h3.01v-.58c0-1.62-.92-2.5-2.68-2.5-1.22,0-2.38.43-3.15,1.12l-.58-.95c.96-.81,2.36-1.28,3.85-1.28,2.45,0,3.83,1.22,3.83,3.67ZM190.43,52.86v-1.55h-2.97c-1.84,0-2.43.72-2.43,1.69,0,1.1.88,1.78,2.39,1.78s2.5-.68,3.01-1.93Z"/>
    <path d="M204.77,50.97c0,2.88-2.02,4.83-4.72,4.83-1.51,0-2.81-.65-3.6-1.87v5.28h-1.28v-12.96h1.22v1.87c.77-1.26,2.09-1.94,3.66-1.94,2.7,0,4.72,1.94,4.72,4.81ZM203.49,50.97c0-2.2-1.53-3.69-3.53-3.69s-3.53,1.49-3.53,3.69,1.51,3.69,3.53,3.69,3.53-1.48,3.53-3.69Z"/>
    <path d="M212.37,55.13c-.5.45-1.26.67-2,.67-1.78,0-2.77-1.01-2.77-2.75v-5.73h-1.69v-1.08h1.69v-2.07h1.28v2.07h2.88v1.08h-2.88v5.65c0,1.12.58,1.73,1.64,1.73.52,0,1.04-.16,1.4-.49l.45.92Z"/>
    <path d="M223.22,46.24v9.47h-1.22v-1.73c-.67,1.15-1.89,1.82-3.4,1.82-2.41,0-4-1.35-4-4.07v-5.49h1.28v5.37c0,2.02,1.04,3.04,2.84,3.04,1.98,0,3.22-1.28,3.22-3.44v-4.97h1.28Z"/>
    <path d="M231.57,46.16v1.24c-.11,0-.22-.02-.31-.02-1.98,0-3.19,1.26-3.19,3.49v4.83h-1.28v-9.47h1.22v1.85c.59-1.26,1.8-1.93,3.55-1.93Z"/>
    <path d="M242.27,51.37h-7.92c.14,1.98,1.66,3.29,3.73,3.29,1.15,0,2.18-.41,2.9-1.24l.72.83c-.85,1.01-2.16,1.55-3.65,1.55-2.95,0-4.97-2.02-4.97-4.83s1.96-4.81,4.63-4.81,4.59,1.96,4.59,4.81c0,.11-.02.25-.02.4ZM234.34,50.41h6.72c-.16-1.85-1.51-3.15-3.37-3.15s-3.19,1.3-3.35,3.15Z"/>
    <path d="M243.58,54.63l.58-1.01c.76.59,2.03,1.06,3.37,1.06,1.8,0,2.54-.61,2.54-1.55,0-2.47-6.14-.52-6.14-4.27,0-1.55,1.33-2.7,3.75-2.7,1.22,0,2.56.34,3.35.88l-.56,1.03c-.83-.58-1.82-.81-2.79-.81-1.71,0-2.47.67-2.47,1.57,0,2.56,6.14.63,6.14,4.27,0,1.64-1.44,2.7-3.91,2.7-1.57,0-3.08-.5-3.85-1.17Z"/>
    <path d="M274.04,50.21v5.49h-1.28v-5.37c0-2-1.01-3.02-2.72-3.02-1.95,0-3.17,1.26-3.17,3.42v4.97h-1.28v-5.37c0-2-1.01-3.02-2.74-3.02-1.93,0-3.17,1.26-3.17,3.42v4.97h-1.28v-9.47h1.22v1.73c.67-1.13,1.89-1.8,3.47-1.8s2.79.67,3.37,2c.68-1.22,2.04-2,3.75-2,2.3,0,3.82,1.33,3.82,4.05Z"/>
    <path d="M285.75,51.37h-7.92c.14,1.98,1.66,3.29,3.73,3.29,1.15,0,2.18-.41,2.9-1.24l.72.83c-.85,1.01-2.16,1.55-3.65,1.55-2.95,0-4.97-2.02-4.97-4.83s1.96-4.81,4.63-4.81,4.59,1.96,4.59,4.81c0,.11-.02.25-.02.4ZM277.83,50.41h6.72c-.16-1.85-1.51-3.15-3.37-3.15s-3.19,1.3-3.35,3.15Z"/>
    <path d="M295.53,49.84v5.87h-1.22v-1.48c-.58.97-1.69,1.57-3.26,1.57-2.14,0-3.46-1.12-3.46-2.75,0-1.46.94-2.68,3.66-2.68h3.01v-.58c0-1.62-.92-2.5-2.68-2.5-1.22,0-2.38.43-3.15,1.12l-.58-.95c.96-.81,2.36-1.28,3.85-1.28,2.45,0,3.83,1.22,3.83,3.67ZM294.25,52.86v-1.55h-2.97c-1.84,0-2.43.72-2.43,1.69,0,1.1.88,1.78,2.39,1.78s2.5-.68,3.01-1.93Z"/>
    <path d="M307.71,50.21v5.49h-1.28v-5.37c0-2-1.04-3.02-2.84-3.02-2.03,0-3.31,1.26-3.31,3.42v4.97h-1.28v-9.47h1.22v1.75c.68-1.15,1.96-1.82,3.6-1.82,2.3,0,3.89,1.33,3.89,4.05Z"/>
    <path d="M310.9,43.25c0-.49.41-.9.94-.9s.94.4.94.88c0,.52-.4.94-.94.94s-.94-.41-.94-.92ZM311.19,46.24h1.28v9.47h-1.28v-9.47Z"/>
    <path d="M324.74,50.21v5.49h-1.28v-5.37c0-2-1.04-3.02-2.84-3.02-2.04,0-3.31,1.26-3.31,3.42v4.97h-1.28v-9.47h1.22v1.75c.68-1.15,1.96-1.82,3.6-1.82,2.3,0,3.89,1.33,3.89,4.05Z"/>
    <path d="M336.98,46.24v8.32c0,3.26-1.6,4.74-4.74,4.74-1.73,0-3.42-.52-4.41-1.46l.65-.97c.9.81,2.27,1.3,3.73,1.3,2.39,0,3.49-1.1,3.49-3.44v-1.21c-.79,1.21-2.14,1.84-3.69,1.84-2.7,0-4.75-1.89-4.75-4.61s2.05-4.57,4.75-4.57c1.58,0,2.95.65,3.75,1.89v-1.82h1.22ZM335.74,50.74c0-2.05-1.51-3.46-3.6-3.46s-3.58,1.4-3.58,3.46,1.5,3.47,3.58,3.47,3.6-1.42,3.6-3.47Z"/>
    <path d="M342.02,45.12v1.12h2.92v1.08h-2.88v8.39h-1.28v-8.39h-1.69v-1.08h1.69v-1.17c0-1.69,1.01-2.81,2.86-2.81.7,0,1.42.2,1.89.59l-.43.96c-.36-.31-.86-.47-1.4-.47-1.1,0-1.67.61-1.67,1.78Z"/>
    <path d="M355.2,46.24v9.47h-1.22v-1.73c-.67,1.15-1.89,1.82-3.4,1.82-2.41,0-4-1.35-4-4.07v-5.49h1.28v5.37c0,2.02,1.04,3.04,2.85,3.04,1.98,0,3.22-1.28,3.22-3.44v-4.97h1.28Z"/>
    <path d="M358.78,42.35h1.28v13.36h-1.28v-13.36Z"/>
    <path d="M383.96,50.21v5.49h-1.28v-5.37c0-2-1.01-3.02-2.72-3.02-1.95,0-3.17,1.26-3.17,3.42v4.97h-1.28v-5.37c0-2-1.01-3.02-2.74-3.02-1.93,0-3.17,1.26-3.17,3.42v4.97h-1.28v-9.47h1.22v1.73c.67-1.13,1.89-1.8,3.47-1.8s2.79.67,3.37,2c.68-1.22,2.04-2,3.75-2,2.3,0,3.82,1.33,3.82,4.05Z"/>
    <path d="M386.48,50.97c0-2.81,2.05-4.81,4.83-4.81s4.81,2,4.81,4.81-2.03,4.83-4.81,4.83-4.83-2.02-4.83-4.83ZM394.81,50.97c0-2.21-1.49-3.69-3.51-3.69s-3.53,1.48-3.53,3.69,1.51,3.69,3.53,3.69,3.51-1.48,3.51-3.69Z"/>
    <path d="M398.72,42.35h1.28v13.36h-1.28v-13.36Z"/>
    <path d="M411.81,51.37h-7.92c.14,1.98,1.66,3.29,3.73,3.29,1.15,0,2.18-.41,2.9-1.24l.72.83c-.85,1.01-2.16,1.55-3.66,1.55-2.95,0-4.97-2.02-4.97-4.83s1.96-4.81,4.63-4.81,4.59,1.96,4.59,4.81c0,.11-.02.25-.02.4ZM403.88,50.41h6.72c-.16-1.85-1.51-3.15-3.37-3.15s-3.19,1.3-3.35,3.15Z"/>
    <path d="M413.48,50.97c0-2.83,2.05-4.81,4.88-4.81,1.6,0,2.95.63,3.71,1.87l-.96.65c-.65-.95-1.66-1.4-2.75-1.4-2.07,0-3.58,1.48-3.58,3.69s1.51,3.69,3.58,3.69c1.1,0,2.11-.43,2.75-1.39l.96.65c-.76,1.22-2.11,1.87-3.71,1.87-2.83,0-4.88-2-4.88-4.83Z"/>
    <path d="M433.1,46.24v9.47h-1.22v-1.73c-.67,1.15-1.89,1.82-3.4,1.82-2.41,0-4-1.35-4-4.07v-5.49h1.28v5.37c0,2.02,1.04,3.04,2.84,3.04,1.98,0,3.22-1.28,3.22-3.44v-4.97h1.28Z"/>
    <path d="M436.68,42.35h1.28v13.36h-1.28v-13.36Z"/>
    <path d="M448.67,49.84v5.87h-1.22v-1.48c-.58.97-1.69,1.57-3.26,1.57-2.14,0-3.46-1.12-3.46-2.75,0-1.46.94-2.68,3.66-2.68h3.01v-.58c0-1.62-.92-2.5-2.68-2.5-1.22,0-2.38.43-3.15,1.12l-.58-.95c.95-.81,2.36-1.28,3.85-1.28,2.45,0,3.83,1.22,3.83,3.67ZM447.39,52.86v-1.55h-2.97c-1.84,0-2.43.72-2.43,1.69,0,1.1.88,1.78,2.4,1.78s2.5-.68,3.01-1.93Z"/>
    <path d="M456.91,46.16v1.24c-.11,0-.22-.02-.31-.02-1.98,0-3.19,1.26-3.19,3.49v4.83h-1.28v-9.47h1.22v1.85c.59-1.26,1.8-1.93,3.55-1.93Z"/>
    <path d="M463.79,43.25c0-.49.41-.9.94-.9s.94.4.94.88c0,.52-.4.94-.94.94s-.94-.41-.94-.92ZM464.07,46.24h1.28v9.47h-1.28v-9.47Z"/>
    <path d="M477.63,50.21v5.49h-1.28v-5.37c0-2-1.04-3.02-2.84-3.02-2.04,0-3.31,1.26-3.31,3.42v4.97h-1.28v-9.47h1.22v1.75c.68-1.15,1.96-1.82,3.6-1.82,2.3,0,3.89,1.33,3.89,4.05Z"/>
    <path d="M479.79,54.63l.58-1.01c.76.59,2.04,1.06,3.37,1.06,1.8,0,2.54-.61,2.54-1.55,0-2.47-6.14-.52-6.14-4.27,0-1.55,1.33-2.7,3.75-2.7,1.22,0,2.56.34,3.35.88l-.56,1.03c-.83-.58-1.82-.81-2.79-.81-1.71,0-2.47.67-2.47,1.57,0,2.56,6.14.63,6.14,4.27,0,1.64-1.44,2.7-3.91,2.7-1.57,0-3.08-.5-3.85-1.17Z"/>
    <path d="M489.62,43.25c0-.49.41-.9.94-.9s.94.4.94.88c0,.52-.4.94-.94.94s-.94-.41-.94-.92ZM489.9,46.24h1.28v9.47h-1.28v-9.47Z"/>
    <path d="M503.52,46.24v8.32c0,3.26-1.6,4.74-4.74,4.74-1.73,0-3.42-.52-4.41-1.46l.65-.97c.9.81,2.27,1.3,3.73,1.3,2.39,0,3.49-1.1,3.49-3.44v-1.21c-.79,1.21-2.14,1.84-3.69,1.84-2.7,0-4.75-1.89-4.75-4.61s2.05-4.57,4.75-4.57c1.58,0,2.95.65,3.75,1.89v-1.82h1.22ZM502.27,50.74c0-2.05-1.51-3.46-3.6-3.46s-3.58,1.4-3.58,3.46,1.49,3.47,3.58,3.47,3.6-1.42,3.6-3.47Z"/>
    <path d="M515.81,50.21v5.49h-1.28v-5.37c0-2-1.04-3.02-2.84-3.02-2.03,0-3.31,1.26-3.31,3.42v4.97h-1.28v-13.36h1.28v5.55c.7-1.1,1.94-1.73,3.55-1.73,2.3,0,3.89,1.33,3.89,4.05Z"/>
    <path d="M524.27,55.13c-.5.45-1.26.67-2,.67-1.78,0-2.77-1.01-2.77-2.75v-5.73h-1.69v-1.08h1.69v-2.07h1.28v2.07h2.88v1.08h-2.88v5.65c0,1.12.58,1.73,1.64,1.73.52,0,1.04-.16,1.4-.49l.45.92Z"/>
    <path d="M525.27,54.63l.58-1.01c.76.59,2.04,1.06,3.37,1.06,1.8,0,2.54-.61,2.54-1.55,0-2.47-6.14-.52-6.14-4.27,0-1.55,1.33-2.7,3.75-2.7,1.22,0,2.56.34,3.35.88l-.56,1.03c-.83-.58-1.82-.81-2.79-.81-1.71,0-2.47.67-2.47,1.57,0,2.56,6.14.63,6.14,4.27,0,1.64-1.44,2.7-3.91,2.7-1.57,0-3.08-.5-3.85-1.17Z"/>
    <path d="M534.56,54.81c0-.56.43-.97.95-.97s.97.41.97.97-.45.99-.97.99-.95-.43-.95-.99Z"/>
  </g>
</svg>