<?xml version="1.0" encoding="UTF-8"?>
<svg id="a" data-name="Layer 1" xmlns="http://www.w3.org/2000/svg" viewBox="0 0 566.93 316.6">
  <defs>
    <style>
      .b, .c, .d, .e, .f, .g, .h, .i, .j, .k, .l, .m, .n, .o {
        fill: none;
        stroke-linejoin: round;
      }

      .b, .c, .j, .n {
        stroke-width: 2px;
      }

      .b, .f, .g {
        stroke: #99beae;
      }

      .p {
        fill: #111e25;
      }

      .c, .e, .k {
        stroke: #97a4ab;
      }

      .d, .g, .h, .k, .o {
        stroke-linecap: round;
      }

      .d, .g, .k, .o {
        stroke-width: .71px;
      }

      .d, .m, .n {
        stroke: #ef9d43;
      }

      .e, .f, .i, .m {
        stroke-width: .53px;
      }

      .h {
        stroke: #010101;
      }

      .h, .l {
        stroke-width: 1.25px;
      }

      .q {
        fill: #587888;
      }

      .i, .j, .o {
        stroke: #587888;
      }

      .l {
        stroke: #111e25;
      }

      .r {
        fill: #97a4ab;
      }

      .s {
        fill: #ef9d43;
      }

      .t {
        fill: #99beae;
      }
    </style>
  </defs>
  <g>
    <g>
      <path class="r" d="M197.17,171c0-1,.82-1.8,1.82-1.8s1.82.8,1.82,1.8-.82,1.82-1.82,1.82-1.82-.82-1.82-1.82"/>
      <path class="k" d="M197.17,171c0-1,.82-1.8,1.82-1.8s1.82.8,1.82,1.8-.82,1.82-1.82,1.82-1.82-.82-1.82-1.82"/>
      <path class="r" d="M222.87,180.24c0-1,.82-1.82,1.82-1.82s1.82.82,1.82,1.82-.82,1.8-1.82,1.8-1.82-.82-1.82-1.8"/>
      <path class="k" d="M222.87,180.24c0-1,.82-1.82,1.82-1.82s1.82.82,1.82,1.82-.82,1.8-1.82,1.8-1.82-.82-1.82-1.8"/>
      <path class="r" d="M248.82,170.57c0-1,.82-1.82,1.82-1.82s1.82.82,1.82,1.82-.82,1.82-1.82,1.82-1.82-.82-1.82-1.82"/>
      <path class="k" d="M248.82,170.57c0-1,.82-1.82,1.82-1.82s1.82.82,1.82,1.82-.82,1.82-1.82,1.82-1.82-.82-1.82-1.82"/>
      <path class="r" d="M274.69,188.47c0-1,.82-1.82,1.82-1.82s1.8.82,1.8,1.82-.82,1.82-1.8,1.82-1.82-.82-1.82-1.82"/>
      <path class="k" d="M274.69,188.47c0-1,.82-1.82,1.82-1.82s1.8.82,1.8,1.82-.82,1.82-1.8,1.82-1.82-.82-1.82-1.82"/>
      <path class="r" d="M300.56,197.48c0-1,.82-1.82,1.82-1.82s1.82.82,1.82,1.82-.82,1.82-1.82,1.82-1.82-.82-1.82-1.82"/>
      <path class="k" d="M300.56,197.48c0-1,.82-1.82,1.82-1.82s1.82.82,1.82,1.82-.82,1.82-1.82,1.82-1.82-.82-1.82-1.82"/>
      <path class="r" d="M326.45,209.34c0-1,.82-1.82,1.82-1.82s1.82.82,1.82,1.82-.82,1.82-1.82,1.82-1.82-.82-1.82-1.82"/>
      <path class="k" d="M326.45,209.34c0-1,.82-1.82,1.82-1.82s1.82.82,1.82,1.82-.82,1.82-1.82,1.82-1.82-.82-1.82-1.82"/>
      <path class="r" d="M352.33,225.29c0-1,.82-1.82,1.82-1.82s1.8.82,1.8,1.82-.82,1.82-1.8,1.82-1.82-.82-1.82-1.82"/>
      <path class="k" d="M352.33,225.29c0-1,.82-1.82,1.82-1.82s1.8.82,1.8,1.82-.82,1.82-1.8,1.82-1.82-.82-1.82-1.82"/>
      <path class="r" d="M378.22,224.41c0-1,.8-1.82,1.8-1.82s1.82.82,1.82,1.82-.82,1.82-1.82,1.82-1.8-.82-1.8-1.82"/>
      <path class="k" d="M378.22,224.41c0-1,.8-1.82,1.8-1.82s1.82.82,1.82,1.82-.82,1.82-1.82,1.82-1.8-.82-1.8-1.82"/>
      <path class="q" d="M197.17,170.41c0-1,.82-1.82,1.82-1.82s1.82.82,1.82,1.82-.82,1.82-1.82,1.82-1.82-.82-1.82-1.82"/>
      <path class="o" d="M197.17,170.41c0-1,.82-1.82,1.82-1.82s1.82.82,1.82,1.82-.82,1.82-1.82,1.82-1.82-.82-1.82-1.82"/>
      <path class="q" d="M222.87,149.6c0-1,.82-1.8,1.82-1.8s1.82.8,1.82,1.8-.82,1.82-1.82,1.82-1.82-.82-1.82-1.82"/>
      <path class="o" d="M222.87,149.6c0-1,.82-1.8,1.82-1.8s1.82.8,1.82,1.8-.82,1.82-1.82,1.82-1.82-.82-1.82-1.82"/>
      <path class="q" d="M248.82,171.74c0-.98.82-1.8,1.82-1.8s1.82.82,1.82,1.8-.82,1.82-1.82,1.82-1.82-.82-1.82-1.82"/>
      <path class="o" d="M248.82,171.74c0-.98.82-1.8,1.82-1.8s1.82.82,1.82,1.8-.82,1.82-1.82,1.82-1.82-.82-1.82-1.82"/>
      <path class="q" d="M274.69,139.83c0-1,.82-1.82,1.82-1.82s1.8.82,1.8,1.82-.82,1.82-1.8,1.82-1.82-.82-1.82-1.82"/>
      <path class="o" d="M274.69,139.83c0-1,.82-1.82,1.82-1.82s1.8.82,1.8,1.82-.82,1.82-1.8,1.82-1.82-.82-1.82-1.82"/>
      <path class="q" d="M300.56,168.34c0-1,.82-1.82,1.82-1.82s1.82.82,1.82,1.82-.82,1.82-1.82,1.82-1.82-.82-1.82-1.82"/>
      <path class="o" d="M300.56,168.34c0-1,.82-1.82,1.82-1.82s1.82.82,1.82,1.82-.82,1.82-1.82,1.82-1.82-.82-1.82-1.82"/>
      <path class="q" d="M326.45,189.17c0-1,.82-1.82,1.82-1.82s1.82.82,1.82,1.82-.82,1.82-1.82,1.82-1.82-.82-1.82-1.82"/>
      <path class="o" d="M326.45,189.17c0-1,.82-1.82,1.82-1.82s1.82.82,1.82,1.82-.82,1.82-1.82,1.82-1.82-.82-1.82-1.82"/>
      <path class="q" d="M352.33,223.1c0-1,.82-1.82,1.82-1.82s1.8.82,1.8,1.82-.82,1.82-1.8,1.82-1.82-.82-1.82-1.82"/>
      <path class="o" d="M352.33,223.1c0-1,.82-1.82,1.82-1.82s1.8.82,1.8,1.82-.82,1.82-1.8,1.82-1.82-.82-1.82-1.82"/>
      <path class="q" d="M378.22,236.41c0-1,.8-1.82,1.8-1.82s1.82.82,1.82,1.82-.82,1.82-1.82,1.82-1.8-.82-1.8-1.82"/>
      <path class="o" d="M378.22,236.41c0-1,.8-1.82,1.8-1.82s1.82.82,1.82,1.82-.82,1.82-1.82,1.82-1.8-.82-1.8-1.82"/>
      <path class="t" d="M197.17,162.99c0-1,.82-1.82,1.82-1.82s1.82.82,1.82,1.82-.82,1.82-1.82,1.82-1.82-.82-1.82-1.82"/>
      <path class="g" d="M197.17,162.99c0-1,.82-1.82,1.82-1.82s1.82.82,1.82,1.82-.82,1.82-1.82,1.82-1.82-.82-1.82-1.82"/>
      <path class="t" d="M222.87,155.82c0-1,.82-1.82,1.82-1.82s1.82.82,1.82,1.82-.82,1.82-1.82,1.82-1.82-.82-1.82-1.82"/>
      <path class="g" d="M222.87,155.82c0-1,.82-1.82,1.82-1.82s1.82.82,1.82,1.82-.82,1.82-1.82,1.82-1.82-.82-1.82-1.82"/>
      <path class="t" d="M248.82,163.26c0-.98.82-1.8,1.82-1.8s1.82.82,1.82,1.8-.82,1.82-1.82,1.82-1.82-.82-1.82-1.82"/>
      <path class="g" d="M248.82,163.26c0-.98.82-1.8,1.82-1.8s1.82.82,1.82,1.8-.82,1.82-1.82,1.82-1.82-.82-1.82-1.82"/>
      <path class="t" d="M274.69,146.36c0-1,.82-1.82,1.82-1.82s1.8.82,1.8,1.82-.82,1.82-1.8,1.82-1.82-.82-1.82-1.82"/>
      <path class="g" d="M274.69,146.36c0-1,.82-1.82,1.82-1.82s1.8.82,1.8,1.82-.82,1.82-1.8,1.82-1.82-.82-1.82-1.82"/>
      <path class="t" d="M300.56,167.29c0-1,.82-1.82,1.82-1.82s1.82.82,1.82,1.82-.82,1.82-1.82,1.82-1.82-.82-1.82-1.82"/>
      <path class="g" d="M300.56,167.29c0-1,.82-1.82,1.82-1.82s1.82.82,1.82,1.82-.82,1.82-1.82,1.82-1.82-.82-1.82-1.82"/>
      <path class="t" d="M326.45,182.78c0-1,.82-1.82,1.82-1.82s1.82.82,1.82,1.82-.82,1.82-1.82,1.82-1.82-.82-1.82-1.82"/>
      <path class="g" d="M326.45,182.78c0-1,.82-1.82,1.82-1.82s1.82.82,1.82,1.82-.82,1.82-1.82,1.82-1.82-.82-1.82-1.82"/>
      <path class="t" d="M352.33,201.66c0-1,.82-1.82,1.82-1.82s1.8.82,1.8,1.82-.82,1.82-1.8,1.82-1.82-.82-1.82-1.82"/>
      <path class="g" d="M352.33,201.66c0-1,.82-1.82,1.82-1.82s1.8.82,1.8,1.82-.82,1.82-1.8,1.82-1.82-.82-1.82-1.82"/>
      <path class="t" d="M378.22,203.09c0-1,.8-1.82,1.8-1.82s1.82.82,1.82,1.82-.82,1.8-1.82,1.8-1.8-.82-1.8-1.8"/>
      <path class="g" d="M378.22,203.09c0-1,.8-1.82,1.8-1.82s1.82.82,1.82,1.82-.82,1.8-1.82,1.8-1.8-.82-1.8-1.8"/>
      <path class="s" d="M170.77,165.92c0-1,.82-1.82,1.82-1.82s1.82.82,1.82,1.82-.82,1.8-1.82,1.8-1.82-.82-1.82-1.8"/>
      <path class="d" d="M170.77,165.92c0-1,.82-1.82,1.82-1.82s1.82.82,1.82,1.82-.82,1.8-1.82,1.8-1.82-.82-1.82-1.8"/>
      <path class="s" d="M197.17,154.78c0-1,.82-1.82,1.82-1.82s1.82.82,1.82,1.82-.82,1.8-1.82,1.8-1.82-.8-1.82-1.8"/>
      <path class="d" d="M197.17,154.78c0-1,.82-1.82,1.82-1.82s1.82.82,1.82,1.82-.82,1.8-1.82,1.8-1.82-.8-1.82-1.8"/>
      <path class="s" d="M222.87,149.6c0-1,.82-1.82,1.82-1.82s1.82.82,1.82,1.82-.82,1.82-1.82,1.82-1.82-.82-1.82-1.82"/>
      <path class="d" d="M222.87,149.6c0-1,.82-1.82,1.82-1.82s1.82.82,1.82,1.82-.82,1.82-1.82,1.82-1.82-.82-1.82-1.82"/>
      <path class="s" d="M248.82,173.74c0-1,.82-1.82,1.82-1.82s1.82.82,1.82,1.82-.82,1.82-1.82,1.82-1.82-.82-1.82-1.82"/>
      <path class="d" d="M248.82,173.74c0-1,.82-1.82,1.82-1.82s1.82.82,1.82,1.82-.82,1.82-1.82,1.82-1.82-.82-1.82-1.82"/>
      <path class="s" d="M274.69,201.25c0-.98.82-1.8,1.82-1.8s1.8.82,1.8,1.8-.82,1.82-1.8,1.82-1.82-.82-1.82-1.82"/>
      <path class="d" d="M274.69,201.25c0-.98.82-1.8,1.82-1.8s1.8.82,1.8,1.8-.82,1.82-1.8,1.82-1.82-.82-1.82-1.82"/>
      <path class="s" d="M300.56,259.48c0-1,.82-1.82,1.82-1.82s1.82.82,1.82,1.82-.82,1.82-1.82,1.82-1.82-.82-1.82-1.82"/>
      <path class="d" d="M300.56,259.48c0-1,.82-1.82,1.82-1.82s1.82.82,1.82,1.82-.82,1.82-1.82,1.82-1.82-.82-1.82-1.82"/>
      <path class="s" d="M326.45,258.41c0-.98.82-1.8,1.82-1.8s1.82.82,1.82,1.8-.82,1.82-1.82,1.82-1.82-.82-1.82-1.82"/>
      <path class="d" d="M326.45,258.41c0-.98.82-1.8,1.82-1.8s1.82.82,1.82,1.8-.82,1.82-1.82,1.82-1.82-.82-1.82-1.82"/>
      <path class="s" d="M352.33,259.21c0-.98.82-1.8,1.82-1.8s1.8.82,1.8,1.8-.82,1.82-1.8,1.82-1.82-.82-1.82-1.82"/>
      <path class="d" d="M352.33,259.21c0-.98.82-1.8,1.82-1.8s1.8.82,1.8,1.8-.82,1.82-1.8,1.82-1.82-.82-1.82-1.82"/>
      <path class="s" d="M378.22,257.12c0-1,.8-1.82,1.8-1.82s1.82.82,1.82,1.82-.82,1.82-1.82,1.82-1.8-.82-1.8-1.82"/>
      <path class="d" d="M378.22,257.12c0-1,.8-1.82,1.8-1.82s1.82.82,1.82,1.82-.82,1.82-1.82,1.82-1.8-.82-1.8-1.82"/>
      <line class="e" x1="196.95" y1="168.46" x2="201.02" y2="168.46"/>
      <line class="e" x1="198.99" y1="168.46" x2="198.99" y2="173.56"/>
      <line class="e" x1="196.95" y1="173.56" x2="201.02" y2="173.56"/>
      <line class="e" x1="222.67" y1="175.83" x2="226.75" y2="175.83"/>
      <line class="e" x1="224.7" y1="175.83" x2="224.7" y2="184.62"/>
      <line class="e" x1="222.67" y1="184.62" x2="226.75" y2="184.62"/>
      <line class="e" x1="248.6" y1="163.42" x2="252.67" y2="163.42"/>
      <line class="e" x1="250.65" y1="163.42" x2="250.65" y2="177.72"/>
      <line class="e" x1="248.6" y1="177.72" x2="252.67" y2="177.72"/>
      <line class="e" x1="274.47" y1="183.57" x2="278.54" y2="183.57"/>
      <line class="e" x1="276.51" y1="183.57" x2="276.51" y2="193.36"/>
      <line class="e" x1="274.47" y1="193.36" x2="278.54" y2="193.36"/>
      <line class="e" x1="300.35" y1="195.72" x2="304.41" y2="195.72"/>
      <line class="e" x1="302.38" y1="195.72" x2="302.38" y2="199.26"/>
      <line class="e" x1="300.35" y1="199.26" x2="304.41" y2="199.26"/>
      <line class="e" x1="326.22" y1="206.86" x2="330.3" y2="206.86"/>
      <line class="e" x1="328.27" y1="206.86" x2="328.27" y2="211.82"/>
      <line class="e" x1="326.22" y1="211.82" x2="330.3" y2="211.82"/>
      <line class="e" x1="352.11" y1="223.92" x2="356.18" y2="223.92"/>
      <line class="e" x1="354.16" y1="223.92" x2="354.16" y2="226.65"/>
      <line class="e" x1="352.11" y1="226.65" x2="356.18" y2="226.65"/>
      <line class="e" x1="378" y1="214.75" x2="382.07" y2="214.75"/>
      <line class="e" x1="380.02" y1="214.75" x2="380.02" y2="234.08"/>
      <line class="e" x1="378" y1="234.08" x2="382.07" y2="234.08"/>
      <line class="i" x1="196.95" y1="154.12" x2="201.02" y2="154.12"/>
      <line class="i" x1="198.99" y1="154.12" x2="198.99" y2="186.69"/>
      <line class="i" x1="196.95" y1="186.69" x2="201.02" y2="186.69"/>
      <line class="i" x1="222.67" y1="138.11" x2="226.75" y2="138.11"/>
      <line class="i" x1="224.7" y1="138.11" x2="224.7" y2="161.11"/>
      <line class="i" x1="222.67" y1="161.11" x2="226.75" y2="161.11"/>
      <line class="i" x1="248.6" y1="165.65" x2="252.67" y2="165.65"/>
      <line class="i" x1="250.65" y1="165.65" x2="250.65" y2="177.84"/>
      <line class="i" x1="248.6" y1="177.84" x2="252.67" y2="177.84"/>
      <line class="i" x1="274.47" y1="127.42" x2="278.54" y2="127.42"/>
      <line class="i" x1="276.51" y1="127.42" x2="276.51" y2="152.24"/>
      <line class="i" x1="274.47" y1="152.24" x2="278.54" y2="152.24"/>
      <line class="i" x1="300.35" y1="165.94" x2="304.41" y2="165.94"/>
      <line class="i" x1="302.38" y1="165.94" x2="302.38" y2="170.71"/>
      <line class="i" x1="300.35" y1="170.71" x2="304.41" y2="170.71"/>
      <line class="i" x1="326.22" y1="179.89" x2="330.3" y2="179.89"/>
      <line class="i" x1="328.27" y1="179.89" x2="328.27" y2="198.44"/>
      <line class="i" x1="326.22" y1="198.44" x2="330.3" y2="198.44"/>
      <line class="i" x1="352.11" y1="218.72" x2="356.18" y2="218.72"/>
      <line class="i" x1="354.16" y1="218.72" x2="354.16" y2="227.49"/>
      <line class="i" x1="352.11" y1="227.49" x2="356.18" y2="227.49"/>
      <line class="i" x1="378" y1="235.49" x2="382.07" y2="235.49"/>
      <line class="i" x1="380.02" y1="235.49" x2="380.02" y2="237.34"/>
      <line class="i" x1="378" y1="237.34" x2="382.07" y2="237.34"/>
      <line class="f" x1="196.95" y1="151.11" x2="201.02" y2="151.11"/>
      <line class="f" x1="198.99" y1="151.11" x2="198.99" y2="174.87"/>
      <line class="f" x1="196.95" y1="174.87" x2="201.02" y2="174.87"/>
      <line class="f" x1="222.67" y1="145.38" x2="226.75" y2="145.38"/>
      <line class="f" x1="224.7" y1="145.38" x2="224.7" y2="166.27"/>
      <line class="f" x1="222.67" y1="166.27" x2="226.75" y2="166.27"/>
      <line class="f" x1="248.6" y1="146.54" x2="252.67" y2="146.54"/>
      <line class="f" x1="250.65" y1="146.54" x2="250.65" y2="179.99"/>
      <line class="f" x1="248.6" y1="179.99" x2="252.67" y2="179.99"/>
      <line class="f" x1="274.47" y1="131.06" x2="278.54" y2="131.06"/>
      <line class="f" x1="276.51" y1="131.06" x2="276.51" y2="161.66"/>
      <line class="f" x1="274.47" y1="161.66" x2="278.54" y2="161.66"/>
      <line class="f" x1="300.35" y1="147.38" x2="304.41" y2="147.38"/>
      <line class="f" x1="302.38" y1="147.38" x2="302.38" y2="187.2"/>
      <line class="f" x1="300.35" y1="187.2" x2="304.41" y2="187.2"/>
      <line class="f" x1="326.22" y1="174.85" x2="330.3" y2="174.85"/>
      <line class="f" x1="328.27" y1="174.85" x2="328.27" y2="190.68"/>
      <line class="f" x1="326.22" y1="190.68" x2="330.3" y2="190.68"/>
      <line class="f" x1="352.11" y1="185.77" x2="356.18" y2="185.77"/>
      <line class="f" x1="354.16" y1="185.77" x2="354.16" y2="217.55"/>
      <line class="f" x1="352.11" y1="217.55" x2="356.18" y2="217.55"/>
      <line class="f" x1="378" y1="198.16" x2="382.07" y2="198.16"/>
      <line class="f" x1="380.02" y1="198.16" x2="380.02" y2="208.01"/>
      <line class="f" x1="378" y1="208.01" x2="382.07" y2="208.01"/>
      <line class="m" x1="196.95" y1="110.33" x2="201.02" y2="110.33"/>
      <line class="m" x1="198.99" y1="110.33" x2="198.99" y2="199.2"/>
      <line class="m" x1="196.95" y1="199.2" x2="201.02" y2="199.2"/>
      <line class="m" x1="222.67" y1="131.2" x2="226.75" y2="131.2"/>
      <line class="m" x1="224.7" y1="131.2" x2="224.7" y2="167.99"/>
      <line class="m" x1="222.67" y1="167.99" x2="226.75" y2="167.99"/>
      <line class="m" x1="248.6" y1="168.5" x2="252.67" y2="168.5"/>
      <line class="m" x1="250.65" y1="168.5" x2="250.65" y2="178.99"/>
      <line class="m" x1="248.6" y1="178.99" x2="252.67" y2="178.99"/>
      <line class="m" x1="274.47" y1="199.16" x2="278.54" y2="199.16"/>
      <line class="m" x1="276.51" y1="199.16" x2="276.51" y2="203.36"/>
      <line class="m" x1="274.47" y1="203.36" x2="278.54" y2="203.36"/>
      <line class="m" x1="300.35" y1="258.39" x2="304.41" y2="258.39"/>
      <line class="m" x1="302.38" y1="258.39" x2="302.38" y2="260.56"/>
      <line class="m" x1="300.35" y1="260.56" x2="304.41" y2="260.56"/>
      <line class="m" x1="326.22" y1="258.15" x2="330.3" y2="258.15"/>
      <line class="m" x1="328.27" y1="258.15" x2="328.27" y2="258.68"/>
      <line class="m" x1="326.22" y1="258.68" x2="330.3" y2="258.68"/>
      <line class="m" x1="352.11" y1="258.88" x2="356.18" y2="258.88"/>
      <line class="m" x1="354.16" y1="258.88" x2="354.16" y2="259.56"/>
      <line class="m" x1="352.11" y1="259.56" x2="356.18" y2="259.56"/>
      <line class="m" x1="378" y1="256.61" x2="382.07" y2="256.61"/>
      <line class="m" x1="380.02" y1="256.61" x2="380.02" y2="257.63"/>
      <line class="m" x1="378" y1="257.63" x2="382.07" y2="257.63"/>
      <polyline class="c" points="172.59 172.68 174.68 172.7 176.77 172.72 178.88 172.74 180.97 172.76 183.06 172.78 185.17 172.82 187.26 172.84 189.35 172.88 191.46 172.92 193.55 172.97 195.63 173.01 197.72 173.05 199.83 173.11 201.92 173.17 204.01 173.23 206.12 173.29 208.21 173.37 210.3 173.46 212.41 173.54 214.5 173.64 216.59 173.74 218.7 173.87 220.79 173.99 222.87 174.11 224.96 174.26 227.07 174.42 229.16 174.58 231.25 174.77 233.36 174.97 235.45 175.2 237.54 175.42 239.65 175.67 241.74 175.96 243.83 176.24 245.94 176.57 248.02 176.9 250.11 177.27 252.2 177.66 254.31 178.09 256.4 178.54 258.49 179.03 260.6 179.54 262.69 180.09 264.78 180.69 266.89 181.32 268.98 181.98 271.07 182.67 273.18 183.43 275.26 184.21 277.35 185.03 279.44 185.89 281.55 186.81 283.64 187.75 285.73 188.74 287.84 189.74 289.93 190.8 292.02 191.89 294.13 193 296.22 194.14 298.31 195.31 300.41 196.5 302.5 197.69 304.59 198.89 306.68 200.12 308.79 201.33 310.88 202.54 312.97 203.75 315.08 204.96 317.17 206.14 319.26 207.29 321.37 208.44 323.46 209.54 325.54 210.63 327.65 211.67 329.74 212.7 331.83 213.68 333.94 214.62 336.03 215.52 338.12 216.38 340.21 217.2 342.32 217.98 344.41 218.72 346.5 219.42 348.61 220.07 350.7 220.71 352.78 221.28 354.89 221.83 356.98 222.34 359.07 222.84 361.18 223.29 363.27 223.7 365.36 224.09 367.45 224.45 369.56 224.8 371.65 225.11 373.74 225.4 375.85 225.66 377.93 225.93 380.02 226.15"/>
      <polyline class="j" points="172.59 158.55 174.68 158.55 176.77 158.55 178.88 158.55 180.97 158.55 183.06 158.55 185.17 158.55 187.26 158.55 189.35 158.55 191.46 158.57 193.55 158.57 195.63 158.57 197.72 158.57 199.83 158.57 201.92 158.57 204.01 158.57 206.12 158.57 208.21 158.57 210.3 158.57 212.41 158.57 214.5 158.57 216.59 158.57 218.7 158.57 220.79 158.57 222.87 158.57 224.96 158.57 227.07 158.57 229.16 158.57 231.25 158.59 233.36 158.59 235.45 158.59 237.54 158.59 239.65 158.61 241.74 158.61 243.83 158.63 245.94 158.63 248.02 158.65 250.11 158.67 252.2 158.69 254.31 158.71 256.4 158.73 258.49 158.77 260.6 158.81 262.69 158.85 264.78 158.89 266.89 158.96 268.98 159.04 271.07 159.12 273.18 159.22 275.26 159.32 277.35 159.47 279.44 159.63 281.55 159.82 283.64 160.04 285.73 160.29 287.84 160.59 289.93 160.94 292.02 161.35 294.13 161.82 296.22 162.38 298.31 163.03 300.41 163.77 302.5 164.63 304.59 165.61 306.68 166.74 308.79 168.03 310.88 169.48 312.97 171.12 315.08 172.94 317.17 174.97 319.26 177.23 321.37 179.66 323.46 182.28 325.54 185.11 327.65 188.08 329.74 191.17 331.83 194.37 333.94 197.6 336.03 200.84 338.12 204.06 340.21 207.21 342.32 210.22 344.41 213.11 346.5 215.81 348.61 218.33 350.7 220.67 352.78 222.77 354.89 224.68 356.98 226.4 359.07 227.94 361.18 229.29 363.27 230.48 365.36 231.52 367.45 232.42 369.56 233.2 371.65 233.9 373.74 234.47 375.85 234.98 377.93 235.43 380.02 235.8"/>
      <polyline class="b" points="172.59 157.65 174.68 157.65 176.77 157.65 178.88 157.65 180.97 157.65 183.06 157.65 185.17 157.65 187.26 157.65 189.35 157.65 191.46 157.65 193.55 157.65 195.63 157.65 197.72 157.65 199.83 157.65 201.92 157.65 204.01 157.65 206.12 157.65 208.21 157.65 210.3 157.65 212.41 157.65 214.5 157.65 216.59 157.65 218.7 157.65 220.79 157.67 222.87 157.67 224.96 157.67 227.07 157.67 229.16 157.67 231.25 157.67 233.36 157.67 235.45 157.67 237.54 157.69 239.65 157.69 241.74 157.69 243.83 157.69 245.94 157.71 248.02 157.71 250.11 157.73 252.2 157.75 254.31 157.77 256.4 157.79 258.49 157.81 260.6 157.85 262.69 157.87 264.78 157.93 266.89 157.97 268.98 158.03 271.07 158.12 273.18 158.2 275.26 158.32 277.35 158.44 279.44 158.59 281.55 158.77 283.64 158.98 285.73 159.22 287.84 159.53 289.93 159.88 292.02 160.29 294.13 160.76 296.22 161.33 298.31 161.99 300.41 162.72 302.5 163.61 304.59 164.59 306.68 165.69 308.79 166.96 310.88 168.36 312.97 169.89 315.08 171.57 317.17 173.37 319.26 175.28 321.37 177.27 323.46 179.31 325.54 181.38 327.65 183.45 329.74 185.46 331.83 187.42 333.94 189.27 336.03 191.01 338.12 192.63 340.21 194.1 342.32 195.43 344.41 196.62 346.5 197.69 348.61 198.61 350.7 199.43 352.78 200.12 354.89 200.74 356.98 201.25 359.07 201.7 361.18 202.07 363.27 202.4 365.36 202.68 367.45 202.91 369.56 203.09 371.65 203.28 373.74 203.4 375.85 203.52 377.93 203.63 380.02 203.71"/>
      <polyline class="n" points="172.59 159.43 174.68 159.43 176.77 159.43 178.88 159.43 180.97 159.43 183.06 159.43 185.17 159.43 187.26 159.43 189.35 159.43 191.46 159.43 193.55 159.43 195.63 159.43 197.72 159.43 199.83 159.43 201.92 159.45 204.01 159.45 206.12 159.45 208.21 159.47 210.3 159.47 212.41 159.49 214.5 159.51 216.59 159.53 218.7 159.55 220.79 159.59 222.87 159.63 224.96 159.67 227.07 159.76 229.16 159.84 231.25 159.94 233.36 160.08 235.45 160.25 237.54 160.47 239.65 160.74 241.74 161.09 243.83 161.52 245.94 162.05 248.02 162.72 250.11 163.56 252.2 164.59 254.31 165.86 256.4 167.41 258.49 169.3 260.6 171.57 262.69 174.3 264.78 177.49 266.89 181.2 268.98 185.44 271.07 190.19 273.18 195.37 275.26 200.9 277.35 206.68 279.44 212.51 281.55 218.29 283.64 223.84 285.73 229.04 287.84 233.79 289.93 238.03 292.02 241.78 294.13 245 296.22 247.72 298.31 250.01 300.41 251.92 302.5 253.48 304.59 254.77 306.68 255.79 308.79 256.63 310.88 257.31 312.97 257.86 315.08 258.29 317.17 258.64 319.26 258.9 321.37 259.13 323.46 259.29 325.54 259.44 327.65 259.54 329.74 259.64 331.83 259.7 333.94 259.76 336.03 259.8 338.12 259.82 340.21 259.87 342.32 259.89 344.41 259.91 346.5 259.91 348.61 259.93 350.7 259.93 352.78 259.95 354.89 259.95 356.98 259.95 359.07 259.95 361.18 259.95 363.27 259.97 365.36 259.97 367.45 259.97 369.56 259.97 371.65 259.97 373.74 259.97 375.85 259.97 377.93 259.97 380.02 259.97"/>
      <line class="h" x1="163.03" y1="272.17" x2="163.03" y2="263.6"/>
      <line class="h" x1="179.37" y1="272.17" x2="179.37" y2="269.31"/>
      <line class="h" x1="188.92" y1="272.17" x2="188.92" y2="269.31"/>
      <line class="h" x1="195.7" y1="272.17" x2="195.7" y2="269.31"/>
      <line class="h" x1="200.96" y1="272.17" x2="200.96" y2="266.46"/>
      <line class="h" x1="205.24" y1="272.17" x2="205.24" y2="269.31"/>
      <line class="h" x1="208.89" y1="272.17" x2="208.89" y2="269.31"/>
      <line class="h" x1="212.02" y1="272.17" x2="212.02" y2="269.31"/>
      <line class="h" x1="214.8" y1="272.17" x2="214.8" y2="269.31"/>
      <line class="h" x1="217.28" y1="272.17" x2="217.28" y2="263.6"/>
      <line class="h" x1="233.61" y1="272.17" x2="233.61" y2="269.31"/>
      <line class="h" x1="243.17" y1="272.17" x2="243.17" y2="269.31"/>
      <line class="h" x1="249.95" y1="272.17" x2="249.95" y2="269.31"/>
      <line class="h" x1="255.19" y1="272.17" x2="255.19" y2="266.46"/>
      <line class="h" x1="259.49" y1="272.17" x2="259.49" y2="269.31"/>
      <line class="h" x1="263.14" y1="272.17" x2="263.14" y2="269.31"/>
      <line class="h" x1="266.27" y1="272.17" x2="266.27" y2="269.31"/>
      <line class="h" x1="269.06" y1="272.17" x2="269.06" y2="269.31"/>
      <line class="h" x1="271.54" y1="272.17" x2="271.54" y2="263.6"/>
      <line class="h" x1="287.86" y1="272.17" x2="287.86" y2="269.31"/>
      <line class="h" x1="297.42" y1="272.17" x2="297.42" y2="269.31"/>
      <line class="h" x1="304.2" y1="272.17" x2="304.2" y2="269.31"/>
      <line class="h" x1="309.45" y1="272.17" x2="309.45" y2="266.46"/>
      <line class="h" x1="313.75" y1="272.17" x2="313.75" y2="269.31"/>
      <line class="h" x1="317.37" y1="272.17" x2="317.37" y2="269.31"/>
      <line class="h" x1="320.53" y1="272.17" x2="320.53" y2="269.31"/>
      <line class="h" x1="323.29" y1="272.17" x2="323.29" y2="269.31"/>
      <line class="h" x1="325.79" y1="272.17" x2="325.79" y2="263.6"/>
      <line class="h" x1="342.11" y1="272.17" x2="342.11" y2="269.31"/>
      <line class="h" x1="351.66" y1="272.17" x2="351.66" y2="269.31"/>
      <line class="h" x1="358.44" y1="272.17" x2="358.44" y2="269.31"/>
      <line class="h" x1="363.7" y1="272.17" x2="363.7" y2="266.46"/>
      <line class="h" x1="368" y1="272.17" x2="368" y2="269.31"/>
      <line class="h" x1="371.63" y1="272.17" x2="371.63" y2="269.31"/>
      <line class="h" x1="374.78" y1="272.17" x2="374.78" y2="269.31"/>
      <line class="h" x1="377.55" y1="272.17" x2="377.55" y2="269.31"/>
      <line class="h" x1="380.02" y1="272.17" x2="380.02" y2="263.6"/>
    </g>
    <line class="l" x1="159.98" y1="272.17" x2="159.98" y2="102.82"/>
    <path class="p" d="M142.36,258.64c0-3.24,1.48-5.02,3.18-5.02,1.89,0,3.1,2.09,3.1,5.01,0,3.1-1.32,5.04-3.14,5.04-1.92,0-3.14-2.01-3.14-5.02ZM147.55,258.65c0-2.58-.82-4.04-2.07-4.04s-2.04,1.45-2.04,4.02.77,4.04,2.04,4.04,2.07-1.48,2.07-4.02Z"/>
    <g>
      <path class="p" d="M139.67,203.98v.96h-3.24v2.78c.21-.01.36-.01.5-.01,1.98,0,3.28,1.25,3.28,3.04s-1.3,3.14-3.21,3.14c-.86,0-1.59-.2-2.32-.59v-1.11c.72.42,1.43.66,2.15.66,1.35,0,2.28-.9,2.28-2.11,0-1.52-1.46-2.1-2.45-2.1-.39,0-.98.04-1.22.14v-4.82h4.23Z"/>
      <path class="p" d="M141.56,208.87c0-3.24,1.48-5.02,3.18-5.02,1.89,0,3.1,2.09,3.1,5.01,0,3.1-1.32,5.04-3.14,5.04-1.92,0-3.14-2.01-3.14-5.02ZM146.75,208.89c0-2.58-.82-4.04-2.07-4.04s-2.04,1.45-2.04,4.02.77,4.04,2.04,4.04,2.07-1.48,2.07-4.02Z"/>
    </g>
    <g>
      <path class="p" d="M130.62,154.08v9.91h-1.08v-8.09l-1.89,1.51-.62-.76,3.17-2.57h.42Z"/>
      <path class="p" d="M133.57,159.1c0-3.24,1.48-5.02,3.18-5.02,1.89,0,3.1,2.09,3.1,5.01,0,3.1-1.32,5.04-3.14,5.04-1.92,0-3.14-2.01-3.14-5.02ZM138.76,159.12c0-2.58-.82-4.04-2.07-4.04s-2.04,1.45-2.04,4.02.77,4.04,2.04,4.04,2.07-1.48,2.07-4.02Z"/>
      <path class="p" d="M140.74,159.1c0-3.24,1.48-5.02,3.18-5.02,1.89,0,3.1,2.09,3.1,5.01,0,3.1-1.32,5.04-3.14,5.04-1.92,0-3.14-2.01-3.14-5.02ZM145.93,159.12c0-2.58-.82-4.04-2.07-4.04s-2.04,1.45-2.04,4.02.77,4.04,2.04,4.04,2.07-1.48,2.07-4.02Z"/>
    </g>
    <g>
      <path class="p" d="M130.62,104.31v9.91h-1.08v-8.09l-1.89,1.51-.62-.76,3.17-2.57h.42Z"/>
      <path class="p" d="M138.85,104.44v.96h-3.24v2.78c.21-.01.36-.01.5-.01,1.98,0,3.28,1.25,3.28,3.04s-1.3,3.14-3.21,3.14c-.86,0-1.59-.2-2.32-.59v-1.11c.72.42,1.43.66,2.15.66,1.35,0,2.28-.9,2.28-2.11,0-1.52-1.46-2.1-2.45-2.1-.39,0-.98.04-1.22.14v-4.82h4.23Z"/>
      <path class="p" d="M140.74,109.34c0-3.24,1.48-5.02,3.18-5.02,1.89,0,3.1,2.09,3.1,5.01,0,3.1-1.32,5.04-3.14,5.04-1.92,0-3.14-2.01-3.14-5.02ZM145.93,109.35c0-2.58-.82-4.04-2.07-4.04s-2.04,1.45-2.04,4.02.77,4.04,2.04,4.04,2.07-1.48,2.07-4.02Z"/>
    </g>
    <line class="l" x1="154.37" y1="258.39" x2="159.98" y2="258.39"/>
    <line class="l" x1="154.37" y1="208.62" x2="159.98" y2="208.62"/>
    <line class="l" x1="154.37" y1="158.83" x2="159.98" y2="158.83"/>
    <line class="l" x1="154.37" y1="109.06" x2="159.98" y2="109.06"/>
    <line class="l" x1="159.98" y1="272.17" x2="392.64" y2="272.17"/>
    <g>
      <path class="p" d="M147.58,278.57v9.91h-1.08v-8.09l-1.89,1.51-.62-.76,3.17-2.57h.42Z"/>
      <path class="p" d="M156.21,287.85c-.82.56-1.56.76-2.44.76-1.75,0-3.16-1.3-3.16-3.37,0-1.91,1.15-3.33,2.94-3.33,1.64,0,2.71,1.21,2.75,3.31h-4.69v.1c0,1.15.77,2.37,2.28,2.37.83,0,1.62-.29,2.31-.8v.96ZM155.34,284.61c-.12-1.15-.72-1.84-1.79-1.84-1.02,0-1.78.79-1.89,1.84h3.69Z"/>
      <path class="p" d="M157.41,283.01h6.43v.97h-6.43v-.97Z"/>
      <path class="p" d="M164.91,283.59c0-3.24,1.48-5.02,3.18-5.02,1.89,0,3.1,2.09,3.1,5.01,0,3.1-1.32,5.04-3.14,5.04-1.92,0-3.14-2.01-3.14-5.02ZM170.1,283.6c0-2.58-.82-4.04-2.07-4.04s-2.04,1.45-2.04,4.02.77,4.04,2.04,4.04,2.07-1.48,2.07-4.02Z"/>
      <path class="p" d="M173.53,287.82c1.85-1.29,2.95-2.72,3.28-4.17-.57.37-1.19.57-1.86.57-1.59,0-2.74-1.29-2.74-2.75,0-1.71,1.29-2.9,2.9-2.9,1.84,0,3.1,1.44,3.1,3.5,0,2.35-1.55,4.92-4.03,6.54l-.65-.79ZM175.16,283.24c.83,0,1.91-.29,1.91-1.4,0-1.29-.7-2.28-1.97-2.28-1.1,0-1.82.83-1.82,1.87s.88,1.82,1.88,1.82Z"/>
    </g>
    <g>
      <path class="p" d="M201.81,278.57v9.91h-1.08v-8.09l-1.89,1.51-.62-.76,3.17-2.57h.42Z"/>
      <path class="p" d="M210.44,287.85c-.82.56-1.56.76-2.44.76-1.75,0-3.16-1.3-3.16-3.37,0-1.91,1.15-3.33,2.94-3.33,1.64,0,2.71,1.21,2.75,3.31h-4.69v.1c0,1.15.77,2.37,2.28,2.37.83,0,1.62-.29,2.31-.8v.96ZM209.57,284.61c-.12-1.15-.72-1.84-1.79-1.84-1.02,0-1.78.79-1.89,1.84h3.69Z"/>
      <path class="p" d="M211.65,283.01h6.43v.97h-6.43v-.97Z"/>
      <path class="p" d="M219.14,283.59c0-3.24,1.48-5.02,3.18-5.02,1.89,0,3.1,2.09,3.1,5.01,0,3.1-1.32,5.04-3.14,5.04-1.92,0-3.14-2.01-3.14-5.02ZM224.33,283.6c0-2.58-.82-4.04-2.07-4.04s-2.04,1.45-2.04,4.02.77,4.04,2.04,4.04,2.07-1.48,2.07-4.02Z"/>
      <path class="p" d="M226.67,281.23c0-1.55,1.32-2.67,2.83-2.67s2.8,1.16,2.8,2.65c0,.92-.43,1.71-1.36,2.24.96.46,1.52,1.28,1.52,2.37,0,1.62-1.26,2.78-2.98,2.78-1.82,0-3.01-1.32-3.01-2.78,0-1,.52-1.91,1.55-2.37-.99-.64-1.33-1.38-1.33-2.22ZM229.47,287.57c1.15,0,1.89-.76,1.89-1.81s-.75-1.77-1.94-1.77-1.88.78-1.88,1.77c0,1.06.78,1.81,1.92,1.81ZM229.49,282.95c.9,0,1.72-.67,1.72-1.69,0-.96-.72-1.68-1.75-1.68-.96,0-1.72.67-1.72,1.66,0,1.05.83,1.71,1.75,1.71Z"/>
    </g>
    <g>
      <path class="p" d="M256.06,278.57v9.91h-1.08v-8.09l-1.89,1.51-.62-.76,3.17-2.57h.42Z"/>
      <path class="p" d="M264.7,287.85c-.82.56-1.56.76-2.44.76-1.75,0-3.16-1.3-3.16-3.37,0-1.91,1.15-3.33,2.94-3.33,1.64,0,2.71,1.21,2.75,3.31h-4.69v.1c0,1.15.77,2.37,2.28,2.37.83,0,1.62-.29,2.31-.8v.96ZM263.82,284.61c-.12-1.15-.72-1.84-1.79-1.84-1.02,0-1.78.79-1.89,1.84h3.69Z"/>
      <path class="p" d="M265.9,283.01h6.43v.97h-6.43v-.97Z"/>
      <path class="p" d="M273.4,283.59c0-3.24,1.48-5.02,3.18-5.02,1.89,0,3.1,2.09,3.1,5.01,0,3.1-1.32,5.04-3.14,5.04-1.92,0-3.14-2.01-3.14-5.02ZM278.59,283.6c0-2.58-.82-4.04-2.07-4.04s-2.04,1.45-2.04,4.02.77,4.04,2.04,4.04,2.07-1.48,2.07-4.02Z"/>
      <path class="p" d="M285.5,279.71h-4.73v-1.02h6.34c-1.03,2.29-2.07,4.62-4.58,9.91l-.95-.43,3.92-8.46Z"/>
    </g>
    <g>
      <path class="p" d="M310.32,278.57v9.91h-1.08v-8.09l-1.89,1.51-.62-.76,3.17-2.57h.42Z"/>
      <path class="p" d="M318.95,287.85c-.82.56-1.56.76-2.44.76-1.75,0-3.16-1.3-3.16-3.37,0-1.91,1.15-3.33,2.94-3.33,1.64,0,2.71,1.21,2.75,3.31h-4.69v.1c0,1.15.77,2.37,2.28,2.37.83,0,1.62-.29,2.31-.8v.96ZM318.08,284.61c-.12-1.15-.72-1.84-1.79-1.84-1.02,0-1.78.79-1.89,1.84h3.69Z"/>
      <path class="p" d="M320.15,283.01h6.43v.97h-6.43v-.97Z"/>
      <path class="p" d="M327.65,283.59c0-3.24,1.48-5.02,3.18-5.02,1.89,0,3.1,2.09,3.1,5.01,0,3.1-1.32,5.04-3.14,5.04-1.92,0-3.14-2.01-3.14-5.02ZM332.84,283.6c0-2.58-.82-4.04-2.07-4.04s-2.04,1.45-2.04,4.02.77,4.04,2.04,4.04,2.07-1.48,2.07-4.02Z"/>
      <path class="p" d="M339.68,279.38c-1.66,1.15-2.85,2.5-3.28,4.12.62-.39,1.21-.56,1.84-.56,1.56,0,2.74,1.16,2.74,2.78s-1.29,2.88-2.9,2.88c-1.45,0-3.04-1.02-3.04-3.5,0-2.34,1.12-4.49,4-6.54l.65.82ZM338.09,287.62c1.03,0,1.82-.75,1.82-1.87s-.79-1.84-1.94-1.84c-.62,0-1.87.22-1.87,1.42,0,1.59,1.03,2.28,1.98,2.28Z"/>
    </g>
    <g>
      <path class="p" d="M364.55,278.57v9.91h-1.08v-8.09l-1.89,1.51-.62-.76,3.17-2.57h.42Z"/>
      <path class="p" d="M373.19,287.85c-.82.56-1.56.76-2.44.76-1.75,0-3.16-1.3-3.16-3.37,0-1.91,1.15-3.33,2.94-3.33,1.64,0,2.71,1.21,2.75,3.31h-4.69v.1c0,1.15.77,2.37,2.28,2.37.83,0,1.62-.29,2.31-.8v.96ZM372.31,284.61c-.12-1.15-.72-1.84-1.79-1.84-1.02,0-1.78.79-1.89,1.84h3.69Z"/>
      <path class="p" d="M374.39,283.01h6.43v.97h-6.43v-.97Z"/>
      <path class="p" d="M381.88,283.59c0-3.24,1.48-5.02,3.18-5.02,1.89,0,3.1,2.09,3.1,5.01,0,3.1-1.32,5.04-3.14,5.04-1.92,0-3.14-2.01-3.14-5.02ZM387.08,283.6c0-2.58-.82-4.04-2.07-4.04s-2.04,1.45-2.04,4.02.77,4.04,2.04,4.04,2.07-1.48,2.07-4.02Z"/>
      <path class="p" d="M394.33,278.7v.96h-3.24v2.78c.21-.01.36-.01.5-.01,1.98,0,3.28,1.25,3.28,3.04s-1.3,3.14-3.21,3.14c-.86,0-1.59-.2-2.32-.59v-1.11c.72.42,1.43.66,2.15.66,1.35,0,2.28-.9,2.28-2.11,0-1.52-1.46-2.1-2.45-2.1-.39,0-.98.04-1.22.14v-4.82h4.23Z"/>
    </g>
    <g>
      <path class="p" d="M258.48,297.82v11.18h-1.11v-11.18h1.11Z"/>
      <path class="p" d="M264.03,301.49c2.18,0,3.82,1.59,3.82,3.83,0,2.54-2,3.82-3.85,3.82-2.46,0-3.83-1.9-3.83-3.77,0-2.21,1.52-3.88,3.87-3.88ZM264.01,308.14c1.61,0,2.69-1.21,2.69-2.83,0-1.79-1.25-2.82-2.75-2.82s-2.64,1.11-2.64,2.83,1.16,2.82,2.7,2.82Z"/>
      <path class="p" d="M275.2,302.51h-1.66c.66.39.97,1.06.97,1.79,0,1.28-.85,2.16-2.26,2.44-.92.18-1.59.31-1.59.82,0,.59.8.72,2.23.94,1.85.31,2.31,1.18,2.31,2.06,0,1.41-1.34,2.23-3.36,2.23-2.21,0-3.31-.92-3.31-2.15,0-.95.49-1.67,1.9-1.98-.56-.25-.84-.59-.84-.97,0-.57.41-.93,1.26-1.16-1.2-.43-1.72-1.31-1.72-2.34,0-1.51,1.13-2.54,3.13-2.54h2.93v.87ZM271.86,311.88c1.43,0,2.26-.46,2.26-1.29s-.93-1.29-2.49-1.29c-1.16,0-2.03.44-2.03,1.31s.82,1.28,2.26,1.28ZM271.81,305.82c.95,0,1.67-.61,1.67-1.64,0-.88-.67-1.57-1.64-1.57s-1.69.66-1.69,1.61c0,1,.77,1.61,1.66,1.61Z"/>
      <path class="p" d="M281.15,297.82h1.16l3.95,4.9,3.93-4.9h1.16v11.18h-1.23v-9.23h-.03l-3.74,4.67h-.21l-3.74-4.67h-.03v9.23h-1.23v-11.18Z"/>
    </g>
    <g>
      <path class="p" d="M107.94,219.44c-1.43,0-2.54-1.13-2.54-2.52s1.13-2.54,2.54-2.54,2.54,1.13,2.54,2.54-1.12,2.52-2.54,2.52ZM105.45,210.92v-.98c2.67,1.72,8.72,5.92,11.39,7.62v.98c-2.67-1.7-8.72-5.9-11.39-7.62ZM107.96,215.33c-.88,0-1.64.71-1.64,1.59s.72,1.57,1.64,1.57,1.61-.69,1.61-1.57-.74-1.59-1.61-1.59ZM114.35,214.21c-1.38,0-2.52-1.15-2.52-2.54s1.1-2.54,2.52-2.54,2.54,1.13,2.54,2.54-1.15,2.54-2.54,2.54ZM114.37,210.1c-.88,0-1.64.69-1.64,1.61,0,.85.74,1.54,1.64,1.54s1.61-.67,1.61-1.56-.74-1.59-1.61-1.59Z"/>
      <path class="p" d="M105.5,198.26l11.24-4.98v1.26l-3.51,1.57v5.08l3.51,1.51v1.26l-11.24-4.83v-.87ZM112.14,200.71v-4.11l-4.75,2.11,4.75,2Z"/>
      <path class="p" d="M109.68,186.97h1.2c-.43.72-.59,1.31-.59,1.98,0,1.61,1.29,2.55,2.77,2.55,1.36,0,2.79-.8,2.79-2.75,0-.72-.2-1.29-.46-1.9h1.11c.26.67.39,1.34.39,2.06,0,2.59-1.93,3.74-3.75,3.74-2.39,0-3.9-1.53-3.9-3.64,0-.69.12-1.26.44-2.05Z"/>
      <path class="p" d="M109.38,186.36v-1.43h-1.62l-.64-1.12h2.26v-2.28h1v2.28h3.93c.9,0,1.56-.15,1.56-1.06,0-.54-.2-1.08-.48-1.54h1.05c.29.49.44,1.18.44,1.69,0,1.43-.72,2.03-2.57,2.03h-3.93v1.43h-1Z"/>
      <path class="p" d="M106.45,178.81h1.43v1.12h-1.43v-1.12ZM109.38,179.92v-1.12h7.36v1.12h-7.36Z"/>
      <path class="p" d="M109.38,176.5l5.26-2.24-5.26-2.2v-1.2l7.54,3.2v.39l-7.54,3.26v-1.21Z"/>
      <path class="p" d="M106.45,168.65h1.43v1.11h-1.43v-1.11ZM109.38,169.76v-1.11h7.36v1.11h-7.36Z"/>
      <path class="p" d="M109.38,167.6v-1.43h-1.62l-.64-1.12h2.26v-2.28h1v2.28h3.93c.9,0,1.56-.15,1.56-1.06,0-.54-.2-1.08-.48-1.54h1.05c.29.49.44,1.18.44,1.69,0,1.43-.72,2.03-2.57,2.03h-3.93v1.43h-1Z"/>
      <path class="p" d="M109.38,160.95l4.62-2.31-4.62-2.2v-1.21l11.13,5.34v1.2l-5.26-2.52-5.87,2.96v-1.26Z"/>
    </g>
  </g>
  <g>
    <path class="q" d="M391.81,230.8l4.38,9.84h-1.43l-1.31-2.88h-4.16l-1.23,2.88h-1.43l4.2-9.84h.99ZM389.82,236.49h3.08l-1.59-3.79-1.49,3.79Z"/>
    <path class="q" d="M402.16,233.74c0,2.09-2.12,4.45-3.03,5.55h3.73v1.35h-6.2v-.1c.33-.4,4.09-4.04,4.09-6.6,0-1.51-1.13-1.82-1.69-1.82-.8,0-1.61.5-2.19,1.32v-1.78c.77-.64,1.55-.93,2.37-.93,1.69,0,2.93,1.28,2.93,3.01Z"/>
    <path class="q" d="M409.92,233.47c0,.85-.34,1.56-1.22,2.18.89.5,1.36,1.28,1.36,2.31,0,1.63-1.32,2.81-3.11,2.81-1.92,0-3.14-1.39-3.14-2.81,0-.92.43-1.79,1.39-2.31-.95-.78-1.16-1.44-1.16-2.17,0-1.61,1.41-2.75,2.97-2.75s2.91,1.19,2.91,2.74ZM406.96,239.42c1.03,0,1.68-.67,1.68-1.55s-.66-1.52-1.74-1.52-1.68.7-1.68,1.54c0,.88.69,1.54,1.74,1.54ZM406.99,234.99c.77,0,1.53-.57,1.53-1.46,0-.83-.63-1.46-1.56-1.46-.86,0-1.55.59-1.55,1.45,0,.9.8,1.48,1.58,1.48Z"/>
  </g>
  <g>
    <path class="t" d="M391.81,197.68l4.38,9.84h-1.43l-1.31-2.88h-4.16l-1.23,2.88h-1.43l4.2-9.84h.99ZM389.82,203.37h3.08l-1.59-3.79-1.49,3.79Z"/>
    <path class="t" d="M401.98,197.73v1.25h-3.07v2.47h.27c1.99,0,3.28,1.29,3.28,3.05s-1.32,3.14-3.26,3.14c-.85,0-1.56-.21-2.31-.6v-1.45c.63.42,1.39.69,2.08.69,1.19,0,2.07-.79,2.07-1.78,0-1.45-1.61-1.82-2.25-1.82-.34,0-1.02.06-1.16.14v-5.09h4.35Z"/>
  </g>
  <g>
    <path class="r" d="M391.81,217.65l4.38,9.84h-1.43l-1.31-2.88h-4.16l-1.23,2.88h-1.43l4.2-9.84h.99ZM389.82,223.34h3.08l-1.59-3.79-1.49,3.79Z"/>
    <path class="r" d="M402.16,220.59c0,2.1-2.12,4.45-3.03,5.55h3.73v1.35h-6.2v-.1c.33-.4,4.09-4.04,4.09-6.6,0-1.51-1.13-1.82-1.69-1.82-.8,0-1.61.5-2.19,1.32v-1.78c.77-.65,1.55-.93,2.37-.93,1.69,0,2.93,1.28,2.93,3.01Z"/>
    <path class="r" d="M410.09,222.57c0,3.14-1.42,5.05-3.16,5.05-1.88,0-3.16-2.02-3.16-5.02,0-3.34,1.65-5.02,3.21-5.02,1.84,0,3.1,2.14,3.1,4.99ZM406.92,226.32c1.05,0,1.76-1.35,1.76-3.71s-.76-3.74-1.76-3.74-1.74,1.32-1.74,3.7.69,3.76,1.74,3.76Z"/>
  </g>
  <g>
    <path class="s" d="M395.98,254.24v1.48c-1.05-.59-2.19-.97-3.38-.97-2.4,0-3.87,1.82-3.87,3.74s1.42,3.69,3.86,3.69c1.28,0,2.44-.39,3.5-1.09v1.54c-1.15.62-2.32.86-3.56.86-3.6,0-5.26-2.71-5.26-5.01,0-2.87,2.38-5.03,5.29-5.03,1.09,0,2.25.27,3.43.8Z"/>
    <path class="s" d="M404.13,260.13c0,2.35-1.92,3.34-3.46,3.34-2.28,0-3.43-1.76-3.43-3.3,0-1.92,1.35-3.4,3.47-3.4,1.94,0,3.41,1.35,3.41,3.36ZM398.55,260.13c0,1.38.93,2.2,2.15,2.2s2.12-.93,2.12-2.21c0-1.52-1.08-2.2-2.19-2.2-1.18,0-2.08.85-2.08,2.21Z"/>
    <path class="s" d="M410.99,259.46v3.89h-1.28v-3.86c0-1.33-.63-1.65-1.32-1.65-.59,0-1.16.34-1.55.9v4.6h-1.28v-6.44h1.28v.82c.57-.66,1.38-.95,1.96-.95,1.38,0,2.18.97,2.18,2.68Z"/>
    <path class="s" d="M414.22,255.57h.03v1.33h2.04v1.15h-2.04v3c0,.65.1,1.26.9,1.26.53,0,1.06-.2,1.46-.46v1.19c-.46.27-1.16.43-1.65.43-1.26,0-1.99-.63-1.99-2.42v-3h-1.12v-.13l2.37-2.35Z"/>
    <path class="s" d="M422.38,257.51l-.67,1.12c-.37-.36-.88-.63-1.23-.63-.63,0-1.52.72-1.52,1.92v3.43h-1.28v-6.44h1.28v1.48c.73-1.21,1.32-1.61,1.92-1.61.53,0,1.08.3,1.51.73Z"/>
    <path class="s" d="M429.76,260.13c0,2.35-1.92,3.34-3.46,3.34-2.28,0-3.43-1.76-3.43-3.3,0-1.92,1.35-3.4,3.47-3.4,1.94,0,3.41,1.35,3.41,3.36ZM424.18,260.13c0,1.38.93,2.2,2.15,2.2s2.12-.93,2.12-2.21c0-1.52-1.08-2.2-2.19-2.2-1.18,0-2.08.85-2.08,2.21Z"/>
    <path class="s" d="M432.48,253.57v9.78h-1.28v-9.78h1.28Z"/>
  </g>
  <g>
    <path d="M67.11,51.79h-7.33c.27,1.21,1.3,1.95,2.77,1.95,1.03,0,1.76-.31,2.43-.94l1.5,1.62c-.9,1.03-2.25,1.57-4,1.57-3.35,0-5.53-2.11-5.53-4.99s2.21-4.99,5.17-4.99,5.04,1.91,5.04,5.02c0,.22-.04.52-.05.76ZM59.75,50.15h4.77c-.2-1.22-1.12-2.02-2.38-2.02s-2.2.77-2.39,2.02Z"/>
    <path d="M68.35,54.22c0-1.04.77-1.73,1.75-1.73s1.75.68,1.75,1.73-.77,1.76-1.75,1.76-1.75-.74-1.75-1.76Z"/>
    <path d="M79.11,50.46v-7.22h1.33v7.17c0,2.99,1.4,4.36,3.85,4.36s3.87-1.37,3.87-4.36v-7.17h1.3v7.22c0,3.62-1.95,5.49-5.17,5.49s-5.19-1.87-5.19-5.49Z"/>
    <path d="M101.92,50.35v5.49h-1.28v-5.37c0-2-1.04-3.03-2.84-3.03-2.04,0-3.31,1.26-3.31,3.42v4.97h-1.28v-9.47h1.22v1.75c.68-1.15,1.96-1.82,3.6-1.82,2.3,0,3.89,1.33,3.89,4.05Z"/>
    <path d="M106.85,45.25v1.12h2.92v1.08h-2.88v8.39h-1.28v-8.39h-1.69v-1.08h1.69v-1.17c0-1.69,1.01-2.81,2.86-2.81.7,0,1.42.2,1.89.59l-.43.96c-.36-.31-.86-.47-1.4-.47-1.1,0-1.67.61-1.67,1.78Z"/>
    <path d="M118.64,49.97v5.87h-1.22v-1.48c-.58.97-1.69,1.57-3.26,1.57-2.14,0-3.46-1.12-3.46-2.75,0-1.46.94-2.68,3.66-2.68h3.01v-.58c0-1.62-.92-2.5-2.68-2.5-1.22,0-2.38.43-3.15,1.12l-.58-.95c.96-.81,2.36-1.28,3.85-1.28,2.45,0,3.83,1.22,3.83,3.67ZM117.36,53v-1.55h-2.97c-1.84,0-2.43.72-2.43,1.69,0,1.1.88,1.78,2.39,1.78s2.5-.68,3.01-1.93Z"/>
    <path d="M137.74,50.35v5.49h-1.28v-5.37c0-2-1.01-3.03-2.72-3.03-1.94,0-3.17,1.26-3.17,3.42v4.97h-1.28v-5.37c0-2-1.01-3.03-2.74-3.03-1.93,0-3.17,1.26-3.17,3.42v4.97h-1.28v-9.47h1.22v1.73c.67-1.13,1.89-1.8,3.48-1.8s2.79.67,3.37,2c.68-1.22,2.03-2,3.75-2,2.3,0,3.82,1.33,3.82,4.05Z"/>
    <path d="M140.93,43.38c0-.49.41-.9.94-.9s.94.4.94.88c0,.52-.4.94-.94.94s-.94-.41-.94-.92ZM141.21,46.37h1.28v9.47h-1.28v-9.47Z"/>
    <path d="M146.06,42.48h1.28v13.36h-1.28v-13.36Z"/>
    <path d="M150.61,43.38c0-.49.41-.9.94-.9s.94.4.94.88c0,.52-.4.94-.94.94s-.94-.41-.94-.92ZM150.9,46.37h1.28v9.47h-1.28v-9.47Z"/>
    <path d="M162.89,49.97v5.87h-1.22v-1.48c-.58.97-1.69,1.57-3.26,1.57-2.14,0-3.46-1.12-3.46-2.75,0-1.46.94-2.68,3.66-2.68h3.01v-.58c0-1.62-.92-2.5-2.68-2.5-1.22,0-2.38.43-3.15,1.12l-.58-.95c.95-.81,2.36-1.28,3.85-1.28,2.45,0,3.83,1.22,3.83,3.67ZM161.61,53v-1.55h-2.97c-1.84,0-2.43.72-2.43,1.69,0,1.1.88,1.78,2.4,1.78s2.5-.68,3.01-1.93Z"/>
    <path d="M171.13,46.3v1.24c-.11,0-.22-.02-.31-.02-1.98,0-3.19,1.26-3.19,3.49v4.82h-1.28v-9.47h1.22v1.86c.59-1.26,1.8-1.93,3.55-1.93Z"/>
    <path d="M173.29,43.38c0-.49.41-.9.94-.9s.94.4.94.88c0,.52-.4.94-.94.94s-.94-.41-.94-.92ZM173.58,46.37h1.28v9.47h-1.28v-9.47Z"/>
    <path d="M183.41,55.26c-.5.45-1.26.67-2,.67-1.78,0-2.77-1.01-2.77-2.75v-5.73h-1.69v-1.08h1.69v-2.07h1.28v2.07h2.88v1.08h-2.88v5.65c0,1.12.58,1.73,1.64,1.73.52,0,1.04-.16,1.4-.49l.45.92Z"/>
    <path d="M193.68,46.37l-4.74,10.61c-.79,1.85-1.8,2.45-3.15,2.45-.88,0-1.73-.29-2.3-.87l.59-.95c.47.47,1.04.72,1.73.72.85,0,1.42-.4,1.96-1.58l.41-.92-4.23-9.45h1.33l3.56,8.05,3.57-8.05h1.26Z"/>
    <path d="M199.24,51.11c0-2.83,2.05-4.81,4.88-4.81,1.6,0,2.95.63,3.71,1.87l-.95.65c-.65-.96-1.66-1.4-2.75-1.4-2.07,0-3.58,1.48-3.58,3.69s1.51,3.69,3.58,3.69c1.1,0,2.11-.43,2.75-1.39l.95.65c-.76,1.22-2.11,1.87-3.71,1.87-2.83,0-4.88-2-4.88-4.82Z"/>
    <path d="M217.48,49.97v5.87h-1.22v-1.48c-.58.97-1.69,1.57-3.26,1.57-2.14,0-3.46-1.12-3.46-2.75,0-1.46.94-2.68,3.66-2.68h3.01v-.58c0-1.62-.92-2.5-2.68-2.5-1.22,0-2.38.43-3.15,1.12l-.58-.95c.96-.81,2.36-1.28,3.85-1.28,2.45,0,3.83,1.22,3.83,3.67ZM216.2,53v-1.55h-2.97c-1.84,0-2.43.72-2.43,1.69,0,1.1.88,1.78,2.39,1.78s2.5-.68,3.01-1.93Z"/>
    <path d="M229.67,50.35v5.49h-1.28v-5.37c0-2-1.04-3.03-2.84-3.03-2.04,0-3.31,1.26-3.31,3.42v4.97h-1.28v-9.47h1.22v1.75c.68-1.15,1.96-1.82,3.6-1.82,2.3,0,3.89,1.33,3.89,4.05Z"/>
    <path d="M247.45,51.11c0,2.86-2.02,4.82-4.72,4.82-1.57,0-2.88-.68-3.66-1.96v1.87h-1.22v-13.36h1.28v5.69c.79-1.22,2.09-1.87,3.6-1.87,2.7,0,4.72,1.95,4.72,4.81ZM246.17,51.11c0-2.21-1.53-3.69-3.53-3.69s-3.53,1.48-3.53,3.69,1.51,3.69,3.53,3.69,3.53-1.48,3.53-3.69Z"/>
    <path d="M258.3,51.5h-7.92c.14,1.98,1.66,3.29,3.73,3.29,1.15,0,2.18-.41,2.9-1.24l.72.83c-.85,1.01-2.16,1.55-3.65,1.55-2.95,0-4.97-2.02-4.97-4.82s1.96-4.81,4.63-4.81,4.59,1.96,4.59,4.81c0,.11-.02.25-.02.4ZM250.38,50.55h6.72c-.16-1.85-1.51-3.15-3.37-3.15s-3.19,1.3-3.35,3.15Z"/>
    <path d="M274.18,46.37v9.47h-1.22v-1.73c-.67,1.15-1.89,1.82-3.4,1.82-2.41,0-4-1.35-4-4.07v-5.49h1.28v5.37c0,2.02,1.04,3.04,2.84,3.04,1.98,0,3.22-1.28,3.22-3.44v-4.97h1.28Z"/>
    <path d="M276.44,54.76l.58-1.01c.76.59,2.03,1.06,3.37,1.06,1.8,0,2.54-.61,2.54-1.55,0-2.47-6.14-.52-6.14-4.27,0-1.55,1.33-2.7,3.75-2.7,1.22,0,2.56.34,3.35.88l-.56,1.03c-.83-.58-1.82-.81-2.79-.81-1.71,0-2.47.67-2.47,1.57,0,2.56,6.14.63,6.14,4.27,0,1.64-1.44,2.7-3.91,2.7-1.57,0-3.08-.5-3.85-1.17Z"/>
    <path d="M294.81,51.5h-7.92c.14,1.98,1.66,3.29,3.73,3.29,1.15,0,2.18-.41,2.9-1.24l.72.83c-.85,1.01-2.16,1.55-3.66,1.55-2.95,0-4.97-2.02-4.97-4.82s1.96-4.81,4.63-4.81,4.59,1.96,4.59,4.81c0,.11-.02.25-.02.4ZM286.88,50.55h6.72c-.16-1.85-1.51-3.15-3.37-3.15s-3.19,1.3-3.35,3.15Z"/>
    <path d="M306.08,42.48v13.36h-1.22v-1.87c-.77,1.28-2.09,1.96-3.66,1.96-2.7,0-4.72-1.96-4.72-4.82s2.02-4.81,4.72-4.81c1.51,0,2.81.65,3.6,1.87v-5.69h1.28ZM304.81,51.11c0-2.21-1.51-3.69-3.51-3.69s-3.53,1.48-3.53,3.69,1.51,3.69,3.53,3.69,3.51-1.48,3.51-3.69Z"/>
    <path d="M319.34,55.26c-.5.45-1.26.67-2,.67-1.78,0-2.77-1.01-2.77-2.75v-5.73h-1.69v-1.08h1.69v-2.07h1.28v2.07h2.88v1.08h-2.88v5.65c0,1.12.58,1.73,1.64,1.73.52,0,1.04-.16,1.4-.49l.45.92Z"/>
    <path d="M320.71,51.11c0-2.81,2.05-4.81,4.83-4.81s4.81,2,4.81,4.81-2.03,4.82-4.81,4.82-4.83-2.02-4.83-4.82ZM329.04,51.11c0-2.21-1.49-3.69-3.51-3.69s-3.53,1.48-3.53,3.69,1.51,3.69,3.53,3.69,3.51-1.48,3.51-3.69Z"/>
    <path d="M336.35,54.76l.58-1.01c.76.59,2.03,1.06,3.37,1.06,1.8,0,2.54-.61,2.54-1.55,0-2.47-6.14-.52-6.14-4.27,0-1.55,1.33-2.7,3.75-2.7,1.22,0,2.56.34,3.35.88l-.56,1.03c-.83-.58-1.82-.81-2.79-.81-1.71,0-2.47.67-2.47,1.57,0,2.56,6.14.63,6.14,4.27,0,1.64-1.44,2.7-3.91,2.7-1.57,0-3.08-.5-3.85-1.17Z"/>
    <path d="M345.51,51.11c0-2.83,2.05-4.81,4.88-4.81,1.6,0,2.95.63,3.71,1.87l-.95.65c-.65-.96-1.66-1.4-2.75-1.4-2.07,0-3.58,1.48-3.58,3.69s1.51,3.69,3.58,3.69c1.1,0,2.11-.43,2.75-1.39l.95.65c-.76,1.22-2.11,1.87-3.71,1.87-2.83,0-4.88-2-4.88-4.82Z"/>
    <path d="M361.37,46.3v1.24c-.11,0-.22-.02-.31-.02-1.98,0-3.19,1.26-3.19,3.49v4.82h-1.28v-9.47h1.22v1.86c.59-1.26,1.8-1.93,3.55-1.93Z"/>
    <path d="M372.06,51.5h-7.92c.14,1.98,1.66,3.29,3.73,3.29,1.15,0,2.18-.41,2.9-1.24l.72.83c-.85,1.01-2.16,1.55-3.66,1.55-2.95,0-4.97-2.02-4.97-4.82s1.96-4.81,4.63-4.81,4.59,1.96,4.59,4.81c0,.11-.02.25-.02.4ZM364.14,50.55h6.72c-.16-1.85-1.51-3.15-3.37-3.15s-3.19,1.3-3.35,3.15Z"/>
    <path d="M382.93,51.5h-7.92c.14,1.98,1.66,3.29,3.73,3.29,1.15,0,2.18-.41,2.9-1.24l.72.83c-.85,1.01-2.16,1.55-3.66,1.55-2.95,0-4.97-2.02-4.97-4.82s1.96-4.81,4.63-4.81,4.59,1.96,4.59,4.81c0,.11-.02.25-.02.4ZM375.01,50.55h6.72c-.16-1.85-1.51-3.15-3.37-3.15s-3.19,1.3-3.35,3.15Z"/>
    <path d="M394.27,50.35v5.49h-1.28v-5.37c0-2-1.04-3.03-2.84-3.03-2.04,0-3.31,1.26-3.31,3.42v4.97h-1.28v-9.47h1.22v1.75c.68-1.15,1.96-1.82,3.6-1.82,2.3,0,3.89,1.33,3.89,4.05Z"/>
    <path d="M403.92,45.25v1.12h2.92v1.08h-2.88v8.39h-1.28v-8.39h-1.69v-1.08h1.69v-1.17c0-1.69,1.01-2.81,2.86-2.81.7,0,1.42.2,1.89.59l-.43.96c-.36-.31-.86-.47-1.4-.47-1.1,0-1.67.61-1.67,1.78Z"/>
    <path d="M407.61,51.11c0-2.81,2.05-4.81,4.83-4.81s4.81,2,4.81,4.81-2.03,4.82-4.81,4.82-4.83-2.02-4.83-4.82ZM415.94,51.11c0-2.21-1.49-3.69-3.51-3.69s-3.53,1.48-3.53,3.69,1.51,3.69,3.53,3.69,3.51-1.48,3.51-3.69Z"/>
    <path d="M424.62,46.3v1.24c-.11,0-.22-.02-.31-.02-1.98,0-3.19,1.26-3.19,3.49v4.82h-1.28v-9.47h1.22v1.86c.59-1.26,1.8-1.93,3.55-1.93Z"/>
    <path d="M440.5,50.35v5.49h-1.28v-5.37c0-2-1.04-3.03-2.84-3.03-2.03,0-3.31,1.26-3.31,3.42v4.97h-1.28v-9.47h1.22v1.75c.68-1.15,1.96-1.82,3.6-1.82,2.3,0,3.89,1.33,3.89,4.05Z"/>
    <path d="M452.21,51.5h-7.92c.14,1.98,1.66,3.29,3.73,3.29,1.15,0,2.18-.41,2.9-1.24l.72.83c-.85,1.01-2.16,1.55-3.66,1.55-2.95,0-4.97-2.02-4.97-4.82s1.96-4.81,4.63-4.81,4.59,1.96,4.59,4.81c0,.11-.02.25-.02.4ZM444.29,50.55h6.72c-.16-1.85-1.51-3.15-3.37-3.15s-3.19,1.3-3.35,3.15Z"/>
    <path d="M468.74,46.37l-3.58,9.47h-1.21l-2.99-7.76-2.99,7.76h-1.21l-3.56-9.47h1.22l2.97,8.05,3.04-8.05h1.1l3.03,8.05,3.01-8.05h1.17Z"/>
    <path d="M484.09,50.35v5.49h-1.28v-5.37c0-2-1.04-3.03-2.84-3.03-2.04,0-3.31,1.26-3.31,3.42v4.97h-1.28v-13.36h1.28v5.54c.7-1.1,1.94-1.73,3.55-1.73,2.3,0,3.89,1.33,3.89,4.05Z"/>
    <path d="M487.28,43.38c0-.49.41-.9.94-.9s.94.4.94.88c0,.52-.4.94-.94.94s-.94-.41-.94-.92ZM487.56,46.37h1.28v9.47h-1.28v-9.47Z"/>
    <path d="M497.39,55.26c-.5.45-1.26.67-2,.67-1.78,0-2.77-1.01-2.77-2.75v-5.73h-1.69v-1.08h1.69v-2.07h1.28v2.07h2.88v1.08h-2.88v5.65c0,1.12.58,1.73,1.64,1.73.52,0,1.04-.16,1.4-.49l.45.92Z"/>
    <path d="M498.4,54.76l.58-1.01c.76.59,2.03,1.06,3.37,1.06,1.8,0,2.54-.61,2.54-1.55,0-2.47-6.14-.52-6.14-4.27,0-1.55,1.33-2.7,3.75-2.7,1.22,0,2.56.34,3.35.88l-.56,1.03c-.83-.58-1.82-.81-2.79-.81-1.71,0-2.47.67-2.47,1.57,0,2.56,6.14.63,6.14,4.27,0,1.64-1.44,2.7-3.91,2.7-1.57,0-3.08-.5-3.85-1.17Z"/>
    <path d="M507.69,54.94c0-.56.43-.97.95-.97s.97.41.97.97-.45.99-.97.99-.95-.43-.95-.99Z"/>
    <path d="M141.76,70.65c0-2.95.67-5.59,1.86-7.49h1.09c-1.26,2.19-1.83,4.64-1.83,7.49s.56,5.3,1.83,7.49h-1.09c-1.18-1.94-1.86-4.55-1.86-7.49Z"/>
    <path d="M154.69,70.16v4.88h-1.14v-4.77c0-1.78-.93-2.69-2.53-2.69-1.81,0-2.95,1.12-2.95,3.04v4.42h-1.14v-8.42h1.09v1.55c.61-1.02,1.75-1.62,3.2-1.62,2.05,0,3.46,1.19,3.46,3.6Z"/>
    <path d="M156.93,70.83c0-2.5,1.83-4.27,4.29-4.27s4.27,1.78,4.27,4.27-1.81,4.29-4.27,4.29-4.29-1.79-4.29-4.29ZM164.34,70.83c0-1.97-1.33-3.28-3.12-3.28s-3.14,1.31-3.14,3.28,1.34,3.28,3.14,3.28,3.12-1.31,3.12-3.28Z"/>
    <path d="M172.24,74.53c-.45.4-1.12.59-1.78.59-1.58,0-2.46-.9-2.46-2.45v-5.09h-1.5v-.96h1.5v-1.84h1.14v1.84h2.56v.96h-2.56v5.03c0,.99.51,1.54,1.46,1.54.46,0,.93-.14,1.25-.43l.4.82Z"/>
    <path d="M184.85,69.82v5.22h-1.09v-1.31c-.51.86-1.5,1.39-2.9,1.39-1.91,0-3.07-.99-3.07-2.45,0-1.3.83-2.38,3.25-2.38h2.67v-.51c0-1.44-.82-2.23-2.38-2.23-1.09,0-2.11.38-2.8.99l-.51-.85c.85-.72,2.1-1.14,3.43-1.14,2.18,0,3.41,1.09,3.41,3.27ZM183.72,72.51v-1.38h-2.64c-1.63,0-2.16.64-2.16,1.5,0,.98.78,1.58,2.13,1.58s2.22-.61,2.67-1.71Z"/>
    <path d="M187.94,63.16h1.14v11.88h-1.14v-11.88Z"/>
    <path d="M192.24,63.16h1.14v11.88h-1.14v-11.88Z"/>
    <path d="M208.07,71.18h-7.04c.13,1.76,1.47,2.93,3.31,2.93,1.02,0,1.94-.37,2.58-1.1l.64.74c-.75.9-1.92,1.38-3.25,1.38-2.63,0-4.42-1.79-4.42-4.29s1.74-4.27,4.11-4.27,4.08,1.75,4.08,4.27c0,.1-.02.22-.02.35ZM201.03,70.33h5.97c-.14-1.65-1.34-2.8-2.99-2.8s-2.83,1.15-2.98,2.8Z"/>
    <path d="M215.76,75.04l-2.67-3.52-2.69,3.52h-1.28l3.33-4.32-3.17-4.1h1.28l2.53,3.3,2.53-3.3h1.25l-3.17,4.1,3.36,4.32h-1.3Z"/>
    <path d="M227.48,70.83c0,2.56-1.79,4.29-4.19,4.29-1.34,0-2.5-.58-3.2-1.67v4.69h-1.14v-11.53h1.09v1.66c.69-1.12,1.86-1.73,3.25-1.73,2.4,0,4.19,1.73,4.19,4.27ZM226.34,70.83c0-1.95-1.36-3.28-3.14-3.28s-3.14,1.33-3.14,3.28,1.34,3.28,3.14,3.28,3.14-1.31,3.14-3.28Z"/>
    <path d="M237.12,71.18h-7.04c.13,1.76,1.47,2.93,3.31,2.93,1.02,0,1.94-.37,2.58-1.1l.64.74c-.75.9-1.92,1.38-3.25,1.38-2.63,0-4.42-1.79-4.42-4.29s1.74-4.27,4.11-4.27,4.08,1.75,4.08,4.27c0,.1-.02.22-.02.35ZM230.08,70.33h5.97c-.14-1.65-1.34-2.8-2.99-2.8s-2.83,1.15-2.98,2.8Z"/>
    <path d="M243.7,66.56v1.11c-.1,0-.19-.02-.27-.02-1.76,0-2.83,1.12-2.83,3.11v4.29h-1.14v-8.42h1.09v1.65c.53-1.12,1.6-1.71,3.15-1.71Z"/>
    <path d="M245.62,63.96c0-.43.37-.8.83-.8s.83.35.83.78c0,.46-.35.83-.83.83s-.83-.37-.83-.82ZM245.87,66.62h1.14v8.42h-1.14v-8.42Z"/>
    <path d="M264.07,70.16v4.88h-1.14v-4.77c0-1.78-.9-2.69-2.42-2.69-1.73,0-2.82,1.12-2.82,3.04v4.42h-1.14v-4.77c0-1.78-.9-2.69-2.43-2.69-1.71,0-2.82,1.12-2.82,3.04v4.42h-1.14v-8.42h1.09v1.54c.59-1.01,1.68-1.6,3.09-1.6s2.48.59,2.99,1.78c.61-1.09,1.81-1.78,3.33-1.78,2.05,0,3.39,1.19,3.39,3.6Z"/>
    <path d="M274.48,71.18h-7.04c.13,1.76,1.47,2.93,3.31,2.93,1.02,0,1.94-.37,2.58-1.1l.64.74c-.75.9-1.92,1.38-3.25,1.38-2.63,0-4.42-1.79-4.42-4.29s1.74-4.27,4.11-4.27,4.08,1.75,4.08,4.27c0,.1-.02.22-.02.35ZM267.44,70.33h5.97c-.14-1.65-1.34-2.8-2.99-2.8s-2.83,1.15-2.98,2.8Z"/>
    <path d="M284.56,70.16v4.88h-1.14v-4.77c0-1.78-.93-2.69-2.53-2.69-1.81,0-2.95,1.12-2.95,3.04v4.42h-1.14v-8.42h1.09v1.55c.61-1.02,1.75-1.62,3.2-1.62,2.05,0,3.46,1.19,3.46,3.6Z"/>
    <path d="M292.08,74.53c-.45.4-1.12.59-1.78.59-1.58,0-2.46-.9-2.46-2.45v-5.09h-1.5v-.96h1.5v-1.84h1.14v1.84h2.56v.96h-2.56v5.03c0,.99.51,1.54,1.46,1.54.46,0,.93-.14,1.25-.43l.4.82Z"/>
    <path d="M300.5,69.82v5.22h-1.09v-1.31c-.51.86-1.5,1.39-2.9,1.39-1.91,0-3.07-.99-3.07-2.45,0-1.3.83-2.38,3.25-2.38h2.67v-.51c0-1.44-.82-2.23-2.38-2.23-1.09,0-2.11.38-2.8.99l-.51-.85c.85-.72,2.1-1.14,3.43-1.14,2.18,0,3.41,1.09,3.41,3.27ZM299.36,72.51v-1.38h-2.64c-1.63,0-2.16.64-2.16,1.5,0,.98.78,1.58,2.13,1.58s2.22-.61,2.67-1.71Z"/>
    <path d="M303.58,63.16h1.14v11.88h-1.14v-11.88Z"/>
    <path d="M316.32,66.56v1.11c-.1,0-.19-.02-.27-.02-1.76,0-2.83,1.12-2.83,3.11v4.29h-1.14v-8.42h1.09v1.65c.53-1.12,1.6-1.71,3.15-1.71Z"/>
    <path d="M325.83,71.18h-7.04c.13,1.76,1.47,2.93,3.31,2.93,1.02,0,1.94-.37,2.58-1.1l.64.74c-.75.9-1.92,1.38-3.25,1.38-2.62,0-4.42-1.79-4.42-4.29s1.75-4.27,4.11-4.27,4.08,1.75,4.08,4.27c0,.1-.02.22-.02.35ZM318.78,70.33h5.97c-.14-1.65-1.34-2.8-2.99-2.8s-2.83,1.15-2.98,2.8Z"/>
    <path d="M326.99,74.08l.51-.9c.67.53,1.81.94,2.99.94,1.6,0,2.26-.54,2.26-1.38,0-2.19-5.46-.46-5.46-3.79,0-1.38,1.18-2.4,3.33-2.4,1.09,0,2.27.3,2.98.79l-.5.91c-.74-.51-1.62-.72-2.48-.72-1.52,0-2.19.59-2.19,1.39,0,2.27,5.46.56,5.46,3.79,0,1.46-1.28,2.4-3.47,2.4-1.39,0-2.74-.45-3.42-1.04Z"/>
    <path d="M343.57,66.62v8.42h-1.09v-1.54c-.59,1.02-1.68,1.62-3.03,1.62-2.15,0-3.55-1.2-3.55-3.62v-4.88h1.14v4.77c0,1.79.93,2.71,2.53,2.71,1.76,0,2.87-1.14,2.87-3.06v-4.42h1.14Z"/>
    <path d="M346.75,63.16h1.14v11.88h-1.14v-11.88Z"/>
    <path d="M355.49,74.53c-.45.4-1.12.59-1.78.59-1.58,0-2.46-.9-2.46-2.45v-5.09h-1.5v-.96h1.5v-1.84h1.14v1.84h2.56v.96h-2.56v5.03c0,.99.51,1.54,1.46,1.54.46,0,.93-.14,1.25-.43l.4.82Z"/>
    <path d="M356.38,74.08l.51-.9c.67.53,1.81.94,2.99.94,1.6,0,2.26-.54,2.26-1.38,0-2.19-5.46-.46-5.46-3.79,0-1.38,1.18-2.4,3.33-2.4,1.09,0,2.27.3,2.98.79l-.5.91c-.74-.51-1.62-.72-2.48-.72-1.52,0-2.19.59-2.19,1.39,0,2.27,5.46.56,5.46,3.79,0,1.46-1.28,2.4-3.47,2.4-1.39,0-2.74-.45-3.42-1.04Z"/>
    <path d="M368.4,74.08l.51-.9c.67.53,1.81.94,2.99.94,1.6,0,2.26-.54,2.26-1.38,0-2.19-5.46-.46-5.46-3.79,0-1.38,1.18-2.4,3.33-2.4,1.09,0,2.27.3,2.98.79l-.5.91c-.74-.51-1.62-.72-2.48-.72-1.52,0-2.19.59-2.19,1.39,0,2.27,5.46.56,5.46,3.79,0,1.46-1.28,2.4-3.47,2.4-1.39,0-2.74-.45-3.43-1.04Z"/>
    <path d="M385.14,70.16v4.88h-1.14v-4.77c0-1.78-.93-2.69-2.53-2.69-1.81,0-2.95,1.12-2.95,3.04v4.42h-1.14v-11.88h1.14v4.93c.62-.98,1.73-1.54,3.15-1.54,2.05,0,3.46,1.19,3.46,3.6Z"/>
    <path d="M387.37,70.83c0-2.5,1.83-4.27,4.29-4.27s4.27,1.78,4.27,4.27-1.81,4.29-4.27,4.29-4.29-1.79-4.29-4.29ZM394.79,70.83c0-1.97-1.33-3.28-3.12-3.28s-3.14,1.31-3.14,3.28,1.34,3.28,3.14,3.28,3.12-1.31,3.12-3.28Z"/>
    <path d="M410.61,66.62l-3.18,8.42h-1.07l-2.66-6.9-2.66,6.9h-1.07l-3.17-8.42h1.09l2.64,7.15,2.71-7.15h.98l2.69,7.15,2.67-7.15h1.04Z"/>
    <path d="M420.07,70.16v4.88h-1.14v-4.77c0-1.78-.93-2.69-2.53-2.69-1.81,0-2.95,1.12-2.95,3.04v4.42h-1.14v-8.42h1.09v1.55c.61-1.02,1.75-1.62,3.2-1.62,2.05,0,3.46,1.19,3.46,3.6Z"/>
    <path d="M422.21,78.15c1.28-2.19,1.84-4.64,1.84-7.49s-.56-5.3-1.84-7.49h1.09c1.2,1.9,1.87,4.54,1.87,7.49s-.67,5.55-1.87,7.49h-1.09Z"/>
  </g>
</svg>