<?xml version="1.0" encoding="UTF-8"?><svg id="a" xmlns="http://www.w3.org/2000/svg" viewBox="0 0 132.73 132.74"><circle cx="66.37" cy="66.77" r="66.37" style="fill:#19222d;"/><circle cx="119.17" cy="80.28" r=".72" style="fill:#c4def2;"/><path d="M121.45,94.95c-.13-.04-.2-.19-.16-.32s.19-.2.32-.16.2.19.16.32-.19.2-.32.16" style="fill:#fff;"/><path d="M53.56,125.58c-.13-.04-.2-.19-.16-.32s.19-.2.32-.16.2.19.16.32-.19.2-.32.16" style="fill:#fff;"/><path d="M35.9,51.4c-.13-.04-.2-.19-.16-.32s.19-.2.32-.16.2.19.16.32-.19.2-.32.16" style="fill:#fff;"/><path d="M68.21,51.71c-.13-.04-.2-.19-.16-.32s.19-.2.32-.16.2.19.16.32-.19.2-.32.16" style="fill:#fff;"/><path d="M107.16,28.5c-.13-.04-.2-.19-.16-.32s.19-.2.32-.16.2.19.16.32-.19.2-.32.16" style="fill:#fff;"/><path d="M106.89,43.71c-.13-.04-.2-.19-.16-.32s.19-.2.32-.16.2.19.16.32-.19.2-.32.16" style="fill:#fff;"/><path d="M52.49,114.36c-.13-.04-.2-.19-.16-.32s.19-.2.32-.16.2.19.16.32-.19.2-.32.16" style="fill:#fff;"/><circle cx="43.52" cy="16.57" r=".25" style="fill:#b9cdea;"/><circle cx="25.48" cy="29.15" r=".25" style="fill:#b9cdea;"/><circle cx="77.27" cy="6.86" r=".25" style="fill:#b9cdea;"/><circle cx="102.83" cy="99.52" r=".5" style="fill:#fff2ca;"/><circle cx="14.22" cy="90.97" r=".72" style="fill:#c4def2;"/><circle cx="11.1" cy="52.96" r=".72" style="fill:#c4def2;"/><circle cx="66.36" cy="14.1" r=".72" style="fill:#c4def2;"/><circle cx="104.92" cy="63.96" r=".25" style="fill:#fff;"/><circle cx="120.24" cy="63.73" r=".5" style="fill:#fff2ca;"/><circle cx="82.89" cy="124.1" r=".25" style="fill:#b9cdea;"/><path d="M27.31,111.99c-.13-.04-.2-.19-.16-.32s.19-.2.32-.16.2.19.16.32-.19.2-.32.16" style="fill:#fff;"/><circle cx="48.37" cy="92.41" r=".25" style="fill:#fff;"/><path d="M31.24,76.17c-.13-.04-.2-.19-.16-.32s.19-.2.32-.16.2.19.16.32-.19.2-.32.16" style="fill:#fff;"/><path d="M72.11,111.23c-.13-.04-.2-.19-.16-.32s.19-.2.32-.16.2.19.16.32-.19.2-.32.16" style="fill:#fff;"/><circle cx="72.4" cy="79.37" r=".25" style="fill:#fff;"/><path d="M75.76,59.24c0-10.16,15.41-8.33,15.71-1.35" style="fill:none; stroke:#a09f9f; stroke-miterlimit:10; stroke-width:.43px;"/><path d="M83.63,71.67c3.51-17.49-6.22-18.93-.34-25.05,4.1-4.26,12.3-1.26,16.57,2.07,5.18,4.04-.53,18.01-.53,25.08" style="fill:none; stroke:#71ae9c; stroke-miterlimit:10; stroke-width:2.08px;"/><path d="M60.05,60.36c-4.08-47.36,15.72-31.8,6.92-11.09-2.87,6.74.94,9.64.94,24.5" style="fill:none; stroke:#0c687d; stroke-miterlimit:10; stroke-width:2.08px;"/><path d="M44.35,97.35c0,10.86,15.7,10.41,15.7,0" style="fill:none; stroke:#a09f9f; stroke-miterlimit:10; stroke-width:.52px;"/><path d="M67.91,111.79c0,10.66,15.73,10.65,15.73,0,0-.19-.01-3.5-.01-3.69" style="fill:none; stroke:#a09f9f; stroke-miterlimit:10; stroke-width:.52px;"/><path d="M52.21,108.1c0,10.75,23.56,16.17,23.56-4.59,0-.28,0-4.94,0-5.23" style="fill:none; stroke:#a09f9f; stroke-miterlimit:10; stroke-width:.52px;"/><path d="M99.34,111.79c0,5.83-8.17,5.83-8.16,0,0-3.72.31-14.86.31-14.86" style="fill:none; stroke:#a09f9f; stroke-miterlimit:10; stroke-width:.52px;"/><path d="M36.48,72.75c.58-19.09-8.12-61.39-19.07-34.9-8.95,21.63,34.79-14.96,34.79,33.25" style="fill:none; stroke:#ab3736; stroke-miterlimit:10; stroke-width:2.08px;"/><polygon points="38.52 72.75 34.43 72.75 34.43 104.72 32.39 104.72 36.48 111.79 40.56 104.72 38.52 104.72 38.52 72.75" style="fill:#ededed; stroke:#d2d2d1; stroke-miterlimit:10; stroke-width:.52px;"/><polygon points="69.95 72.75 65.86 72.75 65.86 104.72 63.82 104.72 67.91 111.79 71.99 104.72 69.95 104.72 69.95 72.75" style="fill:#ededed; stroke:#d2d2d1; stroke-miterlimit:10; stroke-width:.52px;"/><polygon points="101.38 104.72 101.38 72.75 97.29 72.75 97.29 104.72 95.25 104.72 99.34 111.79 103.42 104.72 101.38 104.72" style="fill:#ededed; stroke:#d2d2d1; stroke-miterlimit:10; stroke-width:.52px;"/><polygon points="83.62 69.06 79.54 76.13 81.57 76.13 81.57 108.1 85.67 108.1 85.67 76.13 87.7 76.13 83.62 69.06" style="fill:#ededed; stroke:#d2d2d1; stroke-miterlimit:10; stroke-width:.52px;"/><polygon points="52.19 69.06 48.11 76.13 50.14 76.13 50.14 108.1 54.24 108.1 54.24 76.13 56.27 76.13 52.19 69.06" style="fill:#ededed; stroke:#d2d2d1; stroke-miterlimit:10; stroke-width:.52px;"/><polygon points="64.13 65.38 60.05 58.31 55.97 65.38 58 65.38 58 97.35 62.1 97.35 62.1 65.38 64.13 65.38" style="fill:#ededed; stroke:#d2d2d1; stroke-miterlimit:10; stroke-width:.52px;"/><polygon points="95.56 64.96 91.48 57.89 87.4 64.96 89.43 64.96 89.43 96.93 93.52 96.93 93.52 64.96 95.56 64.96" style="fill:#ededed; stroke:#d2d2d1; stroke-miterlimit:10; stroke-width:.52px;"/><polygon points="77.81 59.24 73.72 59.24 73.72 91.21 71.68 91.21 75.76 98.28 79.85 91.21 77.81 91.21 77.81 59.24" style="fill:#ededed; stroke:#d2d2d1; stroke-miterlimit:10; stroke-width:.52px;"/><polygon points="46.38 59.24 42.29 59.24 42.29 91.21 40.25 91.21 44.33 98.28 48.42 91.21 46.38 91.21 46.38 59.24" style="fill:#ededed; stroke:#d2d2d1; stroke-miterlimit:10; stroke-width:.52px;"/><path d="M41.54,15.35v7h-1.33l-3.49-4.25v4.25h-1.6v-7h1.34l3.48,4.25v-4.25h1.6Z" style="fill:#fff;"/><path d="M47.85,19.28v3.07h-1.46v-.67c-.29.49-.85.75-1.64.75-1.26,0-2.01-.7-2.01-1.63s.67-1.61,2.31-1.61h1.24c0-.67-.4-1.06-1.24-1.06-.57,0-1.16.19-1.55.5l-.56-1.09c.59-.42,1.46-.65,2.32-.65,1.64,0,2.59.76,2.59,2.39ZM46.29,20.64v-.55h-1.07c-.73,0-.96.27-.96.63,0,.39.33.65.88.65.52,0,.97-.24,1.15-.73Z" style="fill:#fff;"/><path d="M54.76,19.27v3.08h-1.56v-2.84c0-.87-.4-1.27-1.09-1.27-.75,0-1.29.46-1.29,1.45v2.66h-1.56v-5.38h1.49v.63c.42-.46,1.05-.71,1.78-.71,1.27,0,2.23.74,2.23,2.38Z" style="fill:#fff;"/><path d="M55.77,19.66c0-1.62,1.25-2.77,2.96-2.77s2.95,1.15,2.95,2.77-1.24,2.77-2.95,2.77-2.96-1.15-2.96-2.77ZM60.1,19.66c0-.93-.59-1.49-1.37-1.49s-1.38.56-1.38,1.49.6,1.49,1.38,1.49,1.37-.56,1.37-1.49Z" style="fill:#fff;"/><path d="M68.58,19.66c0,1.69-1.17,2.77-2.68,2.77-.72,0-1.3-.23-1.69-.7v.62h-1.49v-7.42h1.56v2.61c.4-.44.95-.65,1.62-.65,1.51,0,2.68,1.08,2.68,2.77ZM67,19.66c0-.93-.59-1.49-1.37-1.49s-1.37.56-1.37,1.49.59,1.49,1.37,1.49,1.37-.56,1.37-1.49Z" style="fill:#fff;"/><path d="M69.22,19.66c0-1.62,1.25-2.77,2.96-2.77s2.95,1.15,2.95,2.77-1.24,2.77-2.95,2.77-2.96-1.15-2.96-2.77ZM73.55,19.66c0-.93-.59-1.49-1.37-1.49s-1.38.56-1.38,1.49.6,1.49,1.38,1.49,1.37-.56,1.37-1.49Z" style="fill:#fff;"/><path d="M81.65,14.93v7.42h-1.49v-.62c-.39.47-.96.7-1.68.7-1.52,0-2.69-1.08-2.69-2.77s1.17-2.77,2.69-2.77c.66,0,1.22.21,1.61.65v-2.61h1.56ZM80.12,19.66c0-.93-.6-1.49-1.37-1.49s-1.38.56-1.38,1.49.6,1.49,1.38,1.49,1.37-.56,1.37-1.49Z" style="fill:#fff;"/><path d="M82.9,15.35c0-.49.39-.87.97-.87s.97.36.97.84c0,.52-.39.9-.97.9s-.97-.38-.97-.87ZM83.09,16.97h1.56v5.38h-1.56v-5.38Z" style="fill:#fff;"/><path d="M91.34,20.09h-4.07c.15.67.72,1.08,1.54,1.08.57,0,.98-.17,1.35-.52l.83.9c-.5.57-1.25.87-2.22.87-1.86,0-3.07-1.17-3.07-2.77s1.23-2.77,2.87-2.77,2.8,1.06,2.8,2.79c0,.12-.02.29-.03.42ZM87.25,19.19h2.65c-.11-.68-.62-1.12-1.32-1.12s-1.22.43-1.33,1.12Z" style="fill:#fff;"/><path d="M91.89,21.84l.52-1.12c.48.31,1.21.52,1.87.52.72,0,.99-.19.99-.49,0-.88-3.25.02-3.25-2.13,0-1.02.92-1.74,2.49-1.74.74,0,1.56.17,2.07.47l-.52,1.11c-.53-.3-1.06-.4-1.55-.4-.7,0-1,.22-1,.5,0,.92,3.25.03,3.25,2.15,0,1-.93,1.71-2.54,1.71-.91,0-1.83-.25-2.33-.58Z" style="fill:#fff;"/></svg>