<?xml version="1.0" encoding="UTF-8"?>
<svg id="a" data-name="Layer 1" xmlns="http://www.w3.org/2000/svg" viewBox="0 0 132.73 132.74">
  <defs>
    <style>
      .b {
        fill: #b9cdea;
      }

      .c {
        stroke: #fff;
        stroke-linejoin: round;
      }

      .c, .d {
        stroke-linecap: round;
        stroke-width: 3px;
      }

      .c, .e {
        fill: #fff;
      }

      .d {
        fill: none;
        stroke: #efc47b;
        stroke-miterlimit: 10;
      }

      .f {
        fill: #fff2ca;
      }

      .g {
        fill: #efc47b;
      }

      .h {
        fill: #19222d;
      }

      .i {
        fill: #c4def2;
      }
    </style>
  </defs>
  <circle class="h" cx="66.37" cy="66.37" r="66.37"/>
  <circle class="i" cx="120.71" cy="62.12" r=".72"/>
  <path class="e" d="M127.6,75.27c-.14,0-.25-.11-.25-.25s.11-.25.25-.25.25.11.25.25-.11.25-.25.25"/>
  <path class="e" d="M73.22,126.17c-.14,0-.25-.11-.25-.25s.11-.25.25-.25.25.11.25.25-.11.25-.25.25"/>
  <path class="e" d="M32.57,61.65c-.14,0-.25-.11-.25-.25s.11-.25.25-.25.25.11.25.25-.11.25-.25.25"/>
  <path class="e" d="M63.25,51.52c-.14,0-.25-.11-.25-.25s.11-.25.25-.25.25.11.25.25-.11.25-.25.25"/>
  <path class="e" d="M92.63,16.99c-.14,0-.25-.11-.25-.25s.11-.25.25-.25.25.11.25.25-.11.25-.25.25"/>
  <path class="e" d="M97.28,31.47c-.14,0-.25-.11-.25-.25s.11-.25.25-.25.25.11.25.25-.11.25-.25.25"/>
  <path class="e" d="M68.59,115.89c-.14,0-.25-.11-.25-.25s.11-.25.25-.25.25.11.25.25-.11.25-.25.25"/>
  <circle class="b" cx="28.55" cy="26.23" r=".25"/>
  <circle class="b" cx="15.53" cy="43.95" r=".25"/>
  <circle class="b" cx="57.36" cy="6.15" r=".25"/>
  <circle class="f" cx="111.45" cy="85.6" r=".5"/>
  <circle class="i" cx="24.82" cy="106.1" r=".72"/>
  <circle class="i" cx="9.6" cy="71.13" r=".72"/>
  <circle class="i" cx="52.59" cy="25.98" r=".72"/>
  <circle class="e" cx="101.95" cy="51.27" r=".25"/>
  <circle class="f" cx="116.38" cy="46.11" r=".5"/>
  <circle class="b" cx="100.5" cy="115.3" r=".25"/>
  <path class="e" d="M43.99,121.77c-.14,0-.25-.11-.25-.25s.11-.25.25-.25.25.11.25.25-.11.25-.25.25"/>
  <circle class="e" cx="57.61" cy="96.44" r=".25"/>
  <path class="e" d="M36.15,86.6c-.14,0-.25-.11-.25-.25s.11-.25.25-.25.25.11.25.25-.11.25-.25.25"/>
  <path class="e" d="M86.15,106.6c-.14,0-.25-.11-.25-.25s.11-.25.25-.25.25.11.25.25-.11.25-.25.25"/>
  <circle class="e" cx="76.15" cy="76.35" r=".25"/>
  <g>
    <polygon class="c" points="89.41 53.08 90.51 52.45 90.51 53.08 90.22 80.14 89.94 79.98 89.38 79.66 89.41 53.08"/>
    <polygon class="c" points="89.38 79.66 89.94 79.98 90.22 80.14 66.36 94.24 66.36 92.93 89.38 79.66"/>
    <polygon class="c" points="66.36 92.93 66.36 94.24 42.22 80.28 43.35 79.62 66.36 92.93"/>
    <polygon class="c" points="43.35 79.62 42.22 80.28 42.24 52.39 43.37 53.05 43.35 79.62"/>
    <line class="c" x1="50.23" y1="75.78" x2="50.25" y2="56.89"/>
    <polygon class="c" points="43.37 53.05 42.24 52.39 65.86 38.81 66.4 38.5 66.4 39.78 43.37 53.05"/>
    <polygon class="c" points="90.51 52.45 89.96 52.76 89.41 53.08 66.4 39.78 66.4 39.14 66.4 38.5 90.51 52.45"/>
    <line class="c" x1="66.23" y1="84.86" x2="82.58" y2="75.42"/>
    <line class="c" x1="67.45" y1="47.68" x2="83.75" y2="57.21"/>
  </g>
  <g>
    <path class="d" d="M22.15,92.43C-4.09,35.87,48.97,8.73,80.8,18.35"/>
    <polygon class="g" points="71.28 23.46 78.11 17.52 78.57 8.48 92.68 24.61 71.28 23.46"/>
  </g>
  <g>
    <path class="d" d="M109.31,40.58c26.24,56.56-26.83,83.7-58.65,74.07"/>
    <polygon class="g" points="60.18 109.55 53.35 115.49 52.89 124.53 38.78 108.39 60.18 109.55"/>
  </g>
</svg>