<?xml version="1.0" encoding="UTF-8"?>
<svg id="a" data-name="Layer 1" xmlns="http://www.w3.org/2000/svg" viewBox="0 0 132.73 132.74">
  <defs>
    <style>
      .b {
        fill: #b9cdea;
      }

      .c {
        fill: #e8c47f;
      }

      .d {
        stroke: #fff;
        stroke-linecap: round;
        stroke-linejoin: round;
        stroke-width: 2px;
      }

      .d, .e {
        fill: #fff;
      }

      .f {
        fill: #fff2ca;
      }

      .g {
        fill: #19222d;
      }

      .h {
        fill: #c4def2;
      }

      .i {
        fill: #d9ac68;
      }
    </style>
  </defs>
  <circle class="g" cx="66.37" cy="66.29" r="66.37"/>
  <circle class="h" cx="79.88" cy="13.49" r=".72"/>
  <path class="e" d="M94.55,11.21c-.04.13-.19.2-.32.16s-.2-.19-.16-.32.19-.2.32-.16.2.19.16.32"/>
  <path class="e" d="M125.18,79.1c-.04.13-.19.2-.32.16s-.2-.19-.16-.32.19-.2.32-.16.2.19.16.32"/>
  <path class="e" d="M50.99,96.76c-.04.13-.19.2-.32.16s-.2-.19-.16-.32.19-.2.32-.16.2.19.16.32"/>
  <path class="e" d="M51.31,64.45c-.04.13-.19.2-.32.16s-.2-.19-.16-.32.19-.2.32-.16.2.19.16.32"/>
  <path class="e" d="M28.1,25.5c-.04.13-.19.2-.32.16s-.2-.19-.16-.32.19-.2.32-.16.2.19.16.32"/>
  <path class="e" d="M43.31,25.77c-.04.13-.19.2-.32.16s-.2-.19-.16-.32.19-.2.32-.16.2.19.16.32"/>
  <path class="e" d="M113.95,80.17c-.04.13-.19.2-.32.16s-.2-.19-.16-.32.19-.2.32-.16.2.19.16.32"/>
  <circle class="b" cx="16.17" cy="89.14" r=".25"/>
  <circle class="b" cx="28.74" cy="107.18" r=".25"/>
  <circle class="b" cx="6.46" cy="55.39" r=".25"/>
  <circle class="f" cx="99.12" cy="29.83" r=".5"/>
  <circle class="h" cx="90.57" cy="118.44" r=".72"/>
  <circle class="h" cx="52.56" cy="121.56" r=".72"/>
  <circle class="h" cx="13.69" cy="66.3" r=".72"/>
  <circle class="e" cx="63.55" cy="27.74" r=".25"/>
  <circle class="f" cx="63.33" cy="12.42" r=".5"/>
  <circle class="b" cx="123.69" cy="49.77" r=".25"/>
  <path class="e" d="M111.59,105.35c-.04.13-.19.2-.32.16s-.2-.19-.16-.32.19-.2.32-.16.2.19.16.32"/>
  <circle class="e" cx="92" cy="84.29" r=".25"/>
  <path class="e" d="M75.76,101.42c-.04.13-.19.2-.32.16s-.2-.19-.16-.32.19-.2.32-.16.2.19.16.32"/>
  <path class="e" d="M110.83,60.55c-.04.13-.19.2-.32.16s-.2-.19-.16-.32.19-.2.32-.16.2.19.16.32"/>
  <circle class="e" cx="78.97" cy="60.26" r=".25"/>
  <g>
    <path class="c" d="M132.56,71.32l-27.52-4.28-13.56-6.38-42.89-4.3,1.01,6.22,4.63,4.45,4.46,3.35,10.32,15.09,8.61,15.95-3.57,16.49.94,14.22s23.2-1.4,42.09-22.78c14.38-16.28,15.49-38.02,15.49-38.02"/>
    <path class="i" d="M129.01,88.18l-5.69-3.73-10.49-.64-8.98-4.77,8.86,8.44,9.72,14.66s-3.29,5.59-9.04,11.09c-7.25,6.93-11.93,9.4-11.93,9.4l-10.22-18.86-6.01-17.74-11.14-13.46,12.3,7.64,8.51,9.72,15.05,6.48-25.2-29.23-13.65-7.9,20.43,2.24,13.31,6.29,27.71,4.1s0,2.17-1.33,8.48c-.82,3.88-2.21,7.78-2.21,7.78Z"/>
    <path class="i" d="M88.86,129.03l-4.86-8.98-3.91-15.11,15.62,21.04s-1.31.73-3.48,1.68c-.86.38-3.37,1.37-3.37,1.37Z"/>
  </g>
  <g>
    <polygon class="d" points="22.03 89.92 21.47 89.61 21.75 89.45 33.49 82.72 33.49 82.88 33.49 83.2 22.03 89.92"/>
    <polygon class="d" points="33.49 83.2 33.49 82.88 33.49 82.72 45.6 89.44 45.04 89.77 33.49 83.2"/>
    <polygon class="d" points="45.04 89.77 45.6 89.44 45.7 103.38 45.13 103.06 45.04 89.77"/>
    <polygon class="d" points="45.13 103.06 45.7 103.38 33.67 110.43 33.67 109.78 45.13 103.06"/>
    <polygon class="d" points="33.67 109.78 33.67 110.43 21.84 103.69 21.57 103.53 22.12 103.21 33.67 109.78"/>
    <polygon class="d" points="21.47 89.61 21.75 89.77 22.03 89.92 22.12 103.21 21.84 103.37 21.57 103.53 21.47 89.61"/>
    <line class="d" x1="40.6" y1="92.34" x2="33.63" y2="88.38"/>
    <line class="d" x1="40.77" y1="100.79" x2="33.87" y2="104.87"/>
    <line class="d" x1="26.31" y1="100.69" x2="26.27" y2="92.67"/>
  </g>
  <path class="e" d="M25.89,64.38c.23,5.14,1.05,10.61-.03,15.67-1.06-5.08-.25-10.52-.02-15.67,0-.03.05-.03.05,0h0Z"/>
  <path class="e" d="M33.89,60.51c.23,5.14,1.05,10.61-.03,15.67-1.06-5.08-.25-10.52-.02-15.67,0-.03.05-.03.05,0h0Z"/>
  <path class="e" d="M41.89,64.38c.23,5.14,1.05,10.61-.03,15.67-1.06-5.08-.25-10.52-.02-15.67,0-.03.05-.03.05,0h0Z"/>
  <g>
    <path class="e" d="M37.82,43.61h-3.25l-.62,1.5h-1.66l3.12-7h1.6l3.13,7h-1.7l-.62-1.5ZM37.31,42.38l-1.11-2.68-1.11,2.68h2.22Z"/>
    <path class="e" d="M40.36,42.42c0-1.62,1.25-2.77,3-2.77,1.13,0,2.02.49,2.41,1.37l-1.21.65c-.29-.51-.72-.74-1.21-.74-.79,0-1.41.55-1.41,1.49s.62,1.49,1.41,1.49c.49,0,.92-.22,1.21-.74l1.21.66c-.39.86-1.28,1.36-2.41,1.36-1.75,0-3-1.15-3-2.77Z"/>
    <path class="e" d="M50.14,44.85c-.32.23-.79.34-1.27.34-1.27,0-2.01-.65-2.01-1.93v-2.21h-.83v-1.2h.83v-1.31h1.56v1.31h1.34v1.2h-1.34v2.19c0,.46.25.71.67.71.23,0,.46-.07.63-.2l.42,1.1Z"/>
    <path class="e" d="M50.83,38.12c0-.49.39-.87.97-.87s.97.36.97.84c0,.52-.39.9-.97.9s-.97-.38-.97-.87ZM51.02,39.74h1.56v5.38h-1.56v-5.38Z"/>
    <path class="e" d="M59.37,39.74l-2.27,5.38h-1.61l-2.26-5.38h1.61l1.49,3.66,1.54-3.66h1.5Z"/>
    <path class="e" d="M59.82,38.12c0-.49.39-.87.97-.87s.97.36.97.84c0,.52-.39.9-.97.9s-.97-.38-.97-.87ZM60.01,39.74h1.56v5.38h-1.56v-5.38Z"/>
    <path class="e" d="M66.49,44.85c-.32.23-.79.34-1.27.34-1.27,0-2.01-.65-2.01-1.93v-2.21h-.83v-1.2h.83v-1.31h1.56v1.31h1.34v1.2h-1.34v2.19c0,.46.25.71.67.71.23,0,.46-.07.63-.2l.42,1.1Z"/>
    <path class="e" d="M72.71,39.74l-2.43,5.71c-.52,1.3-1.26,1.69-2.23,1.69-.55,0-1.15-.18-1.5-.49l.57-1.11c.24.21.57.34.88.34.43,0,.67-.19.88-.67l.02-.05-2.33-5.42h1.61l1.51,3.65,1.52-3.65h1.5Z"/>
    <path class="e" d="M75.78,42.42c0-1.62,1.25-2.77,3-2.77,1.13,0,2.02.49,2.41,1.37l-1.21.65c-.29-.51-.72-.74-1.21-.74-.79,0-1.41.55-1.41,1.49s.62,1.49,1.41,1.49c.49,0,.92-.22,1.21-.74l1.21.66c-.39.86-1.28,1.36-2.41,1.36-1.75,0-3-1.15-3-2.77Z"/>
    <path class="e" d="M82.09,37.7h1.56v7.42h-1.56v-7.42Z"/>
    <path class="e" d="M84.91,38.12c0-.49.39-.87.97-.87s.97.36.97.84c0,.52-.39.9-.97.9s-.97-.38-.97-.87ZM85.1,39.74h1.56v5.38h-1.56v-5.38Z"/>
    <path class="e" d="M89.82,39.86h1.38v1.2h-1.34v4.06h-1.56v-4.06h-.83v-1.2h.83v-.24c0-1.21.74-2,2.08-2,.44,0,.9.09,1.19.29l-.41,1.13c-.17-.12-.39-.19-.63-.19-.46,0-.71.25-.71.78v.23Z"/>
    <path class="e" d="M93.69,39.86h1.38v1.2h-1.34v4.06h-1.56v-4.06h-.83v-1.2h.83v-.24c0-1.21.74-2,2.08-2,.44,0,.9.09,1.19.29l-.41,1.13c-.17-.12-.39-.19-.63-.19-.46,0-.71.25-.71.78v.23Z"/>
    <path class="e" d="M95.33,44.61l.52-1.12c.48.31,1.21.52,1.87.52.72,0,.99-.19.99-.49,0-.88-3.25.02-3.25-2.13,0-1.02.92-1.74,2.49-1.74.74,0,1.56.17,2.07.47l-.52,1.11c-.53-.3-1.06-.4-1.55-.4-.7,0-1,.22-1,.5,0,.92,3.25.03,3.25,2.15,0,1-.93,1.71-2.54,1.71-.91,0-1.83-.25-2.33-.58Z"/>
  </g>
</svg>