<?xml version="1.0" encoding="UTF-8"?>
<svg id="a" data-name="Layer 1" xmlns="http://www.w3.org/2000/svg" viewBox="0 0 132.73 132.74">
  <defs>
    <style>
      .c {
        fill: #b9cdea;
      }

      .d {
        fill: none;
        stroke: #efc47b;
        stroke-linecap: round;
        stroke-miterlimit: 10;
        stroke-width: 3px;
      }

      .e {
        fill: #fff2ca;
      }

      .f {
        fill: #fff;
      }

      .g {
        fill: #f9f9f9;
      }

      .h {
        fill: #efc47b;
      }

      .i {
        fill: #19222d;
      }

      .j {
        fill: #fdfdfd;
      }

      .k {
        fill: #c4def2;
      }
    </style>
  </defs>
  <circle class="i" cx="66.38" cy="66.29" r="66.37"/>
  <circle class="k" cx="120.72" cy="62.05" r=".72"/>
  <path class="f" d="M127.61,75.19c-.14,0-.25-.11-.25-.25s.11-.25.25-.25.25.11.25.25-.11.25-.25.25"/>
  <path class="f" d="M73.23,126.09c-.14,0-.25-.11-.25-.25s.11-.25.25-.25.25.11.25.25-.11.25-.25.25"/>
  <path class="f" d="M32.59,61.57c-.14,0-.25-.11-.25-.25s.11-.25.25-.25.25.11.25.25-.11.25-.25.25"/>
  <path class="f" d="M63.27,51.44c-.14,0-.25-.11-.25-.25s.11-.25.25-.25.25.11.25.25-.11.25-.25.25"/>
  <path class="f" d="M92.64,16.91c-.14,0-.25-.11-.25-.25s.11-.25.25-.25.25.11.25.25-.11.25-.25.25"/>
  <path class="f" d="M97.3,31.39c-.14,0-.25-.11-.25-.25s.11-.25.25-.25.25.11.25.25-.11.25-.25.25"/>
  <path class="f" d="M68.61,115.81c-.14,0-.25-.11-.25-.25s.11-.25.25-.25.25.11.25.25-.11.25-.25.25"/>
  <circle class="c" cx="28.56" cy="26.16" r=".25"/>
  <circle class="c" cx="15.54" cy="43.87" r=".25"/>
  <circle class="c" cx="57.38" cy="6.07" r=".25"/>
  <circle class="e" cx="111.47" cy="85.53" r=".5"/>
  <circle class="k" cx="24.84" cy="106.03" r=".72"/>
  <circle class="k" cx="9.62" cy="71.06" r=".72"/>
  <circle class="k" cx="52.6" cy="25.91" r=".72"/>
  <circle class="f" cx="101.96" cy="51.19" r=".25"/>
  <circle class="e" cx="116.39" cy="46.03" r=".5"/>
  <circle class="c" cx="100.52" cy="115.22" r=".25"/>
  <path class="f" d="M44.01,121.7c-.14,0-.25-.11-.25-.25s.11-.25.25-.25.25.11.25.25-.11.25-.25.25"/>
  <circle class="f" cx="57.63" cy="96.37" r=".25"/>
  <path class="f" d="M36.16,86.52c-.14,0-.25-.11-.25-.25s.11-.25.25-.25.25.11.25.25-.11.25-.25.25"/>
  <path class="f" d="M86.16,106.52c-.14,0-.25-.11-.25-.25s.11-.25.25-.25.25.11.25.25-.11.25-.25.25"/>
  <circle class="f" cx="76.16" cy="76.27" r=".25"/>
  <g>
    <path class="d" d="M22.16,92.35C-4.07,35.79,48.99,8.65,80.82,18.28"/>
    <polygon class="h" points="71.29 23.38 78.12 17.44 78.59 8.4 92.7 24.54 71.29 23.38"/>
  </g>
  <g>
    <path class="d" d="M109.33,40.5c26.24,56.56-26.83,83.7-58.65,74.07"/>
    <polygon class="h" points="60.2 109.47 53.37 115.41 52.91 124.45 38.79 108.32 60.2 109.47"/>
  </g>
  <g id="b" data-name="bPPJYd">
    <g>
      <path class="g" d="M79.7,91.99c.1.07.89.11,1.21.22,4.1,1.41,1.54,7.25-2.19,5.36-1.75-.89-1.92-3.26-.73-4.69l-4.14-8.4c-.23-.94,1.13-1.67,1.73-.81l4.12,8.32Z"/>
      <path class="g" d="M85.22,41.24c3.14-.37,4.54,4.14,1.62,5.55-.93.45-1.56.15-2.42.28l-5.49,6.73c-.96.9-2.13-.05-1.53-1.22l5.57-6.8c-.84-1.92.01-4.27,2.25-4.53Z"/>
      <path class="g" d="M83.25,74.7c.4-.07.95.24,1.35.4,2.51,1,4.89,2.42,7.39,3.47,1.35-1.01,3.29-1.19,4.42.25,1.94,2.49-.93,6.03-3.72,4.33-1.11-.68-1.29-1.64-1.55-2.82l-8.38-3.98c-.48-.54-.27-1.51.5-1.64Z"/>
      <path class="g" d="M93.82,62.63c-.39-.22-7.68,1.84-8.81,1.8-1.31.14-1.6-1.49-.34-1.86l8.57-1.83c.37-3.08,4.62-3.72,5.64-.68.9,2.67-2.1,4.98-4.49,3.29-.35-.24-.54-.69-.58-.71Z"/>
      <path class="g" d="M41.55,80.28c-.1.16.02.67-.04.94-.49,2.52-3.95,3.24-5.3.95-1.78-3.03,2.06-5.92,4.6-3.6l8.09-3.98c1.16-.4,1.92.96.96,1.72l-8.32,3.96Z"/>
      <path class="g" d="M57.09,83.46c.6-.57,1.89,0,1.62.93l-4.04,8.49c1.19,1.38,1,3.85-.78,4.65-2.8,1.25-5.49-1.88-3.62-4.37.76-1.02,1.65-1.04,2.79-1.28l4.03-8.41Z"/>
      <path class="g" d="M36.21,57.98c1.11-.12,2.19.42,2.78,1.36.22.35.38,1.04.49,1.17.34.4,7.57,1.41,8.63,1.93.93.42.53,1.86-.46,1.83l-8.6-1.77c-1.05,1.38-3.03,1.84-4.39.58-1.82-1.67-.87-4.83,1.56-5.1Z"/>
      <path class="g" d="M46.61,41.24c1.59-.26,3.27.95,3.36,2.6.04.76-.26,1.2-.24,1.88l5.64,6.74c.57,1.04-.57,1.89-1.5,1.2l-5.64-6.74c-1.44.08-2.58.1-3.46-1.2-1.18-1.73-.2-4.15,1.84-4.48Z"/>
      <path class="g" d="M67.48,40.17c-.05.07-.17,1.45-.18,1.71-.12,2.09.31,5.01,0,6.93-.22,1.32-1.8,1.07-1.95-.29-.26-2.2.09-4.75.06-6.97,0-.33.16-.67.1-1.03-.06-.33-.86-.67-1.21-1.05-1.34-1.44-.87-3.92.97-4.61,3.16-1.18,5.57,2.73,2.79,5.05-.16.13-.54.2-.57.25Z"/>
      <path class="g" d="M44.95,51.95c1.54-.26,3.22.73,3.47,2.34.05.34-.07,1.05-.04,1.1.43.75,3.49,1.31,3.24,2.77-.34,1.98-3.33-.8-4.03-.95-.32-.07-.8.32-1.18.42-4.21,1.14-5.23-5.05-1.46-5.68Z"/>
      <path class="g" d="M48.56,70.26c-.43.53-3.01.54-3.78.67-.25.08-.39.8-.57,1.09-1.25,1.94-4.32,1.57-5.11-.57-1.03-2.77,1.84-5.09,4.28-3.53.35.22,1.01,1.14,1.09,1.16.31.07,2.42-.41,3.01-.43,1-.04,1.74.8,1.08,1.62Z"/>
      <path class="g" d="M84.32,55.65c.11-.17-.01-1.04.04-1.4.32-2.29,3.42-2.97,4.96-1.37,1.81,1.88.31,5.11-2.3,5.01-.62-.02-1.46-.59-1.81-.54-.96.14-2.48,2.05-3.58,1.55-.58-.26-.59-1.12-.22-1.57.44-.55,2.78-1.49,2.91-1.69Z"/>
      <path class="g" d="M58.23,47.72c-.11-.08-.87-.15-1.17-.26-2.15-.82-2.48-3.9-.44-5.11,2.41-1.43,5.31.9,4.28,3.53-.15.39-.82,1.04-.82,1.28-.01.55,1.07,2.33,1.17,3.06.16,1.15-1.05,1.68-1.7.94-.42-.48-1.1-3.27-1.32-3.43Z"/>
      <path class="g" d="M74.57,47.72c-.77.7-.72,4.2-2.6,3.68-1.56-.43.78-3.5.77-4.37,0-.05-.51-.4-.67-.71-1.64-3.15,2.09-5.78,4.51-3.6,1.57,1.42,1.05,4.03-.9,4.83-.37.15-1.07.14-1.11.17Z"/>
      <path class="g" d="M52.78,79.54c.24-.02.65.15.81.33,1.1,1.24-1.83,2.73-2.2,3.55-.09.21.84,1.63-.22,3.09-1.9,2.61-5.92.81-5.21-2.5.21-.98,1.18-1.9,2.16-2.07.58-.1,1.77.14,1.99.04.78-.35,1.68-2.36,2.67-2.45Z"/>
      <path class="g" d="M88.09,71.08c-.43-.26-2.73-.12-3.49-.51-.52-.27-.72-.89-.39-1.38.64-.99,3.03.17,3.95-.12.28-.09.63-.82,1.02-1.09,1.32-.93,3.3-.58,4.19.77,2.02,3.09-2.4,6.53-4.87,3.21-.15-.2-.37-.85-.41-.87Z"/>
      <path class="g" d="M79.63,79.83c1.28-.26,2.21,1.96,3.06,2.31.27.11.9-.22,1.38-.2,2.67.15,3.85,3.53,1.7,5.24-1.85,1.48-4.7.18-4.73-2.2,0-.41.33-1.12.21-1.41-.24-.58-2.11-1.72-2.31-2.53-.13-.53.13-1.1.68-1.22Z"/>
      <path class="g" d="M70.5,89.28c.05.05,1.01.33,1.32.57,1.55,1.19,1.38,3.68-.24,4.72-2.61,1.67-5.79-1.3-4.1-3.95.23-.36.93-.83,1.01-1.11.25-.88-1.02-3.18.18-3.73,1.9-.87,1.39,3,1.84,3.51Z"/>
      <path class="g" d="M63.34,85.41c2.07-.32.57,3.07.81,3.79.05.15.77.6,1.01.96,1.82,2.67-1.11,5.76-3.85,4.15-1.95-1.14-1.75-3.63-.04-4.93.24-.18.68-.19.82-.38.53-.72-.06-3.39,1.24-3.59Z"/>
      <path class="j" d="M62.74,54.2c2.57.46,5.17.87,7.74,1.4,1.42.29,2.28.11,3.17,1.36,1.31,1.83,3.86,6.02,4.79,8.02.44.94.28,1,.03,1.94-.81,3.02-2.15,6.12-3.1,9.11-.15.2-.34.36-.53.52-.68.55-6.19,3.6-6.86,3.7-.79.12-5.76-.69-6.73-.94-.27-.07-.53-.14-.77-.28-2.17-2.36-5.4-4.65-7.34-7.14-.16-.2-.37-.36-.42-.64.05-3.61.83-7.23,1.34-10.81,2.58-2.42,5.63-4.47,8.69-6.24ZM64.25,61c-6.42.87-6.43,11.33.72,11.87,8.51.65,8.46-13.12-.72-11.87Z"/>
    </g>
  </g>
</svg>