<?xml version="1.0" encoding="UTF-8"?>
<svg id="a" data-name="Layer 1" xmlns="http://www.w3.org/2000/svg" viewBox="0 0 132.73 132.74">
  <defs>
    <style>
      .b {
        fill: #b9cdea;
      }

      .c {
        fill: #fff2ca;
      }

      .d {
        fill: #fff;
      }

      .e {
        fill: #587888;
      }

      .f {
        fill: #efc47b;
      }

      .g {
        fill: #19222d;
      }

      .h {
        fill: #c4def2;
      }

      .i {
        fill: none;
        stroke: #fff;
        stroke-miterlimit: 10;
        stroke-width: 2px;
      }
    </style>
  </defs>
  <circle class="g" cx="66.37" cy="66.37" r="66.37"/>
  <g>
    <g>
      <polyline class="e" points="3.06 85.46 3.54 85.32 4 85.04 4.48 84.82 4.96 84.54 5.42 84.26 5.9 83.9 6.38 83.55 6.85 83.2 7.31 82.84 7.79 82.49 8.27 82.13 8.73 81.78 9.21 81.43 9.69 81.07 10.16 80.72 10.63 80.37 11.1 80.01 11.58 79.59 12.04 79.16 12.52 78.74 13 78.24 13.46 77.75 13.94 77.18 14.41 76.62 14.89 75.98 15.35 75.34 15.83 74.78 16.31 74.14 16.77 73.57 17.25 73.01 17.72 72.51 18.2 72.02 18.66 71.59 19.14 71.17 19.62 70.74 20.08 70.39 20.56 69.96 21.03 69.54 21.51 69.11 21.97 68.62 22.45 68.05 22.93 67.49 23.39 66.92 23.87 66.28 24.35 65.58 24.82 64.94 25.28 64.23 25.76 63.53 26.24 62.82 26.7 62.04 27.18 61.26 27.66 60.41 28.13 59.49 28.6 58.57 29.07 57.51 29.55 56.38 30.01 55.11 30.49 53.83 30.97 52.42 31.43 51 31.91 49.44 32.38 47.89 32.86 46.33 33.32 44.7 33.8 43.15 34.28 41.52 34.74 39.89 35.22 38.26 35.69 36.64 36.17 35.08 36.63 33.45 37.11 31.9 37.59 30.34 38.05 28.85 38.53 27.44 39 26.02 39.48 24.75 39.94 23.62 40.42 22.56 40.9 21.64 41.36 20.93 41.84 20.29 42.32 19.87 42.79 19.66 43.25 19.66 43.73 19.73 44.21 20.08 44.67 20.58 45.15 21.21 45.63 22.06 46.09 23.05 46.57 24.33 47.04 25.74 47.52 27.37 47.98 29.14 48.46 31.05 48.94 33.1 49.4 35.22 49.88 37.49 50.35 39.75 50.83 42.02 51.29 44.21 51.77 46.33 52.25 48.31 52.71 50.22 53.19 51.92 53.66 53.48 54.14 54.89 54.6 56.1 55.08 57.09 55.56 58.01 56.02 58.71 56.5 59.35 56.98 59.85 57.45 60.27 57.91 60.62 58.39 60.91 58.87 61.19 59.33 61.33 59.81 61.4 60.29 61.47 60.75 61.47 61.22 61.47 61.7 61.47 62.18 61.47 62.64 61.47 63.12 61.54 63.6 61.69 64.06 61.97 64.54 62.25 65.01 62.75 65.49 63.31 65.95 63.95 66.43 64.73 66.91 65.65 67.37 66.57 67.85 67.63 68.32 68.69 68.8 69.75 69.26 70.88 69.74 71.95 70.22 73.01 70.68 74 71.16 74.92 71.63 75.84 72.11 76.62 72.57 77.32 73.05 78.03 73.53 78.6 73.99 79.09 74.47 79.59 74.95 80.01 75.41 80.37 75.88 80.72 76.36 81.07 76.84 81.36 77.3 81.64 77.78 81.92 78.26 82.2 78.72 82.49 79.19 82.7 79.67 82.98 80.15 83.2 80.61 83.41 81.09 83.55 81.57 83.69 82.03 83.83 82.51 83.9 82.98 83.9 83.46 83.9 83.92 83.9 84.4 83.83 84.88 83.76 85.34 83.69 85.82 83.55 86.29 83.48 86.77 83.48 87.23 83.41 87.71 83.41 88.19 83.41 88.65 83.48 89.13 83.55 89.6 83.69 90.07 83.76 90.54 83.9 91.02 84.04 91.5 84.19 91.96 84.33 92.44 84.47 92.92 84.61 93.38 84.68 93.85 84.75 94.33 84.75 94.81 84.82 95.27 84.82 95.75 84.82 96.23 84.75 96.69 84.75 97.17 84.75 97.64 84.75 98.12 84.75 98.58 84.82 99.06 84.89 99.54 84.89 100 85.04 100.48 85.11 100.95 85.18 101.43 85.32 101.89 85.46 102.37 85.53 102.85 85.67 103.31 85.74 103.79 85.88 104.26 85.95 104.74 86.03 105.2 86.1 105.68 86.17 106.16 86.17 106.62 86.24 107.1 86.24 107.57 86.31 108.04 86.31 108.51 86.31 108.99 86.31 109.47 86.31 109.93 86.31 110.41 86.31 110.89 86.38 111.35 86.38 111.82 86.38 112.3 86.38 112.78 86.38 113.24 86.38 113.72 86.38 114.2 86.38 114.66 86.38 115.14 86.38 115.61 86.38 116.09 86.38 116.55 86.38 117.03 86.38 117.51 86.38 117.97 86.38 118.45 86.38 118.92 86.38 119.4 86.38 119.86 86.38 120.34 86.38 120.82 86.38 121.28 86.38 121.76 86.38 122.23 86.38 122.7 86.38 123.17 86.38 123.65 86.38 124.13 86.38 124.59 86.38 125.07 86.38 125.54 86.38 126.01 86.38 126.48 86.38 126.96 86.38 127.44 86.38 127.9 86.38 128.38 86.38 128.86 86.38 129.32 86.38 129.79 86.38 130.27 86.38 130.75 86.38 131.21 86.38 131.69 86.38 132.17 86.38 132.63 86.38 133.11 86.38 133.58 86.38 134.06 86.38 134.52 86.38 135 86.38 135.48 86.38 135.94 86.38 135.48 86.38 135 86.38 134.52 86.38 134.06 86.38 133.58 86.38 133.11 86.38 132.63 86.38 132.17 86.38 131.69 86.38 131.21 86.38 130.75 86.38 130.27 86.38 129.79 86.38 129.32 86.38 128.86 86.38 128.38 86.38 127.9 86.38 127.44 86.38 126.96 86.38 126.48 86.38 126.01 86.38 125.54 86.38 125.07 86.38 124.59 86.38 124.13 86.38 123.65 86.38 123.17 86.38 122.7 86.38 122.23 86.38 121.76 86.38 121.28 86.38 120.82 86.38 120.34 86.38 119.86 86.38 119.4 86.38 118.92 86.38 118.45 86.38 117.97 86.38 117.51 86.38 117.03 86.38 116.55 86.38 116.09 86.38 115.61 86.38 115.14 86.38 114.66 86.38 114.2 86.38 113.72 86.38 113.24 86.38 112.78 86.38 112.3 86.38 111.82 86.38 111.35 86.38 110.89 86.38 110.41 86.38 109.93 86.38 109.47 86.38 108.99 86.38 108.51 86.38 108.04 86.38 107.57 86.38 107.1 86.38 106.62 86.38 106.16 86.38 105.68 86.38 105.2 86.38 104.74 86.38 104.26 86.38 103.79 86.38 103.31 86.38 102.85 86.38 102.37 86.38 101.89 86.38 101.43 86.38 100.95 86.38 100.48 86.38 100 86.38 99.54 86.38 99.06 86.38 98.58 86.38 98.12 86.38 97.64 86.38 97.17 86.38 96.69 86.38 96.23 86.38 95.75 86.38 95.27 86.38 94.81 86.38 94.33 86.38 93.85 86.38 93.38 86.38 92.92 86.38 92.44 86.38 91.96 86.38 91.5 86.38 91.02 86.38 90.54 86.38 90.07 86.38 89.6 86.38 89.13 86.38 88.65 86.38 88.19 86.38 87.71 86.38 87.23 86.38 86.77 86.38 86.29 86.38 85.82 86.38 85.34 86.38 84.88 86.38 84.4 86.38 83.92 86.38 83.46 86.38 82.98 86.38 82.51 86.38 82.03 86.38 81.57 86.38 81.09 86.38 80.61 86.38 80.15 86.38 79.67 86.38 79.19 86.38 78.72 86.38 78.26 86.38 77.78 86.38 77.3 86.38 76.84 86.38 76.36 86.38 75.88 86.38 75.41 86.38 74.95 86.38 74.47 86.38 73.99 86.38 73.53 86.38 73.05 86.38 72.57 86.38 72.11 86.38 71.63 86.38 71.16 86.38 70.68 86.38 70.22 86.38 69.74 86.38 69.26 86.38 68.8 86.38 68.32 86.38 67.85 86.38 67.37 86.38 66.91 86.38 66.43 86.38 65.95 86.38 65.49 86.38 65.01 86.38 64.54 86.38 64.06 86.38 63.6 86.38 63.12 86.38 62.64 86.38 62.18 86.38 61.7 86.38 61.22 86.38 60.75 86.38 60.29 86.38 59.81 86.38 59.33 86.38 58.87 86.38 58.39 86.38 57.91 86.38 57.45 86.38 56.98 86.38 56.5 86.38 56.02 86.38 55.56 86.38 55.08 86.38 54.6 86.38 54.14 86.38 53.66 86.38 53.19 86.38 52.71 86.38 52.25 86.38 51.77 86.38 51.29 86.38 50.83 86.38 50.35 86.38 49.88 86.38 49.4 86.38 48.94 86.38 48.46 86.38 47.98 86.38 47.52 86.38 47.04 86.38 46.57 86.38 46.09 86.38 45.63 86.38 45.15 86.38 44.67 86.38 44.21 86.38 43.73 86.38 43.25 86.38 42.79 86.38 42.32 86.38 41.84 86.38 41.36 86.38 40.9 86.38 40.42 86.38 39.94 86.38 39.48 86.38 39 86.38 38.53 86.38 38.05 86.38 37.59 86.38 37.11 86.38 36.63 86.38 36.17 86.38 35.69 86.38 35.22 86.38 34.74 86.38 34.28 86.38 33.8 86.38 33.32 86.38 32.86 86.38 32.38 86.38 31.91 86.38 31.43 86.38 30.97 86.38 30.49 86.38 30.01 86.38 29.55 86.38 29.07 86.38 28.6 86.38 28.13 86.38 27.66 86.38 27.18 86.38 26.7 86.38 26.24 86.38 25.76 86.38 25.28 86.38 24.82 86.38 24.35 86.38 23.87 86.38 23.39 86.38 22.93 86.38 22.45 86.38 21.97 86.38 21.51 86.38 21.03 86.38 20.56 86.38 20.08 86.38 19.62 86.38 19.14 86.38 18.66 86.38 18.2 86.38 17.72 86.38 17.25 86.38 16.77 86.38 16.31 86.38 15.83 86.38 15.35 86.38 14.89 86.38 14.41 86.38 13.94 86.38 13.46 86.38 13 86.38 12.52 86.38 12.04 86.38 11.58 86.38 11.1 86.38 10.63 86.38 10.16 86.38 9.69 86.38 9.21 86.38 8.73 86.38 8.27 86.38 7.79 86.38 7.31 86.38 6.85 86.38 6.38 86.38 5.9 86.38 5.42 86.38 4.96 86.38 4.48 86.38 4 86.38 3.54 86.38 3.06 86.38"/>
      <polyline class="f" points="2.82 85.57 4 85.04 4.48 84.89 4.96 84.96 5.42 85.04 5.9 85.18 6.38 85.25 6.85 85.39 7.31 85.53 7.79 85.6 8.27 85.74 8.73 85.81 9.21 85.88 9.69 85.95 10.16 86.03 10.63 86.1 11.1 86.17 11.58 86.17 12.04 86.17 12.52 86.17 13 86.17 13.46 86.17 13.94 86.1 14.41 86.1 14.89 86.03 15.35 85.95 15.83 85.81 16.31 85.74 16.77 85.67 17.25 85.53 17.72 85.39 18.2 85.32 18.66 85.18 19.14 85.11 19.62 85.04 20.08 84.96 20.56 84.89 21.03 84.89 21.51 84.89 21.97 84.89 22.45 84.96 22.93 85.04 23.39 85.11 23.87 85.18 24.35 85.32 24.82 85.39 25.28 85.53 25.76 85.6 26.24 85.74 26.7 85.81 27.18 85.95 27.66 86.03 28.13 86.1 28.6 86.1 29.07 86.17 29.55 86.24 30.01 86.24 30.49 86.31 30.97 86.31 31.43 86.31 31.91 86.31 32.38 86.31 32.86 86.31 33.32 86.31 33.8 86.31 34.28 86.31 34.74 86.31 35.22 86.24 35.69 86.24 36.17 86.17 36.63 86.1 37.11 86.1 37.59 85.95 38.05 85.88 38.53 85.74 39 85.6 39.48 85.46 39.94 85.25 40.42 85.04 40.9 84.82 41.36 84.54 41.84 84.26 42.32 83.97 42.79 83.69 43.25 83.41 43.73 83.12 44.21 82.91 44.67 82.63 45.15 82.42 45.63 82.2 46.09 81.99 46.57 81.85 47.04 81.78 47.52 81.71 47.98 81.64 48.46 81.57 48.94 81.57 49.4 81.57 49.88 81.5 50.35 81.5 50.83 81.5 51.29 81.5 51.77 81.5 52.25 81.5 52.71 81.5 53.19 81.5 53.66 81.5 54.14 81.57 54.6 81.64 55.08 81.71 55.56 81.85 56.02 82.06 56.5 82.28 56.98 82.49 57.45 82.7 57.91 82.91 58.39 83.2 58.87 83.41 59.33 83.62 59.81 83.83 60.29 83.97 60.75 84.12 61.22 84.26 61.7 84.33 62.18 84.33 62.64 84.33 63.12 84.33 63.6 84.26 64.06 84.12 64.54 83.9 65.01 83.69 65.49 83.48 65.95 83.12 66.43 82.7 66.91 82.2 67.37 81.64 67.85 80.93 68.32 80.08 68.8 79.09 69.26 77.96 69.74 76.62 70.22 75.13 70.68 73.5 71.16 71.66 71.63 69.68 72.11 67.56 72.57 65.22 73.05 62.82 73.53 60.27 73.99 57.65 74.47 54.96 74.95 52.13 75.41 49.3 75.88 46.47 76.36 43.64 76.84 40.74 77.3 37.91 77.78 35.15 78.26 32.46 78.72 29.84 79.19 27.3 79.67 24.96 80.15 22.84 80.61 20.86 81.09 19.09 81.57 17.67 82.03 16.47 82.51 15.62 82.98 15.06 83.46 14.77 83.92 14.77 84.4 15.06 84.88 15.62 85.34 16.33 85.82 17.25 86.29 18.38 86.77 19.51 87.23 20.72 87.71 22.06 88.19 23.34 88.65 24.75 89.13 26.09 89.6 27.58 90.07 29.07 90.54 30.62 91.02 32.25 91.5 33.95 91.96 35.72 92.44 37.56 92.92 39.54 93.38 41.45 93.85 43.5 94.33 45.48 94.81 47.53 95.27 49.52 95.75 51.43 96.23 53.27 96.69 55.03 97.17 56.66 97.64 58.22 98.12 59.7 98.58 60.98 99.06 62.18 99.54 62.79 100 63.18 100.57 63.46 101.13 63.61 101.77 63.72 102.05 63.73 102.68 63.56 103.44 63.24 103.7 63.12 104.09 62.9 104.6 62.59 104.95 62.32 105.27 61.93 105.68 61.19 106.16 60.06 106.62 59 107.1 57.86 107.57 56.87 108.04 56.02 108.51 55.32 108.99 54.82 109.47 54.47 109.93 54.47 110.41 54.61 110.89 55.03 111.35 55.67 111.82 56.59 112.3 57.65 112.78 58.86 113.24 60.13 113.72 61.54 114.2 63.03 114.66 64.52 115.14 66 115.61 67.42 116.09 68.9 116.55 70.25 117.03 71.59 117.51 72.87 117.97 74.07 118.45 75.2 118.92 76.26 119.4 77.25 119.86 78.17 120.34 79.02 120.82 79.8 121.28 80.51 121.76 81.14 122.23 81.64 122.7 82.13 123.17 82.56 123.65 82.91 124.13 83.27 124.59 83.55 125.07 83.76 125.54 83.97 126.01 84.19 126.48 84.4 126.96 84.54 127.44 84.68 127.9 84.89 128.38 85.04 128.86 85.18 129.32 85.32 129.94 85.5 129.67 86.38 129.32 86.38 128.86 86.38 128.38 86.38 127.9 86.38 127.44 86.38 126.96 86.38 126.48 86.38 126.01 86.38 125.54 86.38 125.07 86.38 124.59 86.38 124.13 86.38 123.65 86.38 123.17 86.38 122.7 86.38 122.23 86.38 121.76 86.38 121.28 86.38 120.82 86.38 120.34 86.38 119.86 86.38 119.4 86.38 118.92 86.38 118.45 86.38 117.97 86.38 117.51 86.38 117.03 86.38 116.55 86.38 116.09 86.38 115.61 86.38 115.14 86.38 114.66 86.38 114.2 86.38 113.72 86.38 113.24 86.38 112.78 86.38 112.3 86.38 111.82 86.38 111.35 86.38 110.89 86.38 110.41 86.38 109.93 86.38 109.47 86.38 108.99 86.38 108.51 86.38 108.04 86.38 107.57 86.38 107.1 86.38 106.62 86.38 106.16 86.38 105.68 86.38 105.2 86.38 104.74 86.38 104.26 86.38 103.79 86.38 103.31 86.38 102.85 86.38 102.37 86.38 101.89 86.38 101.43 86.38 100.95 86.38 100.48 86.38 100 86.38 99.54 86.38 99.06 86.38 98.58 86.38 98.12 86.38 97.64 86.38 97.17 86.38 96.69 86.38 96.23 86.38 95.75 86.38 95.27 86.38 94.81 86.38 94.33 86.38 93.85 86.38 93.38 86.38 92.92 86.38 92.44 86.38 91.96 86.38 91.5 86.38 91.02 86.38 90.54 86.38 90.07 86.38 89.6 86.38 89.13 86.38 88.65 86.38 88.19 86.38 87.71 86.38 87.23 86.38 86.77 86.38 86.29 86.38 85.82 86.38 85.34 86.38 84.88 86.38 84.4 86.38 83.92 86.38 83.46 86.38 82.98 86.38 82.51 86.38 82.03 86.38 81.57 86.38 81.09 86.38 80.61 86.38 80.15 86.38 79.67 86.38 79.19 86.38 78.72 86.38 78.26 86.38 77.78 86.38 77.3 86.38 76.84 86.38 76.36 86.38 75.88 86.38 75.41 86.38 74.95 86.38 74.47 86.38 73.99 86.38 73.53 86.38 73.05 86.38 72.57 86.38 72.11 86.38 71.63 86.38 71.16 86.38 70.68 86.38 70.22 86.38 69.74 86.38 69.26 86.38 68.8 86.38 68.32 86.38 67.85 86.38 67.37 86.38 66.91 86.38 66.43 86.38 65.95 86.38 65.49 86.38 65.01 86.38 64.54 86.38 64.06 86.38 63.6 86.38 63.12 86.38 62.64 86.38 62.18 86.38 61.7 86.38 61.22 86.38 60.75 86.38 60.29 86.38 59.81 86.38 59.33 86.38 58.87 86.38 58.39 86.38 57.91 86.38 57.45 86.38 56.98 86.38 56.5 86.38 56.02 86.38 55.56 86.38 55.08 86.38 54.6 86.38 54.14 86.38 53.66 86.38 53.19 86.38 52.71 86.38 52.25 86.38 51.77 86.38 51.29 86.38 50.83 86.38 50.35 86.38 49.88 86.38 49.4 86.38 48.94 86.38 48.46 86.38 47.98 86.38 47.52 86.38 47.04 86.38 46.57 86.38 46.09 86.38 45.63 86.38 45.15 86.38 44.67 86.38 44.21 86.38 43.73 86.38 43.25 86.38 42.79 86.38 42.32 86.38 41.84 86.38 41.36 86.38 40.9 86.38 40.42 86.38 39.94 86.38 39.48 86.38 39 86.38 38.53 86.38 38.05 86.38 37.59 86.38 37.11 86.38 36.63 86.38 36.17 86.38 35.69 86.38 35.22 86.38 34.74 86.38 34.28 86.38 33.8 86.38 33.32 86.38 32.86 86.38 32.38 86.38 31.91 86.38 31.43 86.38 30.97 86.38 30.49 86.38 30.01 86.38 29.55 86.38 29.07 86.38 28.6 86.38 28.13 86.38 27.66 86.38 27.18 86.38 26.7 86.38 26.24 86.38 25.76 86.38 25.28 86.38 24.82 86.38 24.35 86.38 23.87 86.38 23.39 86.38 22.93 86.38 22.45 86.38 21.97 86.38 21.51 86.38 21.03 86.38 20.56 86.38 20.08 86.38 19.62 86.38 19.14 86.38 18.66 86.38 18.2 86.38 17.72 86.38 17.25 86.38 16.77 86.38 16.31 86.38 15.83 86.38 15.35 86.38 14.89 86.38 14.41 86.38 13.94 86.38 13.46 86.38 13 86.38 12.52 86.38 12.04 86.38 11.58 86.38 11.1 86.38 10.63 86.38 10.16 86.38 9.69 86.38 9.21 86.38 8.73 86.38 8.27 86.38 7.79 86.38 7.31 86.38 6.85 86.38 6.38 86.38 5.9 86.38 5.42 86.38 4.96 86.38 4.48 86.38 4 86.38 3.54 86.38 3.06 86.38"/>
    </g>
    <g>
      <path class="d" d="M77.85,73.29c0-2.91,2.27-5.07,5.36-5.07s5.36,2.14,5.36,5.07-2.28,5.07-5.36,5.07-5.36-2.16-5.36-5.07ZM86.28,73.29c0-1.86-1.32-3.14-3.07-3.14s-3.07,1.27-3.07,3.14,1.32,3.14,3.07,3.14,3.07-1.28,3.07-3.14Z"/>
      <path class="d" d="M89.67,73.29c0-2.91,2.27-5.07,5.36-5.07s5.37,2.14,5.37,5.07-2.28,5.07-5.37,5.07-5.36-2.16-5.36-5.07ZM98.1,73.29c0-1.86-1.32-3.14-3.07-3.14s-3.07,1.27-3.07,3.14,1.32,3.14,3.07,3.14,3.07-1.28,3.07-3.14Z"/>
      <path class="d" d="M102.1,68.39h4.45c3.21,0,5.41,1.93,5.41,4.9s-2.2,4.9-5.41,4.9h-4.45v-9.81ZM106.44,76.33c1.95,0,3.22-1.16,3.22-3.04s-1.27-3.04-3.22-3.04h-2.07v6.08h2.07Z"/>
    </g>
  </g>
  <g>
    <path class="d" d="M34.31,68.39h2.27v9.81h-2.27v-9.81Z"/>
    <path class="d" d="M38.9,68.39h4.45c3.21,0,5.41,1.93,5.41,4.9s-2.2,4.9-5.41,4.9h-4.45v-9.81ZM43.25,76.33c1.95,0,3.22-1.16,3.22-3.04s-1.27-3.04-3.22-3.04h-2.07v6.08h2.07Z"/>
  </g>
  <g>
    <path class="d" d="M28.88,95.08l-1.76,4.84h-1.35l-1.09-3.01-1.13,3.01h-1.35l-1.75-4.84h1.32l1.14,3.28,1.19-3.28h1.19l1.15,3.28,1.18-3.28h1.24Z"/>
    <path class="d" d="M29.18,97.5c0-1.46,1.13-2.49,2.66-2.49s2.66,1.04,2.66,2.49-1.12,2.49-2.66,2.49-2.66-1.04-2.66-2.49ZM33.08,97.5c0-.84-.53-1.34-1.23-1.34s-1.24.5-1.24,1.34.54,1.34,1.24,1.34,1.23-.5,1.23-1.34Z"/>
    <path class="d" d="M38.44,95.01v1.3c-.12,0-.21-.02-.32-.02-.77,0-1.29.42-1.29,1.35v2.29h-1.4v-4.84h1.34v.64c.34-.47.92-.71,1.67-.71Z"/>
    <path class="d" d="M38.84,99.48l.47-1.01c.43.28,1.09.47,1.68.47.65,0,.89-.17.89-.44,0-.79-2.93.02-2.93-1.92,0-.92.83-1.57,2.24-1.57.67,0,1.4.15,1.86.42l-.47,1c-.48-.27-.95-.36-1.4-.36-.63,0-.9.2-.9.45,0,.83,2.93.03,2.93,1.94,0,.9-.84,1.54-2.29,1.54-.82,0-1.65-.23-2.1-.52Z"/>
    <path class="d" d="M48.81,97.9h-3.66c.13.6.65.97,1.39.97.51,0,.88-.15,1.22-.47l.75.81c-.45.51-1.12.78-2,.78-1.67,0-2.76-1.05-2.76-2.49s1.11-2.49,2.58-2.49,2.52.95,2.52,2.51c0,.11-.02.26-.03.38ZM45.13,97.08h2.39c-.1-.61-.56-1.01-1.19-1.01s-1.1.39-1.2,1.01Z"/>
    <path class="d" d="M55.32,95.01v1.3c-.12,0-.21-.02-.32-.02-.77,0-1.29.42-1.29,1.35v2.29h-1.4v-4.84h1.34v.64c.34-.47.92-.71,1.67-.71Z"/>
    <path class="d" d="M60.91,97.9h-3.66c.13.6.65.97,1.39.97.51,0,.88-.15,1.22-.47l.75.81c-.45.51-1.12.78-2,.78-1.67,0-2.76-1.05-2.76-2.49s1.11-2.49,2.58-2.49,2.52.95,2.52,2.51c0,.11-.02.26-.03.38ZM57.23,97.08h2.39c-.1-.61-.56-1.01-1.19-1.01s-1.1.39-1.2,1.01Z"/>
    <path class="d" d="M61.51,97.5c0-1.46,1.13-2.49,2.7-2.49,1.02,0,1.82.44,2.17,1.23l-1.09.58c-.26-.46-.65-.67-1.09-.67-.71,0-1.27.5-1.27,1.34s.56,1.34,1.27,1.34c.44,0,.83-.2,1.09-.67l1.09.59c-.35.77-1.15,1.22-2.17,1.22-1.58,0-2.7-1.04-2.7-2.49Z"/>
    <path class="d" d="M66.83,97.5c0-1.46,1.13-2.49,2.66-2.49s2.66,1.04,2.66,2.49-1.12,2.49-2.66,2.49-2.66-1.04-2.66-2.49ZM70.73,97.5c0-.84-.53-1.34-1.23-1.34s-1.24.5-1.24,1.34.54,1.34,1.24,1.34,1.23-.5,1.23-1.34Z"/>
    <path class="d" d="M78.04,97.15v2.77h-1.4v-2.56c0-.78-.36-1.14-.98-1.14-.68,0-1.16.41-1.16,1.31v2.39h-1.4v-4.84h1.34v.57c.38-.41.95-.64,1.6-.64,1.14,0,2.01.67,2.01,2.14Z"/>
    <path class="d" d="M78.84,99.48l.47-1.01c.43.28,1.09.47,1.68.47.65,0,.89-.17.89-.44,0-.79-2.93.02-2.93-1.92,0-.92.83-1.57,2.24-1.57.67,0,1.4.15,1.86.42l-.47,1c-.48-.27-.95-.36-1.4-.36-.63,0-.9.2-.9.45,0,.83,2.93.03,2.93,1.94,0,.9-.84,1.54-2.29,1.54-.82,0-1.65-.23-2.1-.52Z"/>
    <path class="d" d="M87.21,99.69c-.29.21-.71.31-1.14.31-1.14,0-1.81-.58-1.81-1.74v-1.99h-.75v-1.08h.75v-1.18h1.4v1.18h1.21v1.08h-1.21v1.97c0,.41.23.64.6.64.21,0,.41-.06.57-.18l.38.99Z"/>
    <path class="d" d="M92.88,95.08v4.84h-1.33v-.58c-.37.42-.91.65-1.5.65-1.22,0-2.07-.68-2.07-2.18v-2.74h1.4v2.53c0,.81.36,1.17.98,1.17s1.12-.41,1.12-1.31v-2.39h1.4Z"/>
    <path class="d" d="M93.82,97.5c0-1.46,1.13-2.49,2.7-2.49,1.02,0,1.82.44,2.17,1.23l-1.09.58c-.26-.46-.65-.67-1.09-.67-.71,0-1.27.5-1.27,1.34s.56,1.34,1.27,1.34c.44,0,.83-.2,1.09-.67l1.09.59c-.35.77-1.15,1.22-2.17,1.22-1.58,0-2.7-1.04-2.7-2.49Z"/>
    <path class="d" d="M102.63,99.69c-.29.21-.71.31-1.14.31-1.14,0-1.81-.58-1.81-1.74v-1.99h-.75v-1.08h.75v-1.18h1.4v1.18h1.21v1.08h-1.21v1.97c0,.41.23.64.6.64.21,0,.41-.06.57-.18l.38.99Z"/>
    <path class="d" d="M103.25,93.62c0-.44.35-.78.87-.78s.87.32.87.76c0,.47-.35.81-.87.81s-.87-.34-.87-.78ZM103.42,95.08h1.4v4.84h-1.4v-4.84Z"/>
    <path class="d" d="M105.77,97.5c0-1.46,1.13-2.49,2.67-2.49s2.66,1.04,2.66,2.49-1.12,2.49-2.66,2.49-2.67-1.04-2.67-2.49ZM109.66,97.5c0-.84-.53-1.34-1.23-1.34s-1.24.5-1.24,1.34.54,1.34,1.24,1.34,1.23-.5,1.23-1.34Z"/>
    <path class="d" d="M116.97,97.15v2.77h-1.4v-2.56c0-.78-.36-1.14-.98-1.14-.68,0-1.16.41-1.16,1.31v2.39h-1.4v-4.84h1.34v.57c.38-.41.95-.64,1.6-.64,1.14,0,2.01.67,2.01,2.14Z"/>
  </g>
  <g>
    <line class="i" x1="49.02" y1="108.47" x2="80.31" y2="108.47"/>
    <polygon class="d" points="76.37 113.66 78.58 108.47 76.37 103.29 88.66 108.47 76.37 113.66"/>
  </g>
  <circle class="h" cx="32.58" cy="111.45" r=".72"/>
  <circle class="b" cx="81.46" cy="78.67" r=".25"/>
  <path class="d" d="M127.6,75.27c-.14,0-.25-.11-.25-.25s.11-.25.25-.25.25.11.25.25-.11.25-.25.25"/>
  <path class="d" d="M73.22,126.17c-.14,0-.25-.11-.25-.25s.11-.25.25-.25.25.11.25.25-.11.25-.25.25"/>
  <path class="d" d="M17.23,44.25c-.14,0-.25-.11-.25-.25s.11-.25.25-.25.25.11.25.25-.11.25-.25.25"/>
  <path class="d" d="M63.25,51.52c-.14,0-.25-.11-.25-.25s.11-.25.25-.25.25.11.25.25-.11.25-.25.25"/>
  <path class="d" d="M92.63,16.99c-.14,0-.25-.11-.25-.25s.11-.25.25-.25.25.11.25.25-.11.25-.25.25"/>
  <path class="d" d="M93.13,19.04c-.14,0-.25-.11-.25-.25s.11-.25.25-.25.25.11.25.25-.11.25-.25.25"/>
  <path class="d" d="M68.59,115.89c-.14,0-.25-.11-.25-.25s.11-.25.25-.25.25.11.25.25-.11.25-.25.25"/>
  <circle class="b" cx="19.36" cy="37.36" r=".25"/>
  <circle class="b" cx="15.53" cy="40.95" r=".25"/>
  <circle class="b" cx="57.36" cy="6.15" r=".25"/>
  <circle class="c" cx="12.76" cy="40.43" r=".5"/>
  <circle class="h" cx="96.56" cy="114.67" r=".72"/>
  <circle class="h" cx="9.61" cy="71.13" r=".72"/>
  <circle class="h" cx="66.08" cy="29.86" r=".72"/>
  <circle class="d" cx="101.95" cy="51.27" r=".25"/>
  <circle class="c" cx="111.95" cy="33.95" r=".5"/>
  <circle class="b" cx="120.59" cy="102" r=".25"/>
  <path class="d" d="M44,121.77c-.14,0-.25-.11-.25-.25s.11-.25.25-.25.25.11.25.25-.11.25-.25.25"/>
</svg>